G04 EAGLE Gerber RS-274X export*
G75*
%MOMM*%
%FSLAX34Y34*%
%LPD*%
%INTop Copper*%
%IPPOS*%
%AMOC8*
5,1,8,0,0,1.08239X$1,22.5*%
G01*
%ADD10C,0.228600*%
%ADD11R,1.300000X1.500000*%
%ADD12C,2.000000*%
%ADD13R,1.500000X1.300000*%
%ADD14R,2.286000X0.609600*%
%ADD15C,0.304800*%
%ADD16C,0.800000*%
%ADD17C,0.800000*%
%ADD18C,0.508000*%

G36*
X157971Y3816D02*
X157971Y3816D01*
X158048Y3815D01*
X159885Y3960D01*
X159941Y3971D01*
X159998Y3973D01*
X160208Y4023D01*
X160227Y4027D01*
X160230Y4028D01*
X160236Y4030D01*
X163728Y5165D01*
X163834Y5213D01*
X163944Y5253D01*
X164008Y5292D01*
X164045Y5309D01*
X164080Y5337D01*
X164153Y5381D01*
X167124Y7539D01*
X167210Y7618D01*
X167301Y7691D01*
X167350Y7747D01*
X167380Y7775D01*
X167405Y7812D01*
X167461Y7876D01*
X169619Y10847D01*
X169677Y10949D01*
X169741Y11046D01*
X169770Y11115D01*
X169790Y11151D01*
X169803Y11194D01*
X169835Y11272D01*
X170970Y14764D01*
X170982Y14820D01*
X171001Y14874D01*
X171036Y15088D01*
X171039Y15106D01*
X171039Y15110D01*
X171040Y15115D01*
X171185Y16952D01*
X171183Y16994D01*
X171189Y17071D01*
X171189Y49608D01*
X171178Y49708D01*
X171176Y49808D01*
X171158Y49880D01*
X171149Y49954D01*
X171116Y50049D01*
X171091Y50146D01*
X171057Y50212D01*
X171032Y50282D01*
X170977Y50367D01*
X170931Y50456D01*
X170883Y50513D01*
X170843Y50575D01*
X170771Y50645D01*
X170706Y50722D01*
X170646Y50766D01*
X170592Y50817D01*
X170506Y50869D01*
X170425Y50929D01*
X170357Y50958D01*
X170293Y50996D01*
X170198Y51027D01*
X170105Y51067D01*
X170032Y51080D01*
X169961Y51103D01*
X169861Y51111D01*
X169762Y51128D01*
X169688Y51125D01*
X169614Y51131D01*
X169515Y51116D01*
X169414Y51110D01*
X169343Y51090D01*
X169269Y51079D01*
X169176Y51042D01*
X169079Y51014D01*
X169014Y50978D01*
X168945Y50950D01*
X168863Y50893D01*
X168775Y50844D01*
X168699Y50779D01*
X168659Y50751D01*
X168635Y50725D01*
X168589Y50685D01*
X167951Y50048D01*
X163666Y45762D01*
X161489Y44860D01*
X161422Y44823D01*
X161351Y44795D01*
X161270Y44739D01*
X161184Y44691D01*
X161128Y44640D01*
X161065Y44596D01*
X160999Y44523D01*
X160926Y44457D01*
X160883Y44394D01*
X160832Y44337D01*
X160784Y44251D01*
X160728Y44170D01*
X160700Y44099D01*
X160663Y44032D01*
X160636Y43938D01*
X160600Y43846D01*
X160589Y43771D01*
X160568Y43697D01*
X160556Y43548D01*
X160549Y43501D01*
X160551Y43482D01*
X160549Y43453D01*
X160549Y42737D01*
X158763Y40951D01*
X146406Y40951D01*
X146356Y40946D01*
X146306Y40948D01*
X146184Y40926D01*
X146060Y40911D01*
X146012Y40894D01*
X145963Y40885D01*
X145849Y40836D01*
X145732Y40794D01*
X145690Y40767D01*
X145643Y40747D01*
X145543Y40672D01*
X145439Y40605D01*
X145404Y40569D01*
X145364Y40539D01*
X145283Y40444D01*
X145197Y40354D01*
X145171Y40311D01*
X145138Y40273D01*
X145082Y40162D01*
X145018Y40055D01*
X145003Y40007D01*
X144980Y39962D01*
X144950Y39842D01*
X144912Y39723D01*
X144908Y39673D01*
X144896Y39624D01*
X144894Y39500D01*
X144884Y39376D01*
X144891Y39326D01*
X144891Y39276D01*
X144917Y39154D01*
X144935Y39031D01*
X144954Y38984D01*
X144965Y38935D01*
X145018Y38823D01*
X145064Y38707D01*
X145093Y38666D01*
X145115Y38620D01*
X145192Y38523D01*
X145263Y38421D01*
X145300Y38387D01*
X145332Y38348D01*
X145430Y38271D01*
X145522Y38188D01*
X145566Y38163D01*
X145606Y38132D01*
X145823Y38021D01*
X147743Y37226D01*
X151474Y33495D01*
X151573Y33416D01*
X151666Y33332D01*
X151709Y33308D01*
X151747Y33278D01*
X151861Y33224D01*
X151971Y33163D01*
X152018Y33150D01*
X152062Y33129D01*
X152185Y33103D01*
X152307Y33068D01*
X152368Y33063D01*
X152402Y33056D01*
X152450Y33057D01*
X152551Y33049D01*
X157596Y33049D01*
X162392Y31062D01*
X166062Y27392D01*
X168049Y22596D01*
X168049Y17404D01*
X166062Y12608D01*
X162392Y8938D01*
X157596Y6951D01*
X152404Y6951D01*
X147608Y8938D01*
X143938Y12608D01*
X141951Y17404D01*
X141951Y22449D01*
X141937Y22575D01*
X141930Y22701D01*
X141917Y22748D01*
X141911Y22796D01*
X141869Y22914D01*
X141834Y23036D01*
X141810Y23078D01*
X141794Y23124D01*
X141725Y23230D01*
X141664Y23340D01*
X141624Y23387D01*
X141605Y23416D01*
X141570Y23450D01*
X141505Y23526D01*
X140361Y24670D01*
X140322Y24702D01*
X140288Y24739D01*
X140186Y24809D01*
X140088Y24887D01*
X140043Y24908D01*
X140001Y24937D01*
X139886Y24983D01*
X139773Y25036D01*
X139724Y25046D01*
X139677Y25065D01*
X139554Y25083D01*
X139433Y25109D01*
X139382Y25108D01*
X139332Y25116D01*
X139208Y25105D01*
X139084Y25103D01*
X139035Y25091D01*
X138985Y25087D01*
X138867Y25048D01*
X138746Y25018D01*
X138701Y24995D01*
X138653Y24980D01*
X138547Y24915D01*
X138436Y24859D01*
X138398Y24826D01*
X138355Y24800D01*
X138266Y24713D01*
X138171Y24633D01*
X138141Y24592D01*
X138105Y24557D01*
X138038Y24452D01*
X137964Y24352D01*
X137944Y24306D01*
X137917Y24264D01*
X137875Y24147D01*
X137826Y24032D01*
X137817Y23983D01*
X137800Y23935D01*
X137786Y23812D01*
X137764Y23689D01*
X137767Y23639D01*
X137761Y23589D01*
X137776Y23466D01*
X137782Y23341D01*
X137796Y23293D01*
X137802Y23243D01*
X137877Y23010D01*
X138049Y22596D01*
X138049Y17404D01*
X136062Y12608D01*
X132392Y8938D01*
X127596Y6951D01*
X122404Y6951D01*
X117608Y8938D01*
X113938Y12608D01*
X111951Y17404D01*
X111951Y22596D01*
X113938Y27392D01*
X117608Y31062D01*
X119487Y31840D01*
X119554Y31877D01*
X119625Y31906D01*
X119706Y31962D01*
X119792Y32010D01*
X119848Y32061D01*
X119911Y32105D01*
X119977Y32178D01*
X120050Y32244D01*
X120093Y32307D01*
X120144Y32363D01*
X120192Y32449D01*
X120248Y32530D01*
X120276Y32601D01*
X120313Y32668D01*
X120340Y32763D01*
X120376Y32855D01*
X120387Y32930D01*
X120408Y33004D01*
X120420Y33153D01*
X120427Y33199D01*
X120425Y33218D01*
X120427Y33248D01*
X120427Y34660D01*
X121123Y36340D01*
X122624Y37841D01*
X127986Y43203D01*
X128048Y43281D01*
X128118Y43354D01*
X128157Y43418D01*
X128203Y43476D01*
X128246Y43567D01*
X128297Y43653D01*
X128320Y43724D01*
X128352Y43791D01*
X128373Y43889D01*
X128403Y43985D01*
X128409Y44059D01*
X128425Y44132D01*
X128423Y44232D01*
X128431Y44332D01*
X128420Y44406D01*
X128419Y44480D01*
X128395Y44577D01*
X128380Y44677D01*
X128352Y44746D01*
X128334Y44818D01*
X128288Y44908D01*
X128251Y45001D01*
X128209Y45062D01*
X128174Y45128D01*
X128109Y45205D01*
X128052Y45287D01*
X127997Y45337D01*
X127949Y45393D01*
X127868Y45453D01*
X127793Y45520D01*
X127728Y45556D01*
X127668Y45601D01*
X127576Y45640D01*
X127488Y45689D01*
X127417Y45709D01*
X127348Y45739D01*
X127250Y45756D01*
X127153Y45784D01*
X127053Y45792D01*
X127005Y45800D01*
X126970Y45798D01*
X126909Y45803D01*
X106437Y45803D01*
X105916Y46325D01*
X105836Y46388D01*
X105763Y46458D01*
X105700Y46496D01*
X105643Y46541D01*
X105551Y46585D01*
X105464Y46637D01*
X105394Y46659D01*
X105328Y46690D01*
X105229Y46712D01*
X105132Y46742D01*
X105059Y46748D01*
X104987Y46764D01*
X104886Y46762D01*
X104785Y46770D01*
X104712Y46759D01*
X104638Y46758D01*
X104540Y46733D01*
X104440Y46718D01*
X104347Y46684D01*
X104300Y46673D01*
X104268Y46656D01*
X104210Y46635D01*
X103080Y46123D01*
X102950Y46045D01*
X102817Y45971D01*
X102796Y45953D01*
X102781Y45944D01*
X102774Y45937D01*
X101578Y45442D01*
X101561Y45432D01*
X101532Y45422D01*
X100928Y45148D01*
X100765Y45074D01*
X100733Y45071D01*
X100707Y45062D01*
X100689Y45060D01*
X100646Y45042D01*
X100500Y44996D01*
X100152Y44851D01*
X97348Y44851D01*
X94757Y45924D01*
X92774Y47907D01*
X91701Y50498D01*
X91701Y53302D01*
X92774Y55893D01*
X94757Y57876D01*
X97348Y58949D01*
X100152Y58949D01*
X100500Y58804D01*
X100646Y58763D01*
X100769Y58724D01*
X101532Y58378D01*
X101550Y58372D01*
X101577Y58358D01*
X102797Y57853D01*
X102865Y57796D01*
X102890Y57782D01*
X102904Y57771D01*
X102946Y57751D01*
X103079Y57677D01*
X103104Y57666D01*
X103173Y57644D01*
X103219Y57622D01*
X103221Y57621D01*
X103244Y57610D01*
X103341Y57589D01*
X103436Y57559D01*
X103511Y57553D01*
X103585Y57537D01*
X103684Y57539D01*
X103783Y57531D01*
X103858Y57542D01*
X103933Y57543D01*
X104030Y57567D01*
X104128Y57582D01*
X104198Y57610D01*
X104271Y57628D01*
X104360Y57674D01*
X104452Y57710D01*
X104514Y57753D01*
X104581Y57788D01*
X104657Y57852D01*
X104738Y57908D01*
X104789Y57964D01*
X104847Y58013D01*
X104906Y58093D01*
X104972Y58167D01*
X105009Y58233D01*
X105054Y58294D01*
X105093Y58385D01*
X105141Y58472D01*
X105162Y58544D01*
X105192Y58614D01*
X105209Y58712D01*
X105236Y58807D01*
X105240Y58882D01*
X105253Y58957D01*
X105248Y59056D01*
X105253Y59155D01*
X105239Y59229D01*
X105235Y59305D01*
X105208Y59400D01*
X105190Y59498D01*
X105160Y59567D01*
X105139Y59640D01*
X105091Y59726D01*
X105051Y59817D01*
X105006Y59878D01*
X104969Y59944D01*
X104871Y60059D01*
X104843Y60097D01*
X104828Y60109D01*
X104810Y60130D01*
X104651Y60289D01*
X104651Y68911D01*
X105613Y69873D01*
X105630Y69893D01*
X105650Y69910D01*
X105738Y70030D01*
X105830Y70146D01*
X105841Y70170D01*
X105857Y70191D01*
X105916Y70327D01*
X105979Y70461D01*
X105984Y70487D01*
X105995Y70511D01*
X106021Y70657D01*
X106052Y70802D01*
X106052Y70828D01*
X106056Y70854D01*
X106049Y71002D01*
X106046Y71150D01*
X106040Y71176D01*
X106039Y71202D01*
X105997Y71344D01*
X105961Y71488D01*
X105949Y71511D01*
X105942Y71537D01*
X105869Y71666D01*
X105802Y71798D01*
X105785Y71818D01*
X105772Y71841D01*
X105613Y72027D01*
X104651Y72989D01*
X104651Y81611D01*
X104810Y81770D01*
X104857Y81828D01*
X104910Y81880D01*
X104965Y81964D01*
X105027Y82043D01*
X105059Y82110D01*
X105099Y82173D01*
X105133Y82267D01*
X105176Y82358D01*
X105192Y82431D01*
X105217Y82501D01*
X105228Y82601D01*
X105249Y82699D01*
X105248Y82773D01*
X105256Y82848D01*
X105245Y82947D01*
X105243Y83047D01*
X105225Y83120D01*
X105216Y83194D01*
X105183Y83288D01*
X105158Y83385D01*
X105124Y83452D01*
X105099Y83522D01*
X105044Y83606D01*
X104999Y83695D01*
X104950Y83752D01*
X104909Y83815D01*
X104838Y83884D01*
X104773Y83960D01*
X104713Y84005D01*
X104659Y84057D01*
X104573Y84108D01*
X104492Y84167D01*
X104424Y84197D01*
X104360Y84235D01*
X104264Y84266D01*
X104172Y84305D01*
X104099Y84319D01*
X104028Y84341D01*
X103928Y84349D01*
X103829Y84367D01*
X103755Y84363D01*
X103680Y84369D01*
X103581Y84354D01*
X103481Y84349D01*
X103409Y84328D01*
X103336Y84317D01*
X103191Y84265D01*
X103147Y84253D01*
X103131Y84244D01*
X103121Y84241D01*
X103117Y84239D01*
X103105Y84235D01*
X103080Y84223D01*
X102950Y84145D01*
X102817Y84071D01*
X102797Y84054D01*
X102781Y84044D01*
X102774Y84037D01*
X101578Y83542D01*
X101561Y83532D01*
X101532Y83522D01*
X100928Y83248D01*
X100765Y83174D01*
X100733Y83171D01*
X100707Y83162D01*
X100689Y83160D01*
X100646Y83142D01*
X100500Y83096D01*
X100152Y82951D01*
X97348Y82951D01*
X94757Y84024D01*
X92774Y86007D01*
X91701Y88598D01*
X91701Y91402D01*
X92774Y93993D01*
X94309Y95527D01*
X94371Y95606D01*
X94441Y95678D01*
X94479Y95742D01*
X94525Y95800D01*
X94568Y95891D01*
X94620Y95977D01*
X94642Y96048D01*
X94674Y96115D01*
X94695Y96213D01*
X94726Y96309D01*
X94732Y96383D01*
X94747Y96456D01*
X94746Y96556D01*
X94754Y96656D01*
X94743Y96730D01*
X94741Y96804D01*
X94717Y96901D01*
X94702Y97001D01*
X94675Y97070D01*
X94656Y97142D01*
X94610Y97231D01*
X94573Y97325D01*
X94531Y97386D01*
X94497Y97452D01*
X94432Y97528D01*
X94374Y97611D01*
X94319Y97661D01*
X94271Y97717D01*
X94190Y97777D01*
X94116Y97844D01*
X94051Y97880D01*
X93991Y97925D01*
X93898Y97964D01*
X93811Y98013D01*
X93739Y98033D01*
X93671Y98063D01*
X93572Y98080D01*
X93475Y98108D01*
X93375Y98116D01*
X93328Y98124D01*
X93292Y98122D01*
X93231Y98127D01*
X85718Y98127D01*
X85592Y98113D01*
X85466Y98106D01*
X85420Y98093D01*
X85372Y98087D01*
X85253Y98045D01*
X85131Y98010D01*
X85089Y97986D01*
X85043Y97970D01*
X84937Y97901D01*
X84827Y97840D01*
X84781Y97800D01*
X84751Y97781D01*
X84717Y97746D01*
X84641Y97681D01*
X84387Y97427D01*
X84370Y97407D01*
X84350Y97390D01*
X84262Y97270D01*
X84170Y97154D01*
X84159Y97130D01*
X84143Y97109D01*
X84084Y96973D01*
X84021Y96839D01*
X84016Y96813D01*
X84005Y96789D01*
X83979Y96643D01*
X83948Y96498D01*
X83948Y96472D01*
X83944Y96446D01*
X83951Y96298D01*
X83954Y96150D01*
X83960Y96124D01*
X83961Y96098D01*
X84003Y95956D01*
X84039Y95812D01*
X84051Y95789D01*
X84058Y95763D01*
X84130Y95634D01*
X84198Y95502D01*
X84215Y95482D01*
X84228Y95459D01*
X84387Y95273D01*
X84740Y94920D01*
X85141Y94225D01*
X85349Y93449D01*
X85349Y91523D01*
X70870Y91523D01*
X56391Y91523D01*
X56391Y93449D01*
X56599Y94225D01*
X57000Y94920D01*
X57353Y95273D01*
X57370Y95293D01*
X57390Y95310D01*
X57478Y95430D01*
X57570Y95546D01*
X57581Y95570D01*
X57597Y95591D01*
X57656Y95727D01*
X57719Y95861D01*
X57724Y95887D01*
X57735Y95911D01*
X57761Y96057D01*
X57792Y96202D01*
X57792Y96228D01*
X57796Y96254D01*
X57789Y96402D01*
X57786Y96550D01*
X57780Y96576D01*
X57779Y96602D01*
X57737Y96744D01*
X57701Y96888D01*
X57689Y96911D01*
X57682Y96937D01*
X57610Y97066D01*
X57542Y97198D01*
X57525Y97218D01*
X57512Y97241D01*
X57353Y97427D01*
X56391Y98389D01*
X56391Y107011D01*
X57353Y107973D01*
X57370Y107993D01*
X57390Y108010D01*
X57478Y108130D01*
X57570Y108246D01*
X57581Y108270D01*
X57597Y108291D01*
X57656Y108427D01*
X57719Y108561D01*
X57724Y108587D01*
X57735Y108611D01*
X57761Y108757D01*
X57792Y108902D01*
X57792Y108928D01*
X57796Y108954D01*
X57789Y109102D01*
X57786Y109250D01*
X57780Y109276D01*
X57779Y109302D01*
X57737Y109444D01*
X57701Y109588D01*
X57689Y109611D01*
X57682Y109637D01*
X57609Y109766D01*
X57542Y109898D01*
X57525Y109918D01*
X57512Y109941D01*
X57353Y110127D01*
X57113Y110367D01*
X57034Y110430D01*
X56961Y110500D01*
X56898Y110538D01*
X56840Y110584D01*
X56749Y110627D01*
X56662Y110679D01*
X56592Y110701D01*
X56525Y110733D01*
X56426Y110754D01*
X56330Y110785D01*
X56256Y110791D01*
X56184Y110806D01*
X56083Y110804D01*
X55982Y110813D01*
X55909Y110801D01*
X55836Y110800D01*
X55738Y110776D01*
X55638Y110760D01*
X55544Y110727D01*
X55498Y110715D01*
X55466Y110699D01*
X55407Y110678D01*
X53080Y109623D01*
X52950Y109545D01*
X52817Y109471D01*
X52796Y109453D01*
X52781Y109444D01*
X52774Y109437D01*
X51578Y108942D01*
X51560Y108932D01*
X51532Y108922D01*
X50928Y108648D01*
X50765Y108574D01*
X50733Y108571D01*
X50707Y108562D01*
X50689Y108560D01*
X50646Y108543D01*
X50500Y108496D01*
X50152Y108351D01*
X47348Y108351D01*
X44757Y109424D01*
X42774Y111407D01*
X41701Y113998D01*
X41701Y116802D01*
X42774Y119393D01*
X44797Y121415D01*
X44829Y121440D01*
X44894Y121476D01*
X44969Y121543D01*
X45049Y121603D01*
X45098Y121660D01*
X45153Y121710D01*
X45210Y121792D01*
X45275Y121869D01*
X45309Y121935D01*
X45351Y121996D01*
X45388Y122090D01*
X45433Y122179D01*
X45451Y122252D01*
X45479Y122321D01*
X45493Y122420D01*
X45517Y122518D01*
X45519Y122592D01*
X45529Y122665D01*
X45521Y122766D01*
X45523Y122866D01*
X45507Y122939D01*
X45501Y123013D01*
X45470Y123108D01*
X45448Y123206D01*
X45416Y123274D01*
X45393Y123344D01*
X45342Y123430D01*
X45298Y123521D01*
X45252Y123579D01*
X45214Y123643D01*
X45144Y123715D01*
X45081Y123794D01*
X45023Y123840D01*
X44971Y123893D01*
X44886Y123947D01*
X44808Y124009D01*
X44718Y124055D01*
X44678Y124081D01*
X44644Y124093D01*
X44590Y124121D01*
X44342Y124223D01*
X31123Y137442D01*
X30427Y139123D01*
X30427Y162475D01*
X30413Y162601D01*
X30406Y162727D01*
X30393Y162773D01*
X30387Y162821D01*
X30345Y162940D01*
X30310Y163062D01*
X30286Y163104D01*
X30270Y163149D01*
X30201Y163256D01*
X30140Y163366D01*
X30100Y163412D01*
X30081Y163442D01*
X30046Y163476D01*
X29981Y163552D01*
X26134Y167399D01*
X26074Y167447D01*
X26021Y167501D01*
X25938Y167555D01*
X25861Y167616D01*
X25792Y167648D01*
X25728Y167690D01*
X25635Y167723D01*
X25546Y167765D01*
X25471Y167781D01*
X25399Y167806D01*
X25301Y167817D01*
X25205Y167838D01*
X25129Y167837D01*
X25053Y167845D01*
X24955Y167834D01*
X24857Y167832D01*
X24783Y167813D01*
X24707Y167805D01*
X24564Y167759D01*
X24519Y167747D01*
X24502Y167738D01*
X24474Y167729D01*
X22596Y166951D01*
X17404Y166951D01*
X12608Y168938D01*
X8938Y172608D01*
X6951Y177404D01*
X6951Y182596D01*
X8938Y187392D01*
X12608Y191062D01*
X17404Y193049D01*
X22596Y193049D01*
X27392Y191062D01*
X31062Y187392D01*
X33049Y182596D01*
X33049Y177404D01*
X32271Y175526D01*
X32250Y175452D01*
X32219Y175382D01*
X32202Y175286D01*
X32175Y175191D01*
X32171Y175115D01*
X32158Y175039D01*
X32163Y174941D01*
X32158Y174843D01*
X32172Y174768D01*
X32176Y174691D01*
X32203Y174597D01*
X32221Y174500D01*
X32251Y174430D01*
X32272Y174356D01*
X32320Y174271D01*
X32359Y174180D01*
X32405Y174119D01*
X32442Y174052D01*
X32539Y173939D01*
X32567Y173901D01*
X32582Y173888D01*
X32601Y173866D01*
X38877Y167590D01*
X39573Y165910D01*
X39573Y142558D01*
X39587Y142432D01*
X39594Y142306D01*
X39607Y142259D01*
X39613Y142211D01*
X39655Y142092D01*
X39690Y141971D01*
X39714Y141929D01*
X39730Y141883D01*
X39799Y141777D01*
X39860Y141667D01*
X39900Y141620D01*
X39919Y141590D01*
X39954Y141557D01*
X40019Y141481D01*
X48381Y133119D01*
X48480Y133040D01*
X48573Y132956D01*
X48616Y132932D01*
X48654Y132902D01*
X48768Y132848D01*
X48878Y132787D01*
X48925Y132774D01*
X48969Y132753D01*
X49092Y132727D01*
X49214Y132692D01*
X49275Y132687D01*
X49309Y132680D01*
X49357Y132681D01*
X49458Y132673D01*
X56022Y132673D01*
X56148Y132687D01*
X56274Y132694D01*
X56320Y132707D01*
X56368Y132713D01*
X56487Y132755D01*
X56609Y132790D01*
X56651Y132814D01*
X56697Y132830D01*
X56803Y132899D01*
X56913Y132960D01*
X56959Y133000D01*
X56989Y133019D01*
X57023Y133054D01*
X57099Y133119D01*
X58177Y134197D01*
X83563Y134197D01*
X84278Y133481D01*
X84298Y133466D01*
X84314Y133447D01*
X84433Y133358D01*
X84551Y133265D01*
X84574Y133254D01*
X84594Y133239D01*
X84731Y133180D01*
X84866Y133116D01*
X84891Y133111D01*
X84914Y133101D01*
X85061Y133074D01*
X85207Y133043D01*
X85232Y133043D01*
X85257Y133038D01*
X85406Y133046D01*
X85555Y133048D01*
X85580Y133055D01*
X85605Y133056D01*
X85842Y133115D01*
X88724Y134087D01*
X88758Y134103D01*
X88820Y134123D01*
X89848Y134549D01*
X92652Y134549D01*
X95243Y133476D01*
X97226Y131493D01*
X98299Y128902D01*
X98299Y126098D01*
X97226Y123507D01*
X96246Y122527D01*
X96229Y122507D01*
X96209Y122490D01*
X96121Y122370D01*
X96029Y122254D01*
X96018Y122230D01*
X96002Y122209D01*
X95943Y122073D01*
X95880Y121939D01*
X95874Y121913D01*
X95864Y121889D01*
X95838Y121743D01*
X95807Y121598D01*
X95807Y121572D01*
X95802Y121546D01*
X95810Y121398D01*
X95813Y121250D01*
X95819Y121224D01*
X95820Y121198D01*
X95861Y121056D01*
X95898Y120912D01*
X95910Y120889D01*
X95917Y120863D01*
X95989Y120734D01*
X96057Y120602D01*
X96074Y120582D01*
X96087Y120559D01*
X96246Y120373D01*
X97226Y119393D01*
X98299Y116802D01*
X98299Y113998D01*
X97226Y111407D01*
X95691Y109873D01*
X95629Y109794D01*
X95559Y109722D01*
X95521Y109658D01*
X95475Y109600D01*
X95432Y109509D01*
X95380Y109423D01*
X95358Y109352D01*
X95326Y109285D01*
X95305Y109187D01*
X95274Y109091D01*
X95268Y109017D01*
X95253Y108944D01*
X95254Y108844D01*
X95246Y108744D01*
X95257Y108670D01*
X95259Y108596D01*
X95283Y108499D01*
X95298Y108399D01*
X95325Y108330D01*
X95344Y108258D01*
X95390Y108169D01*
X95427Y108075D01*
X95469Y108014D01*
X95503Y107948D01*
X95568Y107872D01*
X95626Y107789D01*
X95681Y107739D01*
X95729Y107683D01*
X95810Y107623D01*
X95884Y107556D01*
X95949Y107520D01*
X96009Y107475D01*
X96102Y107436D01*
X96189Y107387D01*
X96261Y107367D01*
X96329Y107337D01*
X96428Y107320D01*
X96525Y107292D01*
X96625Y107284D01*
X96672Y107276D01*
X96708Y107278D01*
X96769Y107273D01*
X104282Y107273D01*
X104408Y107287D01*
X104534Y107294D01*
X104580Y107307D01*
X104628Y107313D01*
X104747Y107355D01*
X104869Y107390D01*
X104911Y107414D01*
X104957Y107430D01*
X105063Y107499D01*
X105173Y107560D01*
X105219Y107600D01*
X105249Y107619D01*
X105283Y107654D01*
X105359Y107719D01*
X105613Y107973D01*
X105630Y107993D01*
X105650Y108010D01*
X105738Y108130D01*
X105830Y108246D01*
X105841Y108270D01*
X105857Y108291D01*
X105915Y108427D01*
X105979Y108561D01*
X105984Y108587D01*
X105995Y108611D01*
X106021Y108757D01*
X106052Y108902D01*
X106052Y108928D01*
X106056Y108954D01*
X106049Y109102D01*
X106046Y109250D01*
X106040Y109276D01*
X106039Y109302D01*
X105998Y109444D01*
X105961Y109588D01*
X105949Y109611D01*
X105942Y109637D01*
X105870Y109766D01*
X105802Y109898D01*
X105785Y109918D01*
X105772Y109941D01*
X105613Y110127D01*
X104651Y111089D01*
X104651Y119711D01*
X105613Y120673D01*
X105630Y120693D01*
X105650Y120710D01*
X105738Y120830D01*
X105830Y120946D01*
X105841Y120970D01*
X105857Y120991D01*
X105916Y121127D01*
X105979Y121261D01*
X105984Y121287D01*
X105995Y121311D01*
X106021Y121457D01*
X106052Y121602D01*
X106052Y121628D01*
X106056Y121654D01*
X106049Y121802D01*
X106046Y121950D01*
X106040Y121976D01*
X106039Y122002D01*
X105997Y122144D01*
X105961Y122288D01*
X105949Y122311D01*
X105942Y122337D01*
X105869Y122466D01*
X105802Y122598D01*
X105785Y122618D01*
X105772Y122641D01*
X105613Y122827D01*
X104651Y123789D01*
X104651Y132411D01*
X106437Y134197D01*
X112018Y134197D01*
X112044Y134200D01*
X112070Y134198D01*
X112217Y134220D01*
X112364Y134237D01*
X112389Y134245D01*
X112415Y134249D01*
X112553Y134304D01*
X112692Y134354D01*
X112714Y134368D01*
X112739Y134378D01*
X112860Y134463D01*
X112985Y134543D01*
X113003Y134562D01*
X113025Y134577D01*
X113124Y134687D01*
X113227Y134794D01*
X113241Y134816D01*
X113258Y134836D01*
X113330Y134966D01*
X113406Y135093D01*
X113414Y135118D01*
X113427Y135141D01*
X113467Y135284D01*
X113512Y135425D01*
X113514Y135451D01*
X113522Y135476D01*
X113541Y135720D01*
X113541Y137928D01*
X113538Y137954D01*
X113540Y137980D01*
X113518Y138127D01*
X113501Y138274D01*
X113493Y138299D01*
X113489Y138325D01*
X113434Y138463D01*
X113384Y138602D01*
X113370Y138624D01*
X113360Y138649D01*
X113275Y138770D01*
X113195Y138895D01*
X113176Y138913D01*
X113161Y138935D01*
X113051Y139034D01*
X112944Y139137D01*
X112922Y139151D01*
X112902Y139168D01*
X112772Y139240D01*
X112645Y139316D01*
X112620Y139324D01*
X112597Y139337D01*
X112454Y139377D01*
X112313Y139422D01*
X112287Y139424D01*
X112262Y139432D01*
X112018Y139451D01*
X111047Y139451D01*
X111047Y148476D01*
X111044Y148502D01*
X111046Y148528D01*
X111024Y148675D01*
X111007Y148822D01*
X110998Y148847D01*
X110995Y148873D01*
X110940Y149011D01*
X110890Y149150D01*
X110876Y149172D01*
X110866Y149197D01*
X110781Y149318D01*
X110701Y149443D01*
X110682Y149461D01*
X110667Y149483D01*
X110557Y149582D01*
X110450Y149685D01*
X110428Y149699D01*
X110408Y149716D01*
X110278Y149788D01*
X110151Y149864D01*
X110126Y149872D01*
X110103Y149885D01*
X109960Y149925D01*
X109819Y149970D01*
X109793Y149972D01*
X109768Y149980D01*
X109524Y149999D01*
X107999Y149999D01*
X107999Y150001D01*
X109524Y150001D01*
X109550Y150004D01*
X109576Y150002D01*
X109723Y150024D01*
X109870Y150041D01*
X109895Y150050D01*
X109921Y150053D01*
X110059Y150108D01*
X110198Y150158D01*
X110220Y150172D01*
X110245Y150182D01*
X110366Y150267D01*
X110491Y150347D01*
X110509Y150366D01*
X110531Y150381D01*
X110630Y150491D01*
X110733Y150598D01*
X110747Y150620D01*
X110764Y150640D01*
X110836Y150770D01*
X110912Y150897D01*
X110920Y150922D01*
X110933Y150945D01*
X110973Y151088D01*
X111018Y151229D01*
X111020Y151255D01*
X111028Y151280D01*
X111047Y151524D01*
X111047Y160549D01*
X114901Y160549D01*
X115677Y160341D01*
X116372Y159940D01*
X116423Y159889D01*
X116443Y159872D01*
X116460Y159852D01*
X116580Y159764D01*
X116696Y159672D01*
X116720Y159661D01*
X116741Y159645D01*
X116877Y159587D01*
X117011Y159523D01*
X117037Y159518D01*
X117061Y159507D01*
X117207Y159481D01*
X117352Y159450D01*
X117378Y159450D01*
X117404Y159446D01*
X117552Y159453D01*
X117700Y159456D01*
X117725Y159462D01*
X117752Y159463D01*
X117895Y159505D01*
X118038Y159541D01*
X118061Y159553D01*
X118087Y159560D01*
X118216Y159633D01*
X118348Y159700D01*
X118368Y159717D01*
X118391Y159730D01*
X118577Y159889D01*
X119505Y160817D01*
X119584Y160916D01*
X119668Y161010D01*
X119692Y161052D01*
X119722Y161090D01*
X119776Y161204D01*
X119837Y161315D01*
X119850Y161361D01*
X119871Y161405D01*
X119897Y161528D01*
X119932Y161650D01*
X119937Y161711D01*
X119944Y161745D01*
X119943Y161793D01*
X119951Y161894D01*
X119951Y165152D01*
X121024Y167743D01*
X123007Y169726D01*
X125598Y170799D01*
X128402Y170799D01*
X130993Y169726D01*
X132976Y167743D01*
X134049Y165152D01*
X134049Y161894D01*
X134063Y161768D01*
X134070Y161642D01*
X134083Y161596D01*
X134089Y161548D01*
X134131Y161429D01*
X134166Y161307D01*
X134190Y161265D01*
X134206Y161219D01*
X134275Y161113D01*
X134336Y161003D01*
X134376Y160957D01*
X134395Y160927D01*
X134430Y160893D01*
X134495Y160817D01*
X136851Y158461D01*
X136929Y158398D01*
X137002Y158328D01*
X137066Y158290D01*
X137124Y158244D01*
X137215Y158201D01*
X137301Y158150D01*
X137372Y158127D01*
X137439Y158095D01*
X137537Y158074D01*
X137633Y158043D01*
X137707Y158037D01*
X137780Y158022D01*
X137880Y158023D01*
X137980Y158015D01*
X138054Y158026D01*
X138128Y158028D01*
X138225Y158052D01*
X138325Y158067D01*
X138394Y158095D01*
X138466Y158113D01*
X138556Y158159D01*
X138649Y158196D01*
X138710Y158238D01*
X138776Y158272D01*
X138853Y158338D01*
X138935Y158395D01*
X138985Y158450D01*
X139041Y158498D01*
X139101Y158579D01*
X139168Y158654D01*
X139204Y158719D01*
X139249Y158778D01*
X139288Y158871D01*
X139337Y158959D01*
X139357Y159030D01*
X139387Y159098D01*
X139404Y159197D01*
X139432Y159294D01*
X139440Y159394D01*
X139448Y159441D01*
X139446Y159477D01*
X139451Y159538D01*
X139451Y167263D01*
X141237Y169049D01*
X158763Y169049D01*
X160317Y167495D01*
X160416Y167416D01*
X160510Y167332D01*
X160552Y167308D01*
X160590Y167278D01*
X160704Y167224D01*
X160815Y167163D01*
X160861Y167150D01*
X160905Y167129D01*
X161028Y167103D01*
X161150Y167068D01*
X161211Y167063D01*
X161246Y167056D01*
X161294Y167057D01*
X161394Y167049D01*
X165152Y167049D01*
X167743Y165976D01*
X168589Y165129D01*
X168668Y165067D01*
X168740Y164997D01*
X168804Y164959D01*
X168862Y164913D01*
X168953Y164870D01*
X169039Y164818D01*
X169110Y164796D01*
X169177Y164764D01*
X169275Y164743D01*
X169371Y164712D01*
X169445Y164706D01*
X169518Y164691D01*
X169618Y164692D01*
X169718Y164684D01*
X169792Y164695D01*
X169866Y164697D01*
X169963Y164721D01*
X170063Y164736D01*
X170132Y164763D01*
X170204Y164782D01*
X170293Y164828D01*
X170387Y164865D01*
X170448Y164907D01*
X170514Y164941D01*
X170590Y165006D01*
X170673Y165064D01*
X170723Y165119D01*
X170779Y165167D01*
X170839Y165248D01*
X170906Y165322D01*
X170942Y165387D01*
X170987Y165447D01*
X171026Y165539D01*
X171075Y165627D01*
X171095Y165699D01*
X171125Y165767D01*
X171142Y165866D01*
X171170Y165963D01*
X171178Y166063D01*
X171186Y166110D01*
X171184Y166146D01*
X171189Y166207D01*
X171189Y182929D01*
X171184Y182971D01*
X171185Y183048D01*
X171040Y184885D01*
X171029Y184941D01*
X171027Y184998D01*
X170977Y185208D01*
X170973Y185227D01*
X170972Y185230D01*
X170970Y185236D01*
X169835Y188728D01*
X169787Y188834D01*
X169747Y188944D01*
X169708Y189008D01*
X169691Y189045D01*
X169663Y189080D01*
X169619Y189153D01*
X167461Y192124D01*
X167420Y192168D01*
X167413Y192177D01*
X167402Y192188D01*
X167381Y192210D01*
X167309Y192301D01*
X167253Y192350D01*
X167225Y192380D01*
X167188Y192405D01*
X167124Y192461D01*
X165429Y193692D01*
X165298Y193766D01*
X165168Y193844D01*
X165146Y193852D01*
X165126Y193863D01*
X164980Y193906D01*
X164837Y193952D01*
X164814Y193954D01*
X164791Y193961D01*
X164639Y193969D01*
X164489Y193982D01*
X164466Y193979D01*
X164443Y193980D01*
X164294Y193954D01*
X164144Y193932D01*
X164123Y193924D01*
X164100Y193920D01*
X163960Y193860D01*
X163820Y193805D01*
X163801Y193792D01*
X163779Y193783D01*
X163657Y193693D01*
X163533Y193607D01*
X163517Y193590D01*
X163498Y193577D01*
X163400Y193462D01*
X163298Y193350D01*
X163287Y193329D01*
X163272Y193312D01*
X163202Y193178D01*
X163128Y193046D01*
X163122Y193023D01*
X163111Y193003D01*
X163073Y192856D01*
X163032Y192711D01*
X163030Y192687D01*
X163025Y192665D01*
X163021Y192513D01*
X163014Y192363D01*
X163018Y192340D01*
X163017Y192317D01*
X163049Y192168D01*
X163076Y192020D01*
X163086Y191994D01*
X163090Y191976D01*
X163109Y191933D01*
X163165Y191792D01*
X163259Y191598D01*
X163259Y185702D01*
X162122Y183370D01*
X162106Y183323D01*
X162051Y183196D01*
X161507Y181610D01*
X161450Y181569D01*
X161393Y181518D01*
X161361Y181503D01*
X161335Y181482D01*
X161286Y181453D01*
X158204Y179251D01*
X154146Y179251D01*
X152412Y180489D01*
X152346Y180526D01*
X152286Y180570D01*
X152194Y180610D01*
X152107Y180658D01*
X152035Y180679D01*
X151966Y180708D01*
X151868Y180726D01*
X151772Y180753D01*
X151697Y180757D01*
X151623Y180770D01*
X151523Y180765D01*
X151424Y180770D01*
X151350Y180756D01*
X151275Y180752D01*
X151179Y180725D01*
X151081Y180706D01*
X151012Y180676D01*
X150940Y180656D01*
X150853Y180607D01*
X150762Y180567D01*
X150701Y180522D01*
X150636Y180485D01*
X150519Y180386D01*
X150482Y180359D01*
X150471Y180345D01*
X150450Y180327D01*
X149374Y179251D01*
X142083Y179251D01*
X142041Y179246D01*
X141960Y179246D01*
X140366Y179117D01*
X140331Y179137D01*
X140225Y179167D01*
X140185Y179182D01*
X139052Y180315D01*
X139018Y180342D01*
X138961Y180399D01*
X137743Y181435D01*
X137731Y181474D01*
X137678Y181570D01*
X137660Y181608D01*
X137660Y181778D01*
X137657Y181804D01*
X137659Y181830D01*
X137637Y181977D01*
X137621Y182124D01*
X137612Y182149D01*
X137608Y182175D01*
X137553Y182313D01*
X137503Y182452D01*
X137489Y182474D01*
X137479Y182499D01*
X137395Y182620D01*
X137314Y182745D01*
X137295Y182763D01*
X137280Y182785D01*
X137170Y182884D01*
X137063Y182987D01*
X137041Y183001D01*
X137021Y183018D01*
X136891Y183090D01*
X136764Y183166D01*
X136739Y183174D01*
X136716Y183187D01*
X136573Y183227D01*
X136432Y183272D01*
X136406Y183274D01*
X136381Y183282D01*
X136137Y183301D01*
X127288Y183301D01*
X127138Y183284D01*
X126987Y183271D01*
X126965Y183264D01*
X126942Y183261D01*
X126799Y183210D01*
X126656Y183164D01*
X126636Y183152D01*
X126613Y183144D01*
X126486Y183062D01*
X126357Y182984D01*
X126340Y182968D01*
X126321Y182955D01*
X126216Y182846D01*
X126108Y182741D01*
X126091Y182717D01*
X126078Y182704D01*
X126054Y182664D01*
X125969Y182540D01*
X125166Y181150D01*
X121878Y179251D01*
X118082Y179251D01*
X114794Y181150D01*
X113356Y183641D01*
X113340Y183662D01*
X113329Y183685D01*
X113237Y183801D01*
X113148Y183920D01*
X113128Y183937D01*
X113112Y183958D01*
X112995Y184050D01*
X112882Y184146D01*
X112859Y184158D01*
X112838Y184174D01*
X112704Y184237D01*
X112572Y184305D01*
X112547Y184311D01*
X112523Y184322D01*
X112378Y184353D01*
X112234Y184389D01*
X112208Y184390D01*
X112182Y184395D01*
X112034Y184392D01*
X111885Y184395D01*
X111860Y184389D01*
X111834Y184389D01*
X111690Y184352D01*
X111545Y184321D01*
X111521Y184309D01*
X111496Y184303D01*
X111275Y184198D01*
X110886Y183973D01*
X110764Y183883D01*
X110640Y183797D01*
X110625Y183780D01*
X110606Y183766D01*
X110508Y183650D01*
X110407Y183538D01*
X110396Y183518D01*
X110380Y183500D01*
X110312Y183366D01*
X110239Y183233D01*
X110232Y183211D01*
X110221Y183190D01*
X110185Y183043D01*
X110144Y182898D01*
X110141Y182870D01*
X110137Y182852D01*
X110136Y182805D01*
X110124Y182654D01*
X110124Y181707D01*
X107669Y179251D01*
X104196Y179251D01*
X101741Y181707D01*
X101741Y194666D01*
X101738Y194692D01*
X101740Y194718D01*
X101718Y194865D01*
X101701Y195012D01*
X101692Y195037D01*
X101688Y195063D01*
X101633Y195201D01*
X101583Y195340D01*
X101569Y195362D01*
X101559Y195387D01*
X101475Y195508D01*
X101394Y195633D01*
X101375Y195651D01*
X101360Y195673D01*
X101251Y195772D01*
X101144Y195875D01*
X101121Y195889D01*
X101102Y195906D01*
X100972Y195978D01*
X100845Y196054D01*
X100820Y196062D01*
X100797Y196075D01*
X100654Y196115D01*
X100513Y196160D01*
X100486Y196162D01*
X100461Y196170D01*
X100217Y196189D01*
X17071Y196189D01*
X17029Y196184D01*
X16952Y196185D01*
X15115Y196040D01*
X15059Y196029D01*
X15002Y196027D01*
X14792Y195977D01*
X14773Y195973D01*
X14770Y195972D01*
X14764Y195970D01*
X11272Y194835D01*
X11166Y194787D01*
X11056Y194747D01*
X10992Y194708D01*
X10955Y194691D01*
X10920Y194663D01*
X10847Y194619D01*
X7876Y192461D01*
X7790Y192382D01*
X7699Y192309D01*
X7650Y192253D01*
X7620Y192225D01*
X7595Y192188D01*
X7539Y192124D01*
X5381Y189153D01*
X5323Y189051D01*
X5259Y188954D01*
X5230Y188885D01*
X5210Y188849D01*
X5197Y188806D01*
X5165Y188728D01*
X4030Y185236D01*
X4018Y185180D01*
X3999Y185126D01*
X3964Y184912D01*
X3961Y184894D01*
X3961Y184890D01*
X3960Y184885D01*
X3815Y183048D01*
X3817Y183006D01*
X3811Y182929D01*
X3811Y157758D01*
X3814Y157731D01*
X3812Y157705D01*
X3834Y157559D01*
X3851Y157411D01*
X3859Y157387D01*
X3863Y157361D01*
X3918Y157223D01*
X3968Y157083D01*
X3982Y157061D01*
X3992Y157037D01*
X4077Y156915D01*
X4157Y156790D01*
X4176Y156772D01*
X4191Y156751D01*
X4301Y156652D01*
X4408Y156548D01*
X4430Y156535D01*
X4450Y156517D01*
X4580Y156446D01*
X4707Y156369D01*
X4732Y156361D01*
X4755Y156349D01*
X4898Y156308D01*
X5039Y156263D01*
X5065Y156261D01*
X5090Y156254D01*
X5334Y156234D01*
X18293Y156234D01*
X20749Y153779D01*
X20749Y147252D01*
X19323Y144782D01*
X19263Y144644D01*
X19199Y144507D01*
X19194Y144484D01*
X19184Y144462D01*
X19158Y144314D01*
X19126Y144166D01*
X19126Y144143D01*
X19122Y144120D01*
X19130Y143969D01*
X19133Y143818D01*
X19138Y143795D01*
X19139Y143771D01*
X19181Y143626D01*
X19218Y143480D01*
X19230Y143454D01*
X19235Y143436D01*
X19258Y143396D01*
X19323Y143259D01*
X20658Y140947D01*
X20704Y140885D01*
X20742Y140817D01*
X20749Y140809D01*
X20749Y137303D01*
X20724Y137267D01*
X20717Y137260D01*
X20702Y137235D01*
X20684Y137208D01*
X20610Y137115D01*
X20586Y137065D01*
X20555Y137018D01*
X20468Y136814D01*
X20462Y136800D01*
X20461Y136797D01*
X20459Y136793D01*
X19853Y134974D01*
X19848Y134952D01*
X19839Y134932D01*
X19812Y134782D01*
X19781Y134633D01*
X19782Y134611D01*
X19778Y134589D01*
X19786Y134437D01*
X19789Y134285D01*
X19794Y134263D01*
X19796Y134241D01*
X19838Y134094D01*
X19876Y133947D01*
X19886Y133927D01*
X19892Y133906D01*
X19967Y133773D01*
X20037Y133638D01*
X20051Y133621D01*
X20062Y133602D01*
X20221Y133415D01*
X20749Y132887D01*
X20749Y127101D01*
X19982Y126334D01*
X19981Y126333D01*
X19980Y126332D01*
X19869Y126191D01*
X19766Y126061D01*
X19765Y126060D01*
X19764Y126059D01*
X19685Y125891D01*
X19617Y125746D01*
X19616Y125745D01*
X19616Y125743D01*
X19576Y125556D01*
X19543Y125405D01*
X19543Y125404D01*
X19543Y125403D01*
X19547Y125212D01*
X19549Y125057D01*
X19550Y125056D01*
X19550Y125054D01*
X19592Y124885D01*
X19634Y124719D01*
X19635Y124718D01*
X19635Y124716D01*
X19740Y124495D01*
X20749Y122748D01*
X20749Y118952D01*
X18850Y115664D01*
X15562Y113766D01*
X11297Y113766D01*
X7137Y113766D01*
X6096Y114367D01*
X6026Y114397D01*
X5961Y114436D01*
X5867Y114466D01*
X5776Y114506D01*
X5701Y114519D01*
X5629Y114542D01*
X5530Y114550D01*
X5433Y114568D01*
X5357Y114564D01*
X5282Y114570D01*
X5184Y114556D01*
X5085Y114551D01*
X5012Y114530D01*
X4937Y114519D01*
X4845Y114482D01*
X4750Y114455D01*
X4684Y114418D01*
X4613Y114390D01*
X4532Y114333D01*
X4445Y114285D01*
X4389Y114234D01*
X4327Y114191D01*
X4261Y114118D01*
X4187Y114051D01*
X4144Y113988D01*
X4094Y113932D01*
X4046Y113845D01*
X3989Y113764D01*
X3962Y113694D01*
X3925Y113627D01*
X3898Y113532D01*
X3862Y113440D01*
X3851Y113365D01*
X3830Y113292D01*
X3818Y113141D01*
X3811Y113095D01*
X3813Y113076D01*
X3811Y113048D01*
X3811Y17071D01*
X3816Y17029D01*
X3815Y16952D01*
X3960Y15115D01*
X3971Y15059D01*
X3973Y15002D01*
X4023Y14792D01*
X4027Y14773D01*
X4028Y14770D01*
X4030Y14764D01*
X5165Y11272D01*
X5213Y11166D01*
X5253Y11056D01*
X5292Y10992D01*
X5309Y10955D01*
X5337Y10920D01*
X5381Y10847D01*
X7539Y7876D01*
X7618Y7790D01*
X7691Y7699D01*
X7747Y7650D01*
X7775Y7620D01*
X7812Y7595D01*
X7876Y7539D01*
X10847Y5381D01*
X10949Y5323D01*
X11046Y5259D01*
X11115Y5230D01*
X11151Y5210D01*
X11194Y5197D01*
X11272Y5165D01*
X14764Y4030D01*
X14820Y4018D01*
X14874Y3999D01*
X15088Y3964D01*
X15106Y3961D01*
X15110Y3961D01*
X15115Y3960D01*
X16952Y3815D01*
X16994Y3817D01*
X17071Y3811D01*
X157929Y3811D01*
X157971Y3816D01*
G37*
%LPC*%
G36*
X17404Y41951D02*
X17404Y41951D01*
X12608Y43938D01*
X8938Y47608D01*
X6951Y52404D01*
X6951Y57596D01*
X8938Y62392D01*
X12608Y66062D01*
X17404Y68049D01*
X22596Y68049D01*
X27392Y66062D01*
X31062Y62392D01*
X31840Y60513D01*
X31877Y60446D01*
X31906Y60375D01*
X31962Y60294D01*
X32010Y60208D01*
X32061Y60152D01*
X32105Y60089D01*
X32178Y60023D01*
X32244Y59950D01*
X32307Y59907D01*
X32363Y59856D01*
X32449Y59808D01*
X32530Y59752D01*
X32601Y59724D01*
X32668Y59687D01*
X32763Y59660D01*
X32855Y59624D01*
X32930Y59613D01*
X33004Y59592D01*
X33153Y59580D01*
X33199Y59573D01*
X33218Y59575D01*
X33248Y59573D01*
X37875Y59573D01*
X38001Y59587D01*
X38127Y59594D01*
X38173Y59607D01*
X38221Y59613D01*
X38340Y59655D01*
X38462Y59690D01*
X38504Y59714D01*
X38549Y59730D01*
X38656Y59799D01*
X38766Y59860D01*
X38812Y59900D01*
X38842Y59919D01*
X38876Y59954D01*
X38952Y60019D01*
X41593Y62660D01*
X41610Y62681D01*
X41630Y62699D01*
X41718Y62818D01*
X41810Y62933D01*
X41821Y62957D01*
X41837Y62979D01*
X41942Y63200D01*
X42854Y65623D01*
X42890Y65770D01*
X42932Y65916D01*
X42934Y65944D01*
X42938Y65961D01*
X42938Y65971D01*
X43434Y67168D01*
X43439Y67187D01*
X43452Y67214D01*
X43749Y68001D01*
X43769Y68027D01*
X43781Y68051D01*
X43792Y68066D01*
X43810Y68108D01*
X43880Y68244D01*
X44024Y68593D01*
X46007Y70576D01*
X48598Y71649D01*
X51402Y71649D01*
X51750Y71504D01*
X51896Y71463D01*
X52019Y71424D01*
X52782Y71078D01*
X52801Y71072D01*
X52828Y71058D01*
X54047Y70553D01*
X54116Y70495D01*
X54140Y70482D01*
X54154Y70471D01*
X54196Y70451D01*
X54330Y70377D01*
X55250Y69960D01*
X55322Y69937D01*
X55390Y69905D01*
X55487Y69884D01*
X55582Y69853D01*
X55657Y69847D01*
X55731Y69831D01*
X55830Y69833D01*
X55930Y69825D01*
X56004Y69836D01*
X56079Y69837D01*
X56176Y69861D01*
X56274Y69876D01*
X56344Y69904D01*
X56417Y69922D01*
X56506Y69968D01*
X56598Y70004D01*
X56660Y70047D01*
X56727Y70082D01*
X56803Y70146D01*
X56885Y70203D01*
X56935Y70259D01*
X56992Y70308D01*
X57052Y70388D01*
X57118Y70462D01*
X57155Y70527D01*
X57200Y70588D01*
X57239Y70679D01*
X57287Y70766D01*
X57308Y70839D01*
X57338Y70908D01*
X57355Y71006D01*
X57382Y71102D01*
X57386Y71177D01*
X57399Y71251D01*
X57394Y71350D01*
X57399Y71450D01*
X57385Y71524D01*
X57381Y71599D01*
X57354Y71695D01*
X57336Y71793D01*
X57306Y71862D01*
X57285Y71934D01*
X57236Y72021D01*
X57196Y72112D01*
X57151Y72172D01*
X57115Y72238D01*
X57016Y72354D01*
X56988Y72391D01*
X56974Y72403D01*
X56956Y72424D01*
X56391Y72989D01*
X56391Y81611D01*
X57353Y82573D01*
X57370Y82593D01*
X57390Y82610D01*
X57478Y82730D01*
X57570Y82846D01*
X57581Y82870D01*
X57597Y82891D01*
X57656Y83027D01*
X57719Y83161D01*
X57724Y83187D01*
X57735Y83211D01*
X57761Y83357D01*
X57792Y83502D01*
X57792Y83528D01*
X57796Y83554D01*
X57789Y83702D01*
X57786Y83850D01*
X57780Y83876D01*
X57779Y83902D01*
X57737Y84044D01*
X57701Y84188D01*
X57689Y84212D01*
X57682Y84237D01*
X57610Y84366D01*
X57542Y84498D01*
X57525Y84518D01*
X57512Y84541D01*
X57353Y84727D01*
X57000Y85080D01*
X56599Y85775D01*
X56391Y86551D01*
X56391Y88477D01*
X70870Y88477D01*
X85349Y88477D01*
X85349Y86551D01*
X85141Y85775D01*
X84740Y85080D01*
X84387Y84727D01*
X84370Y84707D01*
X84350Y84690D01*
X84262Y84570D01*
X84170Y84454D01*
X84159Y84430D01*
X84143Y84409D01*
X84085Y84273D01*
X84021Y84139D01*
X84016Y84113D01*
X84005Y84089D01*
X83979Y83943D01*
X83948Y83798D01*
X83948Y83772D01*
X83944Y83746D01*
X83951Y83598D01*
X83954Y83450D01*
X83960Y83424D01*
X83961Y83398D01*
X84003Y83256D01*
X84039Y83112D01*
X84051Y83089D01*
X84058Y83063D01*
X84131Y82934D01*
X84198Y82802D01*
X84215Y82782D01*
X84228Y82759D01*
X84387Y82573D01*
X85349Y81611D01*
X85349Y72989D01*
X84387Y72027D01*
X84370Y72007D01*
X84350Y71990D01*
X84262Y71870D01*
X84170Y71754D01*
X84159Y71730D01*
X84143Y71709D01*
X84084Y71573D01*
X84021Y71439D01*
X84016Y71413D01*
X84005Y71389D01*
X83979Y71243D01*
X83948Y71098D01*
X83948Y71072D01*
X83944Y71046D01*
X83951Y70898D01*
X83954Y70750D01*
X83960Y70724D01*
X83961Y70698D01*
X84003Y70556D01*
X84039Y70412D01*
X84051Y70389D01*
X84058Y70363D01*
X84131Y70234D01*
X84198Y70102D01*
X84215Y70082D01*
X84228Y70059D01*
X84387Y69873D01*
X85349Y68911D01*
X85349Y60289D01*
X84387Y59327D01*
X84370Y59307D01*
X84350Y59290D01*
X84262Y59170D01*
X84170Y59054D01*
X84159Y59030D01*
X84143Y59009D01*
X84084Y58873D01*
X84021Y58739D01*
X84016Y58713D01*
X84005Y58689D01*
X83979Y58543D01*
X83948Y58398D01*
X83948Y58372D01*
X83944Y58346D01*
X83951Y58198D01*
X83954Y58050D01*
X83960Y58024D01*
X83961Y57998D01*
X84003Y57856D01*
X84039Y57712D01*
X84051Y57689D01*
X84058Y57663D01*
X84131Y57534D01*
X84198Y57402D01*
X84215Y57382D01*
X84228Y57359D01*
X84387Y57173D01*
X84740Y56820D01*
X85141Y56125D01*
X85349Y55349D01*
X85349Y53423D01*
X70870Y53423D01*
X56391Y53423D01*
X56391Y55349D01*
X56599Y56125D01*
X57016Y56848D01*
X57057Y56887D01*
X57111Y56971D01*
X57173Y57048D01*
X57205Y57117D01*
X57246Y57180D01*
X57279Y57274D01*
X57322Y57364D01*
X57337Y57437D01*
X57363Y57508D01*
X57374Y57607D01*
X57395Y57704D01*
X57394Y57780D01*
X57402Y57854D01*
X57391Y57953D01*
X57389Y58053D01*
X57371Y58126D01*
X57362Y58201D01*
X57328Y58294D01*
X57304Y58391D01*
X57270Y58458D01*
X57244Y58529D01*
X57190Y58612D01*
X57145Y58701D01*
X57096Y58758D01*
X57055Y58821D01*
X56983Y58890D01*
X56919Y58966D01*
X56858Y59011D01*
X56804Y59063D01*
X56719Y59114D01*
X56639Y59173D01*
X56569Y59203D01*
X56505Y59242D01*
X56410Y59272D01*
X56319Y59311D01*
X56244Y59325D01*
X56173Y59347D01*
X56073Y59355D01*
X55976Y59373D01*
X55900Y59369D01*
X55825Y59375D01*
X55727Y59360D01*
X55627Y59355D01*
X55555Y59334D01*
X55481Y59323D01*
X55337Y59271D01*
X55293Y59259D01*
X55277Y59250D01*
X55250Y59240D01*
X54330Y58823D01*
X54200Y58745D01*
X54067Y58671D01*
X54046Y58653D01*
X54031Y58644D01*
X54024Y58637D01*
X53644Y58480D01*
X53511Y58406D01*
X53398Y58348D01*
X52746Y58102D01*
X52713Y58085D01*
X52654Y58064D01*
X52178Y57848D01*
X52015Y57774D01*
X51983Y57771D01*
X51957Y57762D01*
X51939Y57760D01*
X51896Y57742D01*
X51750Y57696D01*
X51348Y57529D01*
X51258Y57521D01*
X51232Y57513D01*
X51214Y57511D01*
X51170Y57496D01*
X51023Y57454D01*
X48600Y56542D01*
X48576Y56529D01*
X48550Y56522D01*
X48422Y56450D01*
X48290Y56382D01*
X48270Y56365D01*
X48246Y56352D01*
X48060Y56193D01*
X42990Y51123D01*
X41310Y50427D01*
X33248Y50427D01*
X33172Y50419D01*
X33095Y50420D01*
X32999Y50399D01*
X32901Y50387D01*
X32829Y50362D01*
X32755Y50345D01*
X32666Y50303D01*
X32573Y50270D01*
X32509Y50228D01*
X32440Y50196D01*
X32363Y50134D01*
X32280Y50081D01*
X32227Y50026D01*
X32168Y49978D01*
X32107Y49901D01*
X32038Y49830D01*
X31999Y49765D01*
X31952Y49705D01*
X31884Y49572D01*
X31859Y49531D01*
X31854Y49513D01*
X31840Y49487D01*
X31062Y47608D01*
X27392Y43938D01*
X22596Y41951D01*
X17404Y41951D01*
G37*
%LPD*%
%LPC*%
G36*
X62404Y6951D02*
X62404Y6951D01*
X57608Y8938D01*
X53938Y12608D01*
X51951Y17404D01*
X51951Y22449D01*
X51937Y22575D01*
X51930Y22701D01*
X51917Y22748D01*
X51911Y22796D01*
X51869Y22915D01*
X51834Y23036D01*
X51810Y23078D01*
X51794Y23124D01*
X51725Y23230D01*
X51664Y23340D01*
X51624Y23386D01*
X51605Y23416D01*
X51570Y23450D01*
X51505Y23526D01*
X47774Y27257D01*
X46701Y29848D01*
X46701Y32652D01*
X47774Y35243D01*
X49757Y37226D01*
X52348Y38299D01*
X55152Y38299D01*
X57743Y37226D01*
X61474Y33495D01*
X61573Y33416D01*
X61666Y33332D01*
X61709Y33308D01*
X61747Y33278D01*
X61861Y33224D01*
X61971Y33163D01*
X62018Y33150D01*
X62062Y33129D01*
X62185Y33103D01*
X62307Y33068D01*
X62368Y33063D01*
X62402Y33056D01*
X62450Y33057D01*
X62551Y33049D01*
X67596Y33049D01*
X72392Y31062D01*
X74101Y29353D01*
X74179Y29290D01*
X74252Y29221D01*
X74316Y29182D01*
X74374Y29136D01*
X74465Y29093D01*
X74551Y29042D01*
X74622Y29019D01*
X74689Y28987D01*
X74787Y28966D01*
X74883Y28935D01*
X74957Y28930D01*
X75030Y28914D01*
X75130Y28916D01*
X75230Y28908D01*
X75304Y28919D01*
X75378Y28920D01*
X75475Y28944D01*
X75575Y28959D01*
X75644Y28987D01*
X75716Y29005D01*
X75805Y29051D01*
X75899Y29088D01*
X75960Y29130D01*
X76026Y29164D01*
X76102Y29230D01*
X76185Y29287D01*
X76235Y29342D01*
X76291Y29390D01*
X76351Y29471D01*
X76418Y29546D01*
X76454Y29611D01*
X76499Y29671D01*
X76538Y29763D01*
X76587Y29851D01*
X76607Y29922D01*
X76637Y29991D01*
X76654Y30089D01*
X76682Y30186D01*
X76690Y30286D01*
X76698Y30334D01*
X76696Y30369D01*
X76701Y30430D01*
X76701Y32652D01*
X77774Y35243D01*
X79757Y37226D01*
X82348Y38299D01*
X85152Y38299D01*
X87743Y37226D01*
X89940Y35029D01*
X91473Y33495D01*
X91573Y33416D01*
X91666Y33332D01*
X91709Y33308D01*
X91747Y33278D01*
X91861Y33224D01*
X91971Y33163D01*
X92018Y33150D01*
X92062Y33129D01*
X92185Y33103D01*
X92307Y33068D01*
X92368Y33063D01*
X92402Y33056D01*
X92450Y33057D01*
X92551Y33049D01*
X97596Y33049D01*
X102392Y31062D01*
X106062Y27392D01*
X108049Y22596D01*
X108049Y17404D01*
X106062Y12608D01*
X102392Y8938D01*
X97596Y6951D01*
X92404Y6951D01*
X87608Y8938D01*
X83938Y12608D01*
X81951Y17404D01*
X81951Y22449D01*
X81937Y22575D01*
X81930Y22701D01*
X81917Y22748D01*
X81911Y22796D01*
X81869Y22915D01*
X81834Y23036D01*
X81810Y23078D01*
X81794Y23124D01*
X81725Y23230D01*
X81664Y23340D01*
X81624Y23387D01*
X81605Y23417D01*
X81570Y23450D01*
X81505Y23526D01*
X80361Y24670D01*
X80322Y24702D01*
X80288Y24739D01*
X80186Y24810D01*
X80088Y24887D01*
X80043Y24908D01*
X80001Y24937D01*
X79886Y24983D01*
X79773Y25036D01*
X79724Y25046D01*
X79677Y25065D01*
X79554Y25083D01*
X79433Y25109D01*
X79382Y25108D01*
X79332Y25116D01*
X79208Y25105D01*
X79084Y25103D01*
X79035Y25091D01*
X78985Y25087D01*
X78867Y25048D01*
X78746Y25018D01*
X78701Y24995D01*
X78653Y24980D01*
X78547Y24916D01*
X78436Y24859D01*
X78398Y24826D01*
X78355Y24800D01*
X78266Y24713D01*
X78171Y24633D01*
X78141Y24592D01*
X78105Y24557D01*
X78038Y24452D01*
X77964Y24352D01*
X77944Y24306D01*
X77917Y24264D01*
X77875Y24147D01*
X77826Y24032D01*
X77817Y23983D01*
X77800Y23935D01*
X77786Y23812D01*
X77764Y23689D01*
X77767Y23639D01*
X77761Y23589D01*
X77776Y23466D01*
X77782Y23341D01*
X77796Y23293D01*
X77802Y23243D01*
X77877Y23010D01*
X78049Y22596D01*
X78049Y17404D01*
X76062Y12608D01*
X72392Y8938D01*
X67596Y6951D01*
X62404Y6951D01*
G37*
%LPD*%
%LPC*%
G36*
X52404Y166951D02*
X52404Y166951D01*
X47608Y168938D01*
X43938Y172608D01*
X41951Y177404D01*
X41951Y182596D01*
X43938Y187392D01*
X47608Y191062D01*
X52404Y193049D01*
X57596Y193049D01*
X62392Y191062D01*
X65959Y187495D01*
X66058Y187416D01*
X66152Y187332D01*
X66194Y187308D01*
X66232Y187278D01*
X66346Y187224D01*
X66457Y187163D01*
X66503Y187150D01*
X66547Y187129D01*
X66670Y187103D01*
X66792Y187068D01*
X66853Y187063D01*
X66888Y187056D01*
X66936Y187057D01*
X67036Y187049D01*
X81402Y187049D01*
X83993Y185976D01*
X85976Y183993D01*
X87049Y181402D01*
X87049Y178598D01*
X85976Y176007D01*
X83993Y174024D01*
X81402Y172951D01*
X67036Y172951D01*
X66910Y172937D01*
X66784Y172930D01*
X66738Y172917D01*
X66690Y172911D01*
X66571Y172869D01*
X66449Y172834D01*
X66407Y172810D01*
X66362Y172794D01*
X66255Y172725D01*
X66145Y172664D01*
X66099Y172624D01*
X66069Y172605D01*
X66035Y172570D01*
X65959Y172505D01*
X62392Y168938D01*
X57596Y166951D01*
X52404Y166951D01*
G37*
%LPD*%
%LPC*%
G36*
X17404Y76951D02*
X17404Y76951D01*
X12608Y78938D01*
X8938Y82608D01*
X6951Y87404D01*
X6951Y92596D01*
X8938Y97392D01*
X12608Y101062D01*
X17404Y103049D01*
X22449Y103049D01*
X22575Y103063D01*
X22701Y103070D01*
X22748Y103083D01*
X22796Y103089D01*
X22915Y103131D01*
X23036Y103166D01*
X23078Y103190D01*
X23124Y103206D01*
X23230Y103275D01*
X23340Y103336D01*
X23386Y103376D01*
X23416Y103395D01*
X23450Y103430D01*
X23526Y103495D01*
X27257Y107226D01*
X29848Y108299D01*
X32652Y108299D01*
X35243Y107226D01*
X37226Y105243D01*
X38299Y102652D01*
X38299Y99848D01*
X37226Y97257D01*
X33495Y93526D01*
X33416Y93427D01*
X33332Y93334D01*
X33308Y93291D01*
X33278Y93253D01*
X33224Y93139D01*
X33163Y93029D01*
X33150Y92982D01*
X33129Y92938D01*
X33103Y92815D01*
X33068Y92693D01*
X33063Y92632D01*
X33056Y92598D01*
X33057Y92550D01*
X33049Y92449D01*
X33049Y87404D01*
X31062Y82608D01*
X27392Y78938D01*
X22596Y76951D01*
X17404Y76951D01*
G37*
%LPD*%
%LPC*%
G36*
X55237Y139451D02*
X55237Y139451D01*
X53451Y141237D01*
X53451Y141428D01*
X53448Y141454D01*
X53450Y141480D01*
X53428Y141627D01*
X53411Y141774D01*
X53403Y141799D01*
X53399Y141825D01*
X53344Y141963D01*
X53294Y142102D01*
X53280Y142124D01*
X53270Y142149D01*
X53185Y142270D01*
X53105Y142395D01*
X53086Y142413D01*
X53071Y142435D01*
X52961Y142534D01*
X52854Y142637D01*
X52832Y142651D01*
X52812Y142668D01*
X52682Y142740D01*
X52555Y142816D01*
X52530Y142824D01*
X52507Y142837D01*
X52364Y142877D01*
X52223Y142922D01*
X52197Y142924D01*
X52172Y142932D01*
X51928Y142951D01*
X48598Y142951D01*
X46007Y144024D01*
X44024Y146007D01*
X42951Y148598D01*
X42951Y151402D01*
X44024Y153993D01*
X46007Y155976D01*
X48598Y157049D01*
X51928Y157049D01*
X51954Y157052D01*
X51980Y157050D01*
X52127Y157072D01*
X52274Y157089D01*
X52299Y157097D01*
X52325Y157101D01*
X52463Y157156D01*
X52602Y157206D01*
X52624Y157220D01*
X52649Y157230D01*
X52770Y157315D01*
X52895Y157395D01*
X52913Y157414D01*
X52935Y157429D01*
X53034Y157539D01*
X53137Y157646D01*
X53151Y157668D01*
X53168Y157688D01*
X53240Y157818D01*
X53316Y157945D01*
X53324Y157970D01*
X53337Y157993D01*
X53377Y158136D01*
X53422Y158277D01*
X53424Y158303D01*
X53432Y158328D01*
X53451Y158572D01*
X53451Y158763D01*
X55237Y160549D01*
X70763Y160549D01*
X71423Y159889D01*
X71443Y159872D01*
X71460Y159852D01*
X71579Y159764D01*
X71696Y159672D01*
X71720Y159661D01*
X71741Y159645D01*
X71877Y159587D01*
X72011Y159523D01*
X72037Y159518D01*
X72061Y159507D01*
X72207Y159481D01*
X72352Y159450D01*
X72378Y159450D01*
X72404Y159446D01*
X72552Y159453D01*
X72700Y159456D01*
X72726Y159462D01*
X72752Y159463D01*
X72894Y159505D01*
X73038Y159541D01*
X73061Y159553D01*
X73087Y159560D01*
X73216Y159633D01*
X73348Y159700D01*
X73368Y159717D01*
X73391Y159730D01*
X73577Y159889D01*
X73628Y159940D01*
X74323Y160341D01*
X75099Y160549D01*
X78953Y160549D01*
X78953Y151524D01*
X78954Y151515D01*
X78954Y151514D01*
X78955Y151506D01*
X78956Y151498D01*
X78954Y151472D01*
X78976Y151325D01*
X78993Y151178D01*
X79001Y151153D01*
X79005Y151127D01*
X79060Y150989D01*
X79110Y150850D01*
X79124Y150828D01*
X79134Y150803D01*
X79219Y150682D01*
X79299Y150557D01*
X79318Y150539D01*
X79333Y150517D01*
X79443Y150418D01*
X79550Y150315D01*
X79572Y150301D01*
X79592Y150284D01*
X79722Y150212D01*
X79849Y150136D01*
X79874Y150128D01*
X79897Y150115D01*
X80040Y150075D01*
X80181Y150030D01*
X80207Y150028D01*
X80232Y150020D01*
X80476Y150001D01*
X82001Y150001D01*
X82001Y149999D01*
X80476Y149999D01*
X80450Y149996D01*
X80424Y149998D01*
X80277Y149976D01*
X80130Y149959D01*
X80105Y149950D01*
X80079Y149947D01*
X79941Y149892D01*
X79802Y149842D01*
X79780Y149828D01*
X79755Y149818D01*
X79634Y149733D01*
X79509Y149653D01*
X79491Y149634D01*
X79469Y149619D01*
X79370Y149509D01*
X79267Y149402D01*
X79253Y149380D01*
X79236Y149360D01*
X79164Y149230D01*
X79088Y149103D01*
X79080Y149078D01*
X79067Y149055D01*
X79027Y148912D01*
X78982Y148771D01*
X78980Y148745D01*
X78972Y148720D01*
X78953Y148476D01*
X78953Y139451D01*
X75099Y139451D01*
X74323Y139659D01*
X73628Y140060D01*
X73577Y140111D01*
X73557Y140128D01*
X73540Y140148D01*
X73420Y140236D01*
X73304Y140328D01*
X73280Y140339D01*
X73259Y140355D01*
X73123Y140413D01*
X72989Y140477D01*
X72963Y140482D01*
X72939Y140493D01*
X72793Y140519D01*
X72648Y140550D01*
X72622Y140550D01*
X72596Y140554D01*
X72448Y140547D01*
X72300Y140544D01*
X72274Y140538D01*
X72248Y140537D01*
X72106Y140496D01*
X71962Y140459D01*
X71938Y140447D01*
X71913Y140440D01*
X71784Y140368D01*
X71652Y140300D01*
X71632Y140283D01*
X71609Y140270D01*
X71423Y140111D01*
X70763Y139451D01*
X55237Y139451D01*
G37*
%LPD*%
%LPC*%
G36*
X23047Y23047D02*
X23047Y23047D01*
X23047Y32729D01*
X23056Y32727D01*
X25009Y32093D01*
X26839Y31160D01*
X28501Y29953D01*
X29953Y28501D01*
X31160Y26839D01*
X32093Y25009D01*
X32727Y23056D01*
X32729Y23047D01*
X23047Y23047D01*
G37*
%LPD*%
%LPC*%
G36*
X7271Y23047D02*
X7271Y23047D01*
X7273Y23056D01*
X7907Y25009D01*
X8840Y26839D01*
X10047Y28501D01*
X11499Y29953D01*
X13161Y31160D01*
X14991Y32093D01*
X16944Y32727D01*
X16953Y32729D01*
X16953Y23047D01*
X7271Y23047D01*
G37*
%LPD*%
%LPC*%
G36*
X23047Y16953D02*
X23047Y16953D01*
X32729Y16953D01*
X32727Y16944D01*
X32093Y14991D01*
X31160Y13161D01*
X29953Y11499D01*
X28501Y10047D01*
X26839Y8840D01*
X25009Y7907D01*
X23056Y7273D01*
X23047Y7271D01*
X23047Y16953D01*
G37*
%LPD*%
%LPC*%
G36*
X16944Y7273D02*
X16944Y7273D01*
X14991Y7907D01*
X13161Y8840D01*
X11499Y10047D01*
X10047Y11499D01*
X8840Y13161D01*
X7907Y14991D01*
X7273Y16944D01*
X7271Y16953D01*
X16953Y16953D01*
X16953Y7271D01*
X16944Y7273D01*
G37*
%LPD*%
%LPC*%
G36*
X72393Y45803D02*
X72393Y45803D01*
X72393Y50377D01*
X85349Y50377D01*
X85349Y48451D01*
X85141Y47675D01*
X84740Y46980D01*
X84172Y46412D01*
X83477Y46011D01*
X82701Y45803D01*
X72393Y45803D01*
G37*
%LPD*%
%LPC*%
G36*
X59039Y45803D02*
X59039Y45803D01*
X58263Y46011D01*
X57568Y46412D01*
X57000Y46980D01*
X56599Y47675D01*
X56391Y48451D01*
X56391Y50377D01*
X69347Y50377D01*
X69347Y45803D01*
X59039Y45803D01*
G37*
%LPD*%
%LPC*%
G36*
X85047Y153047D02*
X85047Y153047D01*
X85047Y160549D01*
X88901Y160549D01*
X89677Y160341D01*
X90372Y159940D01*
X90940Y159372D01*
X91341Y158677D01*
X91549Y157901D01*
X91549Y153047D01*
X85047Y153047D01*
G37*
%LPD*%
%LPC*%
G36*
X85047Y139451D02*
X85047Y139451D01*
X85047Y146953D01*
X91549Y146953D01*
X91549Y142099D01*
X91341Y141323D01*
X90940Y140628D01*
X90372Y140060D01*
X89677Y139659D01*
X88901Y139451D01*
X85047Y139451D01*
G37*
%LPD*%
%LPC*%
G36*
X98451Y153047D02*
X98451Y153047D01*
X98451Y157901D01*
X98659Y158677D01*
X99060Y159372D01*
X99628Y159940D01*
X100323Y160341D01*
X101099Y160549D01*
X104953Y160549D01*
X104953Y153047D01*
X98451Y153047D01*
G37*
%LPD*%
%LPC*%
G36*
X101099Y139451D02*
X101099Y139451D01*
X100323Y139659D01*
X99628Y140060D01*
X99060Y140628D01*
X98659Y141323D01*
X98451Y142099D01*
X98451Y146953D01*
X104953Y146953D01*
X104953Y139451D01*
X101099Y139451D01*
G37*
%LPD*%
%LPC*%
G36*
X19999Y19999D02*
X19999Y19999D01*
X19999Y20001D01*
X20001Y20001D01*
X20001Y19999D01*
X19999Y19999D01*
G37*
%LPD*%
D10*
X105932Y183443D02*
X105932Y193857D01*
X108825Y193857D01*
X108932Y193855D01*
X109039Y193849D01*
X109145Y193839D01*
X109251Y193825D01*
X109357Y193808D01*
X109461Y193786D01*
X109565Y193761D01*
X109668Y193731D01*
X109770Y193698D01*
X109870Y193662D01*
X109969Y193621D01*
X110066Y193577D01*
X110162Y193529D01*
X110256Y193478D01*
X110348Y193424D01*
X110438Y193366D01*
X110525Y193304D01*
X110611Y193240D01*
X110694Y193173D01*
X110774Y193102D01*
X110852Y193028D01*
X110927Y192952D01*
X110999Y192873D01*
X111068Y192792D01*
X111134Y192707D01*
X111197Y192621D01*
X111256Y192532D01*
X111312Y192441D01*
X111365Y192348D01*
X111415Y192254D01*
X111461Y192157D01*
X111503Y192059D01*
X111541Y191959D01*
X111576Y191858D01*
X111608Y191756D01*
X111635Y191652D01*
X111658Y191548D01*
X111678Y191443D01*
X111694Y191337D01*
X111706Y191231D01*
X111714Y191124D01*
X111718Y191017D01*
X111718Y190911D01*
X111714Y190804D01*
X111706Y190697D01*
X111694Y190591D01*
X111678Y190485D01*
X111658Y190380D01*
X111635Y190276D01*
X111608Y190172D01*
X111576Y190070D01*
X111541Y189969D01*
X111503Y189869D01*
X111461Y189771D01*
X111415Y189674D01*
X111365Y189580D01*
X111312Y189487D01*
X111256Y189396D01*
X111197Y189307D01*
X111134Y189221D01*
X111068Y189136D01*
X110999Y189055D01*
X110927Y188976D01*
X110852Y188900D01*
X110774Y188826D01*
X110694Y188755D01*
X110611Y188688D01*
X110525Y188624D01*
X110438Y188562D01*
X110348Y188504D01*
X110256Y188450D01*
X110162Y188399D01*
X110066Y188351D01*
X109969Y188307D01*
X109870Y188266D01*
X109770Y188230D01*
X109668Y188197D01*
X109565Y188167D01*
X109461Y188142D01*
X109357Y188120D01*
X109251Y188103D01*
X109145Y188089D01*
X109039Y188079D01*
X108932Y188073D01*
X108825Y188071D01*
X105932Y188071D01*
X117087Y186336D02*
X117087Y193857D01*
X117087Y186336D02*
X117089Y186229D01*
X117095Y186122D01*
X117105Y186016D01*
X117119Y185910D01*
X117136Y185804D01*
X117158Y185700D01*
X117183Y185596D01*
X117213Y185493D01*
X117246Y185391D01*
X117282Y185291D01*
X117323Y185192D01*
X117367Y185095D01*
X117415Y184999D01*
X117466Y184905D01*
X117520Y184813D01*
X117578Y184723D01*
X117640Y184636D01*
X117704Y184550D01*
X117771Y184467D01*
X117842Y184387D01*
X117916Y184309D01*
X117992Y184234D01*
X118071Y184162D01*
X118152Y184093D01*
X118237Y184027D01*
X118323Y183964D01*
X118412Y183905D01*
X118503Y183849D01*
X118596Y183796D01*
X118690Y183746D01*
X118787Y183700D01*
X118885Y183658D01*
X118985Y183620D01*
X119086Y183585D01*
X119188Y183553D01*
X119292Y183526D01*
X119396Y183503D01*
X119501Y183483D01*
X119607Y183467D01*
X119713Y183455D01*
X119820Y183447D01*
X119927Y183443D01*
X120033Y183443D01*
X120140Y183447D01*
X120247Y183455D01*
X120353Y183467D01*
X120459Y183483D01*
X120564Y183503D01*
X120668Y183526D01*
X120772Y183553D01*
X120874Y183585D01*
X120975Y183620D01*
X121075Y183658D01*
X121173Y183700D01*
X121270Y183746D01*
X121364Y183796D01*
X121457Y183849D01*
X121548Y183905D01*
X121637Y183964D01*
X121723Y184027D01*
X121808Y184093D01*
X121889Y184162D01*
X121968Y184234D01*
X122044Y184309D01*
X122118Y184387D01*
X122189Y184467D01*
X122256Y184550D01*
X122320Y184636D01*
X122382Y184723D01*
X122440Y184813D01*
X122494Y184905D01*
X122545Y184999D01*
X122593Y185095D01*
X122637Y185192D01*
X122678Y185291D01*
X122714Y185391D01*
X122747Y185493D01*
X122777Y185596D01*
X122802Y185700D01*
X122824Y185804D01*
X122841Y185910D01*
X122855Y186016D01*
X122865Y186122D01*
X122871Y186229D01*
X122873Y186336D01*
X122873Y193857D01*
X129082Y187493D02*
X136024Y187493D01*
X145034Y193858D02*
X145134Y193856D01*
X145233Y193850D01*
X145333Y193841D01*
X145431Y193827D01*
X145530Y193810D01*
X145627Y193790D01*
X145724Y193765D01*
X145820Y193737D01*
X145914Y193705D01*
X146007Y193669D01*
X146099Y193630D01*
X146189Y193588D01*
X146278Y193542D01*
X146365Y193492D01*
X146449Y193440D01*
X146532Y193384D01*
X146613Y193325D01*
X146691Y193263D01*
X146767Y193198D01*
X146840Y193130D01*
X146910Y193060D01*
X146978Y192987D01*
X147043Y192911D01*
X147105Y192833D01*
X147164Y192752D01*
X147220Y192669D01*
X147272Y192585D01*
X147322Y192498D01*
X147368Y192409D01*
X147410Y192319D01*
X147449Y192227D01*
X147485Y192134D01*
X147517Y192040D01*
X147545Y191944D01*
X147570Y191847D01*
X147590Y191750D01*
X147607Y191651D01*
X147621Y191553D01*
X147630Y191453D01*
X147636Y191354D01*
X147638Y191254D01*
X145034Y193857D02*
X144920Y193855D01*
X144807Y193849D01*
X144694Y193840D01*
X144581Y193826D01*
X144468Y193809D01*
X144357Y193788D01*
X144246Y193763D01*
X144136Y193734D01*
X144027Y193702D01*
X143919Y193666D01*
X143812Y193626D01*
X143707Y193583D01*
X143604Y193536D01*
X143502Y193485D01*
X143402Y193432D01*
X143303Y193374D01*
X143207Y193314D01*
X143113Y193250D01*
X143021Y193183D01*
X142931Y193113D01*
X142844Y193040D01*
X142759Y192965D01*
X142677Y192886D01*
X142598Y192804D01*
X142522Y192720D01*
X142448Y192634D01*
X142377Y192545D01*
X142310Y192453D01*
X142245Y192359D01*
X142184Y192264D01*
X142126Y192166D01*
X142072Y192066D01*
X142021Y191964D01*
X141973Y191861D01*
X141929Y191756D01*
X141889Y191650D01*
X141852Y191543D01*
X146770Y189229D02*
X146843Y189301D01*
X146914Y189376D01*
X146981Y189454D01*
X147046Y189534D01*
X147108Y189616D01*
X147167Y189700D01*
X147222Y189787D01*
X147275Y189876D01*
X147324Y189966D01*
X147370Y190058D01*
X147412Y190152D01*
X147451Y190248D01*
X147486Y190344D01*
X147518Y190442D01*
X147546Y190541D01*
X147570Y190641D01*
X147591Y190742D01*
X147608Y190844D01*
X147621Y190946D01*
X147630Y191048D01*
X147636Y191151D01*
X147638Y191254D01*
X146770Y189229D02*
X141852Y183443D01*
X147638Y183443D01*
X153282Y188650D02*
X153284Y188855D01*
X153292Y189060D01*
X153304Y189264D01*
X153321Y189468D01*
X153343Y189672D01*
X153370Y189875D01*
X153402Y190078D01*
X153438Y190279D01*
X153479Y190480D01*
X153525Y190679D01*
X153576Y190878D01*
X153632Y191075D01*
X153692Y191271D01*
X153757Y191465D01*
X153826Y191658D01*
X153900Y191849D01*
X153979Y192038D01*
X154062Y192225D01*
X154150Y192411D01*
X154150Y192410D02*
X154181Y192496D01*
X154216Y192581D01*
X154255Y192664D01*
X154298Y192745D01*
X154343Y192824D01*
X154392Y192902D01*
X154445Y192977D01*
X154500Y193050D01*
X154559Y193120D01*
X154620Y193188D01*
X154685Y193253D01*
X154752Y193315D01*
X154821Y193375D01*
X154894Y193431D01*
X154968Y193484D01*
X155045Y193534D01*
X155124Y193581D01*
X155204Y193624D01*
X155287Y193664D01*
X155371Y193700D01*
X155457Y193733D01*
X155543Y193762D01*
X155632Y193787D01*
X155721Y193808D01*
X155810Y193826D01*
X155901Y193839D01*
X155992Y193849D01*
X156083Y193855D01*
X156175Y193857D01*
X156267Y193855D01*
X156358Y193849D01*
X156449Y193839D01*
X156540Y193826D01*
X156629Y193808D01*
X156718Y193787D01*
X156807Y193762D01*
X156893Y193733D01*
X156979Y193700D01*
X157063Y193664D01*
X157146Y193624D01*
X157226Y193581D01*
X157305Y193534D01*
X157382Y193484D01*
X157456Y193431D01*
X157529Y193375D01*
X157598Y193315D01*
X157665Y193253D01*
X157730Y193188D01*
X157791Y193120D01*
X157850Y193050D01*
X157905Y192977D01*
X157958Y192902D01*
X158007Y192824D01*
X158052Y192745D01*
X158095Y192664D01*
X158134Y192581D01*
X158169Y192496D01*
X158200Y192410D01*
X158200Y192411D02*
X158288Y192225D01*
X158371Y192038D01*
X158450Y191849D01*
X158524Y191658D01*
X158593Y191465D01*
X158658Y191271D01*
X158718Y191075D01*
X158774Y190878D01*
X158825Y190679D01*
X158871Y190480D01*
X158912Y190279D01*
X158948Y190078D01*
X158980Y189875D01*
X159007Y189672D01*
X159029Y189468D01*
X159046Y189264D01*
X159058Y189060D01*
X159066Y188855D01*
X159068Y188650D01*
X153282Y188650D02*
X153284Y188445D01*
X153292Y188240D01*
X153304Y188036D01*
X153321Y187832D01*
X153343Y187628D01*
X153370Y187425D01*
X153402Y187223D01*
X153438Y187021D01*
X153479Y186820D01*
X153525Y186621D01*
X153576Y186422D01*
X153632Y186225D01*
X153692Y186029D01*
X153757Y185835D01*
X153826Y185642D01*
X153900Y185451D01*
X153979Y185262D01*
X154062Y185075D01*
X154150Y184889D01*
X154150Y184890D02*
X154181Y184804D01*
X154216Y184719D01*
X154255Y184636D01*
X154298Y184555D01*
X154343Y184476D01*
X154392Y184398D01*
X154445Y184323D01*
X154500Y184250D01*
X154559Y184180D01*
X154620Y184112D01*
X154685Y184047D01*
X154752Y183985D01*
X154821Y183925D01*
X154894Y183869D01*
X154968Y183816D01*
X155045Y183766D01*
X155124Y183719D01*
X155204Y183676D01*
X155287Y183636D01*
X155371Y183600D01*
X155457Y183567D01*
X155543Y183538D01*
X155632Y183513D01*
X155721Y183492D01*
X155810Y183474D01*
X155901Y183461D01*
X155992Y183451D01*
X156083Y183445D01*
X156175Y183443D01*
X158199Y184889D02*
X158287Y185075D01*
X158370Y185262D01*
X158449Y185451D01*
X158523Y185642D01*
X158592Y185835D01*
X158657Y186029D01*
X158717Y186225D01*
X158773Y186422D01*
X158824Y186621D01*
X158870Y186820D01*
X158911Y187021D01*
X158947Y187223D01*
X158979Y187425D01*
X159006Y187628D01*
X159028Y187832D01*
X159045Y188036D01*
X159057Y188240D01*
X159065Y188445D01*
X159067Y188650D01*
X158200Y184890D02*
X158169Y184804D01*
X158134Y184719D01*
X158095Y184636D01*
X158052Y184555D01*
X158007Y184476D01*
X157958Y184398D01*
X157905Y184323D01*
X157850Y184250D01*
X157791Y184180D01*
X157730Y184112D01*
X157665Y184047D01*
X157598Y183985D01*
X157529Y183925D01*
X157456Y183869D01*
X157382Y183816D01*
X157305Y183766D01*
X157226Y183719D01*
X157146Y183676D01*
X157063Y183636D01*
X156979Y183600D01*
X156893Y183567D01*
X156807Y183538D01*
X156718Y183513D01*
X156629Y183492D01*
X156540Y183474D01*
X156449Y183461D01*
X156358Y183451D01*
X156267Y183445D01*
X156175Y183443D01*
X153861Y185757D02*
X158489Y191543D01*
X16557Y152043D02*
X6143Y152043D01*
X16557Y152043D02*
X16557Y149150D01*
X16555Y149043D01*
X16549Y148936D01*
X16539Y148830D01*
X16525Y148724D01*
X16508Y148618D01*
X16486Y148514D01*
X16461Y148410D01*
X16431Y148307D01*
X16398Y148205D01*
X16362Y148105D01*
X16321Y148006D01*
X16277Y147909D01*
X16229Y147813D01*
X16178Y147719D01*
X16124Y147627D01*
X16066Y147537D01*
X16004Y147450D01*
X15940Y147364D01*
X15873Y147281D01*
X15802Y147201D01*
X15728Y147123D01*
X15652Y147048D01*
X15573Y146976D01*
X15492Y146907D01*
X15407Y146841D01*
X15321Y146778D01*
X15232Y146719D01*
X15141Y146663D01*
X15048Y146610D01*
X14954Y146560D01*
X14857Y146514D01*
X14759Y146472D01*
X14659Y146434D01*
X14558Y146399D01*
X14456Y146367D01*
X14352Y146340D01*
X14248Y146317D01*
X14143Y146297D01*
X14037Y146281D01*
X13931Y146269D01*
X13824Y146261D01*
X13717Y146257D01*
X13611Y146257D01*
X13504Y146261D01*
X13397Y146269D01*
X13291Y146281D01*
X13185Y146297D01*
X13080Y146317D01*
X12976Y146340D01*
X12872Y146367D01*
X12770Y146399D01*
X12669Y146434D01*
X12569Y146472D01*
X12471Y146514D01*
X12374Y146560D01*
X12280Y146610D01*
X12187Y146663D01*
X12096Y146719D01*
X12007Y146778D01*
X11921Y146841D01*
X11836Y146907D01*
X11755Y146976D01*
X11676Y147048D01*
X11600Y147123D01*
X11526Y147201D01*
X11455Y147281D01*
X11388Y147364D01*
X11324Y147450D01*
X11262Y147537D01*
X11204Y147627D01*
X11150Y147719D01*
X11099Y147813D01*
X11051Y147909D01*
X11007Y148006D01*
X10966Y148105D01*
X10930Y148205D01*
X10897Y148307D01*
X10867Y148410D01*
X10842Y148514D01*
X10820Y148618D01*
X10803Y148724D01*
X10789Y148830D01*
X10779Y148936D01*
X10773Y149043D01*
X10771Y149150D01*
X10771Y152043D01*
X6143Y138179D02*
X6145Y138086D01*
X6151Y137993D01*
X6160Y137900D01*
X6173Y137808D01*
X6190Y137716D01*
X6210Y137625D01*
X6234Y137535D01*
X6262Y137446D01*
X6293Y137358D01*
X6328Y137272D01*
X6366Y137187D01*
X6408Y137104D01*
X6453Y137022D01*
X6501Y136942D01*
X6553Y136864D01*
X6607Y136789D01*
X6665Y136716D01*
X6725Y136645D01*
X6788Y136576D01*
X6854Y136510D01*
X6923Y136447D01*
X6994Y136387D01*
X7067Y136329D01*
X7142Y136275D01*
X7220Y136223D01*
X7300Y136175D01*
X7382Y136130D01*
X7465Y136088D01*
X7550Y136050D01*
X7636Y136015D01*
X7724Y135984D01*
X7813Y135956D01*
X7903Y135932D01*
X7994Y135912D01*
X8086Y135895D01*
X8178Y135882D01*
X8271Y135873D01*
X8364Y135867D01*
X8457Y135865D01*
X6143Y138179D02*
X6145Y138317D01*
X6151Y138455D01*
X6160Y138592D01*
X6174Y138729D01*
X6192Y138866D01*
X6213Y139002D01*
X6238Y139138D01*
X6267Y139273D01*
X6300Y139407D01*
X6336Y139539D01*
X6376Y139671D01*
X6420Y139802D01*
X6468Y139931D01*
X6519Y140059D01*
X6574Y140186D01*
X6632Y140311D01*
X6694Y140434D01*
X6759Y140555D01*
X6828Y140675D01*
X6900Y140792D01*
X6975Y140908D01*
X7054Y141021D01*
X7136Y141132D01*
X7221Y141241D01*
X7308Y141347D01*
X7399Y141451D01*
X7493Y141552D01*
X7589Y141650D01*
X14243Y141360D02*
X14336Y141358D01*
X14429Y141352D01*
X14522Y141343D01*
X14614Y141330D01*
X14706Y141313D01*
X14797Y141293D01*
X14887Y141269D01*
X14976Y141241D01*
X15064Y141210D01*
X15150Y141175D01*
X15235Y141137D01*
X15318Y141095D01*
X15400Y141050D01*
X15480Y141002D01*
X15558Y140950D01*
X15633Y140896D01*
X15706Y140838D01*
X15777Y140778D01*
X15846Y140715D01*
X15912Y140649D01*
X15975Y140580D01*
X16035Y140509D01*
X16093Y140436D01*
X16147Y140361D01*
X16199Y140283D01*
X16247Y140203D01*
X16292Y140121D01*
X16334Y140038D01*
X16372Y139953D01*
X16407Y139867D01*
X16438Y139779D01*
X16466Y139690D01*
X16490Y139600D01*
X16510Y139509D01*
X16527Y139417D01*
X16540Y139325D01*
X16549Y139232D01*
X16555Y139139D01*
X16557Y139046D01*
X16555Y138919D01*
X16550Y138792D01*
X16540Y138666D01*
X16527Y138539D01*
X16511Y138414D01*
X16490Y138288D01*
X16466Y138164D01*
X16439Y138040D01*
X16408Y137917D01*
X16373Y137795D01*
X16334Y137674D01*
X16292Y137554D01*
X16247Y137436D01*
X16198Y137318D01*
X16146Y137203D01*
X16090Y137089D01*
X16032Y136976D01*
X15969Y136866D01*
X15904Y136757D01*
X15835Y136650D01*
X15764Y136545D01*
X15689Y136443D01*
X12218Y140203D02*
X12268Y140283D01*
X12320Y140361D01*
X12375Y140436D01*
X12434Y140510D01*
X12495Y140581D01*
X12559Y140649D01*
X12626Y140715D01*
X12696Y140779D01*
X12767Y140839D01*
X12842Y140896D01*
X12918Y140951D01*
X12997Y141002D01*
X13077Y141050D01*
X13159Y141095D01*
X13244Y141137D01*
X13329Y141175D01*
X13416Y141210D01*
X13505Y141241D01*
X13595Y141269D01*
X13685Y141293D01*
X13777Y141313D01*
X13869Y141330D01*
X13962Y141343D01*
X14056Y141353D01*
X14149Y141358D01*
X14243Y141360D01*
X10482Y137022D02*
X10432Y136942D01*
X10380Y136864D01*
X10325Y136788D01*
X10266Y136715D01*
X10205Y136644D01*
X10141Y136576D01*
X10074Y136510D01*
X10004Y136446D01*
X9933Y136386D01*
X9858Y136329D01*
X9782Y136274D01*
X9703Y136223D01*
X9623Y136175D01*
X9541Y136130D01*
X9456Y136088D01*
X9371Y136050D01*
X9284Y136015D01*
X9195Y135984D01*
X9105Y135956D01*
X9015Y135932D01*
X8923Y135912D01*
X8831Y135895D01*
X8738Y135882D01*
X8644Y135872D01*
X8551Y135867D01*
X8457Y135865D01*
X10482Y137021D02*
X12218Y140203D01*
X16557Y129994D02*
X6143Y129994D01*
X6143Y131151D02*
X6143Y128837D01*
X16557Y128837D02*
X16557Y131151D01*
X13664Y123743D02*
X9036Y123743D01*
X13664Y123743D02*
X13771Y123741D01*
X13878Y123735D01*
X13984Y123725D01*
X14090Y123711D01*
X14196Y123694D01*
X14300Y123672D01*
X14404Y123647D01*
X14507Y123617D01*
X14609Y123584D01*
X14709Y123548D01*
X14808Y123507D01*
X14905Y123463D01*
X15001Y123415D01*
X15095Y123364D01*
X15187Y123310D01*
X15277Y123252D01*
X15364Y123190D01*
X15450Y123126D01*
X15533Y123059D01*
X15613Y122988D01*
X15691Y122914D01*
X15766Y122838D01*
X15838Y122759D01*
X15907Y122678D01*
X15973Y122593D01*
X16036Y122507D01*
X16095Y122418D01*
X16151Y122327D01*
X16204Y122234D01*
X16254Y122140D01*
X16300Y122043D01*
X16342Y121945D01*
X16380Y121845D01*
X16415Y121744D01*
X16447Y121642D01*
X16474Y121538D01*
X16497Y121434D01*
X16517Y121329D01*
X16533Y121223D01*
X16545Y121117D01*
X16553Y121010D01*
X16557Y120903D01*
X16557Y120797D01*
X16553Y120690D01*
X16545Y120583D01*
X16533Y120477D01*
X16517Y120371D01*
X16497Y120266D01*
X16474Y120162D01*
X16447Y120058D01*
X16415Y119956D01*
X16380Y119855D01*
X16342Y119755D01*
X16300Y119657D01*
X16254Y119560D01*
X16204Y119466D01*
X16151Y119373D01*
X16095Y119282D01*
X16036Y119193D01*
X15973Y119107D01*
X15907Y119022D01*
X15838Y118941D01*
X15766Y118862D01*
X15691Y118786D01*
X15613Y118712D01*
X15533Y118641D01*
X15450Y118574D01*
X15364Y118510D01*
X15277Y118448D01*
X15187Y118390D01*
X15095Y118336D01*
X15001Y118285D01*
X14905Y118237D01*
X14808Y118193D01*
X14709Y118152D01*
X14609Y118116D01*
X14507Y118083D01*
X14404Y118053D01*
X14300Y118028D01*
X14196Y118006D01*
X14090Y117989D01*
X13984Y117975D01*
X13878Y117965D01*
X13771Y117959D01*
X13664Y117957D01*
X9036Y117957D01*
X8929Y117959D01*
X8822Y117965D01*
X8716Y117975D01*
X8610Y117989D01*
X8504Y118006D01*
X8400Y118028D01*
X8296Y118053D01*
X8193Y118083D01*
X8091Y118116D01*
X7991Y118152D01*
X7892Y118193D01*
X7795Y118237D01*
X7699Y118285D01*
X7605Y118336D01*
X7513Y118390D01*
X7423Y118448D01*
X7336Y118510D01*
X7250Y118574D01*
X7167Y118641D01*
X7087Y118712D01*
X7009Y118786D01*
X6934Y118862D01*
X6862Y118941D01*
X6793Y119022D01*
X6727Y119107D01*
X6664Y119193D01*
X6605Y119282D01*
X6549Y119373D01*
X6496Y119466D01*
X6446Y119560D01*
X6400Y119657D01*
X6358Y119755D01*
X6320Y119855D01*
X6285Y119956D01*
X6253Y120058D01*
X6226Y120162D01*
X6203Y120266D01*
X6183Y120371D01*
X6167Y120477D01*
X6155Y120583D01*
X6147Y120690D01*
X6143Y120797D01*
X6143Y120903D01*
X6147Y121010D01*
X6155Y121117D01*
X6167Y121223D01*
X6183Y121329D01*
X6203Y121434D01*
X6226Y121538D01*
X6253Y121642D01*
X6285Y121744D01*
X6320Y121845D01*
X6358Y121945D01*
X6400Y122043D01*
X6446Y122140D01*
X6496Y122234D01*
X6549Y122327D01*
X6605Y122418D01*
X6664Y122507D01*
X6727Y122593D01*
X6793Y122678D01*
X6862Y122759D01*
X6934Y122838D01*
X7009Y122914D01*
X7087Y122988D01*
X7167Y123059D01*
X7250Y123126D01*
X7336Y123190D01*
X7423Y123252D01*
X7513Y123310D01*
X7605Y123364D01*
X7699Y123415D01*
X7795Y123463D01*
X7892Y123507D01*
X7991Y123548D01*
X8091Y123584D01*
X8193Y123617D01*
X8296Y123647D01*
X8400Y123672D01*
X8504Y123694D01*
X8610Y123711D01*
X8716Y123725D01*
X8822Y123735D01*
X8929Y123741D01*
X9036Y123743D01*
D11*
X108000Y150000D03*
X127000Y150000D03*
D12*
X155000Y20000D03*
X125000Y20000D03*
X20000Y55000D03*
X20000Y20000D03*
X20000Y180000D03*
X55000Y180000D03*
D11*
X63000Y150000D03*
X82000Y150000D03*
D13*
X150000Y140500D03*
X150000Y159500D03*
X150000Y69500D03*
X150000Y50500D03*
X150000Y95500D03*
X150000Y114500D03*
D12*
X20000Y90000D03*
X65000Y20000D03*
X95000Y20000D03*
D14*
X70870Y128100D03*
X70870Y115400D03*
X70870Y102700D03*
X70870Y90000D03*
X70870Y77300D03*
X70870Y64600D03*
X70870Y51900D03*
X119130Y51900D03*
X119130Y64600D03*
X119130Y77300D03*
X119130Y90000D03*
X119130Y102700D03*
X119130Y115400D03*
X119130Y128100D03*
D15*
X70870Y77300D02*
X70870Y64600D01*
D16*
X50000Y64600D03*
X50000Y150000D03*
D17*
X63000Y150000D01*
D15*
X50000Y64600D02*
X40400Y55000D01*
X20000Y55000D01*
X50000Y64600D02*
X70870Y64600D01*
X50872Y62283D02*
X45757Y60357D01*
X50872Y62283D02*
X50000Y64600D01*
X47683Y65472D02*
X45757Y60357D01*
X47683Y65472D02*
X50000Y64600D01*
X51022Y66855D02*
X56000Y64600D01*
X51022Y66855D02*
X50000Y64600D01*
X51022Y62345D02*
X56000Y64600D01*
X51022Y62345D02*
X50000Y64600D01*
D17*
X55000Y180000D02*
X80000Y180000D01*
D16*
X80000Y180000D03*
X98750Y51900D03*
D15*
X119130Y51900D01*
X104750Y51900D02*
X99772Y54155D01*
X98750Y51900D01*
X99772Y49645D02*
X104750Y51900D01*
X99772Y49645D02*
X98750Y51900D01*
X98750Y90000D02*
X119130Y90000D01*
D17*
X83750Y31250D02*
X95000Y20000D01*
D16*
X83750Y31250D03*
X98750Y90000D03*
D15*
X99772Y92255D02*
X104750Y90000D01*
X99772Y92255D02*
X98750Y90000D01*
X99772Y87745D02*
X104750Y90000D01*
X99772Y87745D02*
X98750Y90000D01*
D16*
X91250Y127500D03*
D15*
X90650Y128100D01*
X70870Y128100D01*
D17*
X143750Y31250D02*
X155000Y20000D01*
D16*
X143750Y31250D03*
D15*
X70870Y128100D02*
X46933Y128100D01*
X35000Y140033D01*
X35000Y165000D02*
X20000Y180000D01*
X35000Y165000D02*
X35000Y140033D01*
X85280Y128100D02*
X90008Y125358D01*
X91250Y127500D01*
X90459Y129846D02*
X85280Y128100D01*
X90459Y129846D02*
X91250Y127500D01*
X91250Y115400D02*
X70870Y115400D01*
D16*
X91250Y115400D03*
X150000Y127500D03*
D17*
X150000Y140500D01*
D16*
X53750Y31250D03*
X48750Y115400D03*
D15*
X70870Y115400D01*
D17*
X53750Y31250D02*
X65000Y20000D01*
D15*
X90228Y113145D02*
X85250Y115400D01*
X90228Y113145D02*
X91250Y115400D01*
X90228Y117655D02*
X85250Y115400D01*
X90228Y117655D02*
X91250Y115400D01*
X54750Y115400D02*
X49772Y117655D01*
X48750Y115400D01*
X49772Y113145D02*
X54750Y115400D01*
X49772Y113145D02*
X48750Y115400D01*
X136250Y62100D02*
X136250Y45000D01*
X136250Y62100D02*
X133750Y64600D01*
X119130Y64600D01*
X136250Y45000D02*
X125000Y33750D01*
X125000Y20000D01*
X119130Y64600D02*
X119130Y77300D01*
X139700Y77300D01*
X147500Y69500D02*
X150000Y69500D01*
X147500Y69500D02*
X139700Y77300D01*
D16*
X95000Y170000D03*
D15*
X70870Y51900D02*
X61900Y51900D01*
D16*
X32500Y37500D03*
X31250Y101250D03*
X163750Y160000D03*
D18*
X161250Y114500D02*
X150000Y114500D01*
X119130Y128100D02*
X119130Y138100D01*
X127000Y145970D02*
X127000Y150000D01*
X127000Y145970D02*
X119130Y138100D01*
X150000Y50500D02*
X160500Y50500D01*
X165000Y55000D01*
X165000Y111250D01*
X165000Y118250D01*
X150000Y159500D02*
X150500Y160000D01*
D17*
X158375Y160000D01*
X163750Y160000D01*
D18*
X165000Y158750D01*
X165000Y153375D01*
X165000Y118250D01*
D17*
X31250Y101250D02*
X20000Y90000D01*
X127000Y150000D02*
X127000Y163750D01*
D16*
X127000Y163750D03*
D18*
X165000Y118250D02*
X161250Y114500D01*
X164500Y111250D01*
X165000Y111250D01*
D15*
X165000Y153375D02*
X158375Y160000D01*
D18*
X165209Y159948D02*
X165000Y154132D01*
X165209Y159948D02*
X163750Y160000D01*
X162439Y159357D02*
X165000Y154132D01*
X162439Y159357D02*
X163750Y160000D01*
D15*
X166096Y159207D02*
X164345Y154030D01*
X166096Y159207D02*
X163750Y160000D01*
X161607Y158759D02*
X164345Y154030D01*
X161607Y158759D02*
X163750Y160000D01*
X119130Y102700D02*
X70870Y102700D01*
X119130Y102700D02*
X119130Y115400D01*
X119130Y102700D02*
X140300Y102700D01*
X147500Y95500D02*
X150000Y95500D01*
X147500Y95500D02*
X140300Y102700D01*
M02*
