G04 EAGLE Gerber RS-274X export*
G75*
%MOMM*%
%FSLAX34Y34*%
%LPD*%
%INSilkscreen Top*%
%IPPOS*%
%AMOC8*
5,1,8,0,0,1.08239X$1,22.5*%
G01*
%ADD10C,0.050800*%
%ADD11C,0.127000*%
%ADD12C,0.800000*%


D10*
X36987Y26956D02*
X36987Y25686D01*
X32754Y25686D01*
X32754Y28226D01*
X32756Y28307D01*
X32762Y28387D01*
X32771Y28467D01*
X32785Y28546D01*
X32802Y28625D01*
X32823Y28703D01*
X32847Y28780D01*
X32875Y28855D01*
X32907Y28929D01*
X32942Y29002D01*
X32981Y29073D01*
X33023Y29141D01*
X33068Y29208D01*
X33116Y29273D01*
X33168Y29335D01*
X33222Y29394D01*
X33279Y29451D01*
X33338Y29505D01*
X33400Y29557D01*
X33465Y29605D01*
X33532Y29650D01*
X33601Y29692D01*
X33671Y29731D01*
X33744Y29766D01*
X33818Y29798D01*
X33893Y29826D01*
X33970Y29850D01*
X34048Y29871D01*
X34127Y29888D01*
X34206Y29902D01*
X34286Y29911D01*
X34366Y29917D01*
X34447Y29919D01*
X34447Y29920D02*
X38681Y29920D01*
X38681Y29919D02*
X38762Y29917D01*
X38842Y29911D01*
X38922Y29902D01*
X39001Y29888D01*
X39080Y29871D01*
X39158Y29850D01*
X39235Y29826D01*
X39310Y29798D01*
X39384Y29766D01*
X39457Y29731D01*
X39527Y29692D01*
X39596Y29650D01*
X39663Y29605D01*
X39728Y29557D01*
X39790Y29505D01*
X39849Y29451D01*
X39906Y29394D01*
X39960Y29335D01*
X40012Y29273D01*
X40060Y29208D01*
X40105Y29141D01*
X40147Y29073D01*
X40186Y29002D01*
X40221Y28929D01*
X40253Y28855D01*
X40281Y28780D01*
X40305Y28703D01*
X40326Y28625D01*
X40343Y28546D01*
X40357Y28467D01*
X40366Y28387D01*
X40372Y28307D01*
X40374Y28226D01*
X40374Y25686D01*
X40374Y22117D02*
X32754Y22117D01*
X32754Y17883D02*
X40374Y22117D01*
X40374Y17883D02*
X32754Y17883D01*
X32754Y14314D02*
X40374Y14314D01*
X40374Y12197D01*
X40372Y12107D01*
X40366Y12017D01*
X40357Y11928D01*
X40344Y11839D01*
X40326Y11751D01*
X40306Y11664D01*
X40281Y11577D01*
X40253Y11492D01*
X40221Y11408D01*
X40186Y11325D01*
X40147Y11244D01*
X40105Y11165D01*
X40060Y11087D01*
X40011Y11012D01*
X39959Y10938D01*
X39904Y10867D01*
X39846Y10798D01*
X39785Y10732D01*
X39722Y10669D01*
X39656Y10608D01*
X39587Y10550D01*
X39516Y10495D01*
X39442Y10443D01*
X39367Y10394D01*
X39289Y10349D01*
X39210Y10307D01*
X39129Y10268D01*
X39046Y10233D01*
X38962Y10201D01*
X38877Y10173D01*
X38790Y10148D01*
X38703Y10128D01*
X38615Y10110D01*
X38526Y10097D01*
X38437Y10088D01*
X38347Y10082D01*
X38257Y10080D01*
X34871Y10080D01*
X34781Y10082D01*
X34691Y10088D01*
X34602Y10097D01*
X34513Y10110D01*
X34425Y10128D01*
X34338Y10148D01*
X34251Y10173D01*
X34166Y10201D01*
X34082Y10233D01*
X33999Y10268D01*
X33918Y10307D01*
X33839Y10349D01*
X33761Y10394D01*
X33686Y10443D01*
X33612Y10495D01*
X33541Y10550D01*
X33472Y10608D01*
X33406Y10669D01*
X33343Y10732D01*
X33282Y10798D01*
X33224Y10867D01*
X33169Y10938D01*
X33117Y11012D01*
X33068Y11087D01*
X33023Y11165D01*
X32981Y11244D01*
X32942Y11325D01*
X32907Y11408D01*
X32875Y11492D01*
X32847Y11577D01*
X32822Y11664D01*
X32802Y11751D01*
X32784Y11839D01*
X32771Y11928D01*
X32762Y12017D01*
X32756Y12107D01*
X32754Y12197D01*
X32754Y14314D01*
X114019Y160254D02*
X115713Y160254D01*
X114019Y160254D02*
X113938Y160256D01*
X113858Y160262D01*
X113778Y160271D01*
X113699Y160285D01*
X113620Y160302D01*
X113542Y160323D01*
X113465Y160347D01*
X113390Y160375D01*
X113316Y160407D01*
X113243Y160442D01*
X113173Y160481D01*
X113104Y160523D01*
X113037Y160568D01*
X112972Y160616D01*
X112910Y160668D01*
X112851Y160722D01*
X112794Y160779D01*
X112740Y160838D01*
X112688Y160900D01*
X112640Y160965D01*
X112595Y161032D01*
X112553Y161101D01*
X112514Y161171D01*
X112479Y161244D01*
X112447Y161318D01*
X112419Y161393D01*
X112395Y161470D01*
X112374Y161548D01*
X112357Y161627D01*
X112343Y161706D01*
X112334Y161786D01*
X112328Y161866D01*
X112326Y161947D01*
X112326Y166181D01*
X112328Y166262D01*
X112334Y166342D01*
X112343Y166422D01*
X112357Y166501D01*
X112374Y166580D01*
X112395Y166658D01*
X112419Y166735D01*
X112447Y166810D01*
X112479Y166884D01*
X112514Y166957D01*
X112553Y167027D01*
X112595Y167096D01*
X112640Y167163D01*
X112688Y167228D01*
X112740Y167290D01*
X112794Y167349D01*
X112851Y167406D01*
X112910Y167460D01*
X112972Y167512D01*
X113037Y167560D01*
X113104Y167605D01*
X113172Y167647D01*
X113243Y167686D01*
X113316Y167721D01*
X113390Y167753D01*
X113465Y167781D01*
X113542Y167805D01*
X113620Y167826D01*
X113699Y167843D01*
X113778Y167857D01*
X113858Y167866D01*
X113938Y167872D01*
X114019Y167874D01*
X115713Y167874D01*
X118441Y166181D02*
X120557Y167874D01*
X120557Y160254D01*
X118441Y160254D02*
X122674Y160254D01*
X151814Y32754D02*
X153508Y32754D01*
X151814Y32754D02*
X151733Y32756D01*
X151653Y32762D01*
X151573Y32771D01*
X151494Y32785D01*
X151415Y32802D01*
X151337Y32823D01*
X151260Y32847D01*
X151185Y32875D01*
X151111Y32907D01*
X151038Y32942D01*
X150968Y32981D01*
X150899Y33023D01*
X150832Y33068D01*
X150767Y33116D01*
X150705Y33168D01*
X150646Y33222D01*
X150589Y33279D01*
X150535Y33338D01*
X150483Y33400D01*
X150435Y33465D01*
X150390Y33532D01*
X150348Y33601D01*
X150309Y33671D01*
X150274Y33744D01*
X150242Y33818D01*
X150214Y33893D01*
X150190Y33970D01*
X150169Y34048D01*
X150152Y34127D01*
X150138Y34206D01*
X150129Y34286D01*
X150123Y34366D01*
X150121Y34447D01*
X150121Y38681D01*
X150123Y38762D01*
X150129Y38842D01*
X150138Y38922D01*
X150152Y39001D01*
X150169Y39080D01*
X150190Y39158D01*
X150214Y39235D01*
X150242Y39310D01*
X150274Y39384D01*
X150309Y39457D01*
X150348Y39527D01*
X150390Y39596D01*
X150435Y39663D01*
X150483Y39728D01*
X150535Y39790D01*
X150589Y39849D01*
X150646Y39906D01*
X150705Y39960D01*
X150767Y40012D01*
X150832Y40060D01*
X150899Y40105D01*
X150967Y40147D01*
X151038Y40186D01*
X151111Y40221D01*
X151185Y40253D01*
X151260Y40281D01*
X151337Y40305D01*
X151415Y40326D01*
X151494Y40343D01*
X151573Y40357D01*
X151653Y40366D01*
X151733Y40372D01*
X151814Y40374D01*
X153508Y40374D01*
X156492Y32754D02*
X159879Y32754D01*
X156492Y32754D02*
X156492Y40374D01*
X159879Y40374D01*
X159032Y36987D02*
X156492Y36987D01*
X124579Y32754D02*
X122886Y32754D01*
X122805Y32756D01*
X122725Y32762D01*
X122645Y32771D01*
X122566Y32785D01*
X122487Y32802D01*
X122409Y32823D01*
X122332Y32847D01*
X122257Y32875D01*
X122183Y32907D01*
X122110Y32942D01*
X122040Y32981D01*
X121971Y33023D01*
X121904Y33068D01*
X121839Y33116D01*
X121777Y33168D01*
X121718Y33222D01*
X121661Y33279D01*
X121607Y33338D01*
X121555Y33400D01*
X121507Y33465D01*
X121462Y33532D01*
X121420Y33601D01*
X121381Y33671D01*
X121346Y33744D01*
X121314Y33818D01*
X121286Y33893D01*
X121262Y33970D01*
X121241Y34048D01*
X121224Y34127D01*
X121210Y34206D01*
X121201Y34286D01*
X121195Y34366D01*
X121193Y34447D01*
X121192Y34447D02*
X121192Y38681D01*
X121193Y38681D02*
X121195Y38762D01*
X121201Y38842D01*
X121210Y38922D01*
X121224Y39001D01*
X121241Y39080D01*
X121262Y39158D01*
X121286Y39235D01*
X121314Y39310D01*
X121346Y39384D01*
X121381Y39457D01*
X121420Y39527D01*
X121462Y39596D01*
X121507Y39663D01*
X121555Y39728D01*
X121607Y39790D01*
X121661Y39849D01*
X121718Y39906D01*
X121777Y39960D01*
X121839Y40012D01*
X121904Y40060D01*
X121971Y40105D01*
X122039Y40147D01*
X122110Y40186D01*
X122183Y40221D01*
X122257Y40253D01*
X122332Y40281D01*
X122409Y40305D01*
X122487Y40326D01*
X122566Y40343D01*
X122645Y40357D01*
X122725Y40366D01*
X122805Y40372D01*
X122886Y40374D01*
X124579Y40374D01*
X127961Y40374D02*
X127961Y32754D01*
X127114Y32754D02*
X128808Y32754D01*
X128808Y40374D02*
X127114Y40374D01*
X32754Y56893D02*
X32754Y60280D01*
X40374Y60280D01*
X40374Y56893D01*
X36987Y57740D02*
X36987Y60280D01*
X40374Y53953D02*
X32754Y53953D01*
X32754Y49720D02*
X40374Y53953D01*
X40374Y49720D02*
X32754Y49720D01*
X32754Y185309D02*
X40374Y185309D01*
X40374Y183192D01*
X40372Y183101D01*
X40366Y183010D01*
X40356Y182919D01*
X40343Y182829D01*
X40325Y182740D01*
X40304Y182651D01*
X40279Y182564D01*
X40250Y182477D01*
X40217Y182392D01*
X40181Y182309D01*
X40141Y182227D01*
X40098Y182147D01*
X40051Y182068D01*
X40001Y181992D01*
X39948Y181918D01*
X39892Y181847D01*
X39832Y181778D01*
X39770Y181711D01*
X39705Y181648D01*
X39637Y181587D01*
X39567Y181529D01*
X39494Y181474D01*
X39419Y181422D01*
X39342Y181374D01*
X39262Y181329D01*
X39181Y181287D01*
X39099Y181249D01*
X39014Y181215D01*
X38928Y181184D01*
X38841Y181157D01*
X38753Y181134D01*
X38664Y181115D01*
X38575Y181099D01*
X38484Y181087D01*
X38394Y181079D01*
X38303Y181075D01*
X38211Y181075D01*
X38120Y181079D01*
X38030Y181087D01*
X37939Y181099D01*
X37850Y181115D01*
X37761Y181134D01*
X37673Y181157D01*
X37586Y181184D01*
X37500Y181215D01*
X37415Y181249D01*
X37333Y181287D01*
X37252Y181329D01*
X37172Y181374D01*
X37095Y181422D01*
X37020Y181474D01*
X36947Y181529D01*
X36877Y181587D01*
X36809Y181648D01*
X36744Y181711D01*
X36682Y181778D01*
X36622Y181847D01*
X36566Y181918D01*
X36513Y181992D01*
X36463Y182068D01*
X36416Y182147D01*
X36373Y182227D01*
X36333Y182309D01*
X36297Y182392D01*
X36264Y182477D01*
X36235Y182564D01*
X36210Y182651D01*
X36189Y182740D01*
X36171Y182829D01*
X36158Y182919D01*
X36148Y183010D01*
X36142Y183101D01*
X36140Y183192D01*
X36141Y183192D02*
X36141Y185309D01*
X32754Y178078D02*
X32754Y174691D01*
X32754Y178078D02*
X40374Y178078D01*
X40374Y174691D01*
X36987Y175538D02*
X36987Y178078D01*
X67754Y184238D02*
X75374Y184238D01*
X75374Y182121D01*
X75372Y182030D01*
X75366Y181939D01*
X75356Y181848D01*
X75343Y181758D01*
X75325Y181669D01*
X75304Y181580D01*
X75279Y181493D01*
X75250Y181406D01*
X75217Y181321D01*
X75181Y181238D01*
X75141Y181156D01*
X75098Y181076D01*
X75051Y180997D01*
X75001Y180921D01*
X74948Y180847D01*
X74892Y180776D01*
X74832Y180707D01*
X74770Y180640D01*
X74705Y180577D01*
X74637Y180516D01*
X74567Y180458D01*
X74494Y180403D01*
X74419Y180351D01*
X74342Y180303D01*
X74262Y180258D01*
X74181Y180216D01*
X74099Y180178D01*
X74014Y180144D01*
X73928Y180113D01*
X73841Y180086D01*
X73753Y180063D01*
X73664Y180044D01*
X73575Y180028D01*
X73484Y180016D01*
X73394Y180008D01*
X73303Y180004D01*
X73211Y180004D01*
X73120Y180008D01*
X73030Y180016D01*
X72939Y180028D01*
X72850Y180044D01*
X72761Y180063D01*
X72673Y180086D01*
X72586Y180113D01*
X72500Y180144D01*
X72415Y180178D01*
X72333Y180216D01*
X72252Y180258D01*
X72172Y180303D01*
X72095Y180351D01*
X72020Y180403D01*
X71947Y180458D01*
X71877Y180516D01*
X71809Y180577D01*
X71744Y180640D01*
X71682Y180707D01*
X71622Y180776D01*
X71566Y180847D01*
X71513Y180921D01*
X71463Y180997D01*
X71416Y181076D01*
X71373Y181156D01*
X71333Y181238D01*
X71297Y181321D01*
X71264Y181406D01*
X71235Y181493D01*
X71210Y181580D01*
X71189Y181669D01*
X71171Y181758D01*
X71158Y181848D01*
X71148Y181939D01*
X71142Y182030D01*
X71140Y182121D01*
X71141Y182121D02*
X71141Y184238D01*
X67754Y176609D02*
X75374Y176609D01*
X67754Y177456D02*
X67754Y175762D01*
X75374Y175762D02*
X75374Y177456D01*
X66747Y167874D02*
X66747Y160254D01*
X66747Y167874D02*
X68863Y167874D01*
X68954Y167872D01*
X69045Y167866D01*
X69136Y167856D01*
X69226Y167843D01*
X69315Y167825D01*
X69404Y167804D01*
X69491Y167779D01*
X69578Y167750D01*
X69663Y167717D01*
X69746Y167681D01*
X69828Y167641D01*
X69908Y167598D01*
X69987Y167551D01*
X70063Y167501D01*
X70137Y167448D01*
X70208Y167392D01*
X70277Y167332D01*
X70344Y167270D01*
X70407Y167205D01*
X70468Y167137D01*
X70526Y167067D01*
X70581Y166994D01*
X70633Y166919D01*
X70681Y166842D01*
X70726Y166762D01*
X70768Y166681D01*
X70806Y166599D01*
X70840Y166514D01*
X70871Y166428D01*
X70898Y166341D01*
X70921Y166253D01*
X70940Y166164D01*
X70956Y166075D01*
X70968Y165984D01*
X70976Y165894D01*
X70980Y165803D01*
X70980Y165711D01*
X70976Y165620D01*
X70968Y165530D01*
X70956Y165439D01*
X70940Y165350D01*
X70921Y165261D01*
X70898Y165173D01*
X70871Y165086D01*
X70840Y165000D01*
X70806Y164915D01*
X70768Y164833D01*
X70726Y164752D01*
X70681Y164672D01*
X70633Y164595D01*
X70581Y164520D01*
X70526Y164447D01*
X70468Y164377D01*
X70407Y164309D01*
X70344Y164244D01*
X70277Y164182D01*
X70208Y164122D01*
X70137Y164066D01*
X70063Y164013D01*
X69987Y163963D01*
X69908Y163916D01*
X69828Y163873D01*
X69746Y163833D01*
X69663Y163797D01*
X69578Y163764D01*
X69491Y163735D01*
X69404Y163710D01*
X69315Y163689D01*
X69226Y163671D01*
X69136Y163658D01*
X69045Y163648D01*
X68954Y163642D01*
X68863Y163640D01*
X68863Y163641D02*
X66747Y163641D01*
X69287Y163641D02*
X70980Y160254D01*
X74020Y166181D02*
X76137Y167874D01*
X76137Y160254D01*
X78253Y160254D02*
X74020Y160254D01*
X163217Y152285D02*
X163217Y147205D01*
X163217Y143994D02*
X163217Y138914D01*
X163217Y135704D02*
X163217Y130624D01*
X163217Y127413D02*
X163217Y122333D01*
X163217Y119122D02*
X163217Y114042D01*
X160254Y110610D02*
X167874Y110610D01*
X167874Y108494D01*
X167872Y108403D01*
X167866Y108312D01*
X167856Y108221D01*
X167843Y108131D01*
X167825Y108042D01*
X167804Y107953D01*
X167779Y107866D01*
X167750Y107779D01*
X167717Y107694D01*
X167681Y107611D01*
X167641Y107529D01*
X167598Y107449D01*
X167551Y107370D01*
X167501Y107294D01*
X167448Y107220D01*
X167392Y107149D01*
X167332Y107080D01*
X167270Y107013D01*
X167205Y106950D01*
X167137Y106889D01*
X167067Y106831D01*
X166994Y106776D01*
X166919Y106724D01*
X166842Y106676D01*
X166762Y106631D01*
X166681Y106589D01*
X166599Y106551D01*
X166514Y106517D01*
X166428Y106486D01*
X166341Y106459D01*
X166253Y106436D01*
X166164Y106417D01*
X166075Y106401D01*
X165984Y106389D01*
X165894Y106381D01*
X165803Y106377D01*
X165711Y106377D01*
X165620Y106381D01*
X165530Y106389D01*
X165439Y106401D01*
X165350Y106417D01*
X165261Y106436D01*
X165173Y106459D01*
X165086Y106486D01*
X165000Y106517D01*
X164915Y106551D01*
X164833Y106589D01*
X164752Y106631D01*
X164672Y106676D01*
X164595Y106724D01*
X164520Y106776D01*
X164447Y106831D01*
X164377Y106889D01*
X164309Y106950D01*
X164244Y107013D01*
X164182Y107080D01*
X164122Y107149D01*
X164066Y107220D01*
X164013Y107294D01*
X163963Y107370D01*
X163916Y107449D01*
X163873Y107529D01*
X163833Y107611D01*
X163797Y107694D01*
X163764Y107779D01*
X163735Y107866D01*
X163710Y107953D01*
X163689Y108042D01*
X163671Y108131D01*
X163658Y108221D01*
X163648Y108312D01*
X163642Y108403D01*
X163640Y108494D01*
X163641Y108494D02*
X163641Y110610D01*
X163641Y108070D02*
X160254Y106377D01*
X165969Y99104D02*
X166054Y99106D01*
X166140Y99112D01*
X166225Y99121D01*
X166309Y99135D01*
X166393Y99152D01*
X166476Y99173D01*
X166558Y99197D01*
X166638Y99225D01*
X166718Y99257D01*
X166796Y99293D01*
X166872Y99331D01*
X166946Y99374D01*
X167018Y99419D01*
X167089Y99468D01*
X167157Y99520D01*
X167222Y99574D01*
X167285Y99632D01*
X167346Y99693D01*
X167404Y99756D01*
X167458Y99821D01*
X167510Y99889D01*
X167559Y99960D01*
X167604Y100032D01*
X167647Y100106D01*
X167685Y100182D01*
X167721Y100260D01*
X167753Y100340D01*
X167781Y100420D01*
X167805Y100502D01*
X167826Y100585D01*
X167843Y100669D01*
X167857Y100753D01*
X167866Y100838D01*
X167872Y100924D01*
X167874Y101009D01*
X167872Y101105D01*
X167866Y101201D01*
X167857Y101297D01*
X167844Y101392D01*
X167827Y101487D01*
X167806Y101581D01*
X167782Y101674D01*
X167754Y101766D01*
X167723Y101857D01*
X167687Y101946D01*
X167649Y102034D01*
X167607Y102121D01*
X167562Y102205D01*
X167513Y102288D01*
X167461Y102369D01*
X167406Y102448D01*
X167348Y102525D01*
X167287Y102599D01*
X167223Y102671D01*
X167156Y102740D01*
X167087Y102807D01*
X167015Y102871D01*
X166941Y102932D01*
X166864Y102990D01*
X166785Y103045D01*
X166704Y103096D01*
X166621Y103145D01*
X166536Y103190D01*
X166450Y103232D01*
X166361Y103271D01*
X166272Y103306D01*
X166181Y103337D01*
X164487Y99739D02*
X164549Y99677D01*
X164613Y99618D01*
X164679Y99562D01*
X164748Y99508D01*
X164819Y99458D01*
X164893Y99410D01*
X164968Y99366D01*
X165045Y99325D01*
X165123Y99287D01*
X165203Y99253D01*
X165285Y99222D01*
X165368Y99194D01*
X165451Y99171D01*
X165536Y99150D01*
X165622Y99134D01*
X165708Y99121D01*
X165795Y99111D01*
X165882Y99106D01*
X165969Y99104D01*
X164487Y99739D02*
X160254Y103337D01*
X160254Y99104D01*
X163217Y95958D02*
X163217Y90878D01*
X163217Y87667D02*
X163217Y82587D01*
X163217Y79376D02*
X163217Y74296D01*
X163217Y71086D02*
X163217Y66006D01*
X163217Y62795D02*
X163217Y57715D01*
X40374Y100009D02*
X32754Y97469D01*
X40374Y94929D01*
X40374Y92027D02*
X32754Y92027D01*
X40374Y92027D02*
X40374Y89910D01*
X40372Y89820D01*
X40366Y89730D01*
X40357Y89641D01*
X40344Y89552D01*
X40326Y89464D01*
X40306Y89377D01*
X40281Y89290D01*
X40253Y89205D01*
X40221Y89121D01*
X40186Y89038D01*
X40147Y88957D01*
X40105Y88878D01*
X40060Y88800D01*
X40011Y88725D01*
X39959Y88651D01*
X39904Y88580D01*
X39846Y88511D01*
X39785Y88445D01*
X39722Y88382D01*
X39656Y88321D01*
X39587Y88263D01*
X39516Y88208D01*
X39442Y88156D01*
X39367Y88107D01*
X39289Y88062D01*
X39210Y88020D01*
X39129Y87981D01*
X39046Y87946D01*
X38962Y87914D01*
X38877Y87886D01*
X38790Y87861D01*
X38703Y87841D01*
X38615Y87823D01*
X38526Y87810D01*
X38437Y87801D01*
X38347Y87795D01*
X38257Y87793D01*
X38257Y87794D02*
X34871Y87794D01*
X34871Y87793D02*
X34781Y87795D01*
X34691Y87801D01*
X34602Y87810D01*
X34513Y87823D01*
X34425Y87841D01*
X34338Y87861D01*
X34251Y87886D01*
X34166Y87914D01*
X34082Y87946D01*
X33999Y87981D01*
X33918Y88020D01*
X33839Y88062D01*
X33761Y88107D01*
X33686Y88156D01*
X33612Y88208D01*
X33541Y88263D01*
X33472Y88321D01*
X33406Y88382D01*
X33343Y88445D01*
X33282Y88511D01*
X33224Y88580D01*
X33169Y88651D01*
X33117Y88725D01*
X33068Y88800D01*
X33023Y88878D01*
X32981Y88957D01*
X32942Y89038D01*
X32907Y89121D01*
X32875Y89205D01*
X32847Y89290D01*
X32822Y89377D01*
X32802Y89464D01*
X32784Y89552D01*
X32771Y89641D01*
X32762Y89730D01*
X32756Y89820D01*
X32754Y89910D01*
X32754Y92027D01*
X32754Y84224D02*
X40374Y84224D01*
X40374Y82107D01*
X40372Y82017D01*
X40366Y81927D01*
X40357Y81838D01*
X40344Y81749D01*
X40326Y81661D01*
X40306Y81574D01*
X40281Y81487D01*
X40253Y81402D01*
X40221Y81318D01*
X40186Y81235D01*
X40147Y81154D01*
X40105Y81075D01*
X40060Y80997D01*
X40011Y80922D01*
X39959Y80848D01*
X39904Y80777D01*
X39846Y80708D01*
X39785Y80642D01*
X39722Y80579D01*
X39656Y80518D01*
X39587Y80460D01*
X39516Y80405D01*
X39442Y80353D01*
X39367Y80304D01*
X39289Y80259D01*
X39210Y80217D01*
X39129Y80178D01*
X39046Y80143D01*
X38962Y80111D01*
X38877Y80083D01*
X38790Y80058D01*
X38703Y80038D01*
X38615Y80020D01*
X38526Y80007D01*
X38437Y79998D01*
X38347Y79992D01*
X38257Y79990D01*
X38257Y79991D02*
X34871Y79991D01*
X34871Y79990D02*
X34781Y79992D01*
X34691Y79998D01*
X34602Y80007D01*
X34513Y80020D01*
X34425Y80038D01*
X34338Y80058D01*
X34251Y80083D01*
X34166Y80111D01*
X34082Y80143D01*
X33999Y80178D01*
X33918Y80217D01*
X33839Y80259D01*
X33761Y80304D01*
X33686Y80353D01*
X33612Y80405D01*
X33541Y80460D01*
X33472Y80518D01*
X33406Y80579D01*
X33343Y80642D01*
X33282Y80708D01*
X33224Y80777D01*
X33169Y80848D01*
X33117Y80922D01*
X33068Y80997D01*
X33023Y81075D01*
X32981Y81154D01*
X32942Y81235D01*
X32907Y81318D01*
X32875Y81402D01*
X32847Y81487D01*
X32822Y81574D01*
X32802Y81661D01*
X32784Y81749D01*
X32771Y81838D01*
X32762Y81927D01*
X32756Y82017D01*
X32754Y82107D01*
X32754Y84224D01*
X64389Y40374D02*
X59309Y32754D01*
X64389Y32754D02*
X59309Y40374D01*
X67304Y32754D02*
X70691Y32754D01*
X67304Y32754D02*
X67304Y40374D01*
X70691Y40374D01*
X69844Y36987D02*
X67304Y36987D01*
X90381Y32754D02*
X95461Y40374D01*
X90381Y40374D02*
X95461Y32754D01*
X98773Y32754D02*
X98773Y40374D01*
X97926Y32754D02*
X99619Y32754D01*
X99619Y40374D02*
X97926Y40374D01*
D11*
X114050Y134450D02*
X75950Y134450D01*
X75950Y45550D02*
X114050Y45550D01*
D12*
X95000Y134450D03*
M02*
