G04 EAGLE Gerber RS-274X export*
G75*
%MOMM*%
%FSLAX34Y34*%
%LPD*%
%INBottom Copper*%
%IPPOS*%
%AMOC8*
5,1,8,0,0,1.08239X$1,22.5*%
G01*
%ADD10C,0.228600*%
%ADD11C,0.800000*%
%ADD12C,0.304800*%
%ADD13C,0.800000*%

G36*
X44641Y3826D02*
X44641Y3826D01*
X44759Y3833D01*
X44798Y3846D01*
X44838Y3851D01*
X44949Y3894D01*
X45062Y3931D01*
X45096Y3953D01*
X45134Y3968D01*
X45230Y4037D01*
X45330Y4101D01*
X45358Y4131D01*
X45391Y4154D01*
X45467Y4246D01*
X45548Y4333D01*
X45568Y4368D01*
X45594Y4399D01*
X45644Y4507D01*
X45702Y4611D01*
X45712Y4651D01*
X45729Y4687D01*
X45752Y4804D01*
X45781Y4919D01*
X45785Y4979D01*
X45789Y4999D01*
X45788Y5020D01*
X45792Y5080D01*
X45792Y7879D01*
X48313Y10400D01*
X48373Y10479D01*
X48441Y10551D01*
X48470Y10604D01*
X48508Y10652D01*
X48547Y10743D01*
X48595Y10829D01*
X48610Y10888D01*
X48634Y10943D01*
X48649Y11041D01*
X48674Y11137D01*
X48681Y11237D01*
X48684Y11258D01*
X48683Y11270D01*
X48684Y11298D01*
X48684Y16255D01*
X48683Y16269D01*
X48677Y16395D01*
X48514Y17856D01*
X48572Y17951D01*
X48581Y17979D01*
X48595Y18004D01*
X48627Y18130D01*
X48666Y18255D01*
X48667Y18275D01*
X49698Y19307D01*
X49707Y19319D01*
X49792Y19412D01*
X50710Y20560D01*
X50819Y20586D01*
X50844Y20600D01*
X50872Y20608D01*
X50984Y20674D01*
X51099Y20735D01*
X51115Y20749D01*
X52574Y20749D01*
X52588Y20751D01*
X52714Y20756D01*
X54175Y20919D01*
X54270Y20861D01*
X54298Y20852D01*
X54323Y20838D01*
X54449Y20806D01*
X54574Y20768D01*
X54595Y20767D01*
X55626Y19735D01*
X55638Y19726D01*
X55731Y19641D01*
X58583Y17360D01*
X58645Y17321D01*
X58703Y17275D01*
X58781Y17239D01*
X58854Y17194D01*
X58924Y17172D01*
X58991Y17141D01*
X59076Y17126D01*
X59158Y17100D01*
X59232Y17097D01*
X59304Y17084D01*
X59390Y17090D01*
X59476Y17086D01*
X59548Y17101D01*
X59621Y17106D01*
X59777Y17147D01*
X61171Y17611D01*
X62595Y16899D01*
X62624Y16889D01*
X62649Y16874D01*
X62773Y16836D01*
X62895Y16793D01*
X62925Y16791D01*
X62954Y16782D01*
X63084Y16777D01*
X63212Y16766D01*
X63242Y16771D01*
X63271Y16769D01*
X63398Y16797D01*
X63526Y16818D01*
X63553Y16830D01*
X63582Y16836D01*
X63731Y16899D01*
X65156Y17611D01*
X68450Y16513D01*
X70003Y13407D01*
X67715Y6544D01*
X67714Y6535D01*
X67710Y6527D01*
X67683Y6381D01*
X67653Y6232D01*
X67654Y6223D01*
X67652Y6215D01*
X67663Y6065D01*
X67671Y5915D01*
X67674Y5906D01*
X67674Y5897D01*
X67692Y5829D01*
X67602Y5648D01*
X67570Y5558D01*
X67530Y5473D01*
X67518Y5409D01*
X67496Y5348D01*
X67488Y5253D01*
X67470Y5160D01*
X67474Y5096D01*
X67469Y5031D01*
X67484Y4937D01*
X67490Y4843D01*
X67510Y4781D01*
X67521Y4717D01*
X67559Y4630D01*
X67588Y4541D01*
X67623Y4486D01*
X67649Y4426D01*
X67708Y4352D01*
X67758Y4272D01*
X67806Y4227D01*
X67846Y4176D01*
X67921Y4119D01*
X67990Y4054D01*
X68047Y4022D01*
X68099Y3983D01*
X68186Y3946D01*
X68268Y3900D01*
X68331Y3884D01*
X68391Y3859D01*
X68485Y3845D01*
X68576Y3821D01*
X68687Y3814D01*
X68706Y3811D01*
X68716Y3812D01*
X68737Y3811D01*
X71573Y3811D01*
X71692Y3826D01*
X71810Y3833D01*
X71849Y3846D01*
X71889Y3851D01*
X72000Y3894D01*
X72113Y3931D01*
X72147Y3953D01*
X72185Y3968D01*
X72281Y4037D01*
X72381Y4101D01*
X72409Y4131D01*
X72442Y4154D01*
X72518Y4246D01*
X72599Y4333D01*
X72619Y4368D01*
X72645Y4399D01*
X72695Y4507D01*
X72753Y4611D01*
X72763Y4651D01*
X72780Y4687D01*
X72803Y4804D01*
X72832Y4919D01*
X72836Y4979D01*
X72840Y4999D01*
X72839Y5020D01*
X72843Y5080D01*
X72843Y18293D01*
X75298Y20749D01*
X78771Y20749D01*
X79030Y20490D01*
X79124Y20417D01*
X79213Y20338D01*
X79249Y20320D01*
X79281Y20295D01*
X79390Y20247D01*
X79496Y20193D01*
X79535Y20185D01*
X79573Y20168D01*
X79691Y20150D01*
X79806Y20124D01*
X79847Y20125D01*
X79887Y20119D01*
X80006Y20130D01*
X80124Y20133D01*
X80163Y20145D01*
X80203Y20148D01*
X80315Y20189D01*
X80430Y20222D01*
X80465Y20242D01*
X80503Y20256D01*
X80601Y20323D01*
X80704Y20383D01*
X80749Y20423D01*
X80766Y20435D01*
X80779Y20450D01*
X80825Y20490D01*
X81084Y20749D01*
X84556Y20749D01*
X84588Y20717D01*
X84682Y20644D01*
X84771Y20565D01*
X84807Y20547D01*
X84839Y20522D01*
X84949Y20474D01*
X85055Y20420D01*
X85094Y20412D01*
X85131Y20395D01*
X85249Y20377D01*
X85365Y20351D01*
X85405Y20352D01*
X85445Y20346D01*
X85564Y20357D01*
X85683Y20360D01*
X85722Y20372D01*
X85762Y20375D01*
X85874Y20416D01*
X85988Y20449D01*
X86023Y20469D01*
X86061Y20483D01*
X86160Y20550D01*
X86262Y20610D01*
X86307Y20650D01*
X86324Y20662D01*
X86338Y20677D01*
X86383Y20717D01*
X86415Y20749D01*
X88204Y20749D01*
X90466Y20749D01*
X91443Y20749D01*
X92226Y20749D01*
X92317Y20688D01*
X92325Y20682D01*
X92329Y20680D01*
X92337Y20675D01*
X93688Y19895D01*
X93791Y19851D01*
X93891Y19800D01*
X93937Y19790D01*
X93981Y19772D01*
X94092Y19755D01*
X94202Y19731D01*
X94249Y19732D01*
X94295Y19725D01*
X94407Y19737D01*
X94520Y19740D01*
X94565Y19753D01*
X94612Y19758D01*
X94717Y19797D01*
X94825Y19829D01*
X94866Y19853D01*
X94910Y19869D01*
X95002Y19933D01*
X95099Y19990D01*
X95153Y20038D01*
X95171Y20050D01*
X95183Y20064D01*
X95220Y20097D01*
X95872Y20749D01*
X111778Y20749D01*
X111834Y20705D01*
X111889Y20649D01*
X111959Y20608D01*
X112023Y20558D01*
X112095Y20527D01*
X112163Y20487D01*
X112241Y20464D01*
X112315Y20432D01*
X112392Y20419D01*
X112468Y20397D01*
X112549Y20395D01*
X112629Y20382D01*
X112707Y20389D01*
X112786Y20387D01*
X112945Y20411D01*
X115708Y21026D01*
X118870Y19014D01*
X118870Y19013D01*
X118871Y19013D01*
X119018Y18944D01*
X119157Y18878D01*
X119158Y18878D01*
X119159Y18877D01*
X119317Y18847D01*
X119469Y18818D01*
X119470Y18818D01*
X119471Y18818D01*
X119631Y18828D01*
X119787Y18837D01*
X119788Y18838D01*
X119789Y18838D01*
X119949Y18890D01*
X120089Y18935D01*
X120090Y18936D01*
X120091Y18936D01*
X120232Y19014D01*
X123394Y21026D01*
X126798Y20269D01*
X126823Y20239D01*
X126896Y20140D01*
X126924Y20117D01*
X126947Y20089D01*
X127047Y20017D01*
X127142Y19939D01*
X127175Y19924D01*
X127205Y19903D01*
X127319Y19857D01*
X127431Y19806D01*
X127467Y19799D01*
X127501Y19786D01*
X127623Y19770D01*
X127744Y19748D01*
X127780Y19751D01*
X127816Y19746D01*
X127938Y19762D01*
X128061Y19770D01*
X128113Y19784D01*
X128132Y19786D01*
X128151Y19794D01*
X128217Y19811D01*
X130217Y20478D01*
X130266Y20502D01*
X130318Y20517D01*
X130409Y20570D01*
X130503Y20616D01*
X130545Y20651D01*
X130592Y20678D01*
X130672Y20749D01*
X134173Y20749D01*
X134264Y20688D01*
X134273Y20682D01*
X134277Y20680D01*
X134285Y20675D01*
X137176Y19005D01*
X138845Y16114D01*
X138897Y16046D01*
X138919Y16008D01*
X138919Y12486D01*
X138854Y12388D01*
X138846Y12377D01*
X138844Y12371D01*
X138836Y12360D01*
X138351Y11511D01*
X138308Y11407D01*
X138257Y11307D01*
X138247Y11261D01*
X138229Y11217D01*
X138213Y11106D01*
X138189Y10996D01*
X138190Y10949D01*
X138184Y10902D01*
X138196Y10791D01*
X138200Y10679D01*
X138213Y10633D01*
X138218Y10586D01*
X138258Y10481D01*
X138290Y10373D01*
X138314Y10333D01*
X138330Y10288D01*
X138395Y10197D01*
X138452Y10100D01*
X138500Y10046D01*
X138513Y10028D01*
X138527Y10016D01*
X138559Y9980D01*
X139201Y9343D01*
X139216Y5843D01*
X139148Y5761D01*
X139138Y5740D01*
X139124Y5722D01*
X139070Y5596D01*
X139012Y5473D01*
X139008Y5450D01*
X138999Y5429D01*
X138978Y5294D01*
X138952Y5160D01*
X138954Y5138D01*
X138950Y5115D01*
X138964Y4979D01*
X138972Y4843D01*
X138979Y4821D01*
X138981Y4799D01*
X139028Y4670D01*
X139070Y4541D01*
X139082Y4521D01*
X139090Y4500D01*
X139167Y4387D01*
X139240Y4272D01*
X139257Y4256D01*
X139270Y4237D01*
X139373Y4147D01*
X139472Y4054D01*
X139492Y4043D01*
X139509Y4028D01*
X139631Y3966D01*
X139750Y3900D01*
X139773Y3895D01*
X139793Y3884D01*
X139927Y3855D01*
X140058Y3821D01*
X140090Y3819D01*
X140104Y3816D01*
X140125Y3817D01*
X140219Y3811D01*
X167929Y3811D01*
X167949Y3813D01*
X168053Y3817D01*
X170393Y4047D01*
X170496Y4071D01*
X170602Y4086D01*
X170681Y4113D01*
X170703Y4118D01*
X170717Y4125D01*
X170754Y4138D01*
X175077Y5928D01*
X175085Y5933D01*
X175094Y5935D01*
X175223Y6012D01*
X175353Y6086D01*
X175359Y6092D01*
X175367Y6097D01*
X175488Y6203D01*
X178797Y9512D01*
X178802Y9519D01*
X178810Y9525D01*
X178900Y9644D01*
X178992Y9763D01*
X178995Y9772D01*
X179001Y9779D01*
X179072Y9923D01*
X180862Y14246D01*
X180890Y14348D01*
X180927Y14448D01*
X180940Y14532D01*
X180946Y14553D01*
X180946Y14569D01*
X180953Y14607D01*
X181183Y16947D01*
X181183Y16966D01*
X181189Y17071D01*
X181189Y112407D01*
X181172Y112544D01*
X181159Y112683D01*
X181152Y112702D01*
X181149Y112722D01*
X181098Y112851D01*
X181051Y112982D01*
X181040Y112999D01*
X181032Y113018D01*
X180951Y113130D01*
X180873Y113245D01*
X180857Y113259D01*
X180846Y113275D01*
X180738Y113364D01*
X180634Y113456D01*
X180616Y113465D01*
X180601Y113478D01*
X180475Y113537D01*
X180351Y113600D01*
X180331Y113605D01*
X180313Y113614D01*
X180177Y113640D01*
X180041Y113670D01*
X180020Y113670D01*
X180001Y113673D01*
X179862Y113665D01*
X179723Y113660D01*
X179703Y113655D01*
X179683Y113654D01*
X179551Y113611D01*
X179417Y113572D01*
X179400Y113562D01*
X179381Y113556D01*
X179263Y113481D01*
X179143Y113411D01*
X179122Y113392D01*
X179112Y113385D01*
X179098Y113370D01*
X179023Y113304D01*
X173493Y107774D01*
X170902Y106701D01*
X168098Y106701D01*
X165507Y107774D01*
X163524Y109757D01*
X162451Y112348D01*
X162451Y112920D01*
X162434Y113058D01*
X162421Y113197D01*
X162414Y113216D01*
X162411Y113236D01*
X162360Y113365D01*
X162313Y113496D01*
X162302Y113513D01*
X162294Y113531D01*
X162213Y113644D01*
X162135Y113759D01*
X162119Y113772D01*
X162108Y113789D01*
X162000Y113877D01*
X161896Y113969D01*
X161878Y113979D01*
X161863Y113992D01*
X161737Y114051D01*
X161613Y114114D01*
X161593Y114119D01*
X161575Y114127D01*
X161439Y114153D01*
X161303Y114184D01*
X161282Y114183D01*
X161263Y114187D01*
X161124Y114178D01*
X160985Y114174D01*
X160965Y114168D01*
X160945Y114167D01*
X160813Y114124D01*
X160679Y114086D01*
X160662Y114075D01*
X160643Y114069D01*
X160525Y113995D01*
X160405Y113924D01*
X160384Y113906D01*
X160374Y113899D01*
X160360Y113884D01*
X160285Y113818D01*
X119944Y73478D01*
X116894Y70427D01*
X102262Y70427D01*
X102232Y70423D01*
X102202Y70426D01*
X102074Y70404D01*
X101946Y70387D01*
X101918Y70376D01*
X101888Y70371D01*
X101738Y70314D01*
X99937Y69498D01*
X99895Y69472D01*
X99849Y69454D01*
X99760Y69389D01*
X99666Y69332D01*
X99632Y69296D01*
X99592Y69268D01*
X99521Y69182D01*
X99445Y69103D01*
X99420Y69060D01*
X99389Y69023D01*
X99342Y68923D01*
X99287Y68827D01*
X99274Y68779D01*
X99253Y68735D01*
X99233Y68627D01*
X99204Y68520D01*
X99203Y68471D01*
X99194Y68422D01*
X99201Y68312D01*
X99199Y68202D01*
X99210Y68154D01*
X99213Y68105D01*
X99247Y68000D01*
X99273Y67893D01*
X99296Y67849D01*
X99311Y67803D01*
X99371Y67709D01*
X99422Y67612D01*
X99455Y67575D01*
X99482Y67534D01*
X99562Y67458D01*
X99636Y67376D01*
X99678Y67350D01*
X99713Y67316D01*
X99810Y67263D01*
X99902Y67202D01*
X99949Y67186D01*
X99992Y67162D01*
X100099Y67135D01*
X100203Y67099D01*
X100252Y67095D01*
X100300Y67083D01*
X100460Y67073D01*
X115044Y67073D01*
X118094Y64022D01*
X141849Y40268D01*
X141872Y40250D01*
X141892Y40227D01*
X141998Y40153D01*
X142100Y40073D01*
X142128Y40061D01*
X142152Y40044D01*
X142299Y39978D01*
X144817Y39030D01*
X144960Y38996D01*
X145103Y38959D01*
X145119Y38958D01*
X145126Y38956D01*
X145134Y38956D01*
X146322Y38464D01*
X146334Y38461D01*
X146360Y38449D01*
X148006Y37830D01*
X148090Y37643D01*
X148167Y37518D01*
X148243Y37390D01*
X148253Y37378D01*
X148257Y37372D01*
X148268Y37361D01*
X148349Y37269D01*
X149726Y35893D01*
X150799Y33302D01*
X150799Y30498D01*
X149726Y27907D01*
X147743Y25924D01*
X145152Y24851D01*
X142348Y24851D01*
X139757Y25924D01*
X138381Y27301D01*
X138263Y27392D01*
X138149Y27484D01*
X138135Y27491D01*
X138129Y27496D01*
X138115Y27502D01*
X138007Y27560D01*
X137820Y27644D01*
X137201Y29291D01*
X137195Y29302D01*
X137185Y29329D01*
X136681Y30546D01*
X136667Y30679D01*
X136662Y30694D01*
X136661Y30702D01*
X136656Y30716D01*
X136620Y30833D01*
X136301Y31681D01*
X135672Y33351D01*
X135658Y33378D01*
X135650Y33407D01*
X135584Y33518D01*
X135524Y33632D01*
X135504Y33655D01*
X135488Y33681D01*
X135382Y33801D01*
X111628Y57556D01*
X111549Y57616D01*
X111477Y57684D01*
X111424Y57713D01*
X111376Y57750D01*
X111285Y57790D01*
X111199Y57838D01*
X111140Y57853D01*
X111085Y57877D01*
X110987Y57892D01*
X110891Y57917D01*
X110791Y57923D01*
X110770Y57927D01*
X110758Y57925D01*
X110730Y57927D01*
X100076Y57927D01*
X100006Y57918D01*
X99935Y57919D01*
X99849Y57899D01*
X99761Y57887D01*
X99695Y57861D01*
X99626Y57845D01*
X99547Y57803D01*
X99465Y57770D01*
X99408Y57729D01*
X99345Y57695D01*
X99280Y57636D01*
X99208Y57584D01*
X99162Y57529D01*
X99110Y57481D01*
X99061Y57407D01*
X99005Y57339D01*
X98975Y57274D01*
X98936Y57215D01*
X98907Y57131D01*
X98869Y57051D01*
X98856Y56981D01*
X98833Y56914D01*
X98826Y56826D01*
X98810Y56739D01*
X98814Y56668D01*
X98809Y56597D01*
X98824Y56510D01*
X98829Y56421D01*
X98851Y56354D01*
X98863Y56284D01*
X98900Y56203D01*
X98927Y56119D01*
X98965Y56059D01*
X98995Y55994D01*
X99050Y55925D01*
X99098Y55850D01*
X99149Y55801D01*
X99194Y55746D01*
X99229Y55719D01*
X101356Y53593D01*
X102429Y51002D01*
X102429Y48198D01*
X101356Y45607D01*
X99373Y43624D01*
X96782Y42551D01*
X94835Y42551D01*
X94689Y42533D01*
X94542Y42517D01*
X94527Y42512D01*
X94520Y42511D01*
X94505Y42506D01*
X94388Y42470D01*
X94196Y42398D01*
X92593Y43124D01*
X92581Y43128D01*
X92555Y43141D01*
X91339Y43644D01*
X91235Y43728D01*
X91221Y43736D01*
X91215Y43740D01*
X91201Y43746D01*
X91093Y43804D01*
X88642Y44914D01*
X88613Y44923D01*
X88587Y44938D01*
X88462Y44970D01*
X88338Y45008D01*
X88308Y45010D01*
X88279Y45017D01*
X88118Y45027D01*
X42256Y45027D01*
X40465Y46818D01*
X40356Y46903D01*
X40249Y46992D01*
X40230Y47000D01*
X40214Y47013D01*
X40086Y47068D01*
X39961Y47127D01*
X39941Y47131D01*
X39922Y47139D01*
X39784Y47161D01*
X39648Y47187D01*
X39628Y47186D01*
X39608Y47189D01*
X39469Y47176D01*
X39331Y47167D01*
X39312Y47161D01*
X39292Y47159D01*
X39160Y47112D01*
X39029Y47069D01*
X39011Y47058D01*
X38992Y47051D01*
X38877Y46973D01*
X38760Y46899D01*
X38746Y46884D01*
X38729Y46873D01*
X38637Y46769D01*
X38542Y46667D01*
X38532Y46650D01*
X38519Y46634D01*
X38455Y46510D01*
X38388Y46389D01*
X38383Y46369D01*
X38374Y46351D01*
X38344Y46215D01*
X38309Y46081D01*
X38307Y46053D01*
X38304Y46041D01*
X38305Y46020D01*
X38299Y45920D01*
X38299Y44848D01*
X37226Y42257D01*
X35243Y40274D01*
X32652Y39201D01*
X29848Y39201D01*
X27257Y40274D01*
X25274Y42257D01*
X24201Y44848D01*
X24201Y46795D01*
X24183Y46941D01*
X24167Y47088D01*
X24162Y47103D01*
X24161Y47110D01*
X24156Y47125D01*
X24120Y47242D01*
X24048Y47434D01*
X24774Y49036D01*
X24778Y49048D01*
X24790Y49075D01*
X25294Y50291D01*
X25378Y50395D01*
X25386Y50409D01*
X25390Y50415D01*
X25396Y50429D01*
X25454Y50537D01*
X26564Y52988D01*
X26573Y53017D01*
X26588Y53043D01*
X26620Y53168D01*
X26658Y53292D01*
X26660Y53322D01*
X26667Y53351D01*
X26677Y53512D01*
X26677Y98744D01*
X29728Y101794D01*
X39132Y111199D01*
X39150Y111222D01*
X39173Y111242D01*
X39247Y111348D01*
X39327Y111450D01*
X39339Y111478D01*
X39356Y111502D01*
X39422Y111649D01*
X40188Y113682D01*
X40201Y113738D01*
X40223Y113792D01*
X40238Y113892D01*
X40261Y113991D01*
X40260Y114049D01*
X40269Y114106D01*
X40259Y114198D01*
X40298Y114284D01*
X40967Y115761D01*
X40973Y115781D01*
X40999Y115838D01*
X41378Y116846D01*
X41602Y117439D01*
X41643Y117469D01*
X41706Y117548D01*
X41777Y117622D01*
X41806Y117672D01*
X41842Y117717D01*
X41918Y117859D01*
X42814Y119838D01*
X42823Y119867D01*
X42838Y119893D01*
X42870Y120018D01*
X42908Y120142D01*
X42910Y120172D01*
X42917Y120201D01*
X42927Y120362D01*
X42927Y160644D01*
X43412Y161129D01*
X43442Y161168D01*
X43479Y161201D01*
X43540Y161293D01*
X43607Y161380D01*
X43627Y161426D01*
X43654Y161467D01*
X43690Y161571D01*
X43733Y161672D01*
X43741Y161721D01*
X43757Y161768D01*
X43766Y161877D01*
X43783Y161986D01*
X43778Y162035D01*
X43782Y162085D01*
X43764Y162193D01*
X43753Y162303D01*
X43736Y162349D01*
X43728Y162398D01*
X43683Y162499D01*
X43646Y162602D01*
X43618Y162643D01*
X43597Y162688D01*
X43529Y162774D01*
X43467Y162865D01*
X43430Y162898D01*
X43399Y162937D01*
X43311Y163003D01*
X43229Y163075D01*
X43184Y163098D01*
X43145Y163128D01*
X43000Y163199D01*
X41007Y164024D01*
X39024Y166007D01*
X37951Y168598D01*
X37951Y171402D01*
X39024Y173993D01*
X49054Y184023D01*
X49139Y184132D01*
X49228Y184239D01*
X49237Y184258D01*
X49249Y184274D01*
X49305Y184402D01*
X49364Y184527D01*
X49367Y184547D01*
X49375Y184566D01*
X49397Y184704D01*
X49423Y184840D01*
X49422Y184860D01*
X49425Y184880D01*
X49412Y185019D01*
X49404Y185157D01*
X49397Y185176D01*
X49395Y185196D01*
X49348Y185328D01*
X49306Y185459D01*
X49295Y185477D01*
X49288Y185496D01*
X49210Y185611D01*
X49135Y185728D01*
X49121Y185742D01*
X49109Y185759D01*
X49005Y185851D01*
X48904Y185946D01*
X48886Y185956D01*
X48871Y185969D01*
X48747Y186033D01*
X48625Y186100D01*
X48606Y186105D01*
X48588Y186114D01*
X48452Y186144D01*
X48317Y186179D01*
X48289Y186181D01*
X48277Y186184D01*
X48257Y186183D01*
X48157Y186189D01*
X17071Y186189D01*
X17051Y186187D01*
X16947Y186183D01*
X14607Y185953D01*
X14504Y185929D01*
X14398Y185914D01*
X14319Y185887D01*
X14297Y185882D01*
X14283Y185875D01*
X14246Y185862D01*
X9923Y184072D01*
X9915Y184067D01*
X9906Y184065D01*
X9777Y183988D01*
X9647Y183914D01*
X9641Y183908D01*
X9633Y183903D01*
X9512Y183797D01*
X6203Y180488D01*
X6198Y180481D01*
X6190Y180475D01*
X6100Y180356D01*
X6008Y180237D01*
X6005Y180228D01*
X5999Y180221D01*
X5928Y180077D01*
X4138Y175754D01*
X4110Y175652D01*
X4073Y175552D01*
X4060Y175468D01*
X4054Y175447D01*
X4054Y175431D01*
X4047Y175393D01*
X3817Y173053D01*
X3817Y173034D01*
X3811Y172929D01*
X3811Y158586D01*
X3812Y158577D01*
X3811Y158567D01*
X3832Y158419D01*
X3851Y158271D01*
X3854Y158262D01*
X3856Y158252D01*
X3913Y158114D01*
X3968Y157975D01*
X3973Y157967D01*
X3977Y157958D01*
X4067Y157839D01*
X4154Y157718D01*
X4162Y157711D01*
X4168Y157704D01*
X4284Y157611D01*
X4399Y157515D01*
X4409Y157511D01*
X4416Y157505D01*
X4552Y157443D01*
X4687Y157380D01*
X4697Y157378D01*
X4706Y157374D01*
X4854Y157348D01*
X4999Y157320D01*
X5009Y157320D01*
X5019Y157319D01*
X5168Y157330D01*
X5317Y157340D01*
X5326Y157343D01*
X5336Y157343D01*
X5492Y157386D01*
X5911Y157530D01*
X5916Y157532D01*
X6056Y157589D01*
X8402Y158733D01*
X14298Y158733D01*
X15585Y158106D01*
X15715Y158062D01*
X15842Y158013D01*
X15873Y158008D01*
X15886Y158003D01*
X15907Y158002D01*
X16001Y157985D01*
X16431Y157937D01*
X16515Y157833D01*
X16600Y157750D01*
X16680Y157662D01*
X16714Y157639D01*
X16743Y157611D01*
X16847Y157552D01*
X16946Y157487D01*
X17002Y157463D01*
X17020Y157453D01*
X17039Y157448D01*
X17095Y157425D01*
X18390Y156981D01*
X18468Y156871D01*
X18490Y156847D01*
X18499Y156829D01*
X18508Y156819D01*
X18526Y156790D01*
X20749Y153678D01*
X20749Y149620D01*
X18896Y147026D01*
X18892Y147019D01*
X18887Y147013D01*
X18817Y146879D01*
X18745Y146746D01*
X18743Y146738D01*
X18739Y146731D01*
X18704Y146583D01*
X18668Y146437D01*
X18668Y146429D01*
X18667Y146422D01*
X18670Y146270D01*
X18671Y146119D01*
X18673Y146112D01*
X18673Y146104D01*
X18714Y145957D01*
X18752Y145812D01*
X18756Y145805D01*
X18758Y145797D01*
X18829Y145653D01*
X20749Y142329D01*
X20749Y138755D01*
X20715Y138711D01*
X20621Y138593D01*
X20616Y138584D01*
X20613Y138580D01*
X20608Y138569D01*
X20546Y138450D01*
X19444Y135976D01*
X18838Y135432D01*
X18807Y135396D01*
X18770Y135365D01*
X18703Y135276D01*
X18630Y135191D01*
X18609Y135148D01*
X18580Y135110D01*
X18538Y135006D01*
X18489Y134907D01*
X18479Y134860D01*
X18461Y134815D01*
X18446Y134705D01*
X18422Y134596D01*
X18424Y134547D01*
X18418Y134500D01*
X18431Y134389D01*
X18435Y134278D01*
X18449Y134232D01*
X18455Y134184D01*
X18495Y134080D01*
X18527Y133973D01*
X18552Y133932D01*
X18569Y133887D01*
X18654Y133750D01*
X20749Y130818D01*
X20749Y126760D01*
X18896Y124166D01*
X18892Y124159D01*
X18887Y124153D01*
X18817Y124020D01*
X18745Y123886D01*
X18743Y123878D01*
X18739Y123871D01*
X18705Y123724D01*
X18668Y123577D01*
X18668Y123569D01*
X18667Y123562D01*
X18670Y123410D01*
X18671Y123259D01*
X18673Y123252D01*
X18673Y123244D01*
X18713Y123099D01*
X18752Y122952D01*
X18756Y122945D01*
X18758Y122937D01*
X18829Y122793D01*
X20749Y119469D01*
X20749Y115895D01*
X20715Y115851D01*
X20621Y115733D01*
X20616Y115724D01*
X20613Y115720D01*
X20608Y115709D01*
X20546Y115590D01*
X19984Y114329D01*
X19953Y114226D01*
X19913Y114125D01*
X19907Y114074D01*
X19892Y114024D01*
X19887Y113917D01*
X19874Y113809D01*
X19881Y113758D01*
X19878Y113707D01*
X19901Y113601D01*
X19915Y113494D01*
X19934Y113446D01*
X19944Y113396D01*
X19992Y113299D01*
X20032Y113198D01*
X20063Y113157D01*
X20086Y113111D01*
X20156Y113029D01*
X20220Y112942D01*
X20260Y112909D01*
X20293Y112870D01*
X20382Y112808D01*
X20465Y112739D01*
X20536Y112701D01*
X20554Y112688D01*
X20570Y112682D01*
X20607Y112662D01*
X21060Y112450D01*
X22247Y109187D01*
X20778Y106040D01*
X13624Y103439D01*
X13538Y103394D01*
X13447Y103358D01*
X13397Y103322D01*
X13342Y103294D01*
X13269Y103229D01*
X13190Y103172D01*
X13150Y103124D01*
X13104Y103083D01*
X13049Y103002D01*
X12987Y102927D01*
X12960Y102870D01*
X12926Y102819D01*
X12893Y102727D01*
X12851Y102639D01*
X12840Y102578D01*
X12819Y102519D01*
X12810Y102422D01*
X12792Y102326D01*
X12795Y102265D01*
X12790Y102203D01*
X12805Y102106D01*
X12811Y102009D01*
X12830Y101950D01*
X12840Y101889D01*
X12879Y101799D01*
X12909Y101707D01*
X12943Y101654D01*
X12967Y101597D01*
X13027Y101520D01*
X13079Y101438D01*
X13125Y101395D01*
X13163Y101346D01*
X13240Y101287D01*
X13311Y101220D01*
X13365Y101190D01*
X13415Y101152D01*
X13504Y101114D01*
X13590Y101066D01*
X13650Y101051D01*
X13707Y101026D01*
X13803Y101011D01*
X13898Y100987D01*
X14001Y100980D01*
X14021Y100977D01*
X14032Y100978D01*
X14058Y100977D01*
X16255Y100977D01*
X16269Y100979D01*
X16395Y100984D01*
X17856Y101147D01*
X17951Y101089D01*
X17979Y101080D01*
X18004Y101066D01*
X18130Y101034D01*
X18255Y100996D01*
X18275Y100995D01*
X19307Y99963D01*
X19319Y99954D01*
X19412Y99869D01*
X20560Y98951D01*
X20586Y98843D01*
X20600Y98817D01*
X20608Y98789D01*
X20674Y98677D01*
X20735Y98562D01*
X20749Y98547D01*
X20749Y97087D01*
X20751Y97073D01*
X20756Y96947D01*
X20919Y95486D01*
X20861Y95391D01*
X20852Y95363D01*
X20838Y95338D01*
X20806Y95212D01*
X20768Y95087D01*
X20767Y95067D01*
X19735Y94035D01*
X19726Y94023D01*
X19641Y93930D01*
X17784Y91609D01*
X17748Y91550D01*
X17704Y91497D01*
X17665Y91415D01*
X17618Y91338D01*
X17598Y91271D01*
X17568Y91209D01*
X17551Y91120D01*
X17525Y91034D01*
X17522Y90964D01*
X17509Y90897D01*
X17514Y90806D01*
X17510Y90716D01*
X17524Y90648D01*
X17528Y90579D01*
X17556Y90493D01*
X17575Y90405D01*
X17605Y90342D01*
X17626Y90277D01*
X17675Y90200D01*
X17714Y90119D01*
X17759Y90066D01*
X17796Y90008D01*
X17862Y89946D01*
X17921Y89877D01*
X17978Y89837D01*
X18028Y89790D01*
X18077Y89763D01*
X19307Y88533D01*
X19319Y88524D01*
X19412Y88439D01*
X20560Y87521D01*
X20586Y87413D01*
X20600Y87387D01*
X20608Y87359D01*
X20674Y87247D01*
X20735Y87132D01*
X20749Y87117D01*
X20749Y85657D01*
X20751Y85643D01*
X20756Y85517D01*
X20919Y84056D01*
X20861Y83961D01*
X20852Y83933D01*
X20838Y83908D01*
X20806Y83782D01*
X20768Y83657D01*
X20767Y83637D01*
X19966Y82836D01*
X19953Y82819D01*
X19936Y82805D01*
X19855Y82694D01*
X19771Y82585D01*
X19763Y82565D01*
X19750Y82547D01*
X19700Y82419D01*
X19645Y82293D01*
X19642Y82272D01*
X19634Y82251D01*
X19617Y82115D01*
X19595Y81979D01*
X19597Y81957D01*
X19594Y81936D01*
X19612Y81800D01*
X19625Y81662D01*
X19632Y81642D01*
X19635Y81620D01*
X19686Y81493D01*
X19733Y81363D01*
X19745Y81345D01*
X19753Y81325D01*
X19834Y81214D01*
X19911Y81100D01*
X19927Y81086D01*
X19940Y81068D01*
X20047Y80980D01*
X20150Y80890D01*
X20169Y80880D01*
X20186Y80866D01*
X20327Y80789D01*
X21060Y80446D01*
X22247Y77183D01*
X20778Y74036D01*
X18494Y73206D01*
X18442Y73179D01*
X18388Y73161D01*
X18302Y73107D01*
X18211Y73060D01*
X18168Y73022D01*
X18119Y72991D01*
X18049Y72917D01*
X17973Y72849D01*
X17941Y72802D01*
X17901Y72759D01*
X17852Y72670D01*
X17795Y72586D01*
X17776Y72531D01*
X17748Y72481D01*
X17722Y72382D01*
X17688Y72286D01*
X17683Y72229D01*
X17669Y72173D01*
X17668Y72071D01*
X17659Y71970D01*
X17668Y71913D01*
X17668Y71855D01*
X17694Y71756D01*
X17710Y71656D01*
X17733Y71603D01*
X17747Y71547D01*
X17796Y71457D01*
X17837Y71364D01*
X17872Y71318D01*
X17900Y71268D01*
X17970Y71193D01*
X18032Y71113D01*
X18078Y71078D01*
X18117Y71036D01*
X18198Y70985D01*
X20749Y67474D01*
X20749Y60152D01*
X19720Y59124D01*
X19651Y59035D01*
X19576Y58951D01*
X19554Y58910D01*
X19525Y58872D01*
X19481Y58769D01*
X19429Y58670D01*
X19418Y58624D01*
X19399Y58581D01*
X19381Y58469D01*
X19356Y58360D01*
X19357Y58313D01*
X19349Y58267D01*
X19360Y58154D01*
X19362Y58042D01*
X19375Y57997D01*
X19379Y57950D01*
X19417Y57844D01*
X19447Y57736D01*
X19479Y57671D01*
X19487Y57651D01*
X19497Y57635D01*
X19519Y57592D01*
X20749Y55461D01*
X20749Y51887D01*
X20715Y51843D01*
X20621Y51725D01*
X20616Y51716D01*
X20613Y51712D01*
X20608Y51701D01*
X20546Y51582D01*
X19444Y49108D01*
X17059Y46964D01*
X15534Y46471D01*
X13882Y45936D01*
X10521Y47652D01*
X10494Y47662D01*
X10470Y47677D01*
X10345Y47716D01*
X10222Y47760D01*
X10194Y47763D01*
X10166Y47772D01*
X10036Y47778D01*
X9906Y47791D01*
X9877Y47786D01*
X9849Y47788D01*
X9720Y47762D01*
X9591Y47741D01*
X9565Y47730D01*
X9537Y47724D01*
X9419Y47667D01*
X9299Y47615D01*
X9277Y47598D01*
X9251Y47585D01*
X9122Y47489D01*
X9026Y47408D01*
X9011Y47391D01*
X8951Y47338D01*
X7840Y46227D01*
X7835Y46227D01*
X7790Y46209D01*
X7743Y46200D01*
X7643Y46151D01*
X7602Y46135D01*
X6025Y46262D01*
X6003Y46261D01*
X5922Y46267D01*
X5080Y46267D01*
X4962Y46252D01*
X4843Y46244D01*
X4805Y46232D01*
X4764Y46227D01*
X4654Y46183D01*
X4541Y46146D01*
X4506Y46125D01*
X4469Y46110D01*
X4373Y46040D01*
X4272Y45976D01*
X4244Y45947D01*
X4211Y45923D01*
X4135Y45831D01*
X4054Y45744D01*
X4034Y45709D01*
X4009Y45678D01*
X3958Y45570D01*
X3900Y45466D01*
X3890Y45427D01*
X3873Y45390D01*
X3851Y45273D01*
X3821Y45158D01*
X3817Y45098D01*
X3813Y45078D01*
X3815Y45058D01*
X3811Y44997D01*
X3811Y17071D01*
X3813Y17051D01*
X3817Y16947D01*
X4047Y14607D01*
X4071Y14504D01*
X4086Y14398D01*
X4113Y14319D01*
X4118Y14297D01*
X4125Y14283D01*
X4138Y14246D01*
X5928Y9923D01*
X5933Y9915D01*
X5935Y9906D01*
X6012Y9777D01*
X6086Y9647D01*
X6092Y9641D01*
X6097Y9633D01*
X6203Y9512D01*
X9512Y6203D01*
X9519Y6198D01*
X9525Y6190D01*
X9644Y6101D01*
X9763Y6008D01*
X9772Y6005D01*
X9779Y5999D01*
X9923Y5928D01*
X14246Y4138D01*
X14348Y4110D01*
X14448Y4073D01*
X14532Y4060D01*
X14553Y4054D01*
X14569Y4054D01*
X14607Y4047D01*
X16947Y3817D01*
X16966Y3817D01*
X17071Y3811D01*
X44522Y3811D01*
X44641Y3826D01*
G37*
D10*
X129231Y8457D02*
X129233Y8364D01*
X129239Y8271D01*
X129248Y8178D01*
X129261Y8086D01*
X129278Y7994D01*
X129298Y7903D01*
X129322Y7813D01*
X129350Y7724D01*
X129381Y7636D01*
X129416Y7550D01*
X129454Y7465D01*
X129496Y7382D01*
X129541Y7300D01*
X129589Y7220D01*
X129641Y7142D01*
X129695Y7067D01*
X129753Y6994D01*
X129813Y6923D01*
X129876Y6854D01*
X129942Y6788D01*
X130011Y6725D01*
X130082Y6665D01*
X130155Y6607D01*
X130230Y6553D01*
X130308Y6501D01*
X130388Y6453D01*
X130470Y6408D01*
X130553Y6366D01*
X130638Y6328D01*
X130724Y6293D01*
X130812Y6262D01*
X130901Y6234D01*
X130991Y6210D01*
X131082Y6190D01*
X131174Y6173D01*
X131266Y6160D01*
X131359Y6151D01*
X131452Y6145D01*
X131545Y6143D01*
X131683Y6145D01*
X131821Y6151D01*
X131958Y6160D01*
X132095Y6174D01*
X132232Y6192D01*
X132368Y6213D01*
X132504Y6238D01*
X132639Y6267D01*
X132773Y6300D01*
X132905Y6336D01*
X133037Y6376D01*
X133168Y6420D01*
X133297Y6468D01*
X133425Y6519D01*
X133552Y6574D01*
X133677Y6632D01*
X133800Y6694D01*
X133921Y6759D01*
X134041Y6828D01*
X134158Y6900D01*
X134274Y6975D01*
X134387Y7054D01*
X134498Y7136D01*
X134607Y7221D01*
X134713Y7308D01*
X134817Y7399D01*
X134918Y7493D01*
X135016Y7589D01*
X134727Y14243D02*
X134725Y14336D01*
X134719Y14429D01*
X134710Y14522D01*
X134697Y14614D01*
X134680Y14706D01*
X134660Y14797D01*
X134636Y14887D01*
X134608Y14976D01*
X134577Y15064D01*
X134542Y15150D01*
X134504Y15235D01*
X134462Y15318D01*
X134417Y15400D01*
X134369Y15480D01*
X134317Y15558D01*
X134263Y15633D01*
X134205Y15706D01*
X134145Y15777D01*
X134082Y15846D01*
X134016Y15912D01*
X133947Y15975D01*
X133876Y16035D01*
X133803Y16093D01*
X133728Y16147D01*
X133650Y16199D01*
X133570Y16247D01*
X133488Y16292D01*
X133405Y16334D01*
X133320Y16372D01*
X133234Y16407D01*
X133146Y16438D01*
X133057Y16466D01*
X132967Y16490D01*
X132876Y16510D01*
X132784Y16527D01*
X132692Y16540D01*
X132599Y16549D01*
X132506Y16555D01*
X132413Y16557D01*
X132286Y16555D01*
X132159Y16550D01*
X132033Y16540D01*
X131906Y16527D01*
X131781Y16511D01*
X131655Y16490D01*
X131531Y16466D01*
X131407Y16439D01*
X131284Y16408D01*
X131162Y16373D01*
X131041Y16334D01*
X130921Y16292D01*
X130803Y16247D01*
X130685Y16198D01*
X130570Y16146D01*
X130456Y16090D01*
X130343Y16032D01*
X130233Y15969D01*
X130124Y15904D01*
X130017Y15835D01*
X129912Y15764D01*
X129810Y15689D01*
X133570Y12218D02*
X133650Y12268D01*
X133728Y12320D01*
X133803Y12375D01*
X133877Y12434D01*
X133948Y12495D01*
X134016Y12559D01*
X134082Y12626D01*
X134146Y12696D01*
X134206Y12767D01*
X134263Y12842D01*
X134318Y12918D01*
X134369Y12997D01*
X134417Y13077D01*
X134462Y13159D01*
X134504Y13244D01*
X134542Y13329D01*
X134577Y13416D01*
X134608Y13505D01*
X134636Y13595D01*
X134660Y13685D01*
X134680Y13777D01*
X134697Y13869D01*
X134710Y13962D01*
X134720Y14056D01*
X134725Y14149D01*
X134727Y14243D01*
X130389Y10482D02*
X130309Y10432D01*
X130231Y10380D01*
X130155Y10325D01*
X130082Y10266D01*
X130011Y10205D01*
X129943Y10141D01*
X129877Y10074D01*
X129813Y10004D01*
X129753Y9933D01*
X129696Y9858D01*
X129641Y9782D01*
X129590Y9703D01*
X129542Y9623D01*
X129497Y9541D01*
X129455Y9456D01*
X129417Y9371D01*
X129382Y9284D01*
X129351Y9195D01*
X129323Y9105D01*
X129299Y9015D01*
X129279Y8923D01*
X129262Y8831D01*
X129249Y8738D01*
X129239Y8644D01*
X129234Y8551D01*
X129232Y8457D01*
X130388Y10482D02*
X133570Y12218D01*
X124179Y16557D02*
X121865Y6143D01*
X119551Y13086D01*
X117237Y6143D01*
X114923Y16557D01*
X108883Y16557D02*
X108883Y6143D01*
X110040Y6143D02*
X107726Y6143D01*
X107726Y16557D02*
X110040Y16557D01*
X100501Y16557D02*
X100501Y6143D01*
X103394Y16557D02*
X97608Y16557D01*
X90466Y6143D02*
X88151Y6143D01*
X90466Y6143D02*
X90559Y6145D01*
X90652Y6151D01*
X90745Y6160D01*
X90837Y6173D01*
X90929Y6190D01*
X91020Y6210D01*
X91110Y6234D01*
X91199Y6262D01*
X91287Y6293D01*
X91373Y6328D01*
X91458Y6366D01*
X91541Y6408D01*
X91623Y6453D01*
X91703Y6501D01*
X91781Y6553D01*
X91856Y6607D01*
X91929Y6665D01*
X92000Y6725D01*
X92069Y6788D01*
X92135Y6854D01*
X92198Y6923D01*
X92258Y6994D01*
X92316Y7067D01*
X92370Y7143D01*
X92422Y7220D01*
X92470Y7300D01*
X92515Y7382D01*
X92557Y7465D01*
X92595Y7550D01*
X92630Y7636D01*
X92661Y7724D01*
X92689Y7813D01*
X92713Y7903D01*
X92733Y7994D01*
X92750Y8086D01*
X92763Y8178D01*
X92772Y8271D01*
X92778Y8364D01*
X92780Y8457D01*
X92780Y14243D01*
X92779Y14243D02*
X92777Y14339D01*
X92771Y14434D01*
X92761Y14529D01*
X92747Y14624D01*
X92730Y14718D01*
X92708Y14811D01*
X92683Y14903D01*
X92654Y14994D01*
X92621Y15084D01*
X92584Y15173D01*
X92544Y15259D01*
X92500Y15344D01*
X92453Y15427D01*
X92402Y15509D01*
X92348Y15588D01*
X92291Y15664D01*
X92231Y15739D01*
X92167Y15810D01*
X92101Y15879D01*
X92032Y15945D01*
X91961Y16009D01*
X91886Y16069D01*
X91810Y16126D01*
X91731Y16180D01*
X91650Y16231D01*
X91566Y16278D01*
X91481Y16322D01*
X91395Y16362D01*
X91306Y16399D01*
X91216Y16432D01*
X91125Y16461D01*
X91033Y16486D01*
X90940Y16508D01*
X90846Y16525D01*
X90751Y16539D01*
X90656Y16549D01*
X90561Y16555D01*
X90465Y16557D01*
X90466Y16557D02*
X88151Y16557D01*
X82820Y16557D02*
X82820Y6143D01*
X82820Y11929D02*
X77034Y11929D01*
X77034Y16557D02*
X77034Y6143D01*
X65477Y13086D02*
X63163Y6143D01*
X60849Y13086D01*
X55769Y14243D02*
X52876Y16557D01*
X52876Y6143D01*
X55769Y6143D02*
X49983Y6143D01*
X16558Y53640D02*
X16556Y53740D01*
X16550Y53839D01*
X16541Y53939D01*
X16527Y54037D01*
X16510Y54136D01*
X16490Y54233D01*
X16465Y54330D01*
X16437Y54426D01*
X16405Y54520D01*
X16369Y54613D01*
X16330Y54705D01*
X16288Y54795D01*
X16242Y54884D01*
X16192Y54971D01*
X16140Y55055D01*
X16084Y55138D01*
X16025Y55219D01*
X15963Y55297D01*
X15898Y55373D01*
X15830Y55446D01*
X15760Y55516D01*
X15687Y55584D01*
X15611Y55649D01*
X15533Y55711D01*
X15452Y55770D01*
X15369Y55826D01*
X15285Y55878D01*
X15198Y55928D01*
X15109Y55974D01*
X15019Y56016D01*
X14927Y56055D01*
X14834Y56091D01*
X14740Y56123D01*
X14644Y56151D01*
X14547Y56176D01*
X14450Y56196D01*
X14351Y56213D01*
X14253Y56227D01*
X14153Y56236D01*
X14054Y56242D01*
X13954Y56244D01*
X16557Y53640D02*
X16555Y53526D01*
X16549Y53413D01*
X16540Y53300D01*
X16526Y53187D01*
X16509Y53074D01*
X16488Y52963D01*
X16463Y52852D01*
X16434Y52742D01*
X16402Y52633D01*
X16366Y52525D01*
X16326Y52418D01*
X16283Y52313D01*
X16236Y52210D01*
X16185Y52108D01*
X16132Y52008D01*
X16074Y51909D01*
X16014Y51813D01*
X15950Y51719D01*
X15883Y51627D01*
X15813Y51537D01*
X15740Y51450D01*
X15665Y51365D01*
X15586Y51283D01*
X15504Y51204D01*
X15420Y51128D01*
X15334Y51054D01*
X15245Y50983D01*
X15153Y50916D01*
X15059Y50851D01*
X14964Y50790D01*
X14866Y50732D01*
X14766Y50678D01*
X14664Y50627D01*
X14561Y50579D01*
X14456Y50535D01*
X14350Y50495D01*
X14243Y50458D01*
X11929Y55376D02*
X12001Y55449D01*
X12076Y55520D01*
X12154Y55587D01*
X12234Y55652D01*
X12316Y55714D01*
X12400Y55773D01*
X12487Y55828D01*
X12576Y55881D01*
X12666Y55930D01*
X12758Y55976D01*
X12852Y56018D01*
X12948Y56057D01*
X13044Y56092D01*
X13142Y56124D01*
X13241Y56152D01*
X13341Y56176D01*
X13442Y56197D01*
X13544Y56214D01*
X13646Y56227D01*
X13748Y56236D01*
X13851Y56242D01*
X13954Y56244D01*
X11929Y55376D02*
X6143Y50458D01*
X6143Y56244D01*
X6143Y61888D02*
X6143Y64781D01*
X6145Y64888D01*
X6151Y64995D01*
X6161Y65101D01*
X6175Y65207D01*
X6192Y65313D01*
X6214Y65417D01*
X6239Y65521D01*
X6269Y65624D01*
X6302Y65726D01*
X6338Y65826D01*
X6379Y65925D01*
X6423Y66022D01*
X6471Y66118D01*
X6522Y66212D01*
X6576Y66304D01*
X6634Y66394D01*
X6696Y66481D01*
X6760Y66567D01*
X6827Y66650D01*
X6898Y66730D01*
X6972Y66808D01*
X7048Y66883D01*
X7127Y66955D01*
X7208Y67024D01*
X7293Y67090D01*
X7379Y67153D01*
X7468Y67212D01*
X7559Y67268D01*
X7652Y67321D01*
X7746Y67371D01*
X7843Y67417D01*
X7941Y67459D01*
X8041Y67497D01*
X8142Y67532D01*
X8244Y67564D01*
X8348Y67591D01*
X8452Y67614D01*
X8557Y67634D01*
X8663Y67650D01*
X8769Y67662D01*
X8876Y67670D01*
X8983Y67674D01*
X9089Y67674D01*
X9196Y67670D01*
X9303Y67662D01*
X9409Y67650D01*
X9515Y67634D01*
X9620Y67614D01*
X9724Y67591D01*
X9828Y67564D01*
X9930Y67532D01*
X10031Y67497D01*
X10131Y67459D01*
X10229Y67417D01*
X10326Y67371D01*
X10420Y67321D01*
X10513Y67268D01*
X10604Y67212D01*
X10693Y67153D01*
X10779Y67090D01*
X10864Y67024D01*
X10945Y66955D01*
X11024Y66883D01*
X11100Y66808D01*
X11174Y66730D01*
X11245Y66650D01*
X11312Y66567D01*
X11376Y66481D01*
X11438Y66394D01*
X11496Y66304D01*
X11550Y66212D01*
X11601Y66118D01*
X11649Y66022D01*
X11693Y65925D01*
X11734Y65826D01*
X11770Y65726D01*
X11803Y65624D01*
X11833Y65521D01*
X11858Y65417D01*
X11880Y65313D01*
X11897Y65207D01*
X11911Y65101D01*
X11921Y64995D01*
X11927Y64888D01*
X11929Y64781D01*
X16557Y65360D02*
X16557Y61888D01*
X16557Y65360D02*
X16555Y65454D01*
X16549Y65549D01*
X16540Y65643D01*
X16526Y65736D01*
X16509Y65829D01*
X16488Y65921D01*
X16463Y66012D01*
X16435Y66102D01*
X16403Y66191D01*
X16367Y66278D01*
X16328Y66364D01*
X16285Y66448D01*
X16239Y66531D01*
X16190Y66611D01*
X16137Y66689D01*
X16081Y66766D01*
X16022Y66839D01*
X15961Y66911D01*
X15896Y66979D01*
X15828Y67046D01*
X15758Y67109D01*
X15686Y67169D01*
X15611Y67227D01*
X15533Y67281D01*
X15454Y67332D01*
X15373Y67380D01*
X15289Y67424D01*
X15204Y67465D01*
X15118Y67502D01*
X15030Y67536D01*
X14940Y67567D01*
X14850Y67593D01*
X14758Y67616D01*
X14665Y67635D01*
X14572Y67650D01*
X14479Y67662D01*
X14385Y67670D01*
X14290Y67674D01*
X14196Y67674D01*
X14101Y67670D01*
X14007Y67662D01*
X13914Y67650D01*
X13821Y67635D01*
X13728Y67616D01*
X13636Y67593D01*
X13546Y67567D01*
X13456Y67536D01*
X13368Y67502D01*
X13282Y67465D01*
X13197Y67424D01*
X13113Y67380D01*
X13032Y67332D01*
X12953Y67281D01*
X12875Y67227D01*
X12800Y67169D01*
X12728Y67109D01*
X12658Y67046D01*
X12590Y66979D01*
X12525Y66911D01*
X12464Y66839D01*
X12405Y66766D01*
X12349Y66689D01*
X12296Y66611D01*
X12247Y66531D01*
X12201Y66448D01*
X12158Y66364D01*
X12119Y66278D01*
X12083Y66191D01*
X12051Y66102D01*
X12023Y66012D01*
X11998Y65921D01*
X11977Y65829D01*
X11960Y65736D01*
X11946Y65643D01*
X11937Y65549D01*
X11931Y65454D01*
X11929Y65360D01*
X11929Y63045D01*
X4986Y72754D02*
X17714Y77382D01*
X14243Y82462D02*
X16557Y85355D01*
X6143Y85355D01*
X6143Y82462D02*
X6143Y88248D01*
X14243Y93892D02*
X16557Y96785D01*
X6143Y96785D01*
X6143Y93892D02*
X6143Y99678D01*
X4986Y104758D02*
X17714Y109386D01*
X16558Y117648D02*
X16556Y117748D01*
X16550Y117847D01*
X16541Y117947D01*
X16527Y118045D01*
X16510Y118144D01*
X16490Y118241D01*
X16465Y118338D01*
X16437Y118434D01*
X16405Y118528D01*
X16369Y118621D01*
X16330Y118713D01*
X16288Y118803D01*
X16242Y118892D01*
X16192Y118979D01*
X16140Y119063D01*
X16084Y119146D01*
X16025Y119227D01*
X15963Y119305D01*
X15898Y119381D01*
X15830Y119454D01*
X15760Y119524D01*
X15687Y119592D01*
X15611Y119657D01*
X15533Y119719D01*
X15452Y119778D01*
X15369Y119834D01*
X15285Y119886D01*
X15198Y119936D01*
X15109Y119982D01*
X15019Y120024D01*
X14927Y120063D01*
X14834Y120099D01*
X14740Y120131D01*
X14644Y120159D01*
X14547Y120184D01*
X14450Y120204D01*
X14351Y120221D01*
X14253Y120235D01*
X14153Y120244D01*
X14054Y120250D01*
X13954Y120252D01*
X16557Y117648D02*
X16555Y117534D01*
X16549Y117421D01*
X16540Y117308D01*
X16526Y117195D01*
X16509Y117082D01*
X16488Y116971D01*
X16463Y116860D01*
X16434Y116750D01*
X16402Y116641D01*
X16366Y116533D01*
X16326Y116426D01*
X16283Y116321D01*
X16236Y116218D01*
X16185Y116116D01*
X16132Y116016D01*
X16074Y115917D01*
X16014Y115821D01*
X15950Y115727D01*
X15883Y115635D01*
X15813Y115545D01*
X15740Y115458D01*
X15665Y115373D01*
X15586Y115291D01*
X15504Y115212D01*
X15420Y115136D01*
X15334Y115062D01*
X15245Y114991D01*
X15153Y114924D01*
X15059Y114859D01*
X14964Y114798D01*
X14866Y114740D01*
X14766Y114686D01*
X14664Y114635D01*
X14561Y114587D01*
X14456Y114543D01*
X14350Y114503D01*
X14243Y114466D01*
X11929Y119384D02*
X12001Y119457D01*
X12076Y119528D01*
X12154Y119595D01*
X12234Y119660D01*
X12316Y119722D01*
X12400Y119781D01*
X12487Y119836D01*
X12576Y119889D01*
X12666Y119938D01*
X12758Y119984D01*
X12852Y120026D01*
X12948Y120065D01*
X13044Y120100D01*
X13142Y120132D01*
X13241Y120160D01*
X13341Y120184D01*
X13442Y120205D01*
X13544Y120222D01*
X13646Y120235D01*
X13748Y120244D01*
X13851Y120250D01*
X13954Y120252D01*
X11929Y119384D02*
X6143Y114466D01*
X6143Y120252D01*
X11350Y125896D02*
X11555Y125898D01*
X11760Y125906D01*
X11964Y125918D01*
X12168Y125935D01*
X12372Y125957D01*
X12575Y125984D01*
X12778Y126016D01*
X12979Y126052D01*
X13180Y126093D01*
X13379Y126139D01*
X13578Y126190D01*
X13775Y126246D01*
X13971Y126306D01*
X14165Y126371D01*
X14358Y126440D01*
X14549Y126514D01*
X14738Y126593D01*
X14925Y126676D01*
X15111Y126764D01*
X15110Y126764D02*
X15196Y126795D01*
X15281Y126830D01*
X15364Y126869D01*
X15445Y126912D01*
X15524Y126957D01*
X15602Y127006D01*
X15677Y127059D01*
X15750Y127114D01*
X15820Y127173D01*
X15888Y127234D01*
X15953Y127299D01*
X16015Y127366D01*
X16075Y127435D01*
X16131Y127508D01*
X16184Y127582D01*
X16234Y127659D01*
X16281Y127738D01*
X16324Y127818D01*
X16364Y127901D01*
X16400Y127985D01*
X16433Y128071D01*
X16462Y128157D01*
X16487Y128246D01*
X16508Y128335D01*
X16526Y128424D01*
X16539Y128515D01*
X16549Y128606D01*
X16555Y128697D01*
X16557Y128789D01*
X16555Y128881D01*
X16549Y128972D01*
X16539Y129063D01*
X16526Y129154D01*
X16508Y129243D01*
X16487Y129332D01*
X16462Y129421D01*
X16433Y129507D01*
X16400Y129593D01*
X16364Y129677D01*
X16324Y129760D01*
X16281Y129840D01*
X16234Y129919D01*
X16184Y129996D01*
X16131Y130070D01*
X16075Y130143D01*
X16015Y130212D01*
X15953Y130279D01*
X15888Y130344D01*
X15820Y130405D01*
X15750Y130464D01*
X15677Y130519D01*
X15602Y130572D01*
X15524Y130621D01*
X15445Y130666D01*
X15364Y130709D01*
X15281Y130748D01*
X15196Y130783D01*
X15110Y130814D01*
X15111Y130814D02*
X14925Y130902D01*
X14738Y130985D01*
X14549Y131064D01*
X14358Y131138D01*
X14165Y131207D01*
X13971Y131272D01*
X13775Y131332D01*
X13578Y131388D01*
X13379Y131439D01*
X13180Y131485D01*
X12979Y131526D01*
X12778Y131562D01*
X12575Y131594D01*
X12372Y131621D01*
X12168Y131643D01*
X11964Y131660D01*
X11760Y131672D01*
X11555Y131680D01*
X11350Y131682D01*
X11350Y125896D02*
X11145Y125898D01*
X10940Y125906D01*
X10736Y125918D01*
X10532Y125935D01*
X10328Y125957D01*
X10125Y125984D01*
X9923Y126016D01*
X9721Y126052D01*
X9520Y126093D01*
X9321Y126139D01*
X9122Y126190D01*
X8925Y126246D01*
X8729Y126306D01*
X8535Y126371D01*
X8342Y126440D01*
X8151Y126514D01*
X7962Y126593D01*
X7775Y126676D01*
X7589Y126764D01*
X7590Y126764D02*
X7504Y126795D01*
X7419Y126830D01*
X7336Y126869D01*
X7255Y126912D01*
X7176Y126957D01*
X7098Y127006D01*
X7023Y127059D01*
X6950Y127114D01*
X6880Y127173D01*
X6812Y127234D01*
X6747Y127299D01*
X6685Y127366D01*
X6625Y127435D01*
X6569Y127508D01*
X6516Y127582D01*
X6466Y127659D01*
X6419Y127738D01*
X6376Y127818D01*
X6336Y127901D01*
X6300Y127985D01*
X6267Y128071D01*
X6238Y128157D01*
X6213Y128246D01*
X6192Y128335D01*
X6174Y128424D01*
X6161Y128515D01*
X6151Y128606D01*
X6145Y128697D01*
X6143Y128789D01*
X7589Y130814D02*
X7775Y130902D01*
X7962Y130985D01*
X8151Y131064D01*
X8342Y131138D01*
X8535Y131207D01*
X8729Y131272D01*
X8925Y131332D01*
X9122Y131388D01*
X9321Y131439D01*
X9520Y131485D01*
X9721Y131526D01*
X9923Y131562D01*
X10125Y131594D01*
X10328Y131621D01*
X10532Y131643D01*
X10736Y131660D01*
X10940Y131672D01*
X11145Y131680D01*
X11350Y131682D01*
X7590Y130814D02*
X7504Y130783D01*
X7419Y130748D01*
X7336Y130709D01*
X7255Y130666D01*
X7176Y130621D01*
X7098Y130572D01*
X7023Y130519D01*
X6950Y130464D01*
X6880Y130405D01*
X6812Y130344D01*
X6747Y130279D01*
X6685Y130212D01*
X6625Y130143D01*
X6569Y130070D01*
X6516Y129996D01*
X6466Y129919D01*
X6419Y129840D01*
X6376Y129760D01*
X6336Y129677D01*
X6300Y129593D01*
X6267Y129507D01*
X6238Y129421D01*
X6213Y129332D01*
X6192Y129243D01*
X6174Y129154D01*
X6161Y129063D01*
X6151Y128972D01*
X6145Y128881D01*
X6143Y128789D01*
X8457Y126475D02*
X14243Y131103D01*
X16558Y140508D02*
X16556Y140608D01*
X16550Y140707D01*
X16541Y140807D01*
X16527Y140905D01*
X16510Y141004D01*
X16490Y141101D01*
X16465Y141198D01*
X16437Y141294D01*
X16405Y141388D01*
X16369Y141481D01*
X16330Y141573D01*
X16288Y141663D01*
X16242Y141752D01*
X16192Y141839D01*
X16140Y141923D01*
X16084Y142006D01*
X16025Y142087D01*
X15963Y142165D01*
X15898Y142241D01*
X15830Y142314D01*
X15760Y142384D01*
X15687Y142452D01*
X15611Y142517D01*
X15533Y142579D01*
X15452Y142638D01*
X15369Y142694D01*
X15285Y142746D01*
X15198Y142796D01*
X15109Y142842D01*
X15019Y142884D01*
X14927Y142923D01*
X14834Y142959D01*
X14740Y142991D01*
X14644Y143019D01*
X14547Y143044D01*
X14450Y143064D01*
X14351Y143081D01*
X14253Y143095D01*
X14153Y143104D01*
X14054Y143110D01*
X13954Y143112D01*
X16557Y140508D02*
X16555Y140394D01*
X16549Y140281D01*
X16540Y140168D01*
X16526Y140055D01*
X16509Y139942D01*
X16488Y139831D01*
X16463Y139720D01*
X16434Y139610D01*
X16402Y139501D01*
X16366Y139393D01*
X16326Y139286D01*
X16283Y139181D01*
X16236Y139078D01*
X16185Y138976D01*
X16132Y138876D01*
X16074Y138777D01*
X16014Y138681D01*
X15950Y138587D01*
X15883Y138495D01*
X15813Y138405D01*
X15740Y138318D01*
X15665Y138233D01*
X15586Y138151D01*
X15504Y138072D01*
X15420Y137996D01*
X15334Y137922D01*
X15245Y137851D01*
X15153Y137784D01*
X15059Y137719D01*
X14964Y137658D01*
X14866Y137600D01*
X14766Y137546D01*
X14664Y137495D01*
X14561Y137447D01*
X14456Y137403D01*
X14350Y137363D01*
X14243Y137326D01*
X11929Y142244D02*
X12001Y142317D01*
X12076Y142388D01*
X12154Y142455D01*
X12234Y142520D01*
X12316Y142582D01*
X12400Y142641D01*
X12487Y142696D01*
X12576Y142749D01*
X12666Y142798D01*
X12758Y142844D01*
X12852Y142886D01*
X12948Y142925D01*
X13044Y142960D01*
X13142Y142992D01*
X13241Y143020D01*
X13341Y143044D01*
X13442Y143065D01*
X13544Y143082D01*
X13646Y143095D01*
X13748Y143104D01*
X13851Y143110D01*
X13954Y143112D01*
X11929Y142244D02*
X6143Y137326D01*
X6143Y143112D01*
X11350Y148756D02*
X11555Y148758D01*
X11760Y148766D01*
X11964Y148778D01*
X12168Y148795D01*
X12372Y148817D01*
X12575Y148844D01*
X12778Y148876D01*
X12979Y148912D01*
X13180Y148953D01*
X13379Y148999D01*
X13578Y149050D01*
X13775Y149106D01*
X13971Y149166D01*
X14165Y149231D01*
X14358Y149300D01*
X14549Y149374D01*
X14738Y149453D01*
X14925Y149536D01*
X15111Y149624D01*
X15110Y149624D02*
X15196Y149655D01*
X15281Y149690D01*
X15364Y149729D01*
X15445Y149772D01*
X15524Y149817D01*
X15602Y149866D01*
X15677Y149919D01*
X15750Y149974D01*
X15820Y150033D01*
X15888Y150094D01*
X15953Y150159D01*
X16015Y150226D01*
X16075Y150295D01*
X16131Y150368D01*
X16184Y150442D01*
X16234Y150519D01*
X16281Y150598D01*
X16324Y150678D01*
X16364Y150761D01*
X16400Y150845D01*
X16433Y150931D01*
X16462Y151017D01*
X16487Y151106D01*
X16508Y151195D01*
X16526Y151284D01*
X16539Y151375D01*
X16549Y151466D01*
X16555Y151557D01*
X16557Y151649D01*
X16555Y151741D01*
X16549Y151832D01*
X16539Y151923D01*
X16526Y152014D01*
X16508Y152103D01*
X16487Y152192D01*
X16462Y152281D01*
X16433Y152367D01*
X16400Y152453D01*
X16364Y152537D01*
X16324Y152620D01*
X16281Y152700D01*
X16234Y152779D01*
X16184Y152856D01*
X16131Y152930D01*
X16075Y153003D01*
X16015Y153072D01*
X15953Y153139D01*
X15888Y153204D01*
X15820Y153265D01*
X15750Y153324D01*
X15677Y153379D01*
X15602Y153432D01*
X15524Y153481D01*
X15445Y153526D01*
X15364Y153569D01*
X15281Y153608D01*
X15196Y153643D01*
X15110Y153674D01*
X15111Y153674D02*
X14925Y153762D01*
X14738Y153845D01*
X14549Y153924D01*
X14358Y153998D01*
X14165Y154067D01*
X13971Y154132D01*
X13775Y154192D01*
X13578Y154248D01*
X13379Y154299D01*
X13180Y154345D01*
X12979Y154386D01*
X12778Y154422D01*
X12575Y154454D01*
X12372Y154481D01*
X12168Y154503D01*
X11964Y154520D01*
X11760Y154532D01*
X11555Y154540D01*
X11350Y154542D01*
X11350Y148756D02*
X11145Y148758D01*
X10940Y148766D01*
X10736Y148778D01*
X10532Y148795D01*
X10328Y148817D01*
X10125Y148844D01*
X9923Y148876D01*
X9721Y148912D01*
X9520Y148953D01*
X9321Y148999D01*
X9122Y149050D01*
X8925Y149106D01*
X8729Y149166D01*
X8535Y149231D01*
X8342Y149300D01*
X8151Y149374D01*
X7962Y149453D01*
X7775Y149536D01*
X7589Y149624D01*
X7590Y149624D02*
X7504Y149655D01*
X7419Y149690D01*
X7336Y149729D01*
X7255Y149772D01*
X7176Y149817D01*
X7098Y149866D01*
X7023Y149919D01*
X6950Y149974D01*
X6880Y150033D01*
X6812Y150094D01*
X6747Y150159D01*
X6685Y150226D01*
X6625Y150295D01*
X6569Y150368D01*
X6516Y150442D01*
X6466Y150519D01*
X6419Y150598D01*
X6376Y150678D01*
X6336Y150761D01*
X6300Y150845D01*
X6267Y150931D01*
X6238Y151017D01*
X6213Y151106D01*
X6192Y151195D01*
X6174Y151284D01*
X6161Y151375D01*
X6151Y151466D01*
X6145Y151557D01*
X6143Y151649D01*
X7589Y153674D02*
X7775Y153762D01*
X7962Y153845D01*
X8151Y153924D01*
X8342Y153998D01*
X8535Y154067D01*
X8729Y154132D01*
X8925Y154192D01*
X9122Y154248D01*
X9321Y154299D01*
X9520Y154345D01*
X9721Y154386D01*
X9923Y154422D01*
X10125Y154454D01*
X10328Y154481D01*
X10532Y154503D01*
X10736Y154520D01*
X10940Y154532D01*
X11145Y154540D01*
X11350Y154542D01*
X7590Y153674D02*
X7504Y153643D01*
X7419Y153608D01*
X7336Y153569D01*
X7255Y153526D01*
X7176Y153481D01*
X7098Y153432D01*
X7023Y153379D01*
X6950Y153324D01*
X6880Y153265D01*
X6812Y153204D01*
X6747Y153139D01*
X6685Y153072D01*
X6625Y153003D01*
X6569Y152930D01*
X6516Y152856D01*
X6466Y152779D01*
X6419Y152700D01*
X6376Y152620D01*
X6336Y152537D01*
X6300Y152453D01*
X6267Y152367D01*
X6238Y152281D01*
X6213Y152192D01*
X6192Y152103D01*
X6174Y152014D01*
X6161Y151923D01*
X6151Y151832D01*
X6145Y151741D01*
X6143Y151649D01*
X8457Y149335D02*
X14243Y153963D01*
D11*
X47500Y62300D03*
D12*
X60500Y75300D01*
X60500Y148750D01*
D11*
X60500Y148750D03*
D12*
X51743Y66543D02*
X46628Y64617D01*
X47500Y62300D01*
X49817Y61428D02*
X51743Y66543D01*
X49817Y61428D02*
X47500Y62300D01*
X60500Y142750D02*
X62755Y147728D01*
X60500Y148750D01*
X58245Y147728D02*
X60500Y142750D01*
X58245Y147728D02*
X60500Y148750D01*
D11*
X98750Y158750D03*
X143750Y31900D03*
D12*
X113150Y62500D01*
X90000Y62500D01*
X77500Y75000D01*
X77500Y137500D02*
X98750Y158750D01*
X77500Y137500D02*
X77500Y75000D01*
X94507Y154507D02*
X99622Y156433D01*
X98750Y158750D01*
X96433Y159622D02*
X94507Y154507D01*
X96433Y159622D02*
X98750Y158750D01*
X139507Y36143D02*
X141433Y31028D01*
X143750Y31900D01*
X144622Y34217D02*
X139507Y36143D01*
X144622Y34217D02*
X143750Y31900D01*
D11*
X153750Y158750D03*
X95000Y75000D03*
D12*
X163750Y148750D02*
X153750Y158750D01*
X163750Y148750D02*
X163750Y123750D01*
X115000Y75000D01*
X95000Y75000D01*
X157993Y154507D02*
X156067Y159622D01*
X153750Y158750D01*
X152878Y156433D02*
X157993Y154507D01*
X152878Y156433D02*
X153750Y158750D01*
X101000Y75000D02*
X96022Y77255D01*
X95000Y75000D01*
X96022Y72745D02*
X101000Y75000D01*
X96022Y72745D02*
X95000Y75000D01*
D11*
X47500Y113100D03*
X31250Y46250D03*
D12*
X31250Y96850D02*
X47500Y113100D01*
X31250Y96850D02*
X31250Y46250D01*
X47500Y158750D02*
X58750Y170000D01*
X47500Y158750D02*
X47500Y113100D01*
D11*
X58750Y170000D03*
D12*
X48372Y110783D02*
X43257Y108857D01*
X48372Y110783D02*
X47500Y113100D01*
X45183Y113972D02*
X43257Y108857D01*
X45183Y113972D02*
X47500Y113100D01*
X45245Y114122D02*
X47500Y119100D01*
X45245Y114122D02*
X47500Y113100D01*
X49755Y114122D02*
X47500Y119100D01*
X49755Y114122D02*
X47500Y113100D01*
X31250Y52250D02*
X28995Y47272D01*
X31250Y46250D01*
X33505Y47272D02*
X31250Y52250D01*
X33505Y47272D02*
X31250Y46250D01*
X54507Y165757D02*
X59622Y167683D01*
X58750Y170000D01*
X56433Y170872D02*
X54507Y165757D01*
X56433Y170872D02*
X58750Y170000D01*
D11*
X92500Y100400D03*
X153750Y128750D03*
D12*
X125400Y100400D01*
X92500Y100400D01*
X93522Y102655D02*
X98500Y100400D01*
X93522Y102655D02*
X92500Y100400D01*
X93522Y98145D02*
X98500Y100400D01*
X93522Y98145D02*
X92500Y100400D01*
X149507Y124507D02*
X154622Y126433D01*
X153750Y128750D01*
X151433Y129622D02*
X149507Y124507D01*
X151433Y129622D02*
X153750Y128750D01*
D11*
X95380Y49600D03*
D12*
X44150Y49600D01*
X38750Y55000D01*
X38750Y83750D02*
X41250Y83750D01*
X38750Y83750D02*
X38750Y55000D01*
D11*
X41250Y83750D03*
D12*
X89380Y49600D02*
X94358Y47345D01*
X95380Y49600D01*
X94358Y51855D02*
X89380Y49600D01*
X94358Y51855D02*
X95380Y49600D01*
X42875Y81881D02*
X38750Y78296D01*
X42875Y81881D02*
X41250Y83750D01*
X38774Y83761D02*
X38750Y78296D01*
X38774Y83761D02*
X41250Y83750D01*
D11*
X165000Y22500D03*
X20000Y12500D03*
X45000Y170000D03*
D13*
X115000Y180000D02*
X124500Y180000D01*
X134500Y180000D02*
X55000Y180000D01*
X45000Y170000D01*
X124500Y170000D02*
X124500Y180000D01*
D11*
X169500Y113750D03*
D13*
X124500Y148750D02*
X124500Y170000D01*
X124500Y180000D02*
X134500Y180000D01*
X165000Y180000D01*
X175000Y170000D01*
X175000Y119250D01*
X169500Y113750D01*
D11*
X124500Y148750D03*
D13*
X124500Y170000D02*
X134500Y180000D01*
X124500Y170000D02*
X115000Y179500D01*
X115000Y180000D01*
M02*
