G04 EAGLE Gerber RS-274X export*
G75*
%MOMM*%
%FSLAX34Y34*%
%LPD*%
%INSilkscreen Top*%
%IPPOS*%
%AMOC8*
5,1,8,0,0,1.08239X$1,22.5*%
G01*
%ADD10C,0.050800*%
%ADD11C,0.127000*%
%ADD12C,0.800000*%


D10*
X113213Y145254D02*
X111519Y145254D01*
X111438Y145256D01*
X111358Y145262D01*
X111278Y145271D01*
X111199Y145285D01*
X111120Y145302D01*
X111042Y145323D01*
X110965Y145347D01*
X110890Y145375D01*
X110816Y145407D01*
X110743Y145442D01*
X110673Y145481D01*
X110604Y145523D01*
X110537Y145568D01*
X110472Y145616D01*
X110410Y145668D01*
X110351Y145722D01*
X110294Y145779D01*
X110240Y145838D01*
X110188Y145900D01*
X110140Y145965D01*
X110095Y146032D01*
X110053Y146101D01*
X110014Y146171D01*
X109979Y146244D01*
X109947Y146318D01*
X109919Y146393D01*
X109895Y146470D01*
X109874Y146548D01*
X109857Y146627D01*
X109843Y146706D01*
X109834Y146786D01*
X109828Y146866D01*
X109826Y146947D01*
X109826Y151181D01*
X109828Y151262D01*
X109834Y151342D01*
X109843Y151422D01*
X109857Y151501D01*
X109874Y151580D01*
X109895Y151658D01*
X109919Y151735D01*
X109947Y151810D01*
X109979Y151884D01*
X110014Y151957D01*
X110053Y152027D01*
X110095Y152096D01*
X110140Y152163D01*
X110188Y152228D01*
X110240Y152290D01*
X110294Y152349D01*
X110351Y152406D01*
X110410Y152460D01*
X110472Y152512D01*
X110537Y152560D01*
X110604Y152605D01*
X110672Y152647D01*
X110743Y152686D01*
X110816Y152721D01*
X110890Y152753D01*
X110965Y152781D01*
X111042Y152805D01*
X111120Y152826D01*
X111199Y152843D01*
X111278Y152857D01*
X111358Y152866D01*
X111438Y152872D01*
X111519Y152874D01*
X113213Y152874D01*
X115941Y151181D02*
X118057Y152874D01*
X118057Y145254D01*
X115941Y145254D02*
X120174Y145254D01*
X32754Y38186D02*
X32754Y36492D01*
X32754Y38186D02*
X32756Y38267D01*
X32762Y38347D01*
X32771Y38427D01*
X32785Y38506D01*
X32802Y38585D01*
X32823Y38663D01*
X32847Y38740D01*
X32875Y38815D01*
X32907Y38889D01*
X32942Y38962D01*
X32981Y39033D01*
X33023Y39101D01*
X33068Y39168D01*
X33116Y39233D01*
X33168Y39295D01*
X33222Y39354D01*
X33279Y39411D01*
X33338Y39465D01*
X33400Y39517D01*
X33465Y39565D01*
X33532Y39610D01*
X33601Y39652D01*
X33671Y39691D01*
X33744Y39726D01*
X33818Y39758D01*
X33893Y39786D01*
X33970Y39810D01*
X34048Y39831D01*
X34127Y39848D01*
X34206Y39862D01*
X34286Y39871D01*
X34366Y39877D01*
X34447Y39879D01*
X38681Y39879D01*
X38762Y39877D01*
X38842Y39871D01*
X38922Y39862D01*
X39001Y39848D01*
X39080Y39831D01*
X39158Y39810D01*
X39235Y39786D01*
X39310Y39758D01*
X39384Y39726D01*
X39457Y39691D01*
X39527Y39652D01*
X39596Y39610D01*
X39663Y39565D01*
X39728Y39517D01*
X39790Y39465D01*
X39849Y39411D01*
X39906Y39354D01*
X39960Y39295D01*
X40012Y39233D01*
X40060Y39168D01*
X40105Y39101D01*
X40147Y39033D01*
X40186Y38962D01*
X40221Y38889D01*
X40253Y38815D01*
X40281Y38740D01*
X40305Y38663D01*
X40326Y38585D01*
X40343Y38506D01*
X40357Y38427D01*
X40366Y38347D01*
X40372Y38267D01*
X40374Y38186D01*
X40374Y36492D01*
X32754Y33508D02*
X32754Y30121D01*
X32754Y33508D02*
X40374Y33508D01*
X40374Y30121D01*
X36987Y30968D02*
X36987Y33508D01*
X32754Y67921D02*
X32754Y69614D01*
X32756Y69695D01*
X32762Y69775D01*
X32771Y69855D01*
X32785Y69934D01*
X32802Y70013D01*
X32823Y70091D01*
X32847Y70168D01*
X32875Y70243D01*
X32907Y70317D01*
X32942Y70390D01*
X32981Y70461D01*
X33023Y70529D01*
X33068Y70596D01*
X33116Y70661D01*
X33168Y70723D01*
X33222Y70782D01*
X33279Y70839D01*
X33338Y70893D01*
X33400Y70945D01*
X33465Y70993D01*
X33532Y71038D01*
X33601Y71080D01*
X33671Y71119D01*
X33744Y71154D01*
X33818Y71186D01*
X33893Y71214D01*
X33970Y71238D01*
X34048Y71259D01*
X34127Y71276D01*
X34206Y71290D01*
X34286Y71299D01*
X34366Y71305D01*
X34447Y71307D01*
X34447Y71308D02*
X38681Y71308D01*
X38681Y71307D02*
X38762Y71305D01*
X38842Y71299D01*
X38922Y71290D01*
X39001Y71276D01*
X39080Y71259D01*
X39158Y71238D01*
X39235Y71214D01*
X39310Y71186D01*
X39384Y71154D01*
X39457Y71119D01*
X39527Y71080D01*
X39596Y71038D01*
X39663Y70993D01*
X39728Y70945D01*
X39790Y70893D01*
X39849Y70839D01*
X39906Y70782D01*
X39960Y70723D01*
X40012Y70661D01*
X40060Y70596D01*
X40105Y70529D01*
X40147Y70461D01*
X40186Y70390D01*
X40221Y70317D01*
X40253Y70243D01*
X40281Y70168D01*
X40305Y70091D01*
X40326Y70013D01*
X40343Y69934D01*
X40357Y69855D01*
X40366Y69775D01*
X40372Y69695D01*
X40374Y69614D01*
X40374Y67921D01*
X40374Y64539D02*
X32754Y64539D01*
X32754Y65386D02*
X32754Y63692D01*
X40374Y63692D02*
X40374Y65386D01*
X32754Y139393D02*
X32754Y142780D01*
X40374Y142780D01*
X40374Y139393D01*
X36987Y140240D02*
X36987Y142780D01*
X40374Y136453D02*
X32754Y136453D01*
X32754Y132220D02*
X40374Y136453D01*
X40374Y132220D02*
X32754Y132220D01*
X36987Y109456D02*
X36987Y108186D01*
X32754Y108186D01*
X32754Y110726D01*
X32756Y110807D01*
X32762Y110887D01*
X32771Y110967D01*
X32785Y111046D01*
X32802Y111125D01*
X32823Y111203D01*
X32847Y111280D01*
X32875Y111355D01*
X32907Y111429D01*
X32942Y111502D01*
X32981Y111573D01*
X33023Y111641D01*
X33068Y111708D01*
X33116Y111773D01*
X33168Y111835D01*
X33222Y111894D01*
X33279Y111951D01*
X33338Y112005D01*
X33400Y112057D01*
X33465Y112105D01*
X33532Y112150D01*
X33601Y112192D01*
X33671Y112231D01*
X33744Y112266D01*
X33818Y112298D01*
X33893Y112326D01*
X33970Y112350D01*
X34048Y112371D01*
X34127Y112388D01*
X34206Y112402D01*
X34286Y112411D01*
X34366Y112417D01*
X34447Y112419D01*
X34447Y112420D02*
X38681Y112420D01*
X38681Y112419D02*
X38762Y112417D01*
X38842Y112411D01*
X38922Y112402D01*
X39001Y112388D01*
X39080Y112371D01*
X39158Y112350D01*
X39235Y112326D01*
X39310Y112298D01*
X39384Y112266D01*
X39457Y112231D01*
X39527Y112192D01*
X39596Y112150D01*
X39663Y112105D01*
X39728Y112057D01*
X39790Y112005D01*
X39849Y111951D01*
X39906Y111894D01*
X39960Y111835D01*
X40012Y111773D01*
X40060Y111708D01*
X40105Y111641D01*
X40147Y111573D01*
X40186Y111502D01*
X40221Y111429D01*
X40253Y111355D01*
X40281Y111280D01*
X40305Y111203D01*
X40326Y111125D01*
X40343Y111046D01*
X40357Y110967D01*
X40366Y110887D01*
X40372Y110807D01*
X40374Y110726D01*
X40374Y108186D01*
X40374Y104617D02*
X32754Y104617D01*
X32754Y100383D02*
X40374Y104617D01*
X40374Y100383D02*
X32754Y100383D01*
X32754Y96814D02*
X40374Y96814D01*
X40374Y94697D01*
X40372Y94607D01*
X40366Y94517D01*
X40357Y94428D01*
X40344Y94339D01*
X40326Y94251D01*
X40306Y94164D01*
X40281Y94077D01*
X40253Y93992D01*
X40221Y93908D01*
X40186Y93825D01*
X40147Y93744D01*
X40105Y93665D01*
X40060Y93587D01*
X40011Y93512D01*
X39959Y93438D01*
X39904Y93367D01*
X39846Y93298D01*
X39785Y93232D01*
X39722Y93169D01*
X39656Y93108D01*
X39587Y93050D01*
X39516Y92995D01*
X39442Y92943D01*
X39367Y92894D01*
X39289Y92849D01*
X39210Y92807D01*
X39129Y92768D01*
X39046Y92733D01*
X38962Y92701D01*
X38877Y92673D01*
X38790Y92648D01*
X38703Y92628D01*
X38615Y92610D01*
X38526Y92597D01*
X38437Y92588D01*
X38347Y92582D01*
X38257Y92580D01*
X34871Y92580D01*
X34781Y92582D01*
X34691Y92588D01*
X34602Y92597D01*
X34513Y92610D01*
X34425Y92628D01*
X34338Y92648D01*
X34251Y92673D01*
X34166Y92701D01*
X34082Y92733D01*
X33999Y92768D01*
X33918Y92807D01*
X33839Y92849D01*
X33761Y92894D01*
X33686Y92943D01*
X33612Y92995D01*
X33541Y93050D01*
X33472Y93108D01*
X33406Y93169D01*
X33343Y93232D01*
X33282Y93298D01*
X33224Y93367D01*
X33169Y93438D01*
X33117Y93512D01*
X33068Y93587D01*
X33023Y93665D01*
X32981Y93744D01*
X32942Y93825D01*
X32907Y93908D01*
X32875Y93992D01*
X32847Y94077D01*
X32822Y94164D01*
X32802Y94251D01*
X32784Y94339D01*
X32771Y94428D01*
X32762Y94517D01*
X32756Y94607D01*
X32754Y94697D01*
X32754Y96814D01*
X87754Y175309D02*
X95374Y175309D01*
X95374Y173192D01*
X95372Y173101D01*
X95366Y173010D01*
X95356Y172919D01*
X95343Y172829D01*
X95325Y172740D01*
X95304Y172651D01*
X95279Y172564D01*
X95250Y172477D01*
X95217Y172392D01*
X95181Y172309D01*
X95141Y172227D01*
X95098Y172147D01*
X95051Y172068D01*
X95001Y171992D01*
X94948Y171918D01*
X94892Y171847D01*
X94832Y171778D01*
X94770Y171711D01*
X94705Y171648D01*
X94637Y171587D01*
X94567Y171529D01*
X94494Y171474D01*
X94419Y171422D01*
X94342Y171374D01*
X94262Y171329D01*
X94181Y171287D01*
X94099Y171249D01*
X94014Y171215D01*
X93928Y171184D01*
X93841Y171157D01*
X93753Y171134D01*
X93664Y171115D01*
X93575Y171099D01*
X93484Y171087D01*
X93394Y171079D01*
X93303Y171075D01*
X93211Y171075D01*
X93120Y171079D01*
X93030Y171087D01*
X92939Y171099D01*
X92850Y171115D01*
X92761Y171134D01*
X92673Y171157D01*
X92586Y171184D01*
X92500Y171215D01*
X92415Y171249D01*
X92333Y171287D01*
X92252Y171329D01*
X92172Y171374D01*
X92095Y171422D01*
X92020Y171474D01*
X91947Y171529D01*
X91877Y171587D01*
X91809Y171648D01*
X91744Y171711D01*
X91682Y171778D01*
X91622Y171847D01*
X91566Y171918D01*
X91513Y171992D01*
X91463Y172068D01*
X91416Y172147D01*
X91373Y172227D01*
X91333Y172309D01*
X91297Y172392D01*
X91264Y172477D01*
X91235Y172564D01*
X91210Y172651D01*
X91189Y172740D01*
X91171Y172829D01*
X91158Y172919D01*
X91148Y173010D01*
X91142Y173101D01*
X91140Y173192D01*
X91141Y173192D02*
X91141Y175309D01*
X87754Y168078D02*
X87754Y164691D01*
X87754Y168078D02*
X95374Y168078D01*
X95374Y164691D01*
X91987Y165538D02*
X91987Y168078D01*
X122754Y174238D02*
X130374Y174238D01*
X130374Y172121D01*
X130372Y172030D01*
X130366Y171939D01*
X130356Y171848D01*
X130343Y171758D01*
X130325Y171669D01*
X130304Y171580D01*
X130279Y171493D01*
X130250Y171406D01*
X130217Y171321D01*
X130181Y171238D01*
X130141Y171156D01*
X130098Y171076D01*
X130051Y170997D01*
X130001Y170921D01*
X129948Y170847D01*
X129892Y170776D01*
X129832Y170707D01*
X129770Y170640D01*
X129705Y170577D01*
X129637Y170516D01*
X129567Y170458D01*
X129494Y170403D01*
X129419Y170351D01*
X129342Y170303D01*
X129262Y170258D01*
X129181Y170216D01*
X129099Y170178D01*
X129014Y170144D01*
X128928Y170113D01*
X128841Y170086D01*
X128753Y170063D01*
X128664Y170044D01*
X128575Y170028D01*
X128484Y170016D01*
X128394Y170008D01*
X128303Y170004D01*
X128211Y170004D01*
X128120Y170008D01*
X128030Y170016D01*
X127939Y170028D01*
X127850Y170044D01*
X127761Y170063D01*
X127673Y170086D01*
X127586Y170113D01*
X127500Y170144D01*
X127415Y170178D01*
X127333Y170216D01*
X127252Y170258D01*
X127172Y170303D01*
X127095Y170351D01*
X127020Y170403D01*
X126947Y170458D01*
X126877Y170516D01*
X126809Y170577D01*
X126744Y170640D01*
X126682Y170707D01*
X126622Y170776D01*
X126566Y170847D01*
X126513Y170921D01*
X126463Y170997D01*
X126416Y171076D01*
X126373Y171156D01*
X126333Y171238D01*
X126297Y171321D01*
X126264Y171406D01*
X126235Y171493D01*
X126210Y171580D01*
X126189Y171669D01*
X126171Y171758D01*
X126158Y171848D01*
X126148Y171939D01*
X126142Y172030D01*
X126140Y172121D01*
X126141Y172121D02*
X126141Y174238D01*
X122754Y166609D02*
X130374Y166609D01*
X122754Y167456D02*
X122754Y165762D01*
X130374Y165762D02*
X130374Y167456D01*
X64247Y152874D02*
X64247Y145254D01*
X64247Y152874D02*
X66363Y152874D01*
X66454Y152872D01*
X66545Y152866D01*
X66636Y152856D01*
X66726Y152843D01*
X66815Y152825D01*
X66904Y152804D01*
X66991Y152779D01*
X67078Y152750D01*
X67163Y152717D01*
X67246Y152681D01*
X67328Y152641D01*
X67408Y152598D01*
X67487Y152551D01*
X67563Y152501D01*
X67637Y152448D01*
X67708Y152392D01*
X67777Y152332D01*
X67844Y152270D01*
X67907Y152205D01*
X67968Y152137D01*
X68026Y152067D01*
X68081Y151994D01*
X68133Y151919D01*
X68181Y151842D01*
X68226Y151762D01*
X68268Y151681D01*
X68306Y151599D01*
X68340Y151514D01*
X68371Y151428D01*
X68398Y151341D01*
X68421Y151253D01*
X68440Y151164D01*
X68456Y151075D01*
X68468Y150984D01*
X68476Y150894D01*
X68480Y150803D01*
X68480Y150711D01*
X68476Y150620D01*
X68468Y150530D01*
X68456Y150439D01*
X68440Y150350D01*
X68421Y150261D01*
X68398Y150173D01*
X68371Y150086D01*
X68340Y150000D01*
X68306Y149915D01*
X68268Y149833D01*
X68226Y149752D01*
X68181Y149672D01*
X68133Y149595D01*
X68081Y149520D01*
X68026Y149447D01*
X67968Y149377D01*
X67907Y149309D01*
X67844Y149244D01*
X67777Y149182D01*
X67708Y149122D01*
X67637Y149066D01*
X67563Y149013D01*
X67487Y148963D01*
X67408Y148916D01*
X67328Y148873D01*
X67246Y148833D01*
X67163Y148797D01*
X67078Y148764D01*
X66991Y148735D01*
X66904Y148710D01*
X66815Y148689D01*
X66726Y148671D01*
X66636Y148658D01*
X66545Y148648D01*
X66454Y148642D01*
X66363Y148640D01*
X66363Y148641D02*
X64247Y148641D01*
X66787Y148641D02*
X68480Y145254D01*
X71520Y151181D02*
X73637Y152874D01*
X73637Y145254D01*
X75753Y145254D02*
X71520Y145254D01*
X154247Y117874D02*
X154247Y110254D01*
X154247Y117874D02*
X156363Y117874D01*
X156454Y117872D01*
X156545Y117866D01*
X156636Y117856D01*
X156726Y117843D01*
X156815Y117825D01*
X156904Y117804D01*
X156991Y117779D01*
X157078Y117750D01*
X157163Y117717D01*
X157246Y117681D01*
X157328Y117641D01*
X157408Y117598D01*
X157487Y117551D01*
X157563Y117501D01*
X157637Y117448D01*
X157708Y117392D01*
X157777Y117332D01*
X157844Y117270D01*
X157907Y117205D01*
X157968Y117137D01*
X158026Y117067D01*
X158081Y116994D01*
X158133Y116919D01*
X158181Y116842D01*
X158226Y116762D01*
X158268Y116681D01*
X158306Y116599D01*
X158340Y116514D01*
X158371Y116428D01*
X158398Y116341D01*
X158421Y116253D01*
X158440Y116164D01*
X158456Y116075D01*
X158468Y115984D01*
X158476Y115894D01*
X158480Y115803D01*
X158480Y115711D01*
X158476Y115620D01*
X158468Y115530D01*
X158456Y115439D01*
X158440Y115350D01*
X158421Y115261D01*
X158398Y115173D01*
X158371Y115086D01*
X158340Y115000D01*
X158306Y114915D01*
X158268Y114833D01*
X158226Y114752D01*
X158181Y114672D01*
X158133Y114595D01*
X158081Y114520D01*
X158026Y114447D01*
X157968Y114377D01*
X157907Y114309D01*
X157844Y114244D01*
X157777Y114182D01*
X157708Y114122D01*
X157637Y114066D01*
X157563Y114013D01*
X157487Y113963D01*
X157408Y113916D01*
X157328Y113873D01*
X157246Y113833D01*
X157163Y113797D01*
X157078Y113764D01*
X156991Y113735D01*
X156904Y113710D01*
X156815Y113689D01*
X156726Y113671D01*
X156636Y113658D01*
X156545Y113648D01*
X156454Y113642D01*
X156363Y113640D01*
X156363Y113641D02*
X154247Y113641D01*
X156787Y113641D02*
X158480Y110254D01*
X165753Y115969D02*
X165751Y116054D01*
X165745Y116140D01*
X165736Y116225D01*
X165722Y116309D01*
X165705Y116393D01*
X165684Y116476D01*
X165660Y116558D01*
X165632Y116638D01*
X165600Y116718D01*
X165564Y116796D01*
X165526Y116872D01*
X165483Y116946D01*
X165438Y117018D01*
X165389Y117089D01*
X165337Y117157D01*
X165283Y117222D01*
X165225Y117285D01*
X165164Y117346D01*
X165101Y117404D01*
X165036Y117458D01*
X164968Y117510D01*
X164897Y117559D01*
X164825Y117604D01*
X164751Y117647D01*
X164675Y117685D01*
X164597Y117721D01*
X164517Y117753D01*
X164437Y117781D01*
X164355Y117805D01*
X164272Y117826D01*
X164188Y117843D01*
X164104Y117857D01*
X164019Y117866D01*
X163933Y117872D01*
X163848Y117874D01*
X163752Y117872D01*
X163656Y117866D01*
X163560Y117857D01*
X163465Y117844D01*
X163370Y117827D01*
X163276Y117806D01*
X163183Y117782D01*
X163091Y117754D01*
X163000Y117723D01*
X162911Y117687D01*
X162823Y117649D01*
X162736Y117607D01*
X162652Y117562D01*
X162569Y117513D01*
X162488Y117461D01*
X162409Y117406D01*
X162332Y117348D01*
X162258Y117287D01*
X162186Y117223D01*
X162117Y117156D01*
X162050Y117087D01*
X161986Y117015D01*
X161925Y116941D01*
X161867Y116864D01*
X161812Y116785D01*
X161761Y116704D01*
X161712Y116621D01*
X161667Y116536D01*
X161625Y116450D01*
X161586Y116361D01*
X161551Y116272D01*
X161520Y116181D01*
X165118Y114487D02*
X165180Y114549D01*
X165239Y114613D01*
X165295Y114679D01*
X165349Y114748D01*
X165399Y114819D01*
X165447Y114893D01*
X165491Y114968D01*
X165532Y115045D01*
X165570Y115123D01*
X165604Y115203D01*
X165635Y115285D01*
X165663Y115368D01*
X165686Y115451D01*
X165707Y115536D01*
X165723Y115622D01*
X165736Y115708D01*
X165746Y115795D01*
X165751Y115882D01*
X165753Y115969D01*
X165118Y114487D02*
X161520Y110254D01*
X165753Y110254D01*
X40374Y180009D02*
X32754Y177469D01*
X40374Y174929D01*
X40374Y172027D02*
X32754Y172027D01*
X40374Y172027D02*
X40374Y169910D01*
X40372Y169820D01*
X40366Y169730D01*
X40357Y169641D01*
X40344Y169552D01*
X40326Y169464D01*
X40306Y169377D01*
X40281Y169290D01*
X40253Y169205D01*
X40221Y169121D01*
X40186Y169038D01*
X40147Y168957D01*
X40105Y168878D01*
X40060Y168800D01*
X40011Y168725D01*
X39959Y168651D01*
X39904Y168580D01*
X39846Y168511D01*
X39785Y168445D01*
X39722Y168382D01*
X39656Y168321D01*
X39587Y168263D01*
X39516Y168208D01*
X39442Y168156D01*
X39367Y168107D01*
X39289Y168062D01*
X39210Y168020D01*
X39129Y167981D01*
X39046Y167946D01*
X38962Y167914D01*
X38877Y167886D01*
X38790Y167861D01*
X38703Y167841D01*
X38615Y167823D01*
X38526Y167810D01*
X38437Y167801D01*
X38347Y167795D01*
X38257Y167793D01*
X38257Y167794D02*
X34871Y167794D01*
X34871Y167793D02*
X34781Y167795D01*
X34691Y167801D01*
X34602Y167810D01*
X34513Y167823D01*
X34425Y167841D01*
X34338Y167861D01*
X34251Y167886D01*
X34166Y167914D01*
X34082Y167946D01*
X33999Y167981D01*
X33918Y168020D01*
X33839Y168062D01*
X33761Y168107D01*
X33686Y168156D01*
X33612Y168208D01*
X33541Y168263D01*
X33472Y168321D01*
X33406Y168382D01*
X33343Y168445D01*
X33282Y168511D01*
X33224Y168580D01*
X33169Y168651D01*
X33117Y168725D01*
X33068Y168800D01*
X33023Y168878D01*
X32981Y168957D01*
X32942Y169038D01*
X32907Y169121D01*
X32875Y169205D01*
X32847Y169290D01*
X32822Y169377D01*
X32802Y169464D01*
X32784Y169552D01*
X32771Y169641D01*
X32762Y169730D01*
X32756Y169820D01*
X32754Y169910D01*
X32754Y172027D01*
X32754Y164224D02*
X40374Y164224D01*
X40374Y162107D01*
X40372Y162017D01*
X40366Y161927D01*
X40357Y161838D01*
X40344Y161749D01*
X40326Y161661D01*
X40306Y161574D01*
X40281Y161487D01*
X40253Y161402D01*
X40221Y161318D01*
X40186Y161235D01*
X40147Y161154D01*
X40105Y161075D01*
X40060Y160997D01*
X40011Y160922D01*
X39959Y160848D01*
X39904Y160777D01*
X39846Y160708D01*
X39785Y160642D01*
X39722Y160579D01*
X39656Y160518D01*
X39587Y160460D01*
X39516Y160405D01*
X39442Y160353D01*
X39367Y160304D01*
X39289Y160259D01*
X39210Y160217D01*
X39129Y160178D01*
X39046Y160143D01*
X38962Y160111D01*
X38877Y160083D01*
X38790Y160058D01*
X38703Y160038D01*
X38615Y160020D01*
X38526Y160007D01*
X38437Y159998D01*
X38347Y159992D01*
X38257Y159990D01*
X38257Y159991D02*
X34871Y159991D01*
X34871Y159990D02*
X34781Y159992D01*
X34691Y159998D01*
X34602Y160007D01*
X34513Y160020D01*
X34425Y160038D01*
X34338Y160058D01*
X34251Y160083D01*
X34166Y160111D01*
X34082Y160143D01*
X33999Y160178D01*
X33918Y160217D01*
X33839Y160259D01*
X33761Y160304D01*
X33686Y160353D01*
X33612Y160405D01*
X33541Y160460D01*
X33472Y160518D01*
X33406Y160579D01*
X33343Y160642D01*
X33282Y160708D01*
X33224Y160777D01*
X33169Y160848D01*
X33117Y160922D01*
X33068Y160997D01*
X33023Y161075D01*
X32981Y161154D01*
X32942Y161235D01*
X32907Y161318D01*
X32875Y161402D01*
X32847Y161487D01*
X32822Y161574D01*
X32802Y161661D01*
X32784Y161749D01*
X32771Y161838D01*
X32762Y161927D01*
X32756Y162017D01*
X32754Y162107D01*
X32754Y164224D01*
X144626Y139389D02*
X152246Y134309D01*
X152246Y139389D02*
X144626Y134309D01*
X152246Y142304D02*
X152246Y145691D01*
X152246Y142304D02*
X144626Y142304D01*
X144626Y145691D01*
X148013Y144844D02*
X148013Y142304D01*
X152246Y165381D02*
X144626Y170461D01*
X144626Y165381D02*
X152246Y170461D01*
X152246Y173773D02*
X144626Y173773D01*
X152246Y172926D02*
X152246Y174619D01*
X144626Y174619D02*
X144626Y172926D01*
D11*
X111550Y119450D02*
X73450Y119450D01*
X73450Y30550D02*
X111550Y30550D01*
D12*
X92500Y119450D03*
M02*
