G04 EAGLE Gerber RS-274X export*
G75*
%MOMM*%
%FSLAX34Y34*%
%LPD*%
%INSilkscreen Bottom*%
%IPPOS*%
%AMOC8*
5,1,8,0,0,1.08239X$1,22.5*%
G01*
%ADD10C,0.127000*%


D10*
X170414Y134385D02*
X172389Y134385D01*
X172475Y134387D01*
X172561Y134393D01*
X172647Y134402D01*
X172732Y134415D01*
X172817Y134432D01*
X172900Y134452D01*
X172983Y134476D01*
X173065Y134504D01*
X173145Y134535D01*
X173224Y134570D01*
X173301Y134608D01*
X173377Y134650D01*
X173451Y134694D01*
X173522Y134742D01*
X173592Y134793D01*
X173659Y134847D01*
X173724Y134904D01*
X173786Y134964D01*
X173846Y135026D01*
X173903Y135091D01*
X173957Y135158D01*
X174008Y135228D01*
X174056Y135299D01*
X174100Y135373D01*
X174142Y135449D01*
X174180Y135526D01*
X174215Y135605D01*
X174246Y135685D01*
X174274Y135767D01*
X174298Y135850D01*
X174318Y135933D01*
X174335Y136018D01*
X174348Y136103D01*
X174357Y136189D01*
X174363Y136275D01*
X174365Y136361D01*
X174365Y141299D01*
X174363Y141388D01*
X174357Y141476D01*
X174347Y141564D01*
X174333Y141652D01*
X174315Y141739D01*
X174294Y141825D01*
X174268Y141910D01*
X174239Y141993D01*
X174206Y142076D01*
X174169Y142156D01*
X174129Y142235D01*
X174085Y142312D01*
X174038Y142388D01*
X173988Y142460D01*
X173934Y142531D01*
X173877Y142599D01*
X173817Y142665D01*
X173755Y142727D01*
X173689Y142787D01*
X173621Y142844D01*
X173550Y142898D01*
X173478Y142948D01*
X173403Y142995D01*
X173325Y143039D01*
X173246Y143079D01*
X173166Y143116D01*
X173083Y143149D01*
X173000Y143178D01*
X172915Y143204D01*
X172829Y143225D01*
X172742Y143243D01*
X172654Y143257D01*
X172566Y143267D01*
X172478Y143273D01*
X172389Y143275D01*
X170414Y143275D01*
X166711Y140806D02*
X166711Y136854D01*
X166711Y140806D02*
X166709Y140904D01*
X166703Y141002D01*
X166693Y141100D01*
X166680Y141197D01*
X166662Y141294D01*
X166641Y141390D01*
X166616Y141484D01*
X166587Y141578D01*
X166555Y141671D01*
X166518Y141762D01*
X166479Y141852D01*
X166435Y141940D01*
X166388Y142026D01*
X166338Y142111D01*
X166285Y142193D01*
X166228Y142273D01*
X166168Y142351D01*
X166105Y142426D01*
X166039Y142499D01*
X165970Y142569D01*
X165899Y142636D01*
X165825Y142701D01*
X165748Y142762D01*
X165669Y142821D01*
X165588Y142876D01*
X165505Y142928D01*
X165419Y142976D01*
X165332Y143021D01*
X165243Y143063D01*
X165153Y143101D01*
X165061Y143135D01*
X164968Y143166D01*
X164873Y143193D01*
X164778Y143216D01*
X164681Y143236D01*
X164585Y143251D01*
X164487Y143263D01*
X164389Y143271D01*
X164291Y143275D01*
X164193Y143275D01*
X164095Y143271D01*
X163997Y143263D01*
X163899Y143251D01*
X163803Y143236D01*
X163706Y143216D01*
X163611Y143193D01*
X163516Y143166D01*
X163423Y143135D01*
X163331Y143101D01*
X163241Y143063D01*
X163152Y143021D01*
X163065Y142976D01*
X162979Y142928D01*
X162896Y142876D01*
X162815Y142821D01*
X162736Y142762D01*
X162659Y142701D01*
X162585Y142636D01*
X162514Y142569D01*
X162445Y142499D01*
X162379Y142426D01*
X162316Y142351D01*
X162256Y142273D01*
X162199Y142193D01*
X162146Y142111D01*
X162096Y142026D01*
X162049Y141940D01*
X162005Y141852D01*
X161966Y141762D01*
X161929Y141671D01*
X161897Y141578D01*
X161868Y141484D01*
X161843Y141390D01*
X161822Y141294D01*
X161804Y141197D01*
X161791Y141100D01*
X161781Y141002D01*
X161775Y140904D01*
X161773Y140806D01*
X161772Y140806D02*
X161772Y136854D01*
X161773Y136854D02*
X161775Y136756D01*
X161781Y136658D01*
X161791Y136560D01*
X161804Y136463D01*
X161822Y136366D01*
X161843Y136270D01*
X161868Y136176D01*
X161897Y136082D01*
X161929Y135989D01*
X161966Y135898D01*
X162005Y135808D01*
X162049Y135720D01*
X162096Y135634D01*
X162146Y135549D01*
X162199Y135467D01*
X162256Y135387D01*
X162316Y135309D01*
X162379Y135234D01*
X162445Y135161D01*
X162514Y135091D01*
X162585Y135024D01*
X162659Y134959D01*
X162736Y134898D01*
X162815Y134839D01*
X162896Y134784D01*
X162979Y134732D01*
X163065Y134684D01*
X163152Y134639D01*
X163241Y134597D01*
X163331Y134559D01*
X163423Y134525D01*
X163516Y134494D01*
X163611Y134467D01*
X163706Y134444D01*
X163803Y134424D01*
X163899Y134409D01*
X163997Y134397D01*
X164095Y134389D01*
X164193Y134385D01*
X164291Y134385D01*
X164389Y134389D01*
X164487Y134397D01*
X164585Y134409D01*
X164681Y134424D01*
X164778Y134444D01*
X164873Y134467D01*
X164968Y134494D01*
X165061Y134525D01*
X165153Y134559D01*
X165243Y134597D01*
X165332Y134639D01*
X165419Y134684D01*
X165505Y134732D01*
X165588Y134784D01*
X165669Y134839D01*
X165748Y134898D01*
X165825Y134959D01*
X165899Y135024D01*
X165970Y135091D01*
X166039Y135161D01*
X166105Y135234D01*
X166168Y135309D01*
X166228Y135387D01*
X166285Y135467D01*
X166338Y135549D01*
X166388Y135634D01*
X166435Y135720D01*
X166479Y135808D01*
X166518Y135898D01*
X166555Y135989D01*
X166587Y136082D01*
X166616Y136176D01*
X166641Y136270D01*
X166662Y136366D01*
X166680Y136463D01*
X166693Y136560D01*
X166703Y136658D01*
X166709Y136756D01*
X166711Y136854D01*
X157262Y134385D02*
X157262Y143275D01*
X152323Y134385D01*
X152323Y143275D01*
X145155Y134385D02*
X145069Y134387D01*
X144983Y134393D01*
X144897Y134402D01*
X144812Y134415D01*
X144727Y134432D01*
X144644Y134452D01*
X144561Y134476D01*
X144479Y134504D01*
X144399Y134535D01*
X144320Y134570D01*
X144243Y134608D01*
X144167Y134650D01*
X144093Y134694D01*
X144022Y134742D01*
X143952Y134793D01*
X143885Y134847D01*
X143820Y134904D01*
X143758Y134964D01*
X143698Y135026D01*
X143641Y135091D01*
X143587Y135158D01*
X143536Y135228D01*
X143488Y135299D01*
X143444Y135373D01*
X143402Y135449D01*
X143364Y135526D01*
X143329Y135605D01*
X143298Y135685D01*
X143270Y135767D01*
X143246Y135850D01*
X143226Y135933D01*
X143209Y136018D01*
X143196Y136103D01*
X143187Y136189D01*
X143181Y136275D01*
X143179Y136361D01*
X145155Y134385D02*
X145282Y134387D01*
X145408Y134393D01*
X145535Y134402D01*
X145661Y134416D01*
X145786Y134433D01*
X145911Y134454D01*
X146035Y134479D01*
X146159Y134508D01*
X146281Y134540D01*
X146403Y134576D01*
X146523Y134616D01*
X146642Y134659D01*
X146760Y134706D01*
X146876Y134757D01*
X146991Y134811D01*
X147104Y134868D01*
X147215Y134929D01*
X147324Y134993D01*
X147431Y135061D01*
X147537Y135131D01*
X147640Y135205D01*
X147740Y135282D01*
X147838Y135362D01*
X147934Y135445D01*
X148028Y135531D01*
X148118Y135620D01*
X147872Y141299D02*
X147870Y141385D01*
X147864Y141471D01*
X147855Y141557D01*
X147842Y141642D01*
X147825Y141727D01*
X147805Y141810D01*
X147781Y141893D01*
X147753Y141975D01*
X147722Y142055D01*
X147687Y142134D01*
X147649Y142211D01*
X147607Y142287D01*
X147563Y142361D01*
X147515Y142432D01*
X147464Y142502D01*
X147410Y142569D01*
X147353Y142634D01*
X147293Y142696D01*
X147231Y142756D01*
X147166Y142813D01*
X147099Y142867D01*
X147029Y142918D01*
X146958Y142966D01*
X146884Y143010D01*
X146808Y143052D01*
X146731Y143090D01*
X146652Y143125D01*
X146572Y143156D01*
X146490Y143184D01*
X146407Y143208D01*
X146324Y143228D01*
X146239Y143245D01*
X146154Y143258D01*
X146068Y143267D01*
X145982Y143273D01*
X145896Y143275D01*
X145777Y143273D01*
X145658Y143267D01*
X145539Y143258D01*
X145421Y143244D01*
X145303Y143227D01*
X145185Y143206D01*
X145069Y143181D01*
X144953Y143153D01*
X144838Y143121D01*
X144725Y143085D01*
X144612Y143045D01*
X144501Y143002D01*
X144391Y142956D01*
X144283Y142906D01*
X144177Y142852D01*
X144072Y142795D01*
X143970Y142735D01*
X143869Y142671D01*
X143770Y142604D01*
X143674Y142534D01*
X146883Y139571D02*
X146957Y139616D01*
X147029Y139665D01*
X147099Y139717D01*
X147166Y139772D01*
X147231Y139830D01*
X147293Y139890D01*
X147353Y139953D01*
X147409Y140019D01*
X147463Y140087D01*
X147514Y140157D01*
X147562Y140229D01*
X147607Y140304D01*
X147648Y140380D01*
X147686Y140458D01*
X147721Y140538D01*
X147752Y140619D01*
X147780Y140701D01*
X147804Y140784D01*
X147824Y140868D01*
X147841Y140954D01*
X147854Y141039D01*
X147863Y141126D01*
X147869Y141212D01*
X147871Y141299D01*
X144168Y138089D02*
X144094Y138044D01*
X144022Y137995D01*
X143952Y137943D01*
X143885Y137888D01*
X143820Y137830D01*
X143758Y137770D01*
X143699Y137707D01*
X143642Y137641D01*
X143588Y137573D01*
X143537Y137503D01*
X143489Y137431D01*
X143444Y137356D01*
X143403Y137280D01*
X143365Y137202D01*
X143330Y137122D01*
X143299Y137041D01*
X143271Y136959D01*
X143247Y136876D01*
X143227Y136792D01*
X143210Y136706D01*
X143197Y136621D01*
X143188Y136534D01*
X143182Y136448D01*
X143180Y136361D01*
X144167Y138089D02*
X146884Y139571D01*
X139279Y140806D02*
X139279Y136854D01*
X139279Y140806D02*
X139277Y140904D01*
X139271Y141002D01*
X139261Y141100D01*
X139248Y141197D01*
X139230Y141294D01*
X139209Y141390D01*
X139184Y141484D01*
X139155Y141578D01*
X139123Y141671D01*
X139086Y141762D01*
X139047Y141852D01*
X139003Y141940D01*
X138956Y142026D01*
X138906Y142111D01*
X138853Y142193D01*
X138796Y142273D01*
X138736Y142351D01*
X138673Y142426D01*
X138607Y142499D01*
X138538Y142569D01*
X138467Y142636D01*
X138393Y142701D01*
X138316Y142762D01*
X138237Y142821D01*
X138156Y142876D01*
X138073Y142928D01*
X137987Y142976D01*
X137900Y143021D01*
X137811Y143063D01*
X137721Y143101D01*
X137629Y143135D01*
X137536Y143166D01*
X137441Y143193D01*
X137346Y143216D01*
X137249Y143236D01*
X137153Y143251D01*
X137055Y143263D01*
X136957Y143271D01*
X136859Y143275D01*
X136761Y143275D01*
X136663Y143271D01*
X136565Y143263D01*
X136467Y143251D01*
X136371Y143236D01*
X136274Y143216D01*
X136179Y143193D01*
X136084Y143166D01*
X135991Y143135D01*
X135899Y143101D01*
X135809Y143063D01*
X135720Y143021D01*
X135633Y142976D01*
X135547Y142928D01*
X135464Y142876D01*
X135383Y142821D01*
X135304Y142762D01*
X135227Y142701D01*
X135153Y142636D01*
X135082Y142569D01*
X135013Y142499D01*
X134947Y142426D01*
X134884Y142351D01*
X134824Y142273D01*
X134767Y142193D01*
X134714Y142111D01*
X134664Y142026D01*
X134617Y141940D01*
X134573Y141852D01*
X134534Y141762D01*
X134497Y141671D01*
X134465Y141578D01*
X134436Y141484D01*
X134411Y141390D01*
X134390Y141294D01*
X134372Y141197D01*
X134359Y141100D01*
X134349Y141002D01*
X134343Y140904D01*
X134341Y140806D01*
X134340Y140806D02*
X134340Y136854D01*
X134341Y136854D02*
X134343Y136756D01*
X134349Y136658D01*
X134359Y136560D01*
X134372Y136463D01*
X134390Y136366D01*
X134411Y136270D01*
X134436Y136176D01*
X134465Y136082D01*
X134497Y135989D01*
X134534Y135898D01*
X134573Y135808D01*
X134617Y135720D01*
X134664Y135634D01*
X134714Y135549D01*
X134767Y135467D01*
X134824Y135387D01*
X134884Y135309D01*
X134947Y135234D01*
X135013Y135161D01*
X135082Y135091D01*
X135153Y135024D01*
X135227Y134959D01*
X135304Y134898D01*
X135383Y134839D01*
X135464Y134784D01*
X135547Y134732D01*
X135633Y134684D01*
X135720Y134639D01*
X135809Y134597D01*
X135899Y134559D01*
X135991Y134525D01*
X136084Y134494D01*
X136179Y134467D01*
X136274Y134444D01*
X136371Y134424D01*
X136467Y134409D01*
X136565Y134397D01*
X136663Y134389D01*
X136761Y134385D01*
X136859Y134385D01*
X136957Y134389D01*
X137055Y134397D01*
X137153Y134409D01*
X137249Y134424D01*
X137346Y134444D01*
X137441Y134467D01*
X137536Y134494D01*
X137629Y134525D01*
X137721Y134559D01*
X137811Y134597D01*
X137900Y134639D01*
X137987Y134684D01*
X138073Y134732D01*
X138156Y134784D01*
X138237Y134839D01*
X138316Y134898D01*
X138393Y134959D01*
X138467Y135024D01*
X138538Y135091D01*
X138607Y135161D01*
X138673Y135234D01*
X138736Y135309D01*
X138796Y135387D01*
X138853Y135467D01*
X138906Y135549D01*
X138956Y135634D01*
X139003Y135720D01*
X139047Y135808D01*
X139086Y135898D01*
X139123Y135989D01*
X139155Y136082D01*
X139184Y136176D01*
X139209Y136270D01*
X139230Y136366D01*
X139248Y136463D01*
X139261Y136560D01*
X139271Y136658D01*
X139277Y136756D01*
X139279Y136854D01*
X129807Y134385D02*
X129807Y143275D01*
X129807Y134385D02*
X125856Y134385D01*
X121882Y134385D02*
X117931Y134385D01*
X121882Y134385D02*
X121882Y143275D01*
X117931Y143275D01*
X118919Y139324D02*
X121882Y139324D01*
X111627Y134385D02*
X111541Y134387D01*
X111455Y134393D01*
X111369Y134402D01*
X111284Y134415D01*
X111199Y134432D01*
X111116Y134452D01*
X111033Y134476D01*
X110951Y134504D01*
X110871Y134535D01*
X110792Y134570D01*
X110715Y134608D01*
X110639Y134650D01*
X110565Y134694D01*
X110494Y134742D01*
X110424Y134793D01*
X110357Y134847D01*
X110292Y134904D01*
X110230Y134964D01*
X110170Y135026D01*
X110113Y135091D01*
X110059Y135158D01*
X110008Y135228D01*
X109960Y135299D01*
X109916Y135373D01*
X109874Y135449D01*
X109836Y135526D01*
X109801Y135605D01*
X109770Y135685D01*
X109742Y135767D01*
X109718Y135850D01*
X109698Y135933D01*
X109681Y136018D01*
X109668Y136103D01*
X109659Y136189D01*
X109653Y136275D01*
X109651Y136361D01*
X111627Y134385D02*
X111754Y134387D01*
X111880Y134393D01*
X112007Y134402D01*
X112133Y134416D01*
X112258Y134433D01*
X112383Y134454D01*
X112507Y134479D01*
X112631Y134508D01*
X112753Y134540D01*
X112875Y134576D01*
X112995Y134616D01*
X113114Y134659D01*
X113232Y134706D01*
X113348Y134757D01*
X113463Y134811D01*
X113576Y134868D01*
X113687Y134929D01*
X113796Y134993D01*
X113903Y135061D01*
X114009Y135131D01*
X114112Y135205D01*
X114212Y135282D01*
X114310Y135362D01*
X114406Y135445D01*
X114500Y135531D01*
X114590Y135620D01*
X114344Y141299D02*
X114342Y141385D01*
X114336Y141471D01*
X114327Y141557D01*
X114314Y141642D01*
X114297Y141727D01*
X114277Y141810D01*
X114253Y141893D01*
X114225Y141975D01*
X114194Y142055D01*
X114159Y142134D01*
X114121Y142211D01*
X114079Y142287D01*
X114035Y142361D01*
X113987Y142432D01*
X113936Y142502D01*
X113882Y142569D01*
X113825Y142634D01*
X113765Y142696D01*
X113703Y142756D01*
X113638Y142813D01*
X113571Y142867D01*
X113501Y142918D01*
X113430Y142966D01*
X113356Y143010D01*
X113280Y143052D01*
X113203Y143090D01*
X113124Y143125D01*
X113044Y143156D01*
X112962Y143184D01*
X112879Y143208D01*
X112796Y143228D01*
X112711Y143245D01*
X112626Y143258D01*
X112540Y143267D01*
X112454Y143273D01*
X112368Y143275D01*
X112249Y143273D01*
X112130Y143267D01*
X112011Y143258D01*
X111893Y143244D01*
X111775Y143227D01*
X111657Y143206D01*
X111541Y143181D01*
X111425Y143153D01*
X111310Y143121D01*
X111197Y143085D01*
X111084Y143045D01*
X110973Y143002D01*
X110863Y142956D01*
X110755Y142906D01*
X110649Y142852D01*
X110544Y142795D01*
X110442Y142735D01*
X110341Y142671D01*
X110242Y142604D01*
X110146Y142534D01*
X113355Y139571D02*
X113429Y139616D01*
X113501Y139665D01*
X113571Y139717D01*
X113638Y139772D01*
X113703Y139830D01*
X113765Y139890D01*
X113825Y139953D01*
X113881Y140019D01*
X113935Y140087D01*
X113986Y140157D01*
X114034Y140229D01*
X114079Y140304D01*
X114120Y140380D01*
X114158Y140458D01*
X114193Y140538D01*
X114224Y140619D01*
X114252Y140701D01*
X114276Y140784D01*
X114296Y140868D01*
X114313Y140954D01*
X114326Y141039D01*
X114335Y141126D01*
X114341Y141212D01*
X114343Y141299D01*
X110640Y138089D02*
X110566Y138044D01*
X110494Y137995D01*
X110424Y137943D01*
X110357Y137888D01*
X110292Y137830D01*
X110230Y137770D01*
X110171Y137707D01*
X110114Y137641D01*
X110060Y137573D01*
X110009Y137503D01*
X109961Y137431D01*
X109916Y137356D01*
X109875Y137280D01*
X109837Y137202D01*
X109802Y137122D01*
X109771Y137041D01*
X109743Y136959D01*
X109719Y136876D01*
X109699Y136792D01*
X109682Y136706D01*
X109669Y136621D01*
X109660Y136534D01*
X109654Y136448D01*
X109652Y136361D01*
X110639Y138089D02*
X113356Y139571D01*
X100570Y136854D02*
X100570Y143275D01*
X100569Y136854D02*
X100567Y136756D01*
X100561Y136658D01*
X100551Y136560D01*
X100538Y136463D01*
X100520Y136366D01*
X100499Y136270D01*
X100474Y136176D01*
X100445Y136082D01*
X100413Y135989D01*
X100376Y135898D01*
X100337Y135808D01*
X100293Y135720D01*
X100246Y135634D01*
X100196Y135549D01*
X100143Y135467D01*
X100086Y135387D01*
X100026Y135309D01*
X99963Y135234D01*
X99897Y135161D01*
X99828Y135091D01*
X99757Y135024D01*
X99683Y134959D01*
X99606Y134898D01*
X99527Y134839D01*
X99446Y134784D01*
X99363Y134732D01*
X99277Y134684D01*
X99190Y134639D01*
X99101Y134597D01*
X99011Y134559D01*
X98919Y134525D01*
X98826Y134494D01*
X98731Y134467D01*
X98636Y134444D01*
X98539Y134424D01*
X98443Y134409D01*
X98345Y134397D01*
X98247Y134389D01*
X98149Y134385D01*
X98051Y134385D01*
X97953Y134389D01*
X97855Y134397D01*
X97757Y134409D01*
X97661Y134424D01*
X97564Y134444D01*
X97469Y134467D01*
X97374Y134494D01*
X97281Y134525D01*
X97189Y134559D01*
X97099Y134597D01*
X97010Y134639D01*
X96923Y134684D01*
X96837Y134732D01*
X96754Y134784D01*
X96673Y134839D01*
X96594Y134898D01*
X96517Y134959D01*
X96443Y135024D01*
X96372Y135091D01*
X96303Y135161D01*
X96237Y135234D01*
X96174Y135309D01*
X96114Y135387D01*
X96057Y135467D01*
X96004Y135549D01*
X95954Y135634D01*
X95907Y135720D01*
X95863Y135808D01*
X95824Y135898D01*
X95787Y135989D01*
X95755Y136082D01*
X95726Y136176D01*
X95701Y136270D01*
X95680Y136366D01*
X95662Y136463D01*
X95649Y136560D01*
X95639Y136658D01*
X95633Y136756D01*
X95631Y136854D01*
X95631Y143275D01*
X90816Y143275D02*
X90816Y134385D01*
X85877Y134385D02*
X90816Y143275D01*
X85877Y143275D02*
X85877Y134385D01*
X81039Y134385D02*
X81039Y143275D01*
X81039Y134385D02*
X77088Y134385D01*
X73115Y134385D02*
X69164Y134385D01*
X73115Y134385D02*
X73115Y143275D01*
X69164Y143275D01*
X70151Y139324D02*
X73115Y139324D01*
X66012Y134385D02*
X63048Y143275D01*
X60085Y134385D01*
X60826Y136608D02*
X65271Y136608D01*
X53715Y134385D02*
X53629Y134387D01*
X53543Y134393D01*
X53457Y134402D01*
X53372Y134415D01*
X53287Y134432D01*
X53204Y134452D01*
X53121Y134476D01*
X53039Y134504D01*
X52959Y134535D01*
X52880Y134570D01*
X52803Y134608D01*
X52727Y134650D01*
X52653Y134694D01*
X52582Y134742D01*
X52512Y134793D01*
X52445Y134847D01*
X52380Y134904D01*
X52318Y134964D01*
X52258Y135026D01*
X52201Y135091D01*
X52147Y135158D01*
X52096Y135228D01*
X52048Y135299D01*
X52004Y135373D01*
X51962Y135449D01*
X51924Y135526D01*
X51889Y135605D01*
X51858Y135685D01*
X51830Y135767D01*
X51806Y135850D01*
X51786Y135933D01*
X51769Y136018D01*
X51756Y136103D01*
X51747Y136189D01*
X51741Y136275D01*
X51739Y136361D01*
X53715Y134385D02*
X53842Y134387D01*
X53968Y134393D01*
X54095Y134402D01*
X54221Y134416D01*
X54346Y134433D01*
X54471Y134454D01*
X54595Y134479D01*
X54719Y134508D01*
X54841Y134540D01*
X54963Y134576D01*
X55083Y134616D01*
X55202Y134659D01*
X55320Y134706D01*
X55436Y134757D01*
X55551Y134811D01*
X55664Y134868D01*
X55775Y134929D01*
X55884Y134993D01*
X55991Y135061D01*
X56097Y135131D01*
X56200Y135205D01*
X56300Y135282D01*
X56398Y135362D01*
X56494Y135445D01*
X56588Y135531D01*
X56678Y135620D01*
X56432Y141299D02*
X56430Y141385D01*
X56424Y141471D01*
X56415Y141557D01*
X56402Y141642D01*
X56385Y141727D01*
X56365Y141810D01*
X56341Y141893D01*
X56313Y141975D01*
X56282Y142055D01*
X56247Y142134D01*
X56209Y142211D01*
X56167Y142287D01*
X56123Y142361D01*
X56075Y142432D01*
X56024Y142502D01*
X55970Y142569D01*
X55913Y142634D01*
X55853Y142696D01*
X55791Y142756D01*
X55726Y142813D01*
X55659Y142867D01*
X55589Y142918D01*
X55518Y142966D01*
X55444Y143010D01*
X55368Y143052D01*
X55291Y143090D01*
X55212Y143125D01*
X55132Y143156D01*
X55050Y143184D01*
X54967Y143208D01*
X54884Y143228D01*
X54799Y143245D01*
X54714Y143258D01*
X54628Y143267D01*
X54542Y143273D01*
X54456Y143275D01*
X54337Y143273D01*
X54218Y143267D01*
X54099Y143258D01*
X53981Y143244D01*
X53863Y143227D01*
X53745Y143206D01*
X53629Y143181D01*
X53513Y143153D01*
X53398Y143121D01*
X53285Y143085D01*
X53172Y143045D01*
X53061Y143002D01*
X52951Y142956D01*
X52843Y142906D01*
X52737Y142852D01*
X52632Y142795D01*
X52530Y142735D01*
X52429Y142671D01*
X52330Y142604D01*
X52234Y142534D01*
X55443Y139571D02*
X55517Y139616D01*
X55589Y139665D01*
X55659Y139717D01*
X55726Y139772D01*
X55791Y139830D01*
X55853Y139890D01*
X55913Y139953D01*
X55969Y140019D01*
X56023Y140087D01*
X56074Y140157D01*
X56122Y140229D01*
X56167Y140304D01*
X56208Y140380D01*
X56246Y140458D01*
X56281Y140538D01*
X56312Y140619D01*
X56340Y140701D01*
X56364Y140784D01*
X56384Y140868D01*
X56401Y140954D01*
X56414Y141039D01*
X56423Y141126D01*
X56429Y141212D01*
X56431Y141299D01*
X52728Y138089D02*
X52654Y138044D01*
X52582Y137995D01*
X52512Y137943D01*
X52445Y137888D01*
X52380Y137830D01*
X52318Y137770D01*
X52259Y137707D01*
X52202Y137641D01*
X52148Y137573D01*
X52097Y137503D01*
X52049Y137431D01*
X52004Y137356D01*
X51963Y137280D01*
X51925Y137202D01*
X51890Y137122D01*
X51859Y137041D01*
X51831Y136959D01*
X51807Y136876D01*
X51787Y136792D01*
X51770Y136706D01*
X51757Y136621D01*
X51748Y136534D01*
X51742Y136448D01*
X51740Y136361D01*
X52728Y138089D02*
X55444Y139571D01*
X47535Y143275D02*
X47535Y134385D01*
X47535Y139324D02*
X42596Y139324D01*
X42596Y143275D02*
X42596Y134385D01*
X37758Y134385D02*
X33807Y134385D01*
X37758Y134385D02*
X37758Y143275D01*
X33807Y143275D01*
X34795Y139324D02*
X37758Y139324D01*
X29856Y143275D02*
X29856Y134385D01*
X29856Y143275D02*
X27387Y143275D01*
X27290Y143273D01*
X27193Y143267D01*
X27097Y143258D01*
X27001Y143245D01*
X26905Y143228D01*
X26811Y143207D01*
X26717Y143182D01*
X26624Y143154D01*
X26532Y143122D01*
X26442Y143087D01*
X26353Y143048D01*
X26266Y143006D01*
X26181Y142960D01*
X26097Y142911D01*
X26015Y142859D01*
X25936Y142803D01*
X25858Y142745D01*
X25784Y142683D01*
X25711Y142619D01*
X25641Y142552D01*
X25574Y142482D01*
X25510Y142409D01*
X25448Y142335D01*
X25390Y142257D01*
X25334Y142178D01*
X25282Y142096D01*
X25233Y142012D01*
X25187Y141927D01*
X25145Y141840D01*
X25106Y141751D01*
X25071Y141661D01*
X25039Y141569D01*
X25011Y141476D01*
X24986Y141382D01*
X24965Y141288D01*
X24948Y141192D01*
X24935Y141096D01*
X24926Y141000D01*
X24920Y140903D01*
X24918Y140806D01*
X24917Y140806D02*
X24917Y136854D01*
X24918Y136854D02*
X24920Y136757D01*
X24926Y136660D01*
X24935Y136564D01*
X24948Y136468D01*
X24965Y136372D01*
X24986Y136278D01*
X25011Y136184D01*
X25039Y136091D01*
X25071Y135999D01*
X25106Y135909D01*
X25145Y135820D01*
X25187Y135733D01*
X25233Y135648D01*
X25282Y135564D01*
X25334Y135482D01*
X25390Y135403D01*
X25448Y135325D01*
X25510Y135251D01*
X25574Y135178D01*
X25641Y135108D01*
X25711Y135041D01*
X25784Y134977D01*
X25858Y134915D01*
X25936Y134857D01*
X26015Y134801D01*
X26097Y134749D01*
X26181Y134700D01*
X26266Y134654D01*
X26353Y134612D01*
X26442Y134573D01*
X26532Y134538D01*
X26624Y134506D01*
X26717Y134478D01*
X26811Y134453D01*
X26905Y134432D01*
X27001Y134415D01*
X27097Y134402D01*
X27193Y134393D01*
X27290Y134387D01*
X27387Y134385D01*
X29856Y134385D01*
X160414Y101355D02*
X162389Y101355D01*
X162475Y101357D01*
X162561Y101363D01*
X162647Y101372D01*
X162732Y101385D01*
X162817Y101402D01*
X162900Y101422D01*
X162983Y101446D01*
X163065Y101474D01*
X163145Y101505D01*
X163224Y101540D01*
X163301Y101578D01*
X163377Y101620D01*
X163451Y101664D01*
X163522Y101712D01*
X163592Y101763D01*
X163659Y101817D01*
X163724Y101874D01*
X163786Y101934D01*
X163846Y101996D01*
X163903Y102061D01*
X163957Y102128D01*
X164008Y102198D01*
X164056Y102269D01*
X164100Y102343D01*
X164142Y102419D01*
X164180Y102496D01*
X164215Y102575D01*
X164246Y102655D01*
X164274Y102737D01*
X164298Y102820D01*
X164318Y102903D01*
X164335Y102988D01*
X164348Y103073D01*
X164357Y103159D01*
X164363Y103245D01*
X164365Y103331D01*
X164365Y108269D01*
X164363Y108358D01*
X164357Y108446D01*
X164347Y108534D01*
X164333Y108622D01*
X164315Y108709D01*
X164294Y108795D01*
X164268Y108880D01*
X164239Y108963D01*
X164206Y109046D01*
X164169Y109126D01*
X164129Y109205D01*
X164085Y109282D01*
X164038Y109358D01*
X163988Y109430D01*
X163934Y109501D01*
X163877Y109569D01*
X163817Y109635D01*
X163755Y109697D01*
X163689Y109757D01*
X163621Y109814D01*
X163550Y109868D01*
X163478Y109918D01*
X163403Y109965D01*
X163325Y110009D01*
X163246Y110049D01*
X163166Y110086D01*
X163083Y110119D01*
X163000Y110148D01*
X162915Y110174D01*
X162829Y110195D01*
X162742Y110213D01*
X162654Y110227D01*
X162566Y110237D01*
X162478Y110243D01*
X162389Y110245D01*
X160414Y110245D01*
X156711Y108269D02*
X154242Y110245D01*
X154242Y101355D01*
X156711Y101355D02*
X151772Y101355D01*
X147451Y103331D02*
X141525Y103331D01*
X141525Y106294D02*
X147451Y106294D01*
X137204Y105800D02*
X137202Y105975D01*
X137196Y106150D01*
X137185Y106324D01*
X137171Y106499D01*
X137152Y106672D01*
X137129Y106846D01*
X137102Y107019D01*
X137071Y107191D01*
X137036Y107362D01*
X136996Y107532D01*
X136953Y107702D01*
X136905Y107870D01*
X136854Y108037D01*
X136799Y108203D01*
X136739Y108368D01*
X136676Y108531D01*
X136609Y108692D01*
X136538Y108852D01*
X136463Y109010D01*
X136462Y109011D02*
X136433Y109089D01*
X136401Y109167D01*
X136364Y109242D01*
X136325Y109316D01*
X136282Y109388D01*
X136236Y109459D01*
X136186Y109526D01*
X136134Y109592D01*
X136079Y109655D01*
X136020Y109715D01*
X135959Y109773D01*
X135896Y109828D01*
X135830Y109880D01*
X135761Y109929D01*
X135691Y109974D01*
X135619Y110017D01*
X135544Y110056D01*
X135468Y110091D01*
X135391Y110123D01*
X135312Y110151D01*
X135231Y110176D01*
X135150Y110197D01*
X135068Y110214D01*
X134985Y110228D01*
X134902Y110237D01*
X134818Y110243D01*
X134734Y110245D01*
X134650Y110243D01*
X134566Y110237D01*
X134483Y110228D01*
X134400Y110214D01*
X134318Y110197D01*
X134237Y110176D01*
X134156Y110151D01*
X134077Y110123D01*
X134000Y110091D01*
X133924Y110056D01*
X133849Y110017D01*
X133777Y109974D01*
X133706Y109929D01*
X133638Y109880D01*
X133572Y109828D01*
X133509Y109773D01*
X133448Y109715D01*
X133389Y109655D01*
X133334Y109592D01*
X133282Y109526D01*
X133232Y109459D01*
X133186Y109388D01*
X133143Y109316D01*
X133104Y109242D01*
X133067Y109167D01*
X133035Y109089D01*
X133006Y109011D01*
X133006Y109010D02*
X132931Y108852D01*
X132860Y108692D01*
X132793Y108531D01*
X132730Y108368D01*
X132670Y108203D01*
X132615Y108037D01*
X132564Y107870D01*
X132516Y107702D01*
X132473Y107532D01*
X132433Y107362D01*
X132398Y107191D01*
X132367Y107019D01*
X132340Y106846D01*
X132317Y106672D01*
X132298Y106499D01*
X132284Y106324D01*
X132273Y106150D01*
X132267Y105975D01*
X132265Y105800D01*
X137204Y105800D02*
X137202Y105625D01*
X137196Y105450D01*
X137185Y105276D01*
X137171Y105101D01*
X137152Y104928D01*
X137129Y104754D01*
X137102Y104581D01*
X137071Y104409D01*
X137036Y104238D01*
X136996Y104068D01*
X136953Y103898D01*
X136905Y103730D01*
X136854Y103563D01*
X136799Y103397D01*
X136739Y103232D01*
X136676Y103069D01*
X136609Y102908D01*
X136538Y102748D01*
X136463Y102590D01*
X136462Y102589D02*
X136433Y102511D01*
X136401Y102433D01*
X136364Y102358D01*
X136325Y102284D01*
X136282Y102211D01*
X136236Y102141D01*
X136186Y102074D01*
X136134Y102008D01*
X136078Y101945D01*
X136020Y101885D01*
X135959Y101827D01*
X135896Y101772D01*
X135830Y101720D01*
X135761Y101671D01*
X135691Y101626D01*
X135619Y101583D01*
X135544Y101544D01*
X135468Y101509D01*
X135391Y101477D01*
X135312Y101449D01*
X135231Y101424D01*
X135150Y101403D01*
X135068Y101386D01*
X134985Y101372D01*
X134902Y101363D01*
X134818Y101357D01*
X134734Y101355D01*
X133006Y102590D02*
X132931Y102748D01*
X132860Y102908D01*
X132793Y103069D01*
X132730Y103232D01*
X132670Y103397D01*
X132615Y103563D01*
X132564Y103730D01*
X132516Y103898D01*
X132473Y104068D01*
X132433Y104238D01*
X132398Y104409D01*
X132367Y104581D01*
X132340Y104754D01*
X132317Y104928D01*
X132298Y105101D01*
X132284Y105276D01*
X132273Y105450D01*
X132267Y105625D01*
X132265Y105800D01*
X133006Y102589D02*
X133035Y102511D01*
X133067Y102433D01*
X133104Y102358D01*
X133143Y102284D01*
X133186Y102211D01*
X133232Y102141D01*
X133282Y102074D01*
X133334Y102008D01*
X133390Y101945D01*
X133448Y101885D01*
X133509Y101827D01*
X133572Y101772D01*
X133638Y101720D01*
X133707Y101671D01*
X133777Y101626D01*
X133849Y101583D01*
X133924Y101544D01*
X134000Y101509D01*
X134077Y101477D01*
X134156Y101449D01*
X134237Y101424D01*
X134318Y101403D01*
X134400Y101386D01*
X134483Y101372D01*
X134566Y101363D01*
X134650Y101357D01*
X134734Y101355D01*
X136710Y103331D02*
X132759Y108269D01*
X128581Y101849D02*
X128581Y101355D01*
X128581Y101849D02*
X128087Y101849D01*
X128087Y101355D01*
X128581Y101355D01*
X124402Y108269D02*
X121933Y110245D01*
X121933Y101355D01*
X124402Y101355D02*
X119463Y101355D01*
X114954Y103824D02*
X114954Y110245D01*
X114953Y103824D02*
X114951Y103726D01*
X114945Y103628D01*
X114935Y103530D01*
X114922Y103433D01*
X114904Y103336D01*
X114883Y103240D01*
X114858Y103146D01*
X114829Y103052D01*
X114797Y102959D01*
X114760Y102868D01*
X114721Y102778D01*
X114677Y102690D01*
X114630Y102604D01*
X114580Y102519D01*
X114527Y102437D01*
X114470Y102357D01*
X114410Y102279D01*
X114347Y102204D01*
X114281Y102131D01*
X114212Y102061D01*
X114141Y101994D01*
X114067Y101929D01*
X113990Y101868D01*
X113911Y101809D01*
X113830Y101754D01*
X113747Y101702D01*
X113661Y101654D01*
X113574Y101609D01*
X113485Y101567D01*
X113395Y101529D01*
X113303Y101495D01*
X113210Y101464D01*
X113115Y101437D01*
X113020Y101414D01*
X112923Y101394D01*
X112827Y101379D01*
X112729Y101367D01*
X112631Y101359D01*
X112533Y101355D01*
X112435Y101355D01*
X112337Y101359D01*
X112239Y101367D01*
X112141Y101379D01*
X112045Y101394D01*
X111948Y101414D01*
X111853Y101437D01*
X111758Y101464D01*
X111665Y101495D01*
X111573Y101529D01*
X111483Y101567D01*
X111394Y101609D01*
X111307Y101654D01*
X111221Y101702D01*
X111138Y101754D01*
X111057Y101809D01*
X110978Y101868D01*
X110901Y101929D01*
X110827Y101994D01*
X110756Y102061D01*
X110687Y102131D01*
X110621Y102204D01*
X110558Y102279D01*
X110498Y102357D01*
X110441Y102437D01*
X110388Y102519D01*
X110338Y102604D01*
X110291Y102690D01*
X110247Y102778D01*
X110208Y102868D01*
X110171Y102959D01*
X110139Y103052D01*
X110110Y103146D01*
X110085Y103240D01*
X110064Y103336D01*
X110046Y103433D01*
X110033Y103530D01*
X110023Y103628D01*
X110017Y103726D01*
X110015Y103824D01*
X110015Y110245D01*
X105177Y110245D02*
X105177Y101355D01*
X105177Y110245D02*
X101226Y110245D01*
X101226Y106294D02*
X105177Y106294D01*
X164365Y95005D02*
X164365Y86115D01*
X164365Y95005D02*
X161896Y95005D01*
X161798Y95003D01*
X161700Y94997D01*
X161602Y94987D01*
X161505Y94974D01*
X161408Y94956D01*
X161312Y94935D01*
X161218Y94910D01*
X161124Y94881D01*
X161031Y94849D01*
X160940Y94812D01*
X160850Y94773D01*
X160762Y94729D01*
X160676Y94682D01*
X160591Y94632D01*
X160509Y94579D01*
X160429Y94522D01*
X160351Y94462D01*
X160276Y94399D01*
X160203Y94333D01*
X160133Y94264D01*
X160066Y94193D01*
X160001Y94119D01*
X159940Y94042D01*
X159881Y93963D01*
X159826Y93882D01*
X159774Y93799D01*
X159726Y93713D01*
X159681Y93626D01*
X159639Y93537D01*
X159601Y93447D01*
X159567Y93355D01*
X159536Y93262D01*
X159509Y93167D01*
X159486Y93072D01*
X159466Y92975D01*
X159451Y92879D01*
X159439Y92781D01*
X159431Y92683D01*
X159427Y92585D01*
X159427Y92487D01*
X159431Y92389D01*
X159439Y92291D01*
X159451Y92193D01*
X159466Y92097D01*
X159486Y92000D01*
X159509Y91905D01*
X159536Y91810D01*
X159567Y91717D01*
X159601Y91625D01*
X159639Y91535D01*
X159681Y91446D01*
X159726Y91359D01*
X159774Y91273D01*
X159826Y91190D01*
X159881Y91109D01*
X159940Y91030D01*
X160001Y90953D01*
X160066Y90879D01*
X160133Y90808D01*
X160203Y90739D01*
X160276Y90673D01*
X160351Y90610D01*
X160429Y90550D01*
X160509Y90493D01*
X160591Y90440D01*
X160676Y90390D01*
X160762Y90343D01*
X160850Y90299D01*
X160940Y90260D01*
X161031Y90223D01*
X161124Y90191D01*
X161218Y90162D01*
X161312Y90137D01*
X161408Y90116D01*
X161505Y90098D01*
X161602Y90085D01*
X161700Y90075D01*
X161798Y90069D01*
X161896Y90067D01*
X161896Y90066D02*
X164365Y90066D01*
X161402Y90066D02*
X159426Y86115D01*
X155296Y93029D02*
X152827Y95005D01*
X152827Y86115D01*
X155296Y86115D02*
X150358Y86115D01*
X146037Y88091D02*
X140110Y88091D01*
X140110Y91054D02*
X146037Y91054D01*
X135789Y88091D02*
X133814Y95005D01*
X135789Y88091D02*
X130850Y88091D01*
X132332Y90066D02*
X132332Y86115D01*
X126645Y94017D02*
X126645Y95005D01*
X121706Y95005D01*
X124176Y86115D01*
X117023Y86115D02*
X117023Y95005D01*
X112084Y95005D02*
X117023Y89572D01*
X115047Y91548D02*
X112084Y86115D01*
X164365Y79765D02*
X164365Y70875D01*
X164365Y79765D02*
X161896Y79765D01*
X161798Y79763D01*
X161700Y79757D01*
X161602Y79747D01*
X161505Y79734D01*
X161408Y79716D01*
X161312Y79695D01*
X161218Y79670D01*
X161124Y79641D01*
X161031Y79609D01*
X160940Y79572D01*
X160850Y79533D01*
X160762Y79489D01*
X160676Y79442D01*
X160591Y79392D01*
X160509Y79339D01*
X160429Y79282D01*
X160351Y79222D01*
X160276Y79159D01*
X160203Y79093D01*
X160133Y79024D01*
X160066Y78953D01*
X160001Y78879D01*
X159940Y78802D01*
X159881Y78723D01*
X159826Y78642D01*
X159774Y78559D01*
X159726Y78473D01*
X159681Y78386D01*
X159639Y78297D01*
X159601Y78207D01*
X159567Y78115D01*
X159536Y78022D01*
X159509Y77927D01*
X159486Y77832D01*
X159466Y77735D01*
X159451Y77639D01*
X159439Y77541D01*
X159431Y77443D01*
X159427Y77345D01*
X159427Y77247D01*
X159431Y77149D01*
X159439Y77051D01*
X159451Y76953D01*
X159466Y76857D01*
X159486Y76760D01*
X159509Y76665D01*
X159536Y76570D01*
X159567Y76477D01*
X159601Y76385D01*
X159639Y76295D01*
X159681Y76206D01*
X159726Y76119D01*
X159774Y76033D01*
X159826Y75950D01*
X159881Y75869D01*
X159940Y75790D01*
X160001Y75713D01*
X160066Y75639D01*
X160133Y75568D01*
X160203Y75499D01*
X160276Y75433D01*
X160351Y75370D01*
X160429Y75310D01*
X160509Y75253D01*
X160591Y75200D01*
X160676Y75150D01*
X160762Y75103D01*
X160850Y75059D01*
X160940Y75020D01*
X161031Y74983D01*
X161124Y74951D01*
X161218Y74922D01*
X161312Y74897D01*
X161408Y74876D01*
X161505Y74858D01*
X161602Y74845D01*
X161700Y74835D01*
X161798Y74829D01*
X161896Y74827D01*
X161896Y74826D02*
X164365Y74826D01*
X161402Y74826D02*
X159426Y70875D01*
X152580Y79766D02*
X152488Y79764D01*
X152396Y79758D01*
X152305Y79749D01*
X152214Y79736D01*
X152124Y79719D01*
X152034Y79698D01*
X151946Y79674D01*
X151858Y79646D01*
X151772Y79614D01*
X151687Y79579D01*
X151604Y79540D01*
X151522Y79498D01*
X151442Y79453D01*
X151364Y79404D01*
X151288Y79352D01*
X151215Y79297D01*
X151143Y79239D01*
X151074Y79179D01*
X151008Y79115D01*
X150944Y79049D01*
X150884Y78980D01*
X150826Y78908D01*
X150771Y78835D01*
X150719Y78759D01*
X150670Y78681D01*
X150625Y78601D01*
X150583Y78519D01*
X150544Y78436D01*
X150509Y78351D01*
X150477Y78265D01*
X150449Y78177D01*
X150425Y78089D01*
X150404Y77999D01*
X150387Y77909D01*
X150374Y77818D01*
X150365Y77727D01*
X150359Y77635D01*
X150357Y77543D01*
X152580Y79765D02*
X152686Y79763D01*
X152791Y79757D01*
X152896Y79747D01*
X153001Y79734D01*
X153105Y79716D01*
X153208Y79695D01*
X153311Y79670D01*
X153413Y79641D01*
X153513Y79608D01*
X153612Y79572D01*
X153710Y79532D01*
X153806Y79488D01*
X153901Y79441D01*
X153993Y79391D01*
X154084Y79337D01*
X154173Y79279D01*
X154259Y79219D01*
X154343Y79155D01*
X154425Y79089D01*
X154505Y79019D01*
X154581Y78946D01*
X154655Y78871D01*
X154726Y78793D01*
X154794Y78712D01*
X154860Y78629D01*
X154922Y78543D01*
X154980Y78456D01*
X155036Y78366D01*
X155088Y78274D01*
X155137Y78180D01*
X155182Y78085D01*
X155224Y77988D01*
X155262Y77889D01*
X155296Y77790D01*
X151099Y75814D02*
X151030Y75883D01*
X150964Y75953D01*
X150901Y76027D01*
X150842Y76103D01*
X150785Y76181D01*
X150731Y76261D01*
X150681Y76344D01*
X150634Y76428D01*
X150591Y76515D01*
X150551Y76603D01*
X150515Y76692D01*
X150482Y76783D01*
X150453Y76875D01*
X150428Y76969D01*
X150407Y77063D01*
X150389Y77158D01*
X150376Y77254D01*
X150366Y77350D01*
X150360Y77446D01*
X150358Y77543D01*
X151098Y75814D02*
X155296Y70875D01*
X150358Y70875D01*
X146037Y72851D02*
X140110Y72851D01*
X140110Y75814D02*
X146037Y75814D01*
X135789Y77789D02*
X133320Y79765D01*
X133320Y70875D01*
X135789Y70875D02*
X130850Y70875D01*
X126645Y75320D02*
X126643Y75495D01*
X126637Y75670D01*
X126626Y75844D01*
X126612Y76019D01*
X126593Y76192D01*
X126570Y76366D01*
X126543Y76539D01*
X126512Y76711D01*
X126477Y76882D01*
X126437Y77052D01*
X126394Y77222D01*
X126346Y77390D01*
X126295Y77557D01*
X126240Y77723D01*
X126180Y77888D01*
X126117Y78051D01*
X126050Y78212D01*
X125979Y78372D01*
X125904Y78530D01*
X125904Y78531D02*
X125875Y78609D01*
X125843Y78687D01*
X125806Y78762D01*
X125767Y78836D01*
X125724Y78908D01*
X125678Y78979D01*
X125628Y79046D01*
X125576Y79112D01*
X125521Y79175D01*
X125462Y79235D01*
X125401Y79293D01*
X125338Y79348D01*
X125272Y79400D01*
X125203Y79449D01*
X125133Y79494D01*
X125061Y79537D01*
X124986Y79576D01*
X124910Y79611D01*
X124833Y79643D01*
X124754Y79671D01*
X124673Y79696D01*
X124592Y79717D01*
X124510Y79734D01*
X124427Y79748D01*
X124344Y79757D01*
X124260Y79763D01*
X124176Y79765D01*
X124092Y79763D01*
X124008Y79757D01*
X123925Y79748D01*
X123842Y79734D01*
X123760Y79717D01*
X123679Y79696D01*
X123598Y79671D01*
X123519Y79643D01*
X123442Y79611D01*
X123366Y79576D01*
X123291Y79537D01*
X123219Y79494D01*
X123148Y79449D01*
X123080Y79400D01*
X123014Y79348D01*
X122951Y79293D01*
X122890Y79235D01*
X122831Y79175D01*
X122776Y79112D01*
X122724Y79046D01*
X122674Y78979D01*
X122628Y78908D01*
X122585Y78836D01*
X122546Y78762D01*
X122509Y78687D01*
X122477Y78609D01*
X122448Y78531D01*
X122447Y78530D02*
X122372Y78372D01*
X122301Y78212D01*
X122234Y78051D01*
X122171Y77888D01*
X122111Y77723D01*
X122056Y77557D01*
X122005Y77390D01*
X121957Y77222D01*
X121914Y77052D01*
X121874Y76882D01*
X121839Y76711D01*
X121808Y76539D01*
X121781Y76366D01*
X121758Y76192D01*
X121739Y76019D01*
X121725Y75844D01*
X121714Y75670D01*
X121708Y75495D01*
X121706Y75320D01*
X126645Y75320D02*
X126643Y75145D01*
X126637Y74970D01*
X126626Y74796D01*
X126612Y74621D01*
X126593Y74448D01*
X126570Y74274D01*
X126543Y74101D01*
X126512Y73929D01*
X126477Y73758D01*
X126437Y73588D01*
X126394Y73418D01*
X126346Y73250D01*
X126295Y73083D01*
X126240Y72917D01*
X126180Y72752D01*
X126117Y72589D01*
X126050Y72428D01*
X125979Y72268D01*
X125904Y72110D01*
X125904Y72109D02*
X125875Y72031D01*
X125843Y71953D01*
X125806Y71878D01*
X125767Y71804D01*
X125724Y71731D01*
X125678Y71661D01*
X125628Y71594D01*
X125576Y71528D01*
X125520Y71465D01*
X125462Y71405D01*
X125401Y71347D01*
X125338Y71292D01*
X125272Y71240D01*
X125203Y71191D01*
X125133Y71146D01*
X125061Y71103D01*
X124986Y71064D01*
X124910Y71029D01*
X124833Y70997D01*
X124754Y70969D01*
X124673Y70944D01*
X124592Y70923D01*
X124510Y70906D01*
X124427Y70892D01*
X124344Y70883D01*
X124260Y70877D01*
X124176Y70875D01*
X122447Y72110D02*
X122372Y72268D01*
X122301Y72428D01*
X122234Y72589D01*
X122171Y72752D01*
X122111Y72917D01*
X122056Y73083D01*
X122005Y73250D01*
X121957Y73418D01*
X121914Y73588D01*
X121874Y73758D01*
X121839Y73929D01*
X121808Y74101D01*
X121781Y74274D01*
X121758Y74448D01*
X121739Y74621D01*
X121725Y74796D01*
X121714Y74970D01*
X121708Y75145D01*
X121706Y75320D01*
X122448Y72109D02*
X122477Y72031D01*
X122509Y71953D01*
X122546Y71878D01*
X122585Y71804D01*
X122628Y71731D01*
X122674Y71661D01*
X122724Y71594D01*
X122776Y71528D01*
X122832Y71465D01*
X122890Y71405D01*
X122951Y71347D01*
X123014Y71292D01*
X123080Y71240D01*
X123149Y71191D01*
X123219Y71146D01*
X123291Y71103D01*
X123366Y71064D01*
X123442Y71029D01*
X123519Y70997D01*
X123598Y70969D01*
X123679Y70944D01*
X123760Y70923D01*
X123842Y70906D01*
X123925Y70892D01*
X124008Y70883D01*
X124092Y70877D01*
X124176Y70875D01*
X126151Y72851D02*
X122200Y77789D01*
X117023Y79765D02*
X117023Y70875D01*
X117023Y74332D02*
X112084Y79765D01*
X115047Y76308D02*
X112084Y70875D01*
X103901Y70875D02*
X99950Y76802D01*
X103901Y76802D02*
X99950Y70875D01*
X91289Y70875D02*
X88819Y70875D01*
X88721Y70877D01*
X88623Y70883D01*
X88525Y70893D01*
X88428Y70906D01*
X88331Y70924D01*
X88235Y70945D01*
X88141Y70970D01*
X88047Y70999D01*
X87954Y71031D01*
X87863Y71068D01*
X87773Y71107D01*
X87685Y71151D01*
X87599Y71198D01*
X87514Y71248D01*
X87432Y71301D01*
X87352Y71358D01*
X87274Y71418D01*
X87199Y71481D01*
X87126Y71547D01*
X87056Y71616D01*
X86989Y71687D01*
X86924Y71761D01*
X86863Y71838D01*
X86804Y71917D01*
X86749Y71998D01*
X86697Y72081D01*
X86649Y72167D01*
X86604Y72254D01*
X86562Y72343D01*
X86524Y72433D01*
X86490Y72525D01*
X86459Y72618D01*
X86432Y72713D01*
X86409Y72808D01*
X86389Y72905D01*
X86374Y73001D01*
X86362Y73099D01*
X86354Y73197D01*
X86350Y73295D01*
X86350Y73393D01*
X86354Y73491D01*
X86362Y73589D01*
X86374Y73687D01*
X86389Y73783D01*
X86409Y73880D01*
X86432Y73975D01*
X86459Y74070D01*
X86490Y74163D01*
X86524Y74255D01*
X86562Y74345D01*
X86604Y74434D01*
X86649Y74521D01*
X86697Y74607D01*
X86749Y74690D01*
X86804Y74771D01*
X86863Y74850D01*
X86924Y74927D01*
X86989Y75001D01*
X87056Y75072D01*
X87126Y75141D01*
X87199Y75207D01*
X87274Y75270D01*
X87352Y75330D01*
X87432Y75387D01*
X87514Y75440D01*
X87599Y75490D01*
X87685Y75537D01*
X87773Y75581D01*
X87863Y75620D01*
X87954Y75657D01*
X88047Y75689D01*
X88141Y75718D01*
X88235Y75743D01*
X88331Y75764D01*
X88428Y75782D01*
X88525Y75795D01*
X88623Y75805D01*
X88721Y75811D01*
X88819Y75813D01*
X88325Y79765D02*
X91289Y79765D01*
X88325Y79765D02*
X88238Y79763D01*
X88150Y79757D01*
X88063Y79748D01*
X87977Y79734D01*
X87891Y79717D01*
X87807Y79696D01*
X87723Y79671D01*
X87640Y79642D01*
X87559Y79610D01*
X87479Y79575D01*
X87401Y79536D01*
X87324Y79493D01*
X87250Y79447D01*
X87178Y79398D01*
X87108Y79346D01*
X87040Y79290D01*
X86975Y79232D01*
X86912Y79171D01*
X86853Y79107D01*
X86796Y79040D01*
X86742Y78972D01*
X86691Y78900D01*
X86644Y78827D01*
X86599Y78752D01*
X86558Y78674D01*
X86521Y78595D01*
X86487Y78515D01*
X86457Y78433D01*
X86430Y78350D01*
X86407Y78265D01*
X86388Y78180D01*
X86373Y78094D01*
X86361Y78007D01*
X86353Y77920D01*
X86349Y77833D01*
X86349Y77745D01*
X86353Y77658D01*
X86361Y77571D01*
X86373Y77484D01*
X86388Y77398D01*
X86407Y77313D01*
X86430Y77228D01*
X86457Y77145D01*
X86487Y77063D01*
X86521Y76983D01*
X86558Y76904D01*
X86599Y76826D01*
X86644Y76751D01*
X86691Y76678D01*
X86742Y76606D01*
X86796Y76538D01*
X86853Y76471D01*
X86912Y76407D01*
X86975Y76346D01*
X87040Y76288D01*
X87108Y76232D01*
X87178Y76180D01*
X87250Y76131D01*
X87324Y76085D01*
X87401Y76042D01*
X87479Y76003D01*
X87559Y75968D01*
X87640Y75936D01*
X87723Y75907D01*
X87807Y75882D01*
X87891Y75861D01*
X87977Y75844D01*
X88063Y75830D01*
X88150Y75821D01*
X88238Y75815D01*
X88325Y75813D01*
X88325Y75814D02*
X90301Y75814D01*
X163377Y64525D02*
X163377Y55635D01*
X164365Y55635D02*
X162389Y55635D01*
X162389Y64525D02*
X164365Y64525D01*
X156590Y55635D02*
X154614Y55635D01*
X156590Y55635D02*
X156676Y55637D01*
X156762Y55643D01*
X156848Y55652D01*
X156933Y55665D01*
X157018Y55682D01*
X157101Y55702D01*
X157184Y55726D01*
X157266Y55754D01*
X157346Y55785D01*
X157425Y55820D01*
X157502Y55858D01*
X157578Y55900D01*
X157652Y55944D01*
X157723Y55992D01*
X157793Y56043D01*
X157860Y56097D01*
X157925Y56154D01*
X157987Y56214D01*
X158047Y56276D01*
X158104Y56341D01*
X158158Y56408D01*
X158209Y56478D01*
X158257Y56549D01*
X158301Y56623D01*
X158343Y56699D01*
X158381Y56776D01*
X158416Y56855D01*
X158447Y56935D01*
X158475Y57017D01*
X158499Y57100D01*
X158519Y57183D01*
X158536Y57268D01*
X158549Y57353D01*
X158558Y57439D01*
X158564Y57525D01*
X158566Y57611D01*
X158566Y62549D01*
X158564Y62638D01*
X158558Y62726D01*
X158548Y62814D01*
X158534Y62902D01*
X158516Y62989D01*
X158495Y63075D01*
X158469Y63160D01*
X158440Y63243D01*
X158407Y63326D01*
X158370Y63406D01*
X158330Y63485D01*
X158286Y63562D01*
X158239Y63638D01*
X158189Y63710D01*
X158135Y63781D01*
X158078Y63849D01*
X158018Y63915D01*
X157956Y63977D01*
X157890Y64037D01*
X157822Y64094D01*
X157751Y64148D01*
X157679Y64198D01*
X157604Y64245D01*
X157526Y64289D01*
X157447Y64329D01*
X157367Y64366D01*
X157284Y64399D01*
X157201Y64428D01*
X157116Y64454D01*
X157030Y64475D01*
X156943Y64493D01*
X156855Y64507D01*
X156767Y64517D01*
X156679Y64523D01*
X156590Y64525D01*
X154614Y64525D01*
X150912Y62549D02*
X148442Y64525D01*
X148442Y55635D01*
X145973Y55635D02*
X150912Y55635D01*
X141652Y57611D02*
X135725Y57611D01*
X135725Y60574D02*
X141652Y60574D01*
X131404Y63537D02*
X131404Y64525D01*
X126466Y64525D01*
X128935Y55635D01*
X122260Y57611D02*
X120285Y64525D01*
X122260Y57611D02*
X117322Y57611D01*
X118803Y59586D02*
X118803Y55635D01*
X112812Y55635D02*
X112812Y64525D01*
X112812Y60574D02*
X107873Y60574D01*
X107873Y64525D02*
X107873Y55635D01*
X101421Y55635D02*
X99446Y55635D01*
X101421Y55635D02*
X101507Y55637D01*
X101593Y55643D01*
X101679Y55652D01*
X101764Y55665D01*
X101849Y55682D01*
X101932Y55702D01*
X102015Y55726D01*
X102097Y55754D01*
X102177Y55785D01*
X102256Y55820D01*
X102333Y55858D01*
X102409Y55900D01*
X102483Y55944D01*
X102554Y55992D01*
X102624Y56043D01*
X102691Y56097D01*
X102756Y56154D01*
X102818Y56214D01*
X102878Y56276D01*
X102935Y56341D01*
X102989Y56408D01*
X103040Y56478D01*
X103088Y56549D01*
X103132Y56623D01*
X103174Y56699D01*
X103212Y56776D01*
X103247Y56855D01*
X103278Y56935D01*
X103306Y57017D01*
X103330Y57100D01*
X103350Y57183D01*
X103367Y57268D01*
X103380Y57353D01*
X103389Y57439D01*
X103395Y57525D01*
X103397Y57611D01*
X103397Y62549D01*
X103395Y62638D01*
X103389Y62726D01*
X103379Y62814D01*
X103365Y62902D01*
X103347Y62989D01*
X103326Y63075D01*
X103300Y63160D01*
X103271Y63243D01*
X103238Y63326D01*
X103201Y63406D01*
X103161Y63485D01*
X103117Y63562D01*
X103070Y63638D01*
X103020Y63710D01*
X102966Y63781D01*
X102909Y63849D01*
X102849Y63915D01*
X102787Y63977D01*
X102721Y64037D01*
X102653Y64094D01*
X102582Y64148D01*
X102510Y64198D01*
X102435Y64245D01*
X102357Y64289D01*
X102278Y64329D01*
X102198Y64366D01*
X102115Y64399D01*
X102032Y64428D01*
X101947Y64454D01*
X101861Y64475D01*
X101774Y64493D01*
X101686Y64507D01*
X101598Y64517D01*
X101510Y64523D01*
X101421Y64525D01*
X99446Y64525D01*
X93767Y64525D02*
X95743Y57611D01*
X90804Y57611D01*
X92286Y59586D02*
X92286Y55635D01*
X86599Y60080D02*
X86597Y60255D01*
X86591Y60430D01*
X86580Y60604D01*
X86566Y60779D01*
X86547Y60952D01*
X86524Y61126D01*
X86497Y61299D01*
X86466Y61471D01*
X86431Y61642D01*
X86391Y61812D01*
X86348Y61982D01*
X86300Y62150D01*
X86249Y62317D01*
X86194Y62483D01*
X86134Y62648D01*
X86071Y62811D01*
X86004Y62972D01*
X85933Y63132D01*
X85858Y63290D01*
X85857Y63291D02*
X85828Y63369D01*
X85796Y63447D01*
X85759Y63522D01*
X85720Y63596D01*
X85677Y63668D01*
X85631Y63739D01*
X85581Y63806D01*
X85529Y63872D01*
X85474Y63935D01*
X85415Y63995D01*
X85354Y64053D01*
X85291Y64108D01*
X85225Y64160D01*
X85156Y64209D01*
X85086Y64254D01*
X85014Y64297D01*
X84939Y64336D01*
X84863Y64371D01*
X84786Y64403D01*
X84707Y64431D01*
X84626Y64456D01*
X84545Y64477D01*
X84463Y64494D01*
X84380Y64508D01*
X84297Y64517D01*
X84213Y64523D01*
X84129Y64525D01*
X84045Y64523D01*
X83961Y64517D01*
X83878Y64508D01*
X83795Y64494D01*
X83713Y64477D01*
X83632Y64456D01*
X83551Y64431D01*
X83472Y64403D01*
X83395Y64371D01*
X83319Y64336D01*
X83244Y64297D01*
X83172Y64254D01*
X83101Y64209D01*
X83033Y64160D01*
X82967Y64108D01*
X82904Y64053D01*
X82843Y63995D01*
X82784Y63935D01*
X82729Y63872D01*
X82677Y63806D01*
X82627Y63739D01*
X82581Y63668D01*
X82538Y63596D01*
X82499Y63522D01*
X82462Y63447D01*
X82430Y63369D01*
X82401Y63291D01*
X82401Y63290D02*
X82326Y63132D01*
X82255Y62972D01*
X82188Y62811D01*
X82125Y62648D01*
X82065Y62483D01*
X82010Y62317D01*
X81959Y62150D01*
X81911Y61982D01*
X81868Y61812D01*
X81828Y61642D01*
X81793Y61471D01*
X81762Y61299D01*
X81735Y61126D01*
X81712Y60952D01*
X81693Y60779D01*
X81679Y60604D01*
X81668Y60430D01*
X81662Y60255D01*
X81660Y60080D01*
X86599Y60080D02*
X86597Y59905D01*
X86591Y59730D01*
X86580Y59556D01*
X86566Y59381D01*
X86547Y59208D01*
X86524Y59034D01*
X86497Y58861D01*
X86466Y58689D01*
X86431Y58518D01*
X86391Y58348D01*
X86348Y58178D01*
X86300Y58010D01*
X86249Y57843D01*
X86194Y57677D01*
X86134Y57512D01*
X86071Y57349D01*
X86004Y57188D01*
X85933Y57028D01*
X85858Y56870D01*
X85857Y56869D02*
X85828Y56791D01*
X85796Y56713D01*
X85759Y56638D01*
X85720Y56564D01*
X85677Y56491D01*
X85631Y56421D01*
X85581Y56354D01*
X85529Y56288D01*
X85473Y56225D01*
X85415Y56165D01*
X85354Y56107D01*
X85291Y56052D01*
X85225Y56000D01*
X85156Y55951D01*
X85086Y55906D01*
X85014Y55863D01*
X84939Y55824D01*
X84863Y55789D01*
X84786Y55757D01*
X84707Y55729D01*
X84626Y55704D01*
X84545Y55683D01*
X84463Y55666D01*
X84380Y55652D01*
X84297Y55643D01*
X84213Y55637D01*
X84129Y55635D01*
X82401Y56870D02*
X82326Y57028D01*
X82255Y57188D01*
X82188Y57349D01*
X82125Y57512D01*
X82065Y57677D01*
X82010Y57843D01*
X81959Y58010D01*
X81911Y58178D01*
X81868Y58348D01*
X81828Y58518D01*
X81793Y58689D01*
X81762Y58861D01*
X81735Y59034D01*
X81712Y59208D01*
X81693Y59381D01*
X81679Y59556D01*
X81668Y59730D01*
X81662Y59905D01*
X81660Y60080D01*
X82401Y56869D02*
X82430Y56791D01*
X82462Y56713D01*
X82499Y56638D01*
X82538Y56564D01*
X82581Y56491D01*
X82627Y56421D01*
X82677Y56354D01*
X82729Y56288D01*
X82785Y56225D01*
X82843Y56165D01*
X82904Y56107D01*
X82967Y56052D01*
X83033Y56000D01*
X83102Y55951D01*
X83172Y55906D01*
X83244Y55863D01*
X83319Y55824D01*
X83395Y55789D01*
X83472Y55757D01*
X83551Y55729D01*
X83632Y55704D01*
X83713Y55683D01*
X83795Y55666D01*
X83878Y55652D01*
X83961Y55643D01*
X84045Y55637D01*
X84129Y55635D01*
X86105Y57611D02*
X82154Y62549D01*
X77455Y60574D02*
X74492Y60574D01*
X74406Y60572D01*
X74320Y60566D01*
X74234Y60557D01*
X74149Y60544D01*
X74064Y60527D01*
X73981Y60507D01*
X73898Y60483D01*
X73816Y60455D01*
X73736Y60424D01*
X73657Y60389D01*
X73580Y60351D01*
X73504Y60309D01*
X73430Y60265D01*
X73359Y60217D01*
X73289Y60166D01*
X73222Y60112D01*
X73157Y60055D01*
X73095Y59995D01*
X73035Y59933D01*
X72978Y59868D01*
X72924Y59801D01*
X72873Y59731D01*
X72825Y59660D01*
X72781Y59586D01*
X72739Y59510D01*
X72701Y59433D01*
X72666Y59354D01*
X72635Y59274D01*
X72607Y59192D01*
X72583Y59109D01*
X72563Y59026D01*
X72546Y58941D01*
X72533Y58856D01*
X72524Y58770D01*
X72518Y58684D01*
X72516Y58598D01*
X72516Y58104D01*
X72518Y58006D01*
X72524Y57908D01*
X72534Y57810D01*
X72547Y57713D01*
X72565Y57616D01*
X72586Y57520D01*
X72611Y57426D01*
X72640Y57332D01*
X72672Y57239D01*
X72709Y57148D01*
X72748Y57058D01*
X72792Y56970D01*
X72839Y56884D01*
X72889Y56799D01*
X72942Y56717D01*
X72999Y56637D01*
X73059Y56559D01*
X73122Y56484D01*
X73188Y56411D01*
X73257Y56341D01*
X73328Y56274D01*
X73402Y56209D01*
X73479Y56148D01*
X73558Y56089D01*
X73639Y56034D01*
X73722Y55982D01*
X73808Y55934D01*
X73895Y55889D01*
X73984Y55847D01*
X74074Y55809D01*
X74166Y55775D01*
X74259Y55744D01*
X74354Y55717D01*
X74449Y55694D01*
X74546Y55674D01*
X74642Y55659D01*
X74740Y55647D01*
X74838Y55639D01*
X74936Y55635D01*
X75034Y55635D01*
X75132Y55639D01*
X75230Y55647D01*
X75328Y55659D01*
X75424Y55674D01*
X75521Y55694D01*
X75616Y55717D01*
X75711Y55744D01*
X75804Y55775D01*
X75896Y55809D01*
X75986Y55847D01*
X76075Y55889D01*
X76162Y55934D01*
X76248Y55982D01*
X76331Y56034D01*
X76412Y56089D01*
X76491Y56148D01*
X76568Y56209D01*
X76642Y56274D01*
X76713Y56341D01*
X76782Y56411D01*
X76848Y56484D01*
X76911Y56559D01*
X76971Y56637D01*
X77028Y56717D01*
X77081Y56799D01*
X77131Y56884D01*
X77178Y56970D01*
X77222Y57058D01*
X77261Y57148D01*
X77298Y57239D01*
X77330Y57332D01*
X77359Y57426D01*
X77384Y57520D01*
X77405Y57616D01*
X77423Y57713D01*
X77436Y57810D01*
X77446Y57908D01*
X77452Y58006D01*
X77454Y58104D01*
X77455Y58104D02*
X77455Y60574D01*
X77453Y60698D01*
X77447Y60822D01*
X77437Y60946D01*
X77424Y61069D01*
X77406Y61192D01*
X77385Y61314D01*
X77360Y61436D01*
X77331Y61557D01*
X77298Y61676D01*
X77262Y61795D01*
X77221Y61912D01*
X77178Y62028D01*
X77130Y62143D01*
X77079Y62256D01*
X77024Y62368D01*
X76966Y62477D01*
X76905Y62585D01*
X76840Y62691D01*
X76772Y62795D01*
X76700Y62896D01*
X76626Y62996D01*
X76548Y63092D01*
X76468Y63187D01*
X76384Y63279D01*
X76298Y63368D01*
X76209Y63454D01*
X76117Y63538D01*
X76022Y63618D01*
X75926Y63696D01*
X75826Y63770D01*
X75725Y63842D01*
X75621Y63910D01*
X75515Y63975D01*
X75407Y64036D01*
X75298Y64094D01*
X75186Y64149D01*
X75073Y64200D01*
X74959Y64248D01*
X74842Y64291D01*
X74725Y64332D01*
X74606Y64368D01*
X74487Y64401D01*
X74366Y64430D01*
X74244Y64455D01*
X74122Y64476D01*
X73999Y64494D01*
X73876Y64507D01*
X73752Y64517D01*
X73628Y64523D01*
X73504Y64525D01*
X68311Y60574D02*
X65348Y60574D01*
X65262Y60572D01*
X65176Y60566D01*
X65090Y60557D01*
X65005Y60544D01*
X64920Y60527D01*
X64837Y60507D01*
X64754Y60483D01*
X64672Y60455D01*
X64592Y60424D01*
X64513Y60389D01*
X64436Y60351D01*
X64360Y60309D01*
X64286Y60265D01*
X64215Y60217D01*
X64145Y60166D01*
X64078Y60112D01*
X64013Y60055D01*
X63951Y59995D01*
X63891Y59933D01*
X63834Y59868D01*
X63780Y59801D01*
X63729Y59731D01*
X63681Y59660D01*
X63637Y59586D01*
X63595Y59510D01*
X63557Y59433D01*
X63522Y59354D01*
X63491Y59274D01*
X63463Y59192D01*
X63439Y59109D01*
X63419Y59026D01*
X63402Y58941D01*
X63389Y58856D01*
X63380Y58770D01*
X63374Y58684D01*
X63372Y58598D01*
X63372Y58104D01*
X63374Y58006D01*
X63380Y57908D01*
X63390Y57810D01*
X63403Y57713D01*
X63421Y57616D01*
X63442Y57520D01*
X63467Y57426D01*
X63496Y57332D01*
X63528Y57239D01*
X63565Y57148D01*
X63604Y57058D01*
X63648Y56970D01*
X63695Y56884D01*
X63745Y56799D01*
X63798Y56717D01*
X63855Y56637D01*
X63915Y56559D01*
X63978Y56484D01*
X64044Y56411D01*
X64113Y56341D01*
X64184Y56274D01*
X64258Y56209D01*
X64335Y56148D01*
X64414Y56089D01*
X64495Y56034D01*
X64578Y55982D01*
X64664Y55934D01*
X64751Y55889D01*
X64840Y55847D01*
X64930Y55809D01*
X65022Y55775D01*
X65115Y55744D01*
X65210Y55717D01*
X65305Y55694D01*
X65402Y55674D01*
X65498Y55659D01*
X65596Y55647D01*
X65694Y55639D01*
X65792Y55635D01*
X65890Y55635D01*
X65988Y55639D01*
X66086Y55647D01*
X66184Y55659D01*
X66280Y55674D01*
X66377Y55694D01*
X66472Y55717D01*
X66567Y55744D01*
X66660Y55775D01*
X66752Y55809D01*
X66842Y55847D01*
X66931Y55889D01*
X67018Y55934D01*
X67104Y55982D01*
X67187Y56034D01*
X67268Y56089D01*
X67347Y56148D01*
X67424Y56209D01*
X67498Y56274D01*
X67569Y56341D01*
X67638Y56411D01*
X67704Y56484D01*
X67767Y56559D01*
X67827Y56637D01*
X67884Y56717D01*
X67937Y56799D01*
X67987Y56884D01*
X68034Y56970D01*
X68078Y57058D01*
X68117Y57148D01*
X68154Y57239D01*
X68186Y57332D01*
X68215Y57426D01*
X68240Y57520D01*
X68261Y57616D01*
X68279Y57713D01*
X68292Y57810D01*
X68302Y57908D01*
X68308Y58006D01*
X68310Y58104D01*
X68311Y58104D02*
X68311Y60574D01*
X68309Y60698D01*
X68303Y60822D01*
X68293Y60946D01*
X68280Y61069D01*
X68262Y61192D01*
X68241Y61314D01*
X68216Y61436D01*
X68187Y61557D01*
X68154Y61676D01*
X68118Y61795D01*
X68077Y61912D01*
X68034Y62028D01*
X67986Y62143D01*
X67935Y62256D01*
X67880Y62368D01*
X67822Y62477D01*
X67761Y62585D01*
X67696Y62691D01*
X67628Y62795D01*
X67556Y62896D01*
X67482Y62996D01*
X67404Y63092D01*
X67324Y63187D01*
X67240Y63279D01*
X67154Y63368D01*
X67065Y63454D01*
X66973Y63538D01*
X66878Y63618D01*
X66782Y63696D01*
X66682Y63770D01*
X66581Y63842D01*
X66477Y63910D01*
X66371Y63975D01*
X66263Y64036D01*
X66154Y64094D01*
X66042Y64149D01*
X65929Y64200D01*
X65815Y64248D01*
X65698Y64291D01*
X65581Y64332D01*
X65462Y64368D01*
X65343Y64401D01*
X65222Y64430D01*
X65100Y64455D01*
X64978Y64476D01*
X64855Y64494D01*
X64732Y64507D01*
X64608Y64517D01*
X64484Y64523D01*
X64360Y64525D01*
X58862Y64525D02*
X58862Y55635D01*
X58862Y64525D02*
X56393Y64525D01*
X56296Y64523D01*
X56199Y64517D01*
X56103Y64508D01*
X56007Y64495D01*
X55911Y64478D01*
X55817Y64457D01*
X55723Y64432D01*
X55630Y64404D01*
X55538Y64372D01*
X55448Y64337D01*
X55359Y64298D01*
X55272Y64256D01*
X55187Y64210D01*
X55103Y64161D01*
X55021Y64109D01*
X54942Y64053D01*
X54864Y63995D01*
X54790Y63933D01*
X54717Y63869D01*
X54647Y63802D01*
X54580Y63732D01*
X54516Y63659D01*
X54454Y63585D01*
X54396Y63507D01*
X54340Y63428D01*
X54288Y63346D01*
X54239Y63262D01*
X54193Y63177D01*
X54151Y63090D01*
X54112Y63001D01*
X54077Y62911D01*
X54045Y62819D01*
X54017Y62726D01*
X53992Y62632D01*
X53971Y62538D01*
X53954Y62442D01*
X53941Y62346D01*
X53932Y62250D01*
X53926Y62153D01*
X53924Y62056D01*
X53923Y62056D02*
X53923Y58104D01*
X53924Y58104D02*
X53926Y58007D01*
X53932Y57910D01*
X53941Y57814D01*
X53954Y57718D01*
X53971Y57622D01*
X53992Y57528D01*
X54017Y57434D01*
X54045Y57341D01*
X54077Y57249D01*
X54112Y57159D01*
X54151Y57070D01*
X54193Y56983D01*
X54239Y56898D01*
X54288Y56814D01*
X54340Y56732D01*
X54396Y56653D01*
X54454Y56575D01*
X54516Y56501D01*
X54580Y56428D01*
X54647Y56358D01*
X54717Y56291D01*
X54790Y56227D01*
X54864Y56165D01*
X54942Y56107D01*
X55021Y56051D01*
X55103Y55999D01*
X55187Y55950D01*
X55272Y55904D01*
X55359Y55862D01*
X55448Y55823D01*
X55538Y55788D01*
X55630Y55756D01*
X55723Y55728D01*
X55817Y55703D01*
X55911Y55682D01*
X56007Y55665D01*
X56103Y55652D01*
X56199Y55643D01*
X56296Y55637D01*
X56393Y55635D01*
X58862Y55635D01*
M02*
