G04 EAGLE Gerber RS-274X export*
G75*
%MOMM*%
%FSLAX34Y34*%
%LPD*%
%INSilkscreen Bottom*%
%IPPOS*%
%AMOC8*
5,1,8,0,0,1.08239X$1,22.5*%
G01*
%ADD10C,0.127000*%


D10*
X160414Y135635D02*
X162389Y135635D01*
X162475Y135637D01*
X162561Y135643D01*
X162647Y135652D01*
X162732Y135665D01*
X162817Y135682D01*
X162900Y135702D01*
X162983Y135726D01*
X163065Y135754D01*
X163145Y135785D01*
X163224Y135820D01*
X163301Y135858D01*
X163377Y135900D01*
X163451Y135944D01*
X163522Y135992D01*
X163592Y136043D01*
X163659Y136097D01*
X163724Y136154D01*
X163786Y136214D01*
X163846Y136276D01*
X163903Y136341D01*
X163957Y136408D01*
X164008Y136478D01*
X164056Y136549D01*
X164100Y136623D01*
X164142Y136699D01*
X164180Y136776D01*
X164215Y136855D01*
X164246Y136935D01*
X164274Y137017D01*
X164298Y137100D01*
X164318Y137183D01*
X164335Y137268D01*
X164348Y137353D01*
X164357Y137439D01*
X164363Y137525D01*
X164365Y137611D01*
X164365Y142549D01*
X164363Y142638D01*
X164357Y142726D01*
X164347Y142814D01*
X164333Y142902D01*
X164315Y142989D01*
X164294Y143075D01*
X164268Y143160D01*
X164239Y143243D01*
X164206Y143326D01*
X164169Y143406D01*
X164129Y143485D01*
X164085Y143562D01*
X164038Y143638D01*
X163988Y143710D01*
X163934Y143781D01*
X163877Y143849D01*
X163817Y143915D01*
X163755Y143977D01*
X163689Y144037D01*
X163621Y144094D01*
X163550Y144148D01*
X163478Y144198D01*
X163403Y144245D01*
X163325Y144289D01*
X163246Y144329D01*
X163166Y144366D01*
X163083Y144399D01*
X163000Y144428D01*
X162915Y144454D01*
X162829Y144475D01*
X162742Y144493D01*
X162654Y144507D01*
X162566Y144517D01*
X162478Y144523D01*
X162389Y144525D01*
X160414Y144525D01*
X156711Y142056D02*
X156711Y138104D01*
X156711Y142056D02*
X156709Y142154D01*
X156703Y142252D01*
X156693Y142350D01*
X156680Y142447D01*
X156662Y142544D01*
X156641Y142640D01*
X156616Y142734D01*
X156587Y142828D01*
X156555Y142921D01*
X156518Y143012D01*
X156479Y143102D01*
X156435Y143190D01*
X156388Y143276D01*
X156338Y143361D01*
X156285Y143443D01*
X156228Y143523D01*
X156168Y143601D01*
X156105Y143676D01*
X156039Y143749D01*
X155970Y143819D01*
X155899Y143886D01*
X155825Y143951D01*
X155748Y144012D01*
X155669Y144071D01*
X155588Y144126D01*
X155505Y144178D01*
X155419Y144226D01*
X155332Y144271D01*
X155243Y144313D01*
X155153Y144351D01*
X155061Y144385D01*
X154968Y144416D01*
X154873Y144443D01*
X154778Y144466D01*
X154681Y144486D01*
X154585Y144501D01*
X154487Y144513D01*
X154389Y144521D01*
X154291Y144525D01*
X154193Y144525D01*
X154095Y144521D01*
X153997Y144513D01*
X153899Y144501D01*
X153803Y144486D01*
X153706Y144466D01*
X153611Y144443D01*
X153516Y144416D01*
X153423Y144385D01*
X153331Y144351D01*
X153241Y144313D01*
X153152Y144271D01*
X153065Y144226D01*
X152979Y144178D01*
X152896Y144126D01*
X152815Y144071D01*
X152736Y144012D01*
X152659Y143951D01*
X152585Y143886D01*
X152514Y143819D01*
X152445Y143749D01*
X152379Y143676D01*
X152316Y143601D01*
X152256Y143523D01*
X152199Y143443D01*
X152146Y143361D01*
X152096Y143276D01*
X152049Y143190D01*
X152005Y143102D01*
X151966Y143012D01*
X151929Y142921D01*
X151897Y142828D01*
X151868Y142734D01*
X151843Y142640D01*
X151822Y142544D01*
X151804Y142447D01*
X151791Y142350D01*
X151781Y142252D01*
X151775Y142154D01*
X151773Y142056D01*
X151772Y142056D02*
X151772Y138104D01*
X151773Y138104D02*
X151775Y138006D01*
X151781Y137908D01*
X151791Y137810D01*
X151804Y137713D01*
X151822Y137616D01*
X151843Y137520D01*
X151868Y137426D01*
X151897Y137332D01*
X151929Y137239D01*
X151966Y137148D01*
X152005Y137058D01*
X152049Y136970D01*
X152096Y136884D01*
X152146Y136799D01*
X152199Y136717D01*
X152256Y136637D01*
X152316Y136559D01*
X152379Y136484D01*
X152445Y136411D01*
X152514Y136341D01*
X152585Y136274D01*
X152659Y136209D01*
X152736Y136148D01*
X152815Y136089D01*
X152896Y136034D01*
X152979Y135982D01*
X153065Y135934D01*
X153152Y135889D01*
X153241Y135847D01*
X153331Y135809D01*
X153423Y135775D01*
X153516Y135744D01*
X153611Y135717D01*
X153706Y135694D01*
X153803Y135674D01*
X153899Y135659D01*
X153997Y135647D01*
X154095Y135639D01*
X154193Y135635D01*
X154291Y135635D01*
X154389Y135639D01*
X154487Y135647D01*
X154585Y135659D01*
X154681Y135674D01*
X154778Y135694D01*
X154873Y135717D01*
X154968Y135744D01*
X155061Y135775D01*
X155153Y135809D01*
X155243Y135847D01*
X155332Y135889D01*
X155419Y135934D01*
X155505Y135982D01*
X155588Y136034D01*
X155669Y136089D01*
X155748Y136148D01*
X155825Y136209D01*
X155899Y136274D01*
X155970Y136341D01*
X156039Y136411D01*
X156105Y136484D01*
X156168Y136559D01*
X156228Y136637D01*
X156285Y136717D01*
X156338Y136799D01*
X156388Y136884D01*
X156435Y136970D01*
X156479Y137058D01*
X156518Y137148D01*
X156555Y137239D01*
X156587Y137332D01*
X156616Y137426D01*
X156641Y137520D01*
X156662Y137616D01*
X156680Y137713D01*
X156693Y137810D01*
X156703Y137908D01*
X156709Y138006D01*
X156711Y138104D01*
X147262Y135635D02*
X147262Y144525D01*
X142323Y135635D01*
X142323Y144525D01*
X135155Y135635D02*
X135069Y135637D01*
X134983Y135643D01*
X134897Y135652D01*
X134812Y135665D01*
X134727Y135682D01*
X134644Y135702D01*
X134561Y135726D01*
X134479Y135754D01*
X134399Y135785D01*
X134320Y135820D01*
X134243Y135858D01*
X134167Y135900D01*
X134093Y135944D01*
X134022Y135992D01*
X133952Y136043D01*
X133885Y136097D01*
X133820Y136154D01*
X133758Y136214D01*
X133698Y136276D01*
X133641Y136341D01*
X133587Y136408D01*
X133536Y136478D01*
X133488Y136549D01*
X133444Y136623D01*
X133402Y136699D01*
X133364Y136776D01*
X133329Y136855D01*
X133298Y136935D01*
X133270Y137017D01*
X133246Y137100D01*
X133226Y137183D01*
X133209Y137268D01*
X133196Y137353D01*
X133187Y137439D01*
X133181Y137525D01*
X133179Y137611D01*
X135155Y135635D02*
X135282Y135637D01*
X135408Y135643D01*
X135535Y135652D01*
X135661Y135666D01*
X135786Y135683D01*
X135911Y135704D01*
X136035Y135729D01*
X136159Y135758D01*
X136281Y135790D01*
X136403Y135826D01*
X136523Y135866D01*
X136642Y135909D01*
X136760Y135956D01*
X136876Y136007D01*
X136991Y136061D01*
X137104Y136118D01*
X137215Y136179D01*
X137324Y136243D01*
X137431Y136311D01*
X137537Y136381D01*
X137640Y136455D01*
X137740Y136532D01*
X137838Y136612D01*
X137934Y136695D01*
X138028Y136781D01*
X138118Y136870D01*
X137872Y142549D02*
X137870Y142635D01*
X137864Y142721D01*
X137855Y142807D01*
X137842Y142892D01*
X137825Y142977D01*
X137805Y143060D01*
X137781Y143143D01*
X137753Y143225D01*
X137722Y143305D01*
X137687Y143384D01*
X137649Y143461D01*
X137607Y143537D01*
X137563Y143611D01*
X137515Y143682D01*
X137464Y143752D01*
X137410Y143819D01*
X137353Y143884D01*
X137293Y143946D01*
X137231Y144006D01*
X137166Y144063D01*
X137099Y144117D01*
X137029Y144168D01*
X136958Y144216D01*
X136884Y144260D01*
X136808Y144302D01*
X136731Y144340D01*
X136652Y144375D01*
X136572Y144406D01*
X136490Y144434D01*
X136407Y144458D01*
X136324Y144478D01*
X136239Y144495D01*
X136154Y144508D01*
X136068Y144517D01*
X135982Y144523D01*
X135896Y144525D01*
X135777Y144523D01*
X135658Y144517D01*
X135539Y144508D01*
X135421Y144494D01*
X135303Y144477D01*
X135185Y144456D01*
X135069Y144431D01*
X134953Y144403D01*
X134838Y144371D01*
X134725Y144335D01*
X134612Y144295D01*
X134501Y144252D01*
X134391Y144206D01*
X134283Y144156D01*
X134177Y144102D01*
X134072Y144045D01*
X133970Y143985D01*
X133869Y143921D01*
X133770Y143854D01*
X133674Y143784D01*
X136883Y140821D02*
X136957Y140866D01*
X137029Y140915D01*
X137099Y140967D01*
X137166Y141022D01*
X137231Y141080D01*
X137293Y141140D01*
X137353Y141203D01*
X137409Y141269D01*
X137463Y141337D01*
X137514Y141407D01*
X137562Y141479D01*
X137607Y141554D01*
X137648Y141630D01*
X137686Y141708D01*
X137721Y141788D01*
X137752Y141869D01*
X137780Y141951D01*
X137804Y142034D01*
X137824Y142118D01*
X137841Y142204D01*
X137854Y142289D01*
X137863Y142376D01*
X137869Y142462D01*
X137871Y142549D01*
X134168Y139339D02*
X134094Y139294D01*
X134022Y139245D01*
X133952Y139193D01*
X133885Y139138D01*
X133820Y139080D01*
X133758Y139020D01*
X133699Y138957D01*
X133642Y138891D01*
X133588Y138823D01*
X133537Y138753D01*
X133489Y138681D01*
X133444Y138606D01*
X133403Y138530D01*
X133365Y138452D01*
X133330Y138372D01*
X133299Y138291D01*
X133271Y138209D01*
X133247Y138126D01*
X133227Y138042D01*
X133210Y137956D01*
X133197Y137871D01*
X133188Y137784D01*
X133182Y137698D01*
X133180Y137611D01*
X134167Y139339D02*
X136884Y140821D01*
X129279Y142056D02*
X129279Y138104D01*
X129279Y142056D02*
X129277Y142154D01*
X129271Y142252D01*
X129261Y142350D01*
X129248Y142447D01*
X129230Y142544D01*
X129209Y142640D01*
X129184Y142734D01*
X129155Y142828D01*
X129123Y142921D01*
X129086Y143012D01*
X129047Y143102D01*
X129003Y143190D01*
X128956Y143276D01*
X128906Y143361D01*
X128853Y143443D01*
X128796Y143523D01*
X128736Y143601D01*
X128673Y143676D01*
X128607Y143749D01*
X128538Y143819D01*
X128467Y143886D01*
X128393Y143951D01*
X128316Y144012D01*
X128237Y144071D01*
X128156Y144126D01*
X128073Y144178D01*
X127987Y144226D01*
X127900Y144271D01*
X127811Y144313D01*
X127721Y144351D01*
X127629Y144385D01*
X127536Y144416D01*
X127441Y144443D01*
X127346Y144466D01*
X127249Y144486D01*
X127153Y144501D01*
X127055Y144513D01*
X126957Y144521D01*
X126859Y144525D01*
X126761Y144525D01*
X126663Y144521D01*
X126565Y144513D01*
X126467Y144501D01*
X126371Y144486D01*
X126274Y144466D01*
X126179Y144443D01*
X126084Y144416D01*
X125991Y144385D01*
X125899Y144351D01*
X125809Y144313D01*
X125720Y144271D01*
X125633Y144226D01*
X125547Y144178D01*
X125464Y144126D01*
X125383Y144071D01*
X125304Y144012D01*
X125227Y143951D01*
X125153Y143886D01*
X125082Y143819D01*
X125013Y143749D01*
X124947Y143676D01*
X124884Y143601D01*
X124824Y143523D01*
X124767Y143443D01*
X124714Y143361D01*
X124664Y143276D01*
X124617Y143190D01*
X124573Y143102D01*
X124534Y143012D01*
X124497Y142921D01*
X124465Y142828D01*
X124436Y142734D01*
X124411Y142640D01*
X124390Y142544D01*
X124372Y142447D01*
X124359Y142350D01*
X124349Y142252D01*
X124343Y142154D01*
X124341Y142056D01*
X124340Y142056D02*
X124340Y138104D01*
X124341Y138104D02*
X124343Y138006D01*
X124349Y137908D01*
X124359Y137810D01*
X124372Y137713D01*
X124390Y137616D01*
X124411Y137520D01*
X124436Y137426D01*
X124465Y137332D01*
X124497Y137239D01*
X124534Y137148D01*
X124573Y137058D01*
X124617Y136970D01*
X124664Y136884D01*
X124714Y136799D01*
X124767Y136717D01*
X124824Y136637D01*
X124884Y136559D01*
X124947Y136484D01*
X125013Y136411D01*
X125082Y136341D01*
X125153Y136274D01*
X125227Y136209D01*
X125304Y136148D01*
X125383Y136089D01*
X125464Y136034D01*
X125547Y135982D01*
X125633Y135934D01*
X125720Y135889D01*
X125809Y135847D01*
X125899Y135809D01*
X125991Y135775D01*
X126084Y135744D01*
X126179Y135717D01*
X126274Y135694D01*
X126371Y135674D01*
X126467Y135659D01*
X126565Y135647D01*
X126663Y135639D01*
X126761Y135635D01*
X126859Y135635D01*
X126957Y135639D01*
X127055Y135647D01*
X127153Y135659D01*
X127249Y135674D01*
X127346Y135694D01*
X127441Y135717D01*
X127536Y135744D01*
X127629Y135775D01*
X127721Y135809D01*
X127811Y135847D01*
X127900Y135889D01*
X127987Y135934D01*
X128073Y135982D01*
X128156Y136034D01*
X128237Y136089D01*
X128316Y136148D01*
X128393Y136209D01*
X128467Y136274D01*
X128538Y136341D01*
X128607Y136411D01*
X128673Y136484D01*
X128736Y136559D01*
X128796Y136637D01*
X128853Y136717D01*
X128906Y136799D01*
X128956Y136884D01*
X129003Y136970D01*
X129047Y137058D01*
X129086Y137148D01*
X129123Y137239D01*
X129155Y137332D01*
X129184Y137426D01*
X129209Y137520D01*
X129230Y137616D01*
X129248Y137713D01*
X129261Y137810D01*
X129271Y137908D01*
X129277Y138006D01*
X129279Y138104D01*
X119807Y135635D02*
X119807Y144525D01*
X119807Y135635D02*
X115856Y135635D01*
X111882Y135635D02*
X107931Y135635D01*
X111882Y135635D02*
X111882Y144525D01*
X107931Y144525D01*
X108919Y140574D02*
X111882Y140574D01*
X101627Y135635D02*
X101541Y135637D01*
X101455Y135643D01*
X101369Y135652D01*
X101284Y135665D01*
X101199Y135682D01*
X101116Y135702D01*
X101033Y135726D01*
X100951Y135754D01*
X100871Y135785D01*
X100792Y135820D01*
X100715Y135858D01*
X100639Y135900D01*
X100565Y135944D01*
X100494Y135992D01*
X100424Y136043D01*
X100357Y136097D01*
X100292Y136154D01*
X100230Y136214D01*
X100170Y136276D01*
X100113Y136341D01*
X100059Y136408D01*
X100008Y136478D01*
X99960Y136549D01*
X99916Y136623D01*
X99874Y136699D01*
X99836Y136776D01*
X99801Y136855D01*
X99770Y136935D01*
X99742Y137017D01*
X99718Y137100D01*
X99698Y137183D01*
X99681Y137268D01*
X99668Y137353D01*
X99659Y137439D01*
X99653Y137525D01*
X99651Y137611D01*
X101627Y135635D02*
X101754Y135637D01*
X101880Y135643D01*
X102007Y135652D01*
X102133Y135666D01*
X102258Y135683D01*
X102383Y135704D01*
X102507Y135729D01*
X102631Y135758D01*
X102753Y135790D01*
X102875Y135826D01*
X102995Y135866D01*
X103114Y135909D01*
X103232Y135956D01*
X103348Y136007D01*
X103463Y136061D01*
X103576Y136118D01*
X103687Y136179D01*
X103796Y136243D01*
X103903Y136311D01*
X104009Y136381D01*
X104112Y136455D01*
X104212Y136532D01*
X104310Y136612D01*
X104406Y136695D01*
X104500Y136781D01*
X104590Y136870D01*
X104344Y142549D02*
X104342Y142635D01*
X104336Y142721D01*
X104327Y142807D01*
X104314Y142892D01*
X104297Y142977D01*
X104277Y143060D01*
X104253Y143143D01*
X104225Y143225D01*
X104194Y143305D01*
X104159Y143384D01*
X104121Y143461D01*
X104079Y143537D01*
X104035Y143611D01*
X103987Y143682D01*
X103936Y143752D01*
X103882Y143819D01*
X103825Y143884D01*
X103765Y143946D01*
X103703Y144006D01*
X103638Y144063D01*
X103571Y144117D01*
X103501Y144168D01*
X103430Y144216D01*
X103356Y144260D01*
X103280Y144302D01*
X103203Y144340D01*
X103124Y144375D01*
X103044Y144406D01*
X102962Y144434D01*
X102879Y144458D01*
X102796Y144478D01*
X102711Y144495D01*
X102626Y144508D01*
X102540Y144517D01*
X102454Y144523D01*
X102368Y144525D01*
X102249Y144523D01*
X102130Y144517D01*
X102011Y144508D01*
X101893Y144494D01*
X101775Y144477D01*
X101657Y144456D01*
X101541Y144431D01*
X101425Y144403D01*
X101310Y144371D01*
X101197Y144335D01*
X101084Y144295D01*
X100973Y144252D01*
X100863Y144206D01*
X100755Y144156D01*
X100649Y144102D01*
X100544Y144045D01*
X100442Y143985D01*
X100341Y143921D01*
X100242Y143854D01*
X100146Y143784D01*
X103355Y140821D02*
X103429Y140866D01*
X103501Y140915D01*
X103571Y140967D01*
X103638Y141022D01*
X103703Y141080D01*
X103765Y141140D01*
X103825Y141203D01*
X103881Y141269D01*
X103935Y141337D01*
X103986Y141407D01*
X104034Y141479D01*
X104079Y141554D01*
X104120Y141630D01*
X104158Y141708D01*
X104193Y141788D01*
X104224Y141869D01*
X104252Y141951D01*
X104276Y142034D01*
X104296Y142118D01*
X104313Y142204D01*
X104326Y142289D01*
X104335Y142376D01*
X104341Y142462D01*
X104343Y142549D01*
X100640Y139339D02*
X100566Y139294D01*
X100494Y139245D01*
X100424Y139193D01*
X100357Y139138D01*
X100292Y139080D01*
X100230Y139020D01*
X100171Y138957D01*
X100114Y138891D01*
X100060Y138823D01*
X100009Y138753D01*
X99961Y138681D01*
X99916Y138606D01*
X99875Y138530D01*
X99837Y138452D01*
X99802Y138372D01*
X99771Y138291D01*
X99743Y138209D01*
X99719Y138126D01*
X99699Y138042D01*
X99682Y137956D01*
X99669Y137871D01*
X99660Y137784D01*
X99654Y137698D01*
X99652Y137611D01*
X100639Y139339D02*
X103356Y140821D01*
X90570Y138104D02*
X90570Y144525D01*
X90569Y138104D02*
X90567Y138006D01*
X90561Y137908D01*
X90551Y137810D01*
X90538Y137713D01*
X90520Y137616D01*
X90499Y137520D01*
X90474Y137426D01*
X90445Y137332D01*
X90413Y137239D01*
X90376Y137148D01*
X90337Y137058D01*
X90293Y136970D01*
X90246Y136884D01*
X90196Y136799D01*
X90143Y136717D01*
X90086Y136637D01*
X90026Y136559D01*
X89963Y136484D01*
X89897Y136411D01*
X89828Y136341D01*
X89757Y136274D01*
X89683Y136209D01*
X89606Y136148D01*
X89527Y136089D01*
X89446Y136034D01*
X89363Y135982D01*
X89277Y135934D01*
X89190Y135889D01*
X89101Y135847D01*
X89011Y135809D01*
X88919Y135775D01*
X88826Y135744D01*
X88731Y135717D01*
X88636Y135694D01*
X88539Y135674D01*
X88443Y135659D01*
X88345Y135647D01*
X88247Y135639D01*
X88149Y135635D01*
X88051Y135635D01*
X87953Y135639D01*
X87855Y135647D01*
X87757Y135659D01*
X87661Y135674D01*
X87564Y135694D01*
X87469Y135717D01*
X87374Y135744D01*
X87281Y135775D01*
X87189Y135809D01*
X87099Y135847D01*
X87010Y135889D01*
X86923Y135934D01*
X86837Y135982D01*
X86754Y136034D01*
X86673Y136089D01*
X86594Y136148D01*
X86517Y136209D01*
X86443Y136274D01*
X86372Y136341D01*
X86303Y136411D01*
X86237Y136484D01*
X86174Y136559D01*
X86114Y136637D01*
X86057Y136717D01*
X86004Y136799D01*
X85954Y136884D01*
X85907Y136970D01*
X85863Y137058D01*
X85824Y137148D01*
X85787Y137239D01*
X85755Y137332D01*
X85726Y137426D01*
X85701Y137520D01*
X85680Y137616D01*
X85662Y137713D01*
X85649Y137810D01*
X85639Y137908D01*
X85633Y138006D01*
X85631Y138104D01*
X85631Y144525D01*
X80816Y144525D02*
X80816Y135635D01*
X75877Y135635D02*
X80816Y144525D01*
X75877Y144525D02*
X75877Y135635D01*
X71039Y135635D02*
X71039Y144525D01*
X71039Y135635D02*
X67088Y135635D01*
X63115Y135635D02*
X59164Y135635D01*
X63115Y135635D02*
X63115Y144525D01*
X59164Y144525D01*
X60151Y140574D02*
X63115Y140574D01*
X56012Y135635D02*
X53048Y144525D01*
X50085Y135635D01*
X50826Y137858D02*
X55271Y137858D01*
X43715Y135635D02*
X43629Y135637D01*
X43543Y135643D01*
X43457Y135652D01*
X43372Y135665D01*
X43287Y135682D01*
X43204Y135702D01*
X43121Y135726D01*
X43039Y135754D01*
X42959Y135785D01*
X42880Y135820D01*
X42803Y135858D01*
X42727Y135900D01*
X42653Y135944D01*
X42582Y135992D01*
X42512Y136043D01*
X42445Y136097D01*
X42380Y136154D01*
X42318Y136214D01*
X42258Y136276D01*
X42201Y136341D01*
X42147Y136408D01*
X42096Y136478D01*
X42048Y136549D01*
X42004Y136623D01*
X41962Y136699D01*
X41924Y136776D01*
X41889Y136855D01*
X41858Y136935D01*
X41830Y137017D01*
X41806Y137100D01*
X41786Y137183D01*
X41769Y137268D01*
X41756Y137353D01*
X41747Y137439D01*
X41741Y137525D01*
X41739Y137611D01*
X43715Y135635D02*
X43842Y135637D01*
X43968Y135643D01*
X44095Y135652D01*
X44221Y135666D01*
X44346Y135683D01*
X44471Y135704D01*
X44595Y135729D01*
X44719Y135758D01*
X44841Y135790D01*
X44963Y135826D01*
X45083Y135866D01*
X45202Y135909D01*
X45320Y135956D01*
X45436Y136007D01*
X45551Y136061D01*
X45664Y136118D01*
X45775Y136179D01*
X45884Y136243D01*
X45991Y136311D01*
X46097Y136381D01*
X46200Y136455D01*
X46300Y136532D01*
X46398Y136612D01*
X46494Y136695D01*
X46588Y136781D01*
X46678Y136870D01*
X46432Y142549D02*
X46430Y142635D01*
X46424Y142721D01*
X46415Y142807D01*
X46402Y142892D01*
X46385Y142977D01*
X46365Y143060D01*
X46341Y143143D01*
X46313Y143225D01*
X46282Y143305D01*
X46247Y143384D01*
X46209Y143461D01*
X46167Y143537D01*
X46123Y143611D01*
X46075Y143682D01*
X46024Y143752D01*
X45970Y143819D01*
X45913Y143884D01*
X45853Y143946D01*
X45791Y144006D01*
X45726Y144063D01*
X45659Y144117D01*
X45589Y144168D01*
X45518Y144216D01*
X45444Y144260D01*
X45368Y144302D01*
X45291Y144340D01*
X45212Y144375D01*
X45132Y144406D01*
X45050Y144434D01*
X44967Y144458D01*
X44884Y144478D01*
X44799Y144495D01*
X44714Y144508D01*
X44628Y144517D01*
X44542Y144523D01*
X44456Y144525D01*
X44337Y144523D01*
X44218Y144517D01*
X44099Y144508D01*
X43981Y144494D01*
X43863Y144477D01*
X43745Y144456D01*
X43629Y144431D01*
X43513Y144403D01*
X43398Y144371D01*
X43285Y144335D01*
X43172Y144295D01*
X43061Y144252D01*
X42951Y144206D01*
X42843Y144156D01*
X42737Y144102D01*
X42632Y144045D01*
X42530Y143985D01*
X42429Y143921D01*
X42330Y143854D01*
X42234Y143784D01*
X45443Y140821D02*
X45517Y140866D01*
X45589Y140915D01*
X45659Y140967D01*
X45726Y141022D01*
X45791Y141080D01*
X45853Y141140D01*
X45913Y141203D01*
X45969Y141269D01*
X46023Y141337D01*
X46074Y141407D01*
X46122Y141479D01*
X46167Y141554D01*
X46208Y141630D01*
X46246Y141708D01*
X46281Y141788D01*
X46312Y141869D01*
X46340Y141951D01*
X46364Y142034D01*
X46384Y142118D01*
X46401Y142204D01*
X46414Y142289D01*
X46423Y142376D01*
X46429Y142462D01*
X46431Y142549D01*
X42728Y139339D02*
X42654Y139294D01*
X42582Y139245D01*
X42512Y139193D01*
X42445Y139138D01*
X42380Y139080D01*
X42318Y139020D01*
X42259Y138957D01*
X42202Y138891D01*
X42148Y138823D01*
X42097Y138753D01*
X42049Y138681D01*
X42004Y138606D01*
X41963Y138530D01*
X41925Y138452D01*
X41890Y138372D01*
X41859Y138291D01*
X41831Y138209D01*
X41807Y138126D01*
X41787Y138042D01*
X41770Y137956D01*
X41757Y137871D01*
X41748Y137784D01*
X41742Y137698D01*
X41740Y137611D01*
X42728Y139339D02*
X45444Y140821D01*
X37535Y144525D02*
X37535Y135635D01*
X37535Y140574D02*
X32596Y140574D01*
X32596Y144525D02*
X32596Y135635D01*
X27758Y135635D02*
X23807Y135635D01*
X27758Y135635D02*
X27758Y144525D01*
X23807Y144525D01*
X24795Y140574D02*
X27758Y140574D01*
X19856Y144525D02*
X19856Y135635D01*
X19856Y144525D02*
X17387Y144525D01*
X17290Y144523D01*
X17193Y144517D01*
X17097Y144508D01*
X17001Y144495D01*
X16905Y144478D01*
X16811Y144457D01*
X16717Y144432D01*
X16624Y144404D01*
X16532Y144372D01*
X16442Y144337D01*
X16353Y144298D01*
X16266Y144256D01*
X16181Y144210D01*
X16097Y144161D01*
X16015Y144109D01*
X15936Y144053D01*
X15858Y143995D01*
X15784Y143933D01*
X15711Y143869D01*
X15641Y143802D01*
X15574Y143732D01*
X15510Y143659D01*
X15448Y143585D01*
X15390Y143507D01*
X15334Y143428D01*
X15282Y143346D01*
X15233Y143262D01*
X15187Y143177D01*
X15145Y143090D01*
X15106Y143001D01*
X15071Y142911D01*
X15039Y142819D01*
X15011Y142726D01*
X14986Y142632D01*
X14965Y142538D01*
X14948Y142442D01*
X14935Y142346D01*
X14926Y142250D01*
X14920Y142153D01*
X14918Y142056D01*
X14917Y142056D02*
X14917Y138104D01*
X14918Y138104D02*
X14920Y138007D01*
X14926Y137910D01*
X14935Y137814D01*
X14948Y137718D01*
X14965Y137622D01*
X14986Y137528D01*
X15011Y137434D01*
X15039Y137341D01*
X15071Y137249D01*
X15106Y137159D01*
X15145Y137070D01*
X15187Y136983D01*
X15233Y136898D01*
X15282Y136814D01*
X15334Y136732D01*
X15390Y136653D01*
X15448Y136575D01*
X15510Y136501D01*
X15574Y136428D01*
X15641Y136358D01*
X15711Y136291D01*
X15784Y136227D01*
X15858Y136165D01*
X15936Y136107D01*
X16015Y136051D01*
X16097Y135999D01*
X16181Y135950D01*
X16266Y135904D01*
X16353Y135862D01*
X16442Y135823D01*
X16532Y135788D01*
X16624Y135756D01*
X16717Y135728D01*
X16811Y135703D01*
X16905Y135682D01*
X17001Y135665D01*
X17097Y135652D01*
X17193Y135643D01*
X17290Y135637D01*
X17387Y135635D01*
X19856Y135635D01*
X160414Y85105D02*
X162389Y85105D01*
X162475Y85107D01*
X162561Y85113D01*
X162647Y85122D01*
X162732Y85135D01*
X162817Y85152D01*
X162900Y85172D01*
X162983Y85196D01*
X163065Y85224D01*
X163145Y85255D01*
X163224Y85290D01*
X163301Y85328D01*
X163377Y85370D01*
X163451Y85414D01*
X163522Y85462D01*
X163592Y85513D01*
X163659Y85567D01*
X163724Y85624D01*
X163786Y85684D01*
X163846Y85746D01*
X163903Y85811D01*
X163957Y85878D01*
X164008Y85948D01*
X164056Y86019D01*
X164100Y86093D01*
X164142Y86169D01*
X164180Y86246D01*
X164215Y86325D01*
X164246Y86405D01*
X164274Y86487D01*
X164298Y86570D01*
X164318Y86653D01*
X164335Y86738D01*
X164348Y86823D01*
X164357Y86909D01*
X164363Y86995D01*
X164365Y87081D01*
X164365Y92019D01*
X164363Y92108D01*
X164357Y92196D01*
X164347Y92284D01*
X164333Y92372D01*
X164315Y92459D01*
X164294Y92545D01*
X164268Y92630D01*
X164239Y92713D01*
X164206Y92796D01*
X164169Y92876D01*
X164129Y92955D01*
X164085Y93032D01*
X164038Y93108D01*
X163988Y93180D01*
X163934Y93251D01*
X163877Y93319D01*
X163817Y93385D01*
X163755Y93447D01*
X163689Y93507D01*
X163621Y93564D01*
X163550Y93618D01*
X163478Y93668D01*
X163403Y93715D01*
X163325Y93759D01*
X163246Y93799D01*
X163166Y93836D01*
X163083Y93869D01*
X163000Y93898D01*
X162915Y93924D01*
X162829Y93945D01*
X162742Y93963D01*
X162654Y93977D01*
X162566Y93987D01*
X162478Y93993D01*
X162389Y93995D01*
X160414Y93995D01*
X156711Y92019D02*
X154242Y93995D01*
X154242Y85105D01*
X156711Y85105D02*
X151772Y85105D01*
X147451Y87081D02*
X141525Y87081D01*
X141525Y90044D02*
X147451Y90044D01*
X137204Y89550D02*
X137202Y89725D01*
X137196Y89900D01*
X137185Y90074D01*
X137171Y90249D01*
X137152Y90422D01*
X137129Y90596D01*
X137102Y90769D01*
X137071Y90941D01*
X137036Y91112D01*
X136996Y91282D01*
X136953Y91452D01*
X136905Y91620D01*
X136854Y91787D01*
X136799Y91953D01*
X136739Y92118D01*
X136676Y92281D01*
X136609Y92442D01*
X136538Y92602D01*
X136463Y92760D01*
X136462Y92761D02*
X136433Y92839D01*
X136401Y92917D01*
X136364Y92992D01*
X136325Y93066D01*
X136282Y93138D01*
X136236Y93209D01*
X136186Y93276D01*
X136134Y93342D01*
X136079Y93405D01*
X136020Y93465D01*
X135959Y93523D01*
X135896Y93578D01*
X135830Y93630D01*
X135761Y93679D01*
X135691Y93724D01*
X135619Y93767D01*
X135544Y93806D01*
X135468Y93841D01*
X135391Y93873D01*
X135312Y93901D01*
X135231Y93926D01*
X135150Y93947D01*
X135068Y93964D01*
X134985Y93978D01*
X134902Y93987D01*
X134818Y93993D01*
X134734Y93995D01*
X134650Y93993D01*
X134566Y93987D01*
X134483Y93978D01*
X134400Y93964D01*
X134318Y93947D01*
X134237Y93926D01*
X134156Y93901D01*
X134077Y93873D01*
X134000Y93841D01*
X133924Y93806D01*
X133849Y93767D01*
X133777Y93724D01*
X133706Y93679D01*
X133638Y93630D01*
X133572Y93578D01*
X133509Y93523D01*
X133448Y93465D01*
X133389Y93405D01*
X133334Y93342D01*
X133282Y93276D01*
X133232Y93209D01*
X133186Y93138D01*
X133143Y93066D01*
X133104Y92992D01*
X133067Y92917D01*
X133035Y92839D01*
X133006Y92761D01*
X133006Y92760D02*
X132931Y92602D01*
X132860Y92442D01*
X132793Y92281D01*
X132730Y92118D01*
X132670Y91953D01*
X132615Y91787D01*
X132564Y91620D01*
X132516Y91452D01*
X132473Y91282D01*
X132433Y91112D01*
X132398Y90941D01*
X132367Y90769D01*
X132340Y90596D01*
X132317Y90422D01*
X132298Y90249D01*
X132284Y90074D01*
X132273Y89900D01*
X132267Y89725D01*
X132265Y89550D01*
X137204Y89550D02*
X137202Y89375D01*
X137196Y89200D01*
X137185Y89026D01*
X137171Y88851D01*
X137152Y88678D01*
X137129Y88504D01*
X137102Y88331D01*
X137071Y88159D01*
X137036Y87988D01*
X136996Y87818D01*
X136953Y87648D01*
X136905Y87480D01*
X136854Y87313D01*
X136799Y87147D01*
X136739Y86982D01*
X136676Y86819D01*
X136609Y86658D01*
X136538Y86498D01*
X136463Y86340D01*
X136462Y86339D02*
X136433Y86261D01*
X136401Y86183D01*
X136364Y86108D01*
X136325Y86034D01*
X136282Y85961D01*
X136236Y85891D01*
X136186Y85824D01*
X136134Y85758D01*
X136078Y85695D01*
X136020Y85635D01*
X135959Y85577D01*
X135896Y85522D01*
X135830Y85470D01*
X135761Y85421D01*
X135691Y85376D01*
X135619Y85333D01*
X135544Y85294D01*
X135468Y85259D01*
X135391Y85227D01*
X135312Y85199D01*
X135231Y85174D01*
X135150Y85153D01*
X135068Y85136D01*
X134985Y85122D01*
X134902Y85113D01*
X134818Y85107D01*
X134734Y85105D01*
X133006Y86340D02*
X132931Y86498D01*
X132860Y86658D01*
X132793Y86819D01*
X132730Y86982D01*
X132670Y87147D01*
X132615Y87313D01*
X132564Y87480D01*
X132516Y87648D01*
X132473Y87818D01*
X132433Y87988D01*
X132398Y88159D01*
X132367Y88331D01*
X132340Y88504D01*
X132317Y88678D01*
X132298Y88851D01*
X132284Y89026D01*
X132273Y89200D01*
X132267Y89375D01*
X132265Y89550D01*
X133006Y86339D02*
X133035Y86261D01*
X133067Y86183D01*
X133104Y86108D01*
X133143Y86034D01*
X133186Y85961D01*
X133232Y85891D01*
X133282Y85824D01*
X133334Y85758D01*
X133390Y85695D01*
X133448Y85635D01*
X133509Y85577D01*
X133572Y85522D01*
X133638Y85470D01*
X133707Y85421D01*
X133777Y85376D01*
X133849Y85333D01*
X133924Y85294D01*
X134000Y85259D01*
X134077Y85227D01*
X134156Y85199D01*
X134237Y85174D01*
X134318Y85153D01*
X134400Y85136D01*
X134483Y85122D01*
X134566Y85113D01*
X134650Y85107D01*
X134734Y85105D01*
X136710Y87081D02*
X132759Y92019D01*
X128581Y85599D02*
X128581Y85105D01*
X128581Y85599D02*
X128087Y85599D01*
X128087Y85105D01*
X128581Y85105D01*
X124402Y92019D02*
X121933Y93995D01*
X121933Y85105D01*
X124402Y85105D02*
X119463Y85105D01*
X114954Y87574D02*
X114954Y93995D01*
X114953Y87574D02*
X114951Y87476D01*
X114945Y87378D01*
X114935Y87280D01*
X114922Y87183D01*
X114904Y87086D01*
X114883Y86990D01*
X114858Y86896D01*
X114829Y86802D01*
X114797Y86709D01*
X114760Y86618D01*
X114721Y86528D01*
X114677Y86440D01*
X114630Y86354D01*
X114580Y86269D01*
X114527Y86187D01*
X114470Y86107D01*
X114410Y86029D01*
X114347Y85954D01*
X114281Y85881D01*
X114212Y85811D01*
X114141Y85744D01*
X114067Y85679D01*
X113990Y85618D01*
X113911Y85559D01*
X113830Y85504D01*
X113747Y85452D01*
X113661Y85404D01*
X113574Y85359D01*
X113485Y85317D01*
X113395Y85279D01*
X113303Y85245D01*
X113210Y85214D01*
X113115Y85187D01*
X113020Y85164D01*
X112923Y85144D01*
X112827Y85129D01*
X112729Y85117D01*
X112631Y85109D01*
X112533Y85105D01*
X112435Y85105D01*
X112337Y85109D01*
X112239Y85117D01*
X112141Y85129D01*
X112045Y85144D01*
X111948Y85164D01*
X111853Y85187D01*
X111758Y85214D01*
X111665Y85245D01*
X111573Y85279D01*
X111483Y85317D01*
X111394Y85359D01*
X111307Y85404D01*
X111221Y85452D01*
X111138Y85504D01*
X111057Y85559D01*
X110978Y85618D01*
X110901Y85679D01*
X110827Y85744D01*
X110756Y85811D01*
X110687Y85881D01*
X110621Y85954D01*
X110558Y86029D01*
X110498Y86107D01*
X110441Y86187D01*
X110388Y86269D01*
X110338Y86354D01*
X110291Y86440D01*
X110247Y86528D01*
X110208Y86618D01*
X110171Y86709D01*
X110139Y86802D01*
X110110Y86896D01*
X110085Y86990D01*
X110064Y87086D01*
X110046Y87183D01*
X110033Y87280D01*
X110023Y87378D01*
X110017Y87476D01*
X110015Y87574D01*
X110015Y93995D01*
X105177Y93995D02*
X105177Y85105D01*
X105177Y93995D02*
X101226Y93995D01*
X101226Y90044D02*
X105177Y90044D01*
X164365Y78755D02*
X164365Y69865D01*
X164365Y78755D02*
X161896Y78755D01*
X161798Y78753D01*
X161700Y78747D01*
X161602Y78737D01*
X161505Y78724D01*
X161408Y78706D01*
X161312Y78685D01*
X161218Y78660D01*
X161124Y78631D01*
X161031Y78599D01*
X160940Y78562D01*
X160850Y78523D01*
X160762Y78479D01*
X160676Y78432D01*
X160591Y78382D01*
X160509Y78329D01*
X160429Y78272D01*
X160351Y78212D01*
X160276Y78149D01*
X160203Y78083D01*
X160133Y78014D01*
X160066Y77943D01*
X160001Y77869D01*
X159940Y77792D01*
X159881Y77713D01*
X159826Y77632D01*
X159774Y77549D01*
X159726Y77463D01*
X159681Y77376D01*
X159639Y77287D01*
X159601Y77197D01*
X159567Y77105D01*
X159536Y77012D01*
X159509Y76917D01*
X159486Y76822D01*
X159466Y76725D01*
X159451Y76629D01*
X159439Y76531D01*
X159431Y76433D01*
X159427Y76335D01*
X159427Y76237D01*
X159431Y76139D01*
X159439Y76041D01*
X159451Y75943D01*
X159466Y75847D01*
X159486Y75750D01*
X159509Y75655D01*
X159536Y75560D01*
X159567Y75467D01*
X159601Y75375D01*
X159639Y75285D01*
X159681Y75196D01*
X159726Y75109D01*
X159774Y75023D01*
X159826Y74940D01*
X159881Y74859D01*
X159940Y74780D01*
X160001Y74703D01*
X160066Y74629D01*
X160133Y74558D01*
X160203Y74489D01*
X160276Y74423D01*
X160351Y74360D01*
X160429Y74300D01*
X160509Y74243D01*
X160591Y74190D01*
X160676Y74140D01*
X160762Y74093D01*
X160850Y74049D01*
X160940Y74010D01*
X161031Y73973D01*
X161124Y73941D01*
X161218Y73912D01*
X161312Y73887D01*
X161408Y73866D01*
X161505Y73848D01*
X161602Y73835D01*
X161700Y73825D01*
X161798Y73819D01*
X161896Y73817D01*
X161896Y73816D02*
X164365Y73816D01*
X161402Y73816D02*
X159426Y69865D01*
X155296Y76779D02*
X152827Y78755D01*
X152827Y69865D01*
X155296Y69865D02*
X150358Y69865D01*
X146037Y71841D02*
X140110Y71841D01*
X140110Y74804D02*
X146037Y74804D01*
X135789Y71841D02*
X133814Y78755D01*
X135789Y71841D02*
X130850Y71841D01*
X132332Y73816D02*
X132332Y69865D01*
X126645Y77767D02*
X126645Y78755D01*
X121706Y78755D01*
X124176Y69865D01*
X117023Y69865D02*
X117023Y78755D01*
X112084Y78755D02*
X117023Y73322D01*
X115047Y75298D02*
X112084Y69865D01*
X164365Y63515D02*
X164365Y54625D01*
X164365Y63515D02*
X161896Y63515D01*
X161798Y63513D01*
X161700Y63507D01*
X161602Y63497D01*
X161505Y63484D01*
X161408Y63466D01*
X161312Y63445D01*
X161218Y63420D01*
X161124Y63391D01*
X161031Y63359D01*
X160940Y63322D01*
X160850Y63283D01*
X160762Y63239D01*
X160676Y63192D01*
X160591Y63142D01*
X160509Y63089D01*
X160429Y63032D01*
X160351Y62972D01*
X160276Y62909D01*
X160203Y62843D01*
X160133Y62774D01*
X160066Y62703D01*
X160001Y62629D01*
X159940Y62552D01*
X159881Y62473D01*
X159826Y62392D01*
X159774Y62309D01*
X159726Y62223D01*
X159681Y62136D01*
X159639Y62047D01*
X159601Y61957D01*
X159567Y61865D01*
X159536Y61772D01*
X159509Y61677D01*
X159486Y61582D01*
X159466Y61485D01*
X159451Y61389D01*
X159439Y61291D01*
X159431Y61193D01*
X159427Y61095D01*
X159427Y60997D01*
X159431Y60899D01*
X159439Y60801D01*
X159451Y60703D01*
X159466Y60607D01*
X159486Y60510D01*
X159509Y60415D01*
X159536Y60320D01*
X159567Y60227D01*
X159601Y60135D01*
X159639Y60045D01*
X159681Y59956D01*
X159726Y59869D01*
X159774Y59783D01*
X159826Y59700D01*
X159881Y59619D01*
X159940Y59540D01*
X160001Y59463D01*
X160066Y59389D01*
X160133Y59318D01*
X160203Y59249D01*
X160276Y59183D01*
X160351Y59120D01*
X160429Y59060D01*
X160509Y59003D01*
X160591Y58950D01*
X160676Y58900D01*
X160762Y58853D01*
X160850Y58809D01*
X160940Y58770D01*
X161031Y58733D01*
X161124Y58701D01*
X161218Y58672D01*
X161312Y58647D01*
X161408Y58626D01*
X161505Y58608D01*
X161602Y58595D01*
X161700Y58585D01*
X161798Y58579D01*
X161896Y58577D01*
X161896Y58576D02*
X164365Y58576D01*
X161402Y58576D02*
X159426Y54625D01*
X152580Y63516D02*
X152488Y63514D01*
X152396Y63508D01*
X152305Y63499D01*
X152214Y63486D01*
X152124Y63469D01*
X152034Y63448D01*
X151946Y63424D01*
X151858Y63396D01*
X151772Y63364D01*
X151687Y63329D01*
X151604Y63290D01*
X151522Y63248D01*
X151442Y63203D01*
X151364Y63154D01*
X151288Y63102D01*
X151215Y63047D01*
X151143Y62989D01*
X151074Y62929D01*
X151008Y62865D01*
X150944Y62799D01*
X150884Y62730D01*
X150826Y62658D01*
X150771Y62585D01*
X150719Y62509D01*
X150670Y62431D01*
X150625Y62351D01*
X150583Y62269D01*
X150544Y62186D01*
X150509Y62101D01*
X150477Y62015D01*
X150449Y61927D01*
X150425Y61839D01*
X150404Y61749D01*
X150387Y61659D01*
X150374Y61568D01*
X150365Y61477D01*
X150359Y61385D01*
X150357Y61293D01*
X152580Y63515D02*
X152686Y63513D01*
X152791Y63507D01*
X152896Y63497D01*
X153001Y63484D01*
X153105Y63466D01*
X153208Y63445D01*
X153311Y63420D01*
X153413Y63391D01*
X153513Y63358D01*
X153612Y63322D01*
X153710Y63282D01*
X153806Y63238D01*
X153901Y63191D01*
X153993Y63141D01*
X154084Y63087D01*
X154173Y63029D01*
X154259Y62969D01*
X154343Y62905D01*
X154425Y62839D01*
X154505Y62769D01*
X154581Y62696D01*
X154655Y62621D01*
X154726Y62543D01*
X154794Y62462D01*
X154860Y62379D01*
X154922Y62293D01*
X154980Y62206D01*
X155036Y62116D01*
X155088Y62024D01*
X155137Y61930D01*
X155182Y61835D01*
X155224Y61738D01*
X155262Y61639D01*
X155296Y61540D01*
X151099Y59564D02*
X151030Y59633D01*
X150964Y59703D01*
X150901Y59777D01*
X150842Y59853D01*
X150785Y59931D01*
X150731Y60011D01*
X150681Y60094D01*
X150634Y60178D01*
X150591Y60265D01*
X150551Y60353D01*
X150515Y60442D01*
X150482Y60533D01*
X150453Y60625D01*
X150428Y60719D01*
X150407Y60813D01*
X150389Y60908D01*
X150376Y61004D01*
X150366Y61100D01*
X150360Y61196D01*
X150358Y61293D01*
X151098Y59564D02*
X155296Y54625D01*
X150358Y54625D01*
X146037Y56601D02*
X140110Y56601D01*
X140110Y59564D02*
X146037Y59564D01*
X135789Y61539D02*
X133320Y63515D01*
X133320Y54625D01*
X135789Y54625D02*
X130850Y54625D01*
X126645Y59070D02*
X126643Y59245D01*
X126637Y59420D01*
X126626Y59594D01*
X126612Y59769D01*
X126593Y59942D01*
X126570Y60116D01*
X126543Y60289D01*
X126512Y60461D01*
X126477Y60632D01*
X126437Y60802D01*
X126394Y60972D01*
X126346Y61140D01*
X126295Y61307D01*
X126240Y61473D01*
X126180Y61638D01*
X126117Y61801D01*
X126050Y61962D01*
X125979Y62122D01*
X125904Y62280D01*
X125904Y62281D02*
X125875Y62359D01*
X125843Y62437D01*
X125806Y62512D01*
X125767Y62586D01*
X125724Y62658D01*
X125678Y62729D01*
X125628Y62796D01*
X125576Y62862D01*
X125521Y62925D01*
X125462Y62985D01*
X125401Y63043D01*
X125338Y63098D01*
X125272Y63150D01*
X125203Y63199D01*
X125133Y63244D01*
X125061Y63287D01*
X124986Y63326D01*
X124910Y63361D01*
X124833Y63393D01*
X124754Y63421D01*
X124673Y63446D01*
X124592Y63467D01*
X124510Y63484D01*
X124427Y63498D01*
X124344Y63507D01*
X124260Y63513D01*
X124176Y63515D01*
X124092Y63513D01*
X124008Y63507D01*
X123925Y63498D01*
X123842Y63484D01*
X123760Y63467D01*
X123679Y63446D01*
X123598Y63421D01*
X123519Y63393D01*
X123442Y63361D01*
X123366Y63326D01*
X123291Y63287D01*
X123219Y63244D01*
X123148Y63199D01*
X123080Y63150D01*
X123014Y63098D01*
X122951Y63043D01*
X122890Y62985D01*
X122831Y62925D01*
X122776Y62862D01*
X122724Y62796D01*
X122674Y62729D01*
X122628Y62658D01*
X122585Y62586D01*
X122546Y62512D01*
X122509Y62437D01*
X122477Y62359D01*
X122448Y62281D01*
X122447Y62280D02*
X122372Y62122D01*
X122301Y61962D01*
X122234Y61801D01*
X122171Y61638D01*
X122111Y61473D01*
X122056Y61307D01*
X122005Y61140D01*
X121957Y60972D01*
X121914Y60802D01*
X121874Y60632D01*
X121839Y60461D01*
X121808Y60289D01*
X121781Y60116D01*
X121758Y59942D01*
X121739Y59769D01*
X121725Y59594D01*
X121714Y59420D01*
X121708Y59245D01*
X121706Y59070D01*
X126645Y59070D02*
X126643Y58895D01*
X126637Y58720D01*
X126626Y58546D01*
X126612Y58371D01*
X126593Y58198D01*
X126570Y58024D01*
X126543Y57851D01*
X126512Y57679D01*
X126477Y57508D01*
X126437Y57338D01*
X126394Y57168D01*
X126346Y57000D01*
X126295Y56833D01*
X126240Y56667D01*
X126180Y56502D01*
X126117Y56339D01*
X126050Y56178D01*
X125979Y56018D01*
X125904Y55860D01*
X125904Y55859D02*
X125875Y55781D01*
X125843Y55703D01*
X125806Y55628D01*
X125767Y55554D01*
X125724Y55481D01*
X125678Y55411D01*
X125628Y55344D01*
X125576Y55278D01*
X125520Y55215D01*
X125462Y55155D01*
X125401Y55097D01*
X125338Y55042D01*
X125272Y54990D01*
X125203Y54941D01*
X125133Y54896D01*
X125061Y54853D01*
X124986Y54814D01*
X124910Y54779D01*
X124833Y54747D01*
X124754Y54719D01*
X124673Y54694D01*
X124592Y54673D01*
X124510Y54656D01*
X124427Y54642D01*
X124344Y54633D01*
X124260Y54627D01*
X124176Y54625D01*
X122447Y55860D02*
X122372Y56018D01*
X122301Y56178D01*
X122234Y56339D01*
X122171Y56502D01*
X122111Y56667D01*
X122056Y56833D01*
X122005Y57000D01*
X121957Y57168D01*
X121914Y57338D01*
X121874Y57508D01*
X121839Y57679D01*
X121808Y57851D01*
X121781Y58024D01*
X121758Y58198D01*
X121739Y58371D01*
X121725Y58546D01*
X121714Y58720D01*
X121708Y58895D01*
X121706Y59070D01*
X122448Y55859D02*
X122477Y55781D01*
X122509Y55703D01*
X122546Y55628D01*
X122585Y55554D01*
X122628Y55481D01*
X122674Y55411D01*
X122724Y55344D01*
X122776Y55278D01*
X122832Y55215D01*
X122890Y55155D01*
X122951Y55097D01*
X123014Y55042D01*
X123080Y54990D01*
X123149Y54941D01*
X123219Y54896D01*
X123291Y54853D01*
X123366Y54814D01*
X123442Y54779D01*
X123519Y54747D01*
X123598Y54719D01*
X123679Y54694D01*
X123760Y54673D01*
X123842Y54656D01*
X123925Y54642D01*
X124008Y54633D01*
X124092Y54627D01*
X124176Y54625D01*
X126151Y56601D02*
X122200Y61539D01*
X117023Y63515D02*
X117023Y54625D01*
X117023Y58082D02*
X112084Y63515D01*
X115047Y60058D02*
X112084Y54625D01*
X103901Y54625D02*
X99950Y60552D01*
X103901Y60552D02*
X99950Y54625D01*
X91289Y54625D02*
X88819Y54625D01*
X88721Y54627D01*
X88623Y54633D01*
X88525Y54643D01*
X88428Y54656D01*
X88331Y54674D01*
X88235Y54695D01*
X88141Y54720D01*
X88047Y54749D01*
X87954Y54781D01*
X87863Y54818D01*
X87773Y54857D01*
X87685Y54901D01*
X87599Y54948D01*
X87514Y54998D01*
X87432Y55051D01*
X87352Y55108D01*
X87274Y55168D01*
X87199Y55231D01*
X87126Y55297D01*
X87056Y55366D01*
X86989Y55437D01*
X86924Y55511D01*
X86863Y55588D01*
X86804Y55667D01*
X86749Y55748D01*
X86697Y55831D01*
X86649Y55917D01*
X86604Y56004D01*
X86562Y56093D01*
X86524Y56183D01*
X86490Y56275D01*
X86459Y56368D01*
X86432Y56463D01*
X86409Y56558D01*
X86389Y56655D01*
X86374Y56751D01*
X86362Y56849D01*
X86354Y56947D01*
X86350Y57045D01*
X86350Y57143D01*
X86354Y57241D01*
X86362Y57339D01*
X86374Y57437D01*
X86389Y57533D01*
X86409Y57630D01*
X86432Y57725D01*
X86459Y57820D01*
X86490Y57913D01*
X86524Y58005D01*
X86562Y58095D01*
X86604Y58184D01*
X86649Y58271D01*
X86697Y58357D01*
X86749Y58440D01*
X86804Y58521D01*
X86863Y58600D01*
X86924Y58677D01*
X86989Y58751D01*
X87056Y58822D01*
X87126Y58891D01*
X87199Y58957D01*
X87274Y59020D01*
X87352Y59080D01*
X87432Y59137D01*
X87514Y59190D01*
X87599Y59240D01*
X87685Y59287D01*
X87773Y59331D01*
X87863Y59370D01*
X87954Y59407D01*
X88047Y59439D01*
X88141Y59468D01*
X88235Y59493D01*
X88331Y59514D01*
X88428Y59532D01*
X88525Y59545D01*
X88623Y59555D01*
X88721Y59561D01*
X88819Y59563D01*
X88325Y63515D02*
X91289Y63515D01*
X88325Y63515D02*
X88238Y63513D01*
X88150Y63507D01*
X88063Y63498D01*
X87977Y63484D01*
X87891Y63467D01*
X87807Y63446D01*
X87723Y63421D01*
X87640Y63392D01*
X87559Y63360D01*
X87479Y63325D01*
X87401Y63286D01*
X87324Y63243D01*
X87250Y63197D01*
X87178Y63148D01*
X87108Y63096D01*
X87040Y63040D01*
X86975Y62982D01*
X86912Y62921D01*
X86853Y62857D01*
X86796Y62790D01*
X86742Y62722D01*
X86691Y62650D01*
X86644Y62577D01*
X86599Y62502D01*
X86558Y62424D01*
X86521Y62345D01*
X86487Y62265D01*
X86457Y62183D01*
X86430Y62100D01*
X86407Y62015D01*
X86388Y61930D01*
X86373Y61844D01*
X86361Y61757D01*
X86353Y61670D01*
X86349Y61583D01*
X86349Y61495D01*
X86353Y61408D01*
X86361Y61321D01*
X86373Y61234D01*
X86388Y61148D01*
X86407Y61063D01*
X86430Y60978D01*
X86457Y60895D01*
X86487Y60813D01*
X86521Y60733D01*
X86558Y60654D01*
X86599Y60576D01*
X86644Y60501D01*
X86691Y60428D01*
X86742Y60356D01*
X86796Y60288D01*
X86853Y60221D01*
X86912Y60157D01*
X86975Y60096D01*
X87040Y60038D01*
X87108Y59982D01*
X87178Y59930D01*
X87250Y59881D01*
X87324Y59835D01*
X87401Y59792D01*
X87479Y59753D01*
X87559Y59718D01*
X87640Y59686D01*
X87723Y59657D01*
X87807Y59632D01*
X87891Y59611D01*
X87977Y59594D01*
X88063Y59580D01*
X88150Y59571D01*
X88238Y59565D01*
X88325Y59563D01*
X88325Y59564D02*
X90301Y59564D01*
X163377Y48275D02*
X163377Y39385D01*
X164365Y39385D02*
X162389Y39385D01*
X162389Y48275D02*
X164365Y48275D01*
X156590Y39385D02*
X154614Y39385D01*
X156590Y39385D02*
X156676Y39387D01*
X156762Y39393D01*
X156848Y39402D01*
X156933Y39415D01*
X157018Y39432D01*
X157101Y39452D01*
X157184Y39476D01*
X157266Y39504D01*
X157346Y39535D01*
X157425Y39570D01*
X157502Y39608D01*
X157578Y39650D01*
X157652Y39694D01*
X157723Y39742D01*
X157793Y39793D01*
X157860Y39847D01*
X157925Y39904D01*
X157987Y39964D01*
X158047Y40026D01*
X158104Y40091D01*
X158158Y40158D01*
X158209Y40228D01*
X158257Y40299D01*
X158301Y40373D01*
X158343Y40449D01*
X158381Y40526D01*
X158416Y40605D01*
X158447Y40685D01*
X158475Y40767D01*
X158499Y40850D01*
X158519Y40933D01*
X158536Y41018D01*
X158549Y41103D01*
X158558Y41189D01*
X158564Y41275D01*
X158566Y41361D01*
X158566Y46299D01*
X158564Y46388D01*
X158558Y46476D01*
X158548Y46564D01*
X158534Y46652D01*
X158516Y46739D01*
X158495Y46825D01*
X158469Y46910D01*
X158440Y46993D01*
X158407Y47076D01*
X158370Y47156D01*
X158330Y47235D01*
X158286Y47312D01*
X158239Y47388D01*
X158189Y47460D01*
X158135Y47531D01*
X158078Y47599D01*
X158018Y47665D01*
X157956Y47727D01*
X157890Y47787D01*
X157822Y47844D01*
X157751Y47898D01*
X157679Y47948D01*
X157604Y47995D01*
X157526Y48039D01*
X157447Y48079D01*
X157367Y48116D01*
X157284Y48149D01*
X157201Y48178D01*
X157116Y48204D01*
X157030Y48225D01*
X156943Y48243D01*
X156855Y48257D01*
X156767Y48267D01*
X156679Y48273D01*
X156590Y48275D01*
X154614Y48275D01*
X150912Y46299D02*
X148442Y48275D01*
X148442Y39385D01*
X145973Y39385D02*
X150912Y39385D01*
X141652Y41361D02*
X135725Y41361D01*
X135725Y44324D02*
X141652Y44324D01*
X131404Y47287D02*
X131404Y48275D01*
X126466Y48275D01*
X128935Y39385D01*
X122260Y41361D02*
X120285Y48275D01*
X122260Y41361D02*
X117322Y41361D01*
X118803Y43336D02*
X118803Y39385D01*
X112812Y39385D02*
X112812Y48275D01*
X112812Y44324D02*
X107873Y44324D01*
X107873Y48275D02*
X107873Y39385D01*
X101421Y39385D02*
X99446Y39385D01*
X101421Y39385D02*
X101507Y39387D01*
X101593Y39393D01*
X101679Y39402D01*
X101764Y39415D01*
X101849Y39432D01*
X101932Y39452D01*
X102015Y39476D01*
X102097Y39504D01*
X102177Y39535D01*
X102256Y39570D01*
X102333Y39608D01*
X102409Y39650D01*
X102483Y39694D01*
X102554Y39742D01*
X102624Y39793D01*
X102691Y39847D01*
X102756Y39904D01*
X102818Y39964D01*
X102878Y40026D01*
X102935Y40091D01*
X102989Y40158D01*
X103040Y40228D01*
X103088Y40299D01*
X103132Y40373D01*
X103174Y40449D01*
X103212Y40526D01*
X103247Y40605D01*
X103278Y40685D01*
X103306Y40767D01*
X103330Y40850D01*
X103350Y40933D01*
X103367Y41018D01*
X103380Y41103D01*
X103389Y41189D01*
X103395Y41275D01*
X103397Y41361D01*
X103397Y46299D01*
X103395Y46388D01*
X103389Y46476D01*
X103379Y46564D01*
X103365Y46652D01*
X103347Y46739D01*
X103326Y46825D01*
X103300Y46910D01*
X103271Y46993D01*
X103238Y47076D01*
X103201Y47156D01*
X103161Y47235D01*
X103117Y47312D01*
X103070Y47388D01*
X103020Y47460D01*
X102966Y47531D01*
X102909Y47599D01*
X102849Y47665D01*
X102787Y47727D01*
X102721Y47787D01*
X102653Y47844D01*
X102582Y47898D01*
X102510Y47948D01*
X102435Y47995D01*
X102357Y48039D01*
X102278Y48079D01*
X102198Y48116D01*
X102115Y48149D01*
X102032Y48178D01*
X101947Y48204D01*
X101861Y48225D01*
X101774Y48243D01*
X101686Y48257D01*
X101598Y48267D01*
X101510Y48273D01*
X101421Y48275D01*
X99446Y48275D01*
X93767Y48275D02*
X95743Y41361D01*
X90804Y41361D01*
X92286Y43336D02*
X92286Y39385D01*
X86599Y43830D02*
X86597Y44005D01*
X86591Y44180D01*
X86580Y44354D01*
X86566Y44529D01*
X86547Y44702D01*
X86524Y44876D01*
X86497Y45049D01*
X86466Y45221D01*
X86431Y45392D01*
X86391Y45562D01*
X86348Y45732D01*
X86300Y45900D01*
X86249Y46067D01*
X86194Y46233D01*
X86134Y46398D01*
X86071Y46561D01*
X86004Y46722D01*
X85933Y46882D01*
X85858Y47040D01*
X85857Y47041D02*
X85828Y47119D01*
X85796Y47197D01*
X85759Y47272D01*
X85720Y47346D01*
X85677Y47418D01*
X85631Y47489D01*
X85581Y47556D01*
X85529Y47622D01*
X85474Y47685D01*
X85415Y47745D01*
X85354Y47803D01*
X85291Y47858D01*
X85225Y47910D01*
X85156Y47959D01*
X85086Y48004D01*
X85014Y48047D01*
X84939Y48086D01*
X84863Y48121D01*
X84786Y48153D01*
X84707Y48181D01*
X84626Y48206D01*
X84545Y48227D01*
X84463Y48244D01*
X84380Y48258D01*
X84297Y48267D01*
X84213Y48273D01*
X84129Y48275D01*
X84045Y48273D01*
X83961Y48267D01*
X83878Y48258D01*
X83795Y48244D01*
X83713Y48227D01*
X83632Y48206D01*
X83551Y48181D01*
X83472Y48153D01*
X83395Y48121D01*
X83319Y48086D01*
X83244Y48047D01*
X83172Y48004D01*
X83101Y47959D01*
X83033Y47910D01*
X82967Y47858D01*
X82904Y47803D01*
X82843Y47745D01*
X82784Y47685D01*
X82729Y47622D01*
X82677Y47556D01*
X82627Y47489D01*
X82581Y47418D01*
X82538Y47346D01*
X82499Y47272D01*
X82462Y47197D01*
X82430Y47119D01*
X82401Y47041D01*
X82401Y47040D02*
X82326Y46882D01*
X82255Y46722D01*
X82188Y46561D01*
X82125Y46398D01*
X82065Y46233D01*
X82010Y46067D01*
X81959Y45900D01*
X81911Y45732D01*
X81868Y45562D01*
X81828Y45392D01*
X81793Y45221D01*
X81762Y45049D01*
X81735Y44876D01*
X81712Y44702D01*
X81693Y44529D01*
X81679Y44354D01*
X81668Y44180D01*
X81662Y44005D01*
X81660Y43830D01*
X86599Y43830D02*
X86597Y43655D01*
X86591Y43480D01*
X86580Y43306D01*
X86566Y43131D01*
X86547Y42958D01*
X86524Y42784D01*
X86497Y42611D01*
X86466Y42439D01*
X86431Y42268D01*
X86391Y42098D01*
X86348Y41928D01*
X86300Y41760D01*
X86249Y41593D01*
X86194Y41427D01*
X86134Y41262D01*
X86071Y41099D01*
X86004Y40938D01*
X85933Y40778D01*
X85858Y40620D01*
X85857Y40619D02*
X85828Y40541D01*
X85796Y40463D01*
X85759Y40388D01*
X85720Y40314D01*
X85677Y40241D01*
X85631Y40171D01*
X85581Y40104D01*
X85529Y40038D01*
X85473Y39975D01*
X85415Y39915D01*
X85354Y39857D01*
X85291Y39802D01*
X85225Y39750D01*
X85156Y39701D01*
X85086Y39656D01*
X85014Y39613D01*
X84939Y39574D01*
X84863Y39539D01*
X84786Y39507D01*
X84707Y39479D01*
X84626Y39454D01*
X84545Y39433D01*
X84463Y39416D01*
X84380Y39402D01*
X84297Y39393D01*
X84213Y39387D01*
X84129Y39385D01*
X82401Y40620D02*
X82326Y40778D01*
X82255Y40938D01*
X82188Y41099D01*
X82125Y41262D01*
X82065Y41427D01*
X82010Y41593D01*
X81959Y41760D01*
X81911Y41928D01*
X81868Y42098D01*
X81828Y42268D01*
X81793Y42439D01*
X81762Y42611D01*
X81735Y42784D01*
X81712Y42958D01*
X81693Y43131D01*
X81679Y43306D01*
X81668Y43480D01*
X81662Y43655D01*
X81660Y43830D01*
X82401Y40619D02*
X82430Y40541D01*
X82462Y40463D01*
X82499Y40388D01*
X82538Y40314D01*
X82581Y40241D01*
X82627Y40171D01*
X82677Y40104D01*
X82729Y40038D01*
X82785Y39975D01*
X82843Y39915D01*
X82904Y39857D01*
X82967Y39802D01*
X83033Y39750D01*
X83102Y39701D01*
X83172Y39656D01*
X83244Y39613D01*
X83319Y39574D01*
X83395Y39539D01*
X83472Y39507D01*
X83551Y39479D01*
X83632Y39454D01*
X83713Y39433D01*
X83795Y39416D01*
X83878Y39402D01*
X83961Y39393D01*
X84045Y39387D01*
X84129Y39385D01*
X86105Y41361D02*
X82154Y46299D01*
X77455Y44324D02*
X74492Y44324D01*
X74406Y44322D01*
X74320Y44316D01*
X74234Y44307D01*
X74149Y44294D01*
X74064Y44277D01*
X73981Y44257D01*
X73898Y44233D01*
X73816Y44205D01*
X73736Y44174D01*
X73657Y44139D01*
X73580Y44101D01*
X73504Y44059D01*
X73430Y44015D01*
X73359Y43967D01*
X73289Y43916D01*
X73222Y43862D01*
X73157Y43805D01*
X73095Y43745D01*
X73035Y43683D01*
X72978Y43618D01*
X72924Y43551D01*
X72873Y43481D01*
X72825Y43410D01*
X72781Y43336D01*
X72739Y43260D01*
X72701Y43183D01*
X72666Y43104D01*
X72635Y43024D01*
X72607Y42942D01*
X72583Y42859D01*
X72563Y42776D01*
X72546Y42691D01*
X72533Y42606D01*
X72524Y42520D01*
X72518Y42434D01*
X72516Y42348D01*
X72516Y41854D01*
X72518Y41756D01*
X72524Y41658D01*
X72534Y41560D01*
X72547Y41463D01*
X72565Y41366D01*
X72586Y41270D01*
X72611Y41176D01*
X72640Y41082D01*
X72672Y40989D01*
X72709Y40898D01*
X72748Y40808D01*
X72792Y40720D01*
X72839Y40634D01*
X72889Y40549D01*
X72942Y40467D01*
X72999Y40387D01*
X73059Y40309D01*
X73122Y40234D01*
X73188Y40161D01*
X73257Y40091D01*
X73328Y40024D01*
X73402Y39959D01*
X73479Y39898D01*
X73558Y39839D01*
X73639Y39784D01*
X73722Y39732D01*
X73808Y39684D01*
X73895Y39639D01*
X73984Y39597D01*
X74074Y39559D01*
X74166Y39525D01*
X74259Y39494D01*
X74354Y39467D01*
X74449Y39444D01*
X74546Y39424D01*
X74642Y39409D01*
X74740Y39397D01*
X74838Y39389D01*
X74936Y39385D01*
X75034Y39385D01*
X75132Y39389D01*
X75230Y39397D01*
X75328Y39409D01*
X75424Y39424D01*
X75521Y39444D01*
X75616Y39467D01*
X75711Y39494D01*
X75804Y39525D01*
X75896Y39559D01*
X75986Y39597D01*
X76075Y39639D01*
X76162Y39684D01*
X76248Y39732D01*
X76331Y39784D01*
X76412Y39839D01*
X76491Y39898D01*
X76568Y39959D01*
X76642Y40024D01*
X76713Y40091D01*
X76782Y40161D01*
X76848Y40234D01*
X76911Y40309D01*
X76971Y40387D01*
X77028Y40467D01*
X77081Y40549D01*
X77131Y40634D01*
X77178Y40720D01*
X77222Y40808D01*
X77261Y40898D01*
X77298Y40989D01*
X77330Y41082D01*
X77359Y41176D01*
X77384Y41270D01*
X77405Y41366D01*
X77423Y41463D01*
X77436Y41560D01*
X77446Y41658D01*
X77452Y41756D01*
X77454Y41854D01*
X77455Y41854D02*
X77455Y44324D01*
X77453Y44448D01*
X77447Y44572D01*
X77437Y44696D01*
X77424Y44819D01*
X77406Y44942D01*
X77385Y45064D01*
X77360Y45186D01*
X77331Y45307D01*
X77298Y45426D01*
X77262Y45545D01*
X77221Y45662D01*
X77178Y45778D01*
X77130Y45893D01*
X77079Y46006D01*
X77024Y46118D01*
X76966Y46227D01*
X76905Y46335D01*
X76840Y46441D01*
X76772Y46545D01*
X76700Y46646D01*
X76626Y46746D01*
X76548Y46842D01*
X76468Y46937D01*
X76384Y47029D01*
X76298Y47118D01*
X76209Y47204D01*
X76117Y47288D01*
X76022Y47368D01*
X75926Y47446D01*
X75826Y47520D01*
X75725Y47592D01*
X75621Y47660D01*
X75515Y47725D01*
X75407Y47786D01*
X75298Y47844D01*
X75186Y47899D01*
X75073Y47950D01*
X74959Y47998D01*
X74842Y48041D01*
X74725Y48082D01*
X74606Y48118D01*
X74487Y48151D01*
X74366Y48180D01*
X74244Y48205D01*
X74122Y48226D01*
X73999Y48244D01*
X73876Y48257D01*
X73752Y48267D01*
X73628Y48273D01*
X73504Y48275D01*
X68311Y44324D02*
X65348Y44324D01*
X65262Y44322D01*
X65176Y44316D01*
X65090Y44307D01*
X65005Y44294D01*
X64920Y44277D01*
X64837Y44257D01*
X64754Y44233D01*
X64672Y44205D01*
X64592Y44174D01*
X64513Y44139D01*
X64436Y44101D01*
X64360Y44059D01*
X64286Y44015D01*
X64215Y43967D01*
X64145Y43916D01*
X64078Y43862D01*
X64013Y43805D01*
X63951Y43745D01*
X63891Y43683D01*
X63834Y43618D01*
X63780Y43551D01*
X63729Y43481D01*
X63681Y43410D01*
X63637Y43336D01*
X63595Y43260D01*
X63557Y43183D01*
X63522Y43104D01*
X63491Y43024D01*
X63463Y42942D01*
X63439Y42859D01*
X63419Y42776D01*
X63402Y42691D01*
X63389Y42606D01*
X63380Y42520D01*
X63374Y42434D01*
X63372Y42348D01*
X63372Y41854D01*
X63374Y41756D01*
X63380Y41658D01*
X63390Y41560D01*
X63403Y41463D01*
X63421Y41366D01*
X63442Y41270D01*
X63467Y41176D01*
X63496Y41082D01*
X63528Y40989D01*
X63565Y40898D01*
X63604Y40808D01*
X63648Y40720D01*
X63695Y40634D01*
X63745Y40549D01*
X63798Y40467D01*
X63855Y40387D01*
X63915Y40309D01*
X63978Y40234D01*
X64044Y40161D01*
X64113Y40091D01*
X64184Y40024D01*
X64258Y39959D01*
X64335Y39898D01*
X64414Y39839D01*
X64495Y39784D01*
X64578Y39732D01*
X64664Y39684D01*
X64751Y39639D01*
X64840Y39597D01*
X64930Y39559D01*
X65022Y39525D01*
X65115Y39494D01*
X65210Y39467D01*
X65305Y39444D01*
X65402Y39424D01*
X65498Y39409D01*
X65596Y39397D01*
X65694Y39389D01*
X65792Y39385D01*
X65890Y39385D01*
X65988Y39389D01*
X66086Y39397D01*
X66184Y39409D01*
X66280Y39424D01*
X66377Y39444D01*
X66472Y39467D01*
X66567Y39494D01*
X66660Y39525D01*
X66752Y39559D01*
X66842Y39597D01*
X66931Y39639D01*
X67018Y39684D01*
X67104Y39732D01*
X67187Y39784D01*
X67268Y39839D01*
X67347Y39898D01*
X67424Y39959D01*
X67498Y40024D01*
X67569Y40091D01*
X67638Y40161D01*
X67704Y40234D01*
X67767Y40309D01*
X67827Y40387D01*
X67884Y40467D01*
X67937Y40549D01*
X67987Y40634D01*
X68034Y40720D01*
X68078Y40808D01*
X68117Y40898D01*
X68154Y40989D01*
X68186Y41082D01*
X68215Y41176D01*
X68240Y41270D01*
X68261Y41366D01*
X68279Y41463D01*
X68292Y41560D01*
X68302Y41658D01*
X68308Y41756D01*
X68310Y41854D01*
X68311Y41854D02*
X68311Y44324D01*
X68309Y44448D01*
X68303Y44572D01*
X68293Y44696D01*
X68280Y44819D01*
X68262Y44942D01*
X68241Y45064D01*
X68216Y45186D01*
X68187Y45307D01*
X68154Y45426D01*
X68118Y45545D01*
X68077Y45662D01*
X68034Y45778D01*
X67986Y45893D01*
X67935Y46006D01*
X67880Y46118D01*
X67822Y46227D01*
X67761Y46335D01*
X67696Y46441D01*
X67628Y46545D01*
X67556Y46646D01*
X67482Y46746D01*
X67404Y46842D01*
X67324Y46937D01*
X67240Y47029D01*
X67154Y47118D01*
X67065Y47204D01*
X66973Y47288D01*
X66878Y47368D01*
X66782Y47446D01*
X66682Y47520D01*
X66581Y47592D01*
X66477Y47660D01*
X66371Y47725D01*
X66263Y47786D01*
X66154Y47844D01*
X66042Y47899D01*
X65929Y47950D01*
X65815Y47998D01*
X65698Y48041D01*
X65581Y48082D01*
X65462Y48118D01*
X65343Y48151D01*
X65222Y48180D01*
X65100Y48205D01*
X64978Y48226D01*
X64855Y48244D01*
X64732Y48257D01*
X64608Y48267D01*
X64484Y48273D01*
X64360Y48275D01*
X58862Y48275D02*
X58862Y39385D01*
X58862Y48275D02*
X56393Y48275D01*
X56296Y48273D01*
X56199Y48267D01*
X56103Y48258D01*
X56007Y48245D01*
X55911Y48228D01*
X55817Y48207D01*
X55723Y48182D01*
X55630Y48154D01*
X55538Y48122D01*
X55448Y48087D01*
X55359Y48048D01*
X55272Y48006D01*
X55187Y47960D01*
X55103Y47911D01*
X55021Y47859D01*
X54942Y47803D01*
X54864Y47745D01*
X54790Y47683D01*
X54717Y47619D01*
X54647Y47552D01*
X54580Y47482D01*
X54516Y47409D01*
X54454Y47335D01*
X54396Y47257D01*
X54340Y47178D01*
X54288Y47096D01*
X54239Y47012D01*
X54193Y46927D01*
X54151Y46840D01*
X54112Y46751D01*
X54077Y46661D01*
X54045Y46569D01*
X54017Y46476D01*
X53992Y46382D01*
X53971Y46288D01*
X53954Y46192D01*
X53941Y46096D01*
X53932Y46000D01*
X53926Y45903D01*
X53924Y45806D01*
X53923Y45806D02*
X53923Y41854D01*
X53924Y41854D02*
X53926Y41757D01*
X53932Y41660D01*
X53941Y41564D01*
X53954Y41468D01*
X53971Y41372D01*
X53992Y41278D01*
X54017Y41184D01*
X54045Y41091D01*
X54077Y40999D01*
X54112Y40909D01*
X54151Y40820D01*
X54193Y40733D01*
X54239Y40648D01*
X54288Y40564D01*
X54340Y40482D01*
X54396Y40403D01*
X54454Y40325D01*
X54516Y40251D01*
X54580Y40178D01*
X54647Y40108D01*
X54717Y40041D01*
X54790Y39977D01*
X54864Y39915D01*
X54942Y39857D01*
X55021Y39801D01*
X55103Y39749D01*
X55187Y39700D01*
X55272Y39654D01*
X55359Y39612D01*
X55448Y39573D01*
X55538Y39538D01*
X55630Y39506D01*
X55723Y39478D01*
X55817Y39453D01*
X55911Y39432D01*
X56007Y39415D01*
X56103Y39402D01*
X56199Y39393D01*
X56296Y39387D01*
X56393Y39385D01*
X58862Y39385D01*
M02*
