G04 EAGLE Gerber RS-274X export*
G75*
%MOMM*%
%FSLAX34Y34*%
%LPD*%
%INTop Copper*%
%IPPOS*%
%AMOC8*
5,1,8,0,0,1.08239X$1,22.5*%
G01*
%ADD10C,0.228600*%
%ADD11R,1.300000X1.500000*%
%ADD12C,2.000000*%
%ADD13R,1.500000X1.300000*%
%ADD14R,2.286000X0.609600*%
%ADD15C,0.304800*%
%ADD16C,0.800000*%
%ADD17C,0.800000*%
%ADD18C,0.508000*%

G36*
X51019Y3814D02*
X51019Y3814D01*
X51045Y3812D01*
X51191Y3834D01*
X51339Y3851D01*
X51363Y3859D01*
X51389Y3863D01*
X51527Y3918D01*
X51667Y3968D01*
X51689Y3982D01*
X51713Y3992D01*
X51835Y4077D01*
X51960Y4157D01*
X51978Y4176D01*
X51999Y4191D01*
X52098Y4301D01*
X52202Y4408D01*
X52215Y4430D01*
X52233Y4450D01*
X52304Y4580D01*
X52381Y4707D01*
X52389Y4732D01*
X52401Y4755D01*
X52442Y4898D01*
X52487Y5039D01*
X52489Y5065D01*
X52496Y5090D01*
X52516Y5334D01*
X52516Y18293D01*
X54971Y20749D01*
X61498Y20749D01*
X63968Y19323D01*
X64106Y19263D01*
X64243Y19199D01*
X64266Y19194D01*
X64288Y19184D01*
X64436Y19158D01*
X64584Y19126D01*
X64607Y19126D01*
X64630Y19122D01*
X64781Y19130D01*
X64932Y19133D01*
X64955Y19138D01*
X64979Y19139D01*
X65124Y19181D01*
X65270Y19218D01*
X65296Y19230D01*
X65314Y19235D01*
X65354Y19258D01*
X65491Y19323D01*
X67803Y20658D01*
X67865Y20704D01*
X67933Y20742D01*
X67941Y20749D01*
X71447Y20749D01*
X71542Y20684D01*
X71635Y20610D01*
X71685Y20586D01*
X71732Y20555D01*
X71936Y20468D01*
X71950Y20462D01*
X71953Y20461D01*
X71957Y20459D01*
X73776Y19853D01*
X73798Y19848D01*
X73818Y19839D01*
X73968Y19812D01*
X74117Y19781D01*
X74139Y19782D01*
X74161Y19778D01*
X74313Y19786D01*
X74465Y19789D01*
X74487Y19794D01*
X74509Y19796D01*
X74655Y19838D01*
X74803Y19876D01*
X74823Y19886D01*
X74844Y19892D01*
X74977Y19966D01*
X75112Y20037D01*
X75129Y20051D01*
X75148Y20062D01*
X75335Y20221D01*
X75863Y20749D01*
X81649Y20749D01*
X82416Y19982D01*
X82417Y19981D01*
X82418Y19980D01*
X82555Y19872D01*
X82689Y19766D01*
X82690Y19765D01*
X82691Y19764D01*
X82848Y19691D01*
X83004Y19617D01*
X83005Y19616D01*
X83007Y19616D01*
X83180Y19579D01*
X83345Y19543D01*
X83346Y19543D01*
X83347Y19543D01*
X83530Y19546D01*
X83693Y19549D01*
X83694Y19550D01*
X83696Y19550D01*
X83869Y19593D01*
X84031Y19634D01*
X84032Y19635D01*
X84034Y19635D01*
X84255Y19740D01*
X86002Y20749D01*
X89798Y20749D01*
X93086Y18850D01*
X94984Y15562D01*
X94984Y7138D01*
X94383Y6096D01*
X94353Y6026D01*
X94314Y5961D01*
X94284Y5867D01*
X94244Y5776D01*
X94231Y5701D01*
X94208Y5629D01*
X94200Y5530D01*
X94182Y5433D01*
X94186Y5357D01*
X94180Y5282D01*
X94194Y5184D01*
X94199Y5085D01*
X94220Y5012D01*
X94231Y4937D01*
X94268Y4845D01*
X94295Y4750D01*
X94332Y4684D01*
X94360Y4613D01*
X94417Y4532D01*
X94465Y4445D01*
X94516Y4389D01*
X94559Y4327D01*
X94633Y4261D01*
X94699Y4187D01*
X94762Y4144D01*
X94818Y4094D01*
X94905Y4046D01*
X94986Y3989D01*
X95057Y3962D01*
X95123Y3925D01*
X95218Y3898D01*
X95310Y3862D01*
X95385Y3851D01*
X95458Y3830D01*
X95609Y3818D01*
X95655Y3811D01*
X95674Y3813D01*
X95702Y3811D01*
X157929Y3811D01*
X157971Y3816D01*
X158048Y3815D01*
X159885Y3960D01*
X159941Y3971D01*
X159998Y3973D01*
X160208Y4023D01*
X160227Y4027D01*
X160230Y4028D01*
X160236Y4030D01*
X163728Y5165D01*
X163834Y5213D01*
X163944Y5253D01*
X164008Y5292D01*
X164045Y5309D01*
X164080Y5337D01*
X164153Y5381D01*
X167124Y7539D01*
X167210Y7618D01*
X167301Y7691D01*
X167350Y7747D01*
X167380Y7775D01*
X167405Y7812D01*
X167461Y7876D01*
X169619Y10847D01*
X169677Y10949D01*
X169741Y11046D01*
X169770Y11115D01*
X169790Y11151D01*
X169803Y11194D01*
X169835Y11272D01*
X170970Y14764D01*
X170982Y14820D01*
X171001Y14874D01*
X171036Y15088D01*
X171039Y15106D01*
X171039Y15110D01*
X171040Y15115D01*
X171185Y16952D01*
X171183Y16994D01*
X171189Y17071D01*
X171189Y49608D01*
X171178Y49708D01*
X171176Y49808D01*
X171158Y49880D01*
X171149Y49954D01*
X171116Y50049D01*
X171091Y50146D01*
X171057Y50212D01*
X171032Y50282D01*
X170977Y50367D01*
X170931Y50456D01*
X170883Y50513D01*
X170843Y50575D01*
X170771Y50645D01*
X170706Y50722D01*
X170646Y50766D01*
X170592Y50817D01*
X170506Y50869D01*
X170425Y50929D01*
X170357Y50958D01*
X170293Y50996D01*
X170198Y51027D01*
X170105Y51067D01*
X170032Y51080D01*
X169961Y51103D01*
X169861Y51111D01*
X169762Y51128D01*
X169688Y51125D01*
X169614Y51131D01*
X169515Y51116D01*
X169414Y51110D01*
X169343Y51090D01*
X169269Y51079D01*
X169176Y51042D01*
X169079Y51014D01*
X169014Y50978D01*
X168945Y50950D01*
X168863Y50893D01*
X168775Y50844D01*
X168699Y50779D01*
X168659Y50751D01*
X168635Y50725D01*
X168589Y50685D01*
X167951Y50048D01*
X163666Y45762D01*
X161489Y44860D01*
X161422Y44823D01*
X161351Y44795D01*
X161270Y44739D01*
X161184Y44691D01*
X161128Y44640D01*
X161065Y44596D01*
X160999Y44523D01*
X160926Y44457D01*
X160883Y44394D01*
X160832Y44337D01*
X160784Y44251D01*
X160728Y44170D01*
X160700Y44099D01*
X160663Y44032D01*
X160636Y43938D01*
X160600Y43846D01*
X160589Y43771D01*
X160568Y43697D01*
X160556Y43548D01*
X160549Y43501D01*
X160551Y43482D01*
X160549Y43453D01*
X160549Y42737D01*
X158763Y40951D01*
X146406Y40951D01*
X146356Y40946D01*
X146306Y40948D01*
X146184Y40926D01*
X146060Y40911D01*
X146012Y40894D01*
X145963Y40885D01*
X145849Y40836D01*
X145732Y40794D01*
X145690Y40767D01*
X145643Y40747D01*
X145543Y40672D01*
X145439Y40605D01*
X145404Y40569D01*
X145364Y40539D01*
X145283Y40444D01*
X145197Y40354D01*
X145171Y40311D01*
X145138Y40273D01*
X145082Y40162D01*
X145018Y40055D01*
X145003Y40007D01*
X144980Y39962D01*
X144950Y39842D01*
X144912Y39723D01*
X144908Y39673D01*
X144896Y39624D01*
X144894Y39500D01*
X144884Y39376D01*
X144891Y39326D01*
X144891Y39276D01*
X144917Y39154D01*
X144935Y39031D01*
X144954Y38984D01*
X144965Y38935D01*
X145018Y38823D01*
X145064Y38707D01*
X145093Y38666D01*
X145115Y38620D01*
X145192Y38523D01*
X145263Y38421D01*
X145300Y38387D01*
X145332Y38348D01*
X145430Y38271D01*
X145522Y38188D01*
X145566Y38163D01*
X145606Y38132D01*
X145823Y38021D01*
X147743Y37226D01*
X149940Y35029D01*
X151473Y33495D01*
X151573Y33416D01*
X151666Y33332D01*
X151709Y33308D01*
X151747Y33278D01*
X151861Y33224D01*
X151971Y33163D01*
X152018Y33150D01*
X152062Y33129D01*
X152185Y33103D01*
X152307Y33068D01*
X152368Y33063D01*
X152402Y33056D01*
X152450Y33057D01*
X152551Y33049D01*
X157596Y33049D01*
X162392Y31062D01*
X166062Y27392D01*
X168049Y22596D01*
X168049Y17404D01*
X166062Y12608D01*
X162392Y8938D01*
X157596Y6951D01*
X152404Y6951D01*
X147608Y8938D01*
X143938Y12608D01*
X141951Y17404D01*
X141951Y22449D01*
X141937Y22575D01*
X141930Y22701D01*
X141917Y22748D01*
X141911Y22796D01*
X141869Y22915D01*
X141834Y23036D01*
X141810Y23078D01*
X141794Y23124D01*
X141725Y23230D01*
X141664Y23340D01*
X141624Y23387D01*
X141605Y23417D01*
X141570Y23450D01*
X141505Y23526D01*
X140361Y24670D01*
X140322Y24702D01*
X140288Y24739D01*
X140186Y24810D01*
X140088Y24887D01*
X140043Y24908D01*
X140001Y24937D01*
X139886Y24983D01*
X139773Y25036D01*
X139724Y25046D01*
X139677Y25065D01*
X139554Y25083D01*
X139433Y25109D01*
X139382Y25108D01*
X139332Y25116D01*
X139208Y25105D01*
X139084Y25103D01*
X139035Y25091D01*
X138985Y25087D01*
X138867Y25048D01*
X138746Y25018D01*
X138701Y24995D01*
X138653Y24980D01*
X138547Y24916D01*
X138436Y24859D01*
X138398Y24826D01*
X138355Y24800D01*
X138266Y24713D01*
X138171Y24633D01*
X138141Y24592D01*
X138105Y24557D01*
X138038Y24452D01*
X137964Y24352D01*
X137944Y24306D01*
X137917Y24264D01*
X137875Y24147D01*
X137826Y24032D01*
X137817Y23983D01*
X137800Y23935D01*
X137786Y23812D01*
X137764Y23689D01*
X137767Y23639D01*
X137761Y23589D01*
X137776Y23466D01*
X137782Y23341D01*
X137796Y23293D01*
X137802Y23243D01*
X137877Y23010D01*
X138049Y22596D01*
X138049Y17404D01*
X136062Y12608D01*
X132392Y8938D01*
X127596Y6951D01*
X122404Y6951D01*
X117608Y8938D01*
X113938Y12608D01*
X111951Y17404D01*
X111951Y22596D01*
X113938Y27392D01*
X117608Y31062D01*
X119487Y31840D01*
X119554Y31877D01*
X119625Y31906D01*
X119706Y31962D01*
X119792Y32010D01*
X119848Y32061D01*
X119911Y32105D01*
X119977Y32178D01*
X120050Y32244D01*
X120093Y32307D01*
X120144Y32363D01*
X120192Y32449D01*
X120248Y32530D01*
X120276Y32601D01*
X120313Y32668D01*
X120340Y32763D01*
X120376Y32855D01*
X120387Y32930D01*
X120408Y33004D01*
X120420Y33153D01*
X120427Y33199D01*
X120425Y33218D01*
X120427Y33248D01*
X120427Y34660D01*
X121123Y36340D01*
X122624Y37841D01*
X127986Y43203D01*
X128048Y43281D01*
X128118Y43354D01*
X128157Y43418D01*
X128203Y43476D01*
X128246Y43567D01*
X128297Y43653D01*
X128320Y43724D01*
X128352Y43791D01*
X128373Y43889D01*
X128403Y43985D01*
X128409Y44059D01*
X128425Y44132D01*
X128423Y44232D01*
X128431Y44332D01*
X128420Y44406D01*
X128419Y44480D01*
X128395Y44577D01*
X128380Y44677D01*
X128352Y44746D01*
X128334Y44818D01*
X128288Y44908D01*
X128251Y45001D01*
X128209Y45062D01*
X128174Y45128D01*
X128109Y45205D01*
X128052Y45287D01*
X127997Y45337D01*
X127949Y45393D01*
X127868Y45453D01*
X127793Y45520D01*
X127728Y45556D01*
X127668Y45601D01*
X127576Y45640D01*
X127488Y45689D01*
X127417Y45709D01*
X127348Y45739D01*
X127250Y45756D01*
X127153Y45784D01*
X127053Y45792D01*
X127005Y45800D01*
X126970Y45798D01*
X126909Y45803D01*
X106437Y45803D01*
X105916Y46325D01*
X105836Y46388D01*
X105763Y46458D01*
X105700Y46496D01*
X105643Y46541D01*
X105551Y46585D01*
X105464Y46637D01*
X105394Y46659D01*
X105328Y46690D01*
X105229Y46712D01*
X105132Y46742D01*
X105059Y46748D01*
X104987Y46764D01*
X104886Y46762D01*
X104785Y46770D01*
X104712Y46759D01*
X104638Y46758D01*
X104540Y46733D01*
X104440Y46718D01*
X104347Y46684D01*
X104300Y46673D01*
X104268Y46656D01*
X104210Y46635D01*
X103080Y46123D01*
X102950Y46045D01*
X102817Y45971D01*
X102796Y45953D01*
X102781Y45944D01*
X102774Y45937D01*
X101578Y45442D01*
X101561Y45432D01*
X101532Y45422D01*
X100928Y45148D01*
X100765Y45074D01*
X100733Y45071D01*
X100707Y45062D01*
X100689Y45060D01*
X100646Y45042D01*
X100500Y44996D01*
X100152Y44851D01*
X97348Y44851D01*
X94757Y45924D01*
X92774Y47907D01*
X91701Y50498D01*
X91701Y53302D01*
X92774Y55893D01*
X94757Y57876D01*
X97348Y58949D01*
X100152Y58949D01*
X100500Y58804D01*
X100646Y58763D01*
X100769Y58724D01*
X101532Y58378D01*
X101550Y58372D01*
X101577Y58358D01*
X102797Y57853D01*
X102866Y57795D01*
X102890Y57782D01*
X102904Y57771D01*
X102946Y57751D01*
X103080Y57677D01*
X103105Y57665D01*
X103173Y57644D01*
X103219Y57622D01*
X103221Y57621D01*
X103244Y57610D01*
X103341Y57589D01*
X103437Y57559D01*
X103512Y57553D01*
X103585Y57537D01*
X103684Y57539D01*
X103784Y57531D01*
X103858Y57542D01*
X103933Y57543D01*
X104030Y57567D01*
X104129Y57582D01*
X104198Y57610D01*
X104271Y57628D01*
X104360Y57674D01*
X104453Y57710D01*
X104514Y57753D01*
X104581Y57788D01*
X104657Y57852D01*
X104739Y57909D01*
X104789Y57965D01*
X104847Y58013D01*
X104906Y58094D01*
X104973Y58168D01*
X105009Y58233D01*
X105054Y58294D01*
X105093Y58385D01*
X105141Y58472D01*
X105162Y58545D01*
X105192Y58614D01*
X105209Y58712D01*
X105237Y58808D01*
X105240Y58883D01*
X105253Y58957D01*
X105248Y59056D01*
X105253Y59156D01*
X105239Y59230D01*
X105235Y59305D01*
X105208Y59401D01*
X105190Y59499D01*
X105160Y59568D01*
X105139Y59640D01*
X105090Y59727D01*
X105050Y59818D01*
X105005Y59878D01*
X104969Y59944D01*
X104870Y60060D01*
X104842Y60097D01*
X104828Y60109D01*
X104810Y60130D01*
X104651Y60289D01*
X104651Y68911D01*
X105613Y69873D01*
X105630Y69893D01*
X105650Y69910D01*
X105738Y70030D01*
X105830Y70146D01*
X105841Y70170D01*
X105857Y70191D01*
X105916Y70327D01*
X105979Y70461D01*
X105984Y70487D01*
X105995Y70511D01*
X106021Y70657D01*
X106052Y70802D01*
X106052Y70828D01*
X106056Y70854D01*
X106049Y71002D01*
X106046Y71150D01*
X106040Y71176D01*
X106039Y71202D01*
X105997Y71344D01*
X105961Y71488D01*
X105949Y71511D01*
X105942Y71537D01*
X105869Y71666D01*
X105802Y71798D01*
X105785Y71818D01*
X105772Y71841D01*
X105613Y72027D01*
X104651Y72989D01*
X104651Y81611D01*
X104810Y81770D01*
X104857Y81829D01*
X104911Y81881D01*
X104965Y81965D01*
X105027Y82043D01*
X105059Y82111D01*
X105100Y82174D01*
X105133Y82268D01*
X105176Y82358D01*
X105192Y82431D01*
X105217Y82502D01*
X105228Y82601D01*
X105249Y82699D01*
X105248Y82774D01*
X105256Y82848D01*
X105245Y82948D01*
X105243Y83047D01*
X105225Y83120D01*
X105216Y83195D01*
X105182Y83288D01*
X105158Y83385D01*
X105124Y83452D01*
X105098Y83523D01*
X105044Y83606D01*
X104999Y83695D01*
X104950Y83752D01*
X104909Y83815D01*
X104837Y83884D01*
X104773Y83960D01*
X104712Y84005D01*
X104658Y84057D01*
X104573Y84108D01*
X104492Y84167D01*
X104423Y84197D01*
X104359Y84236D01*
X104264Y84266D01*
X104172Y84305D01*
X104098Y84319D01*
X104027Y84342D01*
X103928Y84349D01*
X103829Y84367D01*
X103754Y84363D01*
X103679Y84369D01*
X103581Y84354D01*
X103481Y84349D01*
X103409Y84328D01*
X103335Y84317D01*
X103191Y84265D01*
X103147Y84253D01*
X103131Y84244D01*
X103122Y84241D01*
X103117Y84239D01*
X103105Y84234D01*
X103080Y84223D01*
X102950Y84145D01*
X102817Y84071D01*
X102796Y84053D01*
X102781Y84044D01*
X102774Y84037D01*
X101578Y83542D01*
X101561Y83532D01*
X101532Y83522D01*
X100928Y83248D01*
X100765Y83174D01*
X100733Y83171D01*
X100707Y83162D01*
X100689Y83160D01*
X100646Y83143D01*
X100500Y83096D01*
X100152Y82951D01*
X97348Y82951D01*
X94757Y84024D01*
X92774Y86007D01*
X91701Y88598D01*
X91701Y91402D01*
X92774Y93993D01*
X94309Y95527D01*
X94371Y95606D01*
X94441Y95678D01*
X94479Y95742D01*
X94525Y95800D01*
X94568Y95891D01*
X94620Y95977D01*
X94642Y96048D01*
X94674Y96115D01*
X94695Y96213D01*
X94726Y96309D01*
X94732Y96383D01*
X94747Y96456D01*
X94746Y96556D01*
X94754Y96656D01*
X94743Y96730D01*
X94741Y96804D01*
X94717Y96901D01*
X94702Y97001D01*
X94675Y97070D01*
X94656Y97142D01*
X94610Y97231D01*
X94573Y97325D01*
X94531Y97386D01*
X94497Y97452D01*
X94432Y97528D01*
X94374Y97611D01*
X94319Y97661D01*
X94271Y97717D01*
X94190Y97777D01*
X94116Y97844D01*
X94051Y97880D01*
X93991Y97925D01*
X93898Y97964D01*
X93811Y98013D01*
X93739Y98033D01*
X93671Y98063D01*
X93572Y98080D01*
X93475Y98108D01*
X93375Y98116D01*
X93328Y98124D01*
X93292Y98122D01*
X93231Y98127D01*
X85718Y98127D01*
X85592Y98113D01*
X85466Y98106D01*
X85420Y98093D01*
X85372Y98087D01*
X85253Y98045D01*
X85131Y98010D01*
X85089Y97986D01*
X85043Y97970D01*
X84937Y97901D01*
X84827Y97840D01*
X84781Y97800D01*
X84751Y97781D01*
X84717Y97746D01*
X84641Y97681D01*
X84387Y97427D01*
X84370Y97407D01*
X84350Y97390D01*
X84262Y97270D01*
X84170Y97154D01*
X84159Y97130D01*
X84143Y97109D01*
X84085Y96973D01*
X84021Y96839D01*
X84016Y96813D01*
X84005Y96789D01*
X83979Y96643D01*
X83948Y96498D01*
X83948Y96472D01*
X83944Y96446D01*
X83951Y96298D01*
X83954Y96150D01*
X83960Y96124D01*
X83961Y96098D01*
X84002Y95956D01*
X84039Y95812D01*
X84051Y95789D01*
X84058Y95763D01*
X84130Y95634D01*
X84198Y95502D01*
X84215Y95482D01*
X84228Y95459D01*
X84387Y95273D01*
X84740Y94920D01*
X85141Y94225D01*
X85349Y93449D01*
X85349Y91523D01*
X70870Y91523D01*
X56391Y91523D01*
X56391Y93449D01*
X56599Y94225D01*
X57000Y94920D01*
X57353Y95273D01*
X57370Y95293D01*
X57390Y95310D01*
X57478Y95430D01*
X57570Y95546D01*
X57581Y95570D01*
X57597Y95591D01*
X57656Y95727D01*
X57719Y95861D01*
X57724Y95887D01*
X57735Y95911D01*
X57761Y96057D01*
X57792Y96202D01*
X57792Y96228D01*
X57796Y96254D01*
X57789Y96402D01*
X57786Y96550D01*
X57780Y96576D01*
X57779Y96602D01*
X57737Y96744D01*
X57701Y96888D01*
X57689Y96911D01*
X57682Y96937D01*
X57610Y97066D01*
X57542Y97198D01*
X57525Y97218D01*
X57512Y97241D01*
X57353Y97427D01*
X56391Y98389D01*
X56391Y107011D01*
X57353Y107973D01*
X57370Y107993D01*
X57390Y108010D01*
X57478Y108130D01*
X57570Y108246D01*
X57581Y108270D01*
X57597Y108291D01*
X57656Y108427D01*
X57719Y108561D01*
X57724Y108587D01*
X57735Y108611D01*
X57761Y108757D01*
X57792Y108902D01*
X57792Y108928D01*
X57796Y108954D01*
X57789Y109102D01*
X57786Y109250D01*
X57780Y109276D01*
X57779Y109302D01*
X57738Y109444D01*
X57701Y109588D01*
X57689Y109612D01*
X57682Y109637D01*
X57610Y109766D01*
X57542Y109898D01*
X57525Y109918D01*
X57512Y109941D01*
X57353Y110127D01*
X57113Y110367D01*
X57034Y110430D01*
X56961Y110500D01*
X56898Y110538D01*
X56840Y110584D01*
X56749Y110627D01*
X56662Y110679D01*
X56592Y110701D01*
X56525Y110733D01*
X56426Y110754D01*
X56330Y110785D01*
X56256Y110791D01*
X56184Y110806D01*
X56083Y110804D01*
X55982Y110813D01*
X55909Y110801D01*
X55836Y110800D01*
X55738Y110776D01*
X55638Y110760D01*
X55544Y110727D01*
X55498Y110715D01*
X55466Y110699D01*
X55407Y110678D01*
X53080Y109623D01*
X52949Y109545D01*
X52817Y109471D01*
X52796Y109453D01*
X52781Y109444D01*
X52774Y109437D01*
X51578Y108942D01*
X51561Y108932D01*
X51532Y108922D01*
X50928Y108648D01*
X50765Y108574D01*
X50733Y108571D01*
X50707Y108562D01*
X50689Y108560D01*
X50646Y108542D01*
X50500Y108496D01*
X50152Y108351D01*
X47348Y108351D01*
X44757Y109424D01*
X42774Y111407D01*
X41701Y113998D01*
X41701Y116802D01*
X42774Y119393D01*
X44757Y121376D01*
X47348Y122449D01*
X50152Y122449D01*
X50500Y122304D01*
X50646Y122263D01*
X50769Y122224D01*
X51532Y121878D01*
X51551Y121872D01*
X51577Y121858D01*
X52797Y121353D01*
X52866Y121295D01*
X52890Y121282D01*
X52904Y121271D01*
X52946Y121251D01*
X53080Y121177D01*
X55407Y120122D01*
X55504Y120091D01*
X55597Y120051D01*
X55669Y120038D01*
X55739Y120016D01*
X55840Y120007D01*
X55940Y119990D01*
X56013Y119993D01*
X56087Y119987D01*
X56187Y120002D01*
X56288Y120007D01*
X56359Y120028D01*
X56431Y120039D01*
X56525Y120076D01*
X56623Y120104D01*
X56687Y120140D01*
X56755Y120167D01*
X56839Y120225D01*
X56927Y120274D01*
X57002Y120338D01*
X57042Y120366D01*
X57066Y120393D01*
X57113Y120433D01*
X57353Y120673D01*
X57370Y120693D01*
X57390Y120710D01*
X57478Y120830D01*
X57570Y120946D01*
X57581Y120970D01*
X57597Y120991D01*
X57655Y121127D01*
X57719Y121261D01*
X57724Y121287D01*
X57735Y121311D01*
X57761Y121457D01*
X57792Y121602D01*
X57792Y121628D01*
X57796Y121654D01*
X57789Y121802D01*
X57786Y121950D01*
X57780Y121976D01*
X57779Y122002D01*
X57737Y122144D01*
X57701Y122288D01*
X57689Y122312D01*
X57682Y122337D01*
X57609Y122466D01*
X57542Y122598D01*
X57525Y122618D01*
X57512Y122641D01*
X57353Y122827D01*
X56391Y123789D01*
X56391Y132411D01*
X58177Y134197D01*
X83563Y134197D01*
X84278Y133481D01*
X84298Y133466D01*
X84314Y133447D01*
X84434Y133358D01*
X84551Y133265D01*
X84574Y133254D01*
X84594Y133239D01*
X84731Y133180D01*
X84866Y133116D01*
X84891Y133111D01*
X84914Y133101D01*
X85061Y133074D01*
X85207Y133043D01*
X85232Y133043D01*
X85257Y133038D01*
X85406Y133046D01*
X85555Y133048D01*
X85580Y133055D01*
X85605Y133056D01*
X85842Y133115D01*
X88724Y134087D01*
X88758Y134103D01*
X88820Y134123D01*
X89848Y134549D01*
X92652Y134549D01*
X95243Y133476D01*
X97226Y131493D01*
X98299Y128902D01*
X98299Y126098D01*
X97226Y123507D01*
X96246Y122527D01*
X96229Y122507D01*
X96209Y122490D01*
X96121Y122370D01*
X96029Y122254D01*
X96018Y122230D01*
X96002Y122209D01*
X95943Y122073D01*
X95880Y121939D01*
X95874Y121913D01*
X95864Y121889D01*
X95838Y121743D01*
X95807Y121598D01*
X95807Y121572D01*
X95802Y121546D01*
X95810Y121398D01*
X95813Y121250D01*
X95819Y121224D01*
X95820Y121198D01*
X95861Y121056D01*
X95898Y120912D01*
X95910Y120889D01*
X95917Y120863D01*
X95989Y120734D01*
X96057Y120602D01*
X96074Y120582D01*
X96087Y120559D01*
X96246Y120373D01*
X97226Y119393D01*
X98299Y116802D01*
X98299Y113998D01*
X97226Y111407D01*
X95691Y109873D01*
X95629Y109794D01*
X95559Y109722D01*
X95521Y109658D01*
X95475Y109600D01*
X95432Y109509D01*
X95380Y109423D01*
X95358Y109352D01*
X95326Y109285D01*
X95305Y109187D01*
X95274Y109091D01*
X95268Y109017D01*
X95253Y108944D01*
X95254Y108844D01*
X95246Y108744D01*
X95257Y108670D01*
X95259Y108596D01*
X95283Y108499D01*
X95298Y108399D01*
X95325Y108330D01*
X95344Y108258D01*
X95390Y108169D01*
X95427Y108075D01*
X95469Y108014D01*
X95503Y107948D01*
X95568Y107872D01*
X95626Y107789D01*
X95681Y107739D01*
X95729Y107683D01*
X95810Y107623D01*
X95884Y107556D01*
X95949Y107520D01*
X96009Y107475D01*
X96102Y107436D01*
X96189Y107387D01*
X96261Y107367D01*
X96329Y107337D01*
X96428Y107320D01*
X96525Y107292D01*
X96625Y107284D01*
X96672Y107276D01*
X96708Y107278D01*
X96769Y107273D01*
X104282Y107273D01*
X104408Y107287D01*
X104534Y107294D01*
X104580Y107307D01*
X104628Y107313D01*
X104747Y107355D01*
X104869Y107390D01*
X104911Y107414D01*
X104957Y107430D01*
X105063Y107499D01*
X105173Y107560D01*
X105219Y107600D01*
X105249Y107619D01*
X105283Y107654D01*
X105359Y107719D01*
X105613Y107973D01*
X105630Y107993D01*
X105650Y108010D01*
X105738Y108130D01*
X105830Y108246D01*
X105841Y108270D01*
X105857Y108291D01*
X105916Y108427D01*
X105979Y108561D01*
X105984Y108587D01*
X105995Y108611D01*
X106021Y108757D01*
X106052Y108902D01*
X106052Y108928D01*
X106056Y108954D01*
X106049Y109102D01*
X106046Y109250D01*
X106040Y109276D01*
X106039Y109302D01*
X105998Y109444D01*
X105961Y109588D01*
X105949Y109611D01*
X105942Y109637D01*
X105870Y109766D01*
X105802Y109898D01*
X105785Y109918D01*
X105772Y109941D01*
X105613Y110127D01*
X104651Y111089D01*
X104651Y119711D01*
X105613Y120673D01*
X105630Y120693D01*
X105650Y120710D01*
X105738Y120830D01*
X105830Y120946D01*
X105841Y120970D01*
X105857Y120991D01*
X105916Y121127D01*
X105979Y121261D01*
X105984Y121287D01*
X105995Y121311D01*
X106021Y121457D01*
X106052Y121602D01*
X106052Y121628D01*
X106056Y121654D01*
X106049Y121802D01*
X106046Y121950D01*
X106040Y121976D01*
X106039Y122002D01*
X105997Y122144D01*
X105961Y122288D01*
X105949Y122311D01*
X105942Y122337D01*
X105869Y122466D01*
X105802Y122598D01*
X105785Y122618D01*
X105772Y122641D01*
X105613Y122827D01*
X104651Y123789D01*
X104651Y132411D01*
X106437Y134197D01*
X112018Y134197D01*
X112044Y134200D01*
X112070Y134198D01*
X112217Y134220D01*
X112364Y134237D01*
X112389Y134245D01*
X112415Y134249D01*
X112553Y134304D01*
X112692Y134354D01*
X112714Y134368D01*
X112739Y134378D01*
X112860Y134463D01*
X112985Y134543D01*
X113003Y134562D01*
X113025Y134577D01*
X113124Y134687D01*
X113227Y134794D01*
X113241Y134816D01*
X113258Y134836D01*
X113330Y134966D01*
X113406Y135093D01*
X113414Y135118D01*
X113427Y135141D01*
X113467Y135284D01*
X113512Y135425D01*
X113514Y135451D01*
X113522Y135476D01*
X113541Y135720D01*
X113541Y137928D01*
X113538Y137954D01*
X113540Y137980D01*
X113518Y138127D01*
X113501Y138274D01*
X113493Y138299D01*
X113489Y138325D01*
X113434Y138463D01*
X113384Y138602D01*
X113370Y138624D01*
X113360Y138649D01*
X113275Y138770D01*
X113195Y138895D01*
X113176Y138913D01*
X113161Y138935D01*
X113051Y139034D01*
X112944Y139137D01*
X112922Y139151D01*
X112902Y139168D01*
X112772Y139240D01*
X112645Y139316D01*
X112620Y139324D01*
X112597Y139337D01*
X112454Y139377D01*
X112313Y139422D01*
X112287Y139424D01*
X112262Y139432D01*
X112018Y139451D01*
X111047Y139451D01*
X111047Y148476D01*
X111044Y148502D01*
X111046Y148528D01*
X111024Y148675D01*
X111007Y148822D01*
X110998Y148847D01*
X110995Y148873D01*
X110940Y149011D01*
X110890Y149150D01*
X110876Y149172D01*
X110866Y149197D01*
X110781Y149318D01*
X110701Y149443D01*
X110682Y149461D01*
X110667Y149483D01*
X110557Y149582D01*
X110450Y149685D01*
X110428Y149699D01*
X110408Y149716D01*
X110278Y149788D01*
X110151Y149864D01*
X110126Y149872D01*
X110103Y149885D01*
X109960Y149925D01*
X109819Y149970D01*
X109793Y149972D01*
X109768Y149980D01*
X109524Y149999D01*
X107999Y149999D01*
X107999Y150001D01*
X109524Y150001D01*
X109550Y150004D01*
X109576Y150002D01*
X109723Y150024D01*
X109870Y150041D01*
X109895Y150050D01*
X109921Y150053D01*
X110059Y150108D01*
X110198Y150158D01*
X110220Y150172D01*
X110245Y150182D01*
X110366Y150267D01*
X110491Y150347D01*
X110509Y150366D01*
X110531Y150381D01*
X110630Y150491D01*
X110733Y150598D01*
X110747Y150620D01*
X110764Y150640D01*
X110836Y150770D01*
X110912Y150897D01*
X110920Y150922D01*
X110933Y150945D01*
X110973Y151088D01*
X111018Y151229D01*
X111020Y151255D01*
X111028Y151280D01*
X111047Y151524D01*
X111047Y160549D01*
X114901Y160549D01*
X115677Y160341D01*
X116372Y159940D01*
X116423Y159889D01*
X116443Y159872D01*
X116460Y159852D01*
X116580Y159764D01*
X116696Y159672D01*
X116720Y159661D01*
X116741Y159645D01*
X116877Y159586D01*
X117011Y159523D01*
X117037Y159518D01*
X117061Y159507D01*
X117207Y159481D01*
X117352Y159450D01*
X117378Y159450D01*
X117404Y159446D01*
X117552Y159453D01*
X117700Y159456D01*
X117726Y159462D01*
X117752Y159463D01*
X117894Y159505D01*
X118038Y159541D01*
X118061Y159553D01*
X118087Y159560D01*
X118216Y159633D01*
X118348Y159700D01*
X118368Y159717D01*
X118391Y159730D01*
X118577Y159889D01*
X119505Y160817D01*
X119584Y160916D01*
X119668Y161010D01*
X119692Y161052D01*
X119722Y161090D01*
X119776Y161204D01*
X119837Y161315D01*
X119850Y161361D01*
X119871Y161405D01*
X119897Y161528D01*
X119932Y161650D01*
X119937Y161711D01*
X119944Y161746D01*
X119943Y161794D01*
X119951Y161894D01*
X119951Y166402D01*
X121024Y168993D01*
X123007Y170976D01*
X125598Y172049D01*
X128402Y172049D01*
X130993Y170976D01*
X132976Y168993D01*
X134049Y166402D01*
X134049Y161894D01*
X134063Y161768D01*
X134070Y161642D01*
X134083Y161596D01*
X134089Y161548D01*
X134131Y161429D01*
X134166Y161307D01*
X134190Y161265D01*
X134206Y161219D01*
X134275Y161113D01*
X134336Y161003D01*
X134376Y160957D01*
X134395Y160927D01*
X134430Y160893D01*
X134495Y160817D01*
X136851Y158461D01*
X136929Y158398D01*
X137002Y158328D01*
X137066Y158290D01*
X137124Y158244D01*
X137215Y158201D01*
X137301Y158150D01*
X137372Y158127D01*
X137439Y158095D01*
X137537Y158074D01*
X137633Y158043D01*
X137707Y158037D01*
X137780Y158022D01*
X137880Y158023D01*
X137980Y158015D01*
X138054Y158026D01*
X138128Y158028D01*
X138225Y158052D01*
X138325Y158067D01*
X138394Y158095D01*
X138466Y158113D01*
X138555Y158159D01*
X138649Y158196D01*
X138710Y158238D01*
X138776Y158272D01*
X138852Y158337D01*
X138935Y158395D01*
X138985Y158450D01*
X139041Y158498D01*
X139101Y158579D01*
X139168Y158654D01*
X139204Y158719D01*
X139249Y158778D01*
X139288Y158871D01*
X139337Y158959D01*
X139357Y159030D01*
X139387Y159098D01*
X139404Y159197D01*
X139432Y159294D01*
X139440Y159394D01*
X139448Y159441D01*
X139446Y159477D01*
X139451Y159538D01*
X139451Y167263D01*
X141237Y169049D01*
X158763Y169049D01*
X160317Y167495D01*
X160416Y167416D01*
X160510Y167332D01*
X160552Y167308D01*
X160590Y167278D01*
X160704Y167224D01*
X160815Y167163D01*
X160861Y167150D01*
X160905Y167129D01*
X161028Y167103D01*
X161150Y167068D01*
X161211Y167063D01*
X161245Y167056D01*
X161293Y167057D01*
X161394Y167049D01*
X165152Y167049D01*
X167743Y165976D01*
X168589Y165129D01*
X168668Y165067D01*
X168740Y164997D01*
X168804Y164959D01*
X168862Y164913D01*
X168953Y164870D01*
X169039Y164818D01*
X169110Y164796D01*
X169177Y164764D01*
X169275Y164743D01*
X169371Y164712D01*
X169445Y164706D01*
X169518Y164691D01*
X169618Y164692D01*
X169718Y164684D01*
X169792Y164695D01*
X169866Y164697D01*
X169963Y164721D01*
X170063Y164736D01*
X170132Y164763D01*
X170204Y164782D01*
X170293Y164828D01*
X170387Y164865D01*
X170448Y164907D01*
X170514Y164941D01*
X170590Y165006D01*
X170673Y165064D01*
X170723Y165119D01*
X170779Y165167D01*
X170839Y165248D01*
X170906Y165322D01*
X170942Y165387D01*
X170987Y165447D01*
X171026Y165539D01*
X171075Y165627D01*
X171095Y165699D01*
X171125Y165767D01*
X171142Y165866D01*
X171170Y165963D01*
X171178Y166063D01*
X171186Y166110D01*
X171184Y166146D01*
X171189Y166207D01*
X171189Y182929D01*
X171184Y182971D01*
X171185Y183048D01*
X171040Y184885D01*
X171029Y184941D01*
X171027Y184998D01*
X170977Y185208D01*
X170973Y185227D01*
X170972Y185230D01*
X170970Y185236D01*
X169835Y188728D01*
X169787Y188834D01*
X169747Y188944D01*
X169708Y189008D01*
X169691Y189045D01*
X169663Y189080D01*
X169619Y189153D01*
X167461Y192124D01*
X167420Y192168D01*
X167413Y192177D01*
X167402Y192188D01*
X167382Y192210D01*
X167309Y192301D01*
X167253Y192350D01*
X167225Y192380D01*
X167188Y192405D01*
X167124Y192461D01*
X165099Y193931D01*
X165097Y193933D01*
X165096Y193934D01*
X165048Y193960D01*
X164965Y194007D01*
X164831Y194087D01*
X164813Y194093D01*
X164796Y194103D01*
X164646Y194146D01*
X164499Y194193D01*
X164480Y194195D01*
X164461Y194200D01*
X164322Y194208D01*
X164211Y194217D01*
X164206Y194217D01*
X164152Y194221D01*
X164133Y194219D01*
X164113Y194220D01*
X163960Y194193D01*
X163807Y194170D01*
X163789Y194163D01*
X163770Y194159D01*
X163627Y194098D01*
X163535Y194061D01*
X163530Y194060D01*
X163529Y194059D01*
X163483Y194041D01*
X163468Y194030D01*
X163450Y194022D01*
X163324Y193930D01*
X163256Y193883D01*
X163237Y193871D01*
X163234Y193868D01*
X163197Y193842D01*
X163184Y193828D01*
X163169Y193816D01*
X163067Y193698D01*
X163026Y193653D01*
X162995Y193620D01*
X162991Y193613D01*
X162964Y193583D01*
X162954Y193566D01*
X162942Y193552D01*
X162870Y193414D01*
X162854Y193384D01*
X162816Y193321D01*
X162812Y193308D01*
X162795Y193278D01*
X162790Y193260D01*
X162781Y193242D01*
X162743Y193093D01*
X162742Y193090D01*
X162710Y192989D01*
X162708Y192970D01*
X162700Y192943D01*
X162699Y192920D01*
X162695Y192905D01*
X162694Y192861D01*
X162681Y192699D01*
X162681Y189644D01*
X162684Y189619D01*
X162682Y189595D01*
X162693Y189521D01*
X162694Y189441D01*
X162712Y189370D01*
X162721Y189298D01*
X162730Y189271D01*
X162733Y189250D01*
X162759Y189185D01*
X162780Y189103D01*
X162822Y189015D01*
X162838Y188970D01*
X162856Y188943D01*
X162862Y188926D01*
X162868Y188918D01*
X162885Y188883D01*
X163259Y188234D01*
X163259Y184437D01*
X161361Y181149D01*
X158073Y179251D01*
X154277Y179251D01*
X152181Y180461D01*
X152179Y180462D01*
X152178Y180463D01*
X152015Y180533D01*
X151861Y180600D01*
X151860Y180600D01*
X151858Y180601D01*
X151686Y180632D01*
X151518Y180662D01*
X151517Y180662D01*
X151515Y180662D01*
X151345Y180654D01*
X151170Y180645D01*
X151168Y180644D01*
X151167Y180644D01*
X151004Y180597D01*
X150835Y180549D01*
X150834Y180548D01*
X150832Y180548D01*
X150678Y180461D01*
X150530Y180379D01*
X150529Y180378D01*
X150528Y180378D01*
X150342Y180219D01*
X149374Y179251D01*
X140116Y179251D01*
X137660Y181707D01*
X137660Y181778D01*
X137657Y181804D01*
X137659Y181830D01*
X137637Y181977D01*
X137621Y182124D01*
X137612Y182149D01*
X137608Y182175D01*
X137553Y182313D01*
X137503Y182452D01*
X137489Y182474D01*
X137479Y182499D01*
X137395Y182620D01*
X137314Y182745D01*
X137295Y182763D01*
X137280Y182785D01*
X137170Y182884D01*
X137063Y182987D01*
X137041Y183001D01*
X137021Y183018D01*
X136891Y183090D01*
X136764Y183166D01*
X136739Y183174D01*
X136716Y183187D01*
X136573Y183227D01*
X136432Y183272D01*
X136406Y183274D01*
X136381Y183282D01*
X136137Y183301D01*
X127288Y183301D01*
X127138Y183284D01*
X126987Y183271D01*
X126965Y183264D01*
X126942Y183261D01*
X126799Y183210D01*
X126656Y183164D01*
X126636Y183152D01*
X126613Y183144D01*
X126486Y183062D01*
X126357Y182984D01*
X126340Y182968D01*
X126321Y182955D01*
X126216Y182846D01*
X126108Y182741D01*
X126091Y182717D01*
X126078Y182704D01*
X126054Y182664D01*
X125969Y182540D01*
X125166Y181150D01*
X121878Y179251D01*
X118082Y179251D01*
X114794Y181150D01*
X113356Y183641D01*
X113340Y183662D01*
X113329Y183685D01*
X113237Y183801D01*
X113148Y183920D01*
X113128Y183937D01*
X113112Y183958D01*
X112995Y184050D01*
X112882Y184146D01*
X112859Y184158D01*
X112838Y184174D01*
X112704Y184237D01*
X112572Y184305D01*
X112547Y184311D01*
X112523Y184322D01*
X112378Y184353D01*
X112234Y184389D01*
X112208Y184390D01*
X112182Y184395D01*
X112034Y184392D01*
X111885Y184395D01*
X111860Y184389D01*
X111834Y184389D01*
X111690Y184352D01*
X111545Y184321D01*
X111521Y184309D01*
X111496Y184303D01*
X111275Y184198D01*
X110886Y183973D01*
X110764Y183883D01*
X110640Y183797D01*
X110625Y183780D01*
X110606Y183766D01*
X110508Y183650D01*
X110407Y183538D01*
X110396Y183518D01*
X110380Y183500D01*
X110312Y183366D01*
X110239Y183233D01*
X110232Y183211D01*
X110221Y183190D01*
X110185Y183043D01*
X110144Y182898D01*
X110141Y182870D01*
X110137Y182852D01*
X110136Y182805D01*
X110124Y182654D01*
X110124Y181707D01*
X107669Y179251D01*
X104196Y179251D01*
X101741Y181707D01*
X101741Y194666D01*
X101738Y194692D01*
X101740Y194718D01*
X101718Y194865D01*
X101701Y195012D01*
X101692Y195037D01*
X101688Y195063D01*
X101633Y195201D01*
X101583Y195340D01*
X101569Y195362D01*
X101559Y195387D01*
X101475Y195508D01*
X101394Y195633D01*
X101375Y195651D01*
X101360Y195673D01*
X101251Y195772D01*
X101144Y195875D01*
X101121Y195889D01*
X101102Y195906D01*
X100972Y195978D01*
X100845Y196054D01*
X100820Y196062D01*
X100797Y196075D01*
X100654Y196115D01*
X100513Y196160D01*
X100486Y196162D01*
X100461Y196170D01*
X100217Y196189D01*
X17071Y196189D01*
X17029Y196184D01*
X16952Y196185D01*
X15115Y196040D01*
X15059Y196029D01*
X15002Y196027D01*
X14792Y195977D01*
X14773Y195973D01*
X14770Y195972D01*
X14764Y195970D01*
X11272Y194835D01*
X11166Y194787D01*
X11056Y194747D01*
X10992Y194708D01*
X10955Y194691D01*
X10920Y194663D01*
X10847Y194619D01*
X7876Y192461D01*
X7790Y192382D01*
X7699Y192309D01*
X7650Y192253D01*
X7620Y192225D01*
X7595Y192188D01*
X7539Y192124D01*
X5381Y189153D01*
X5323Y189051D01*
X5259Y188954D01*
X5230Y188885D01*
X5210Y188849D01*
X5197Y188806D01*
X5165Y188728D01*
X4030Y185236D01*
X4018Y185180D01*
X3999Y185126D01*
X3964Y184912D01*
X3961Y184894D01*
X3961Y184890D01*
X3960Y184885D01*
X3815Y183048D01*
X3817Y183006D01*
X3811Y182929D01*
X3811Y17071D01*
X3816Y17029D01*
X3815Y16952D01*
X3960Y15115D01*
X3971Y15059D01*
X3973Y15002D01*
X4023Y14792D01*
X4027Y14773D01*
X4028Y14770D01*
X4030Y14764D01*
X5165Y11272D01*
X5213Y11166D01*
X5253Y11056D01*
X5292Y10992D01*
X5309Y10955D01*
X5337Y10920D01*
X5381Y10847D01*
X7539Y7876D01*
X7618Y7790D01*
X7691Y7699D01*
X7747Y7650D01*
X7775Y7620D01*
X7812Y7595D01*
X7876Y7539D01*
X10847Y5381D01*
X10949Y5323D01*
X11046Y5259D01*
X11115Y5230D01*
X11151Y5210D01*
X11194Y5197D01*
X11272Y5165D01*
X14764Y4030D01*
X14820Y4018D01*
X14874Y3999D01*
X15088Y3964D01*
X15106Y3961D01*
X15110Y3961D01*
X15115Y3960D01*
X16952Y3815D01*
X16994Y3817D01*
X17071Y3811D01*
X50992Y3811D01*
X51019Y3814D01*
G37*
%LPC*%
G36*
X70870Y53423D02*
X70870Y53423D01*
X56391Y53423D01*
X56391Y55349D01*
X56599Y56125D01*
X57016Y56848D01*
X57057Y56887D01*
X57111Y56970D01*
X57173Y57048D01*
X57205Y57117D01*
X57246Y57180D01*
X57279Y57273D01*
X57322Y57364D01*
X57337Y57437D01*
X57363Y57508D01*
X57374Y57607D01*
X57395Y57704D01*
X57394Y57780D01*
X57402Y57854D01*
X57391Y57953D01*
X57389Y58053D01*
X57371Y58126D01*
X57362Y58201D01*
X57328Y58294D01*
X57304Y58391D01*
X57270Y58457D01*
X57244Y58529D01*
X57190Y58612D01*
X57145Y58701D01*
X57096Y58758D01*
X57055Y58821D01*
X56983Y58890D01*
X56919Y58966D01*
X56858Y59011D01*
X56804Y59063D01*
X56719Y59114D01*
X56639Y59173D01*
X56569Y59203D01*
X56505Y59242D01*
X56410Y59272D01*
X56319Y59311D01*
X56244Y59325D01*
X56173Y59347D01*
X56073Y59355D01*
X55976Y59373D01*
X55900Y59369D01*
X55825Y59375D01*
X55727Y59360D01*
X55627Y59355D01*
X55555Y59334D01*
X55481Y59323D01*
X55337Y59272D01*
X55293Y59259D01*
X55277Y59250D01*
X55250Y59240D01*
X54330Y58823D01*
X54200Y58745D01*
X54067Y58671D01*
X54046Y58653D01*
X54031Y58644D01*
X54024Y58637D01*
X52828Y58142D01*
X52811Y58132D01*
X52782Y58122D01*
X52178Y57848D01*
X52015Y57774D01*
X51983Y57771D01*
X51957Y57762D01*
X51939Y57760D01*
X51896Y57742D01*
X51750Y57696D01*
X51402Y57551D01*
X48598Y57551D01*
X46007Y58624D01*
X44024Y60607D01*
X42951Y63198D01*
X42951Y66002D01*
X43096Y66350D01*
X43137Y66496D01*
X43176Y66619D01*
X43248Y66778D01*
X43522Y67382D01*
X43528Y67401D01*
X43542Y67428D01*
X44047Y68647D01*
X44105Y68716D01*
X44118Y68740D01*
X44129Y68754D01*
X44149Y68796D01*
X44223Y68930D01*
X45292Y71288D01*
X45300Y71314D01*
X45313Y71337D01*
X45353Y71479D01*
X45398Y71620D01*
X45400Y71647D01*
X45408Y71673D01*
X45427Y71917D01*
X45427Y72475D01*
X45413Y72601D01*
X45406Y72727D01*
X45393Y72773D01*
X45387Y72821D01*
X45345Y72940D01*
X45310Y73062D01*
X45286Y73104D01*
X45270Y73149D01*
X45201Y73256D01*
X45140Y73366D01*
X45100Y73412D01*
X45081Y73442D01*
X45046Y73476D01*
X44981Y73552D01*
X43552Y74981D01*
X43453Y75060D01*
X43359Y75144D01*
X43317Y75168D01*
X43279Y75198D01*
X43165Y75252D01*
X43054Y75313D01*
X43008Y75326D01*
X42964Y75347D01*
X42841Y75373D01*
X42719Y75408D01*
X42658Y75413D01*
X42623Y75420D01*
X42575Y75419D01*
X42475Y75427D01*
X33248Y75427D01*
X33172Y75419D01*
X33095Y75420D01*
X32999Y75399D01*
X32901Y75387D01*
X32829Y75362D01*
X32755Y75345D01*
X32666Y75303D01*
X32573Y75270D01*
X32509Y75228D01*
X32440Y75196D01*
X32363Y75134D01*
X32280Y75081D01*
X32227Y75026D01*
X32168Y74978D01*
X32107Y74901D01*
X32038Y74830D01*
X31999Y74765D01*
X31952Y74705D01*
X31883Y74571D01*
X31859Y74531D01*
X31854Y74516D01*
X31850Y74507D01*
X31848Y74501D01*
X31840Y74487D01*
X31062Y72608D01*
X27392Y68938D01*
X22596Y66951D01*
X17404Y66951D01*
X12608Y68938D01*
X8938Y72608D01*
X6951Y77404D01*
X6951Y82596D01*
X8938Y87392D01*
X12608Y91062D01*
X17404Y93049D01*
X22596Y93049D01*
X23010Y92877D01*
X23059Y92863D01*
X23104Y92842D01*
X23226Y92815D01*
X23345Y92781D01*
X23396Y92779D01*
X23445Y92768D01*
X23569Y92770D01*
X23693Y92764D01*
X23743Y92773D01*
X23793Y92774D01*
X23914Y92805D01*
X24036Y92827D01*
X24082Y92847D01*
X24131Y92859D01*
X24242Y92916D01*
X24356Y92966D01*
X24396Y92996D01*
X24441Y93019D01*
X24536Y93099D01*
X24636Y93174D01*
X24668Y93212D01*
X24706Y93245D01*
X24780Y93345D01*
X24861Y93440D01*
X24884Y93484D01*
X24914Y93525D01*
X24963Y93639D01*
X25020Y93750D01*
X25032Y93799D01*
X25052Y93845D01*
X25074Y93967D01*
X25104Y94088D01*
X25104Y94138D01*
X25113Y94188D01*
X25107Y94312D01*
X25109Y94437D01*
X25098Y94486D01*
X25095Y94536D01*
X25061Y94655D01*
X25034Y94777D01*
X25013Y94823D01*
X24999Y94871D01*
X24938Y94980D01*
X24885Y95092D01*
X24853Y95131D01*
X24829Y95175D01*
X24670Y95361D01*
X23526Y96505D01*
X23427Y96584D01*
X23334Y96668D01*
X23291Y96692D01*
X23253Y96722D01*
X23139Y96776D01*
X23029Y96837D01*
X22982Y96850D01*
X22938Y96871D01*
X22815Y96897D01*
X22693Y96932D01*
X22632Y96937D01*
X22598Y96944D01*
X22550Y96943D01*
X22449Y96951D01*
X17404Y96951D01*
X12608Y98938D01*
X8938Y102608D01*
X6951Y107404D01*
X6951Y112596D01*
X8938Y117392D01*
X12608Y121062D01*
X17404Y123049D01*
X22596Y123049D01*
X27392Y121062D01*
X31062Y117392D01*
X33049Y112596D01*
X33049Y107551D01*
X33063Y107425D01*
X33070Y107299D01*
X33083Y107252D01*
X33089Y107204D01*
X33131Y107085D01*
X33166Y106964D01*
X33190Y106922D01*
X33206Y106876D01*
X33275Y106770D01*
X33336Y106660D01*
X33376Y106614D01*
X33395Y106584D01*
X33430Y106550D01*
X33495Y106474D01*
X37226Y102743D01*
X38299Y100152D01*
X38299Y97348D01*
X37226Y94757D01*
X35243Y92774D01*
X32652Y91701D01*
X30430Y91701D01*
X30330Y91690D01*
X30230Y91688D01*
X30158Y91670D01*
X30084Y91661D01*
X29989Y91628D01*
X29892Y91603D01*
X29826Y91569D01*
X29756Y91544D01*
X29671Y91489D01*
X29582Y91443D01*
X29525Y91395D01*
X29463Y91355D01*
X29393Y91283D01*
X29316Y91218D01*
X29272Y91158D01*
X29221Y91104D01*
X29169Y91018D01*
X29109Y90937D01*
X29080Y90869D01*
X29042Y90805D01*
X29011Y90709D01*
X28971Y90617D01*
X28958Y90544D01*
X28935Y90473D01*
X28927Y90373D01*
X28910Y90274D01*
X28913Y90200D01*
X28908Y90126D01*
X28922Y90026D01*
X28928Y89926D01*
X28948Y89855D01*
X28959Y89781D01*
X28996Y89688D01*
X29024Y89591D01*
X29060Y89526D01*
X29088Y89457D01*
X29145Y89375D01*
X29194Y89287D01*
X29259Y89211D01*
X29287Y89171D01*
X29313Y89147D01*
X29353Y89101D01*
X31062Y87392D01*
X31840Y85513D01*
X31877Y85446D01*
X31906Y85375D01*
X31962Y85295D01*
X32010Y85208D01*
X32061Y85152D01*
X32105Y85089D01*
X32178Y85023D01*
X32244Y84950D01*
X32307Y84907D01*
X32363Y84856D01*
X32449Y84808D01*
X32530Y84752D01*
X32602Y84724D01*
X32668Y84687D01*
X32763Y84660D01*
X32855Y84624D01*
X32930Y84613D01*
X33004Y84592D01*
X33153Y84580D01*
X33199Y84573D01*
X33219Y84575D01*
X33248Y84573D01*
X45910Y84573D01*
X47590Y83877D01*
X49091Y82376D01*
X53791Y77676D01*
X53869Y77614D01*
X53942Y77544D01*
X54006Y77505D01*
X54064Y77459D01*
X54155Y77416D01*
X54241Y77365D01*
X54312Y77342D01*
X54379Y77310D01*
X54477Y77289D01*
X54573Y77259D01*
X54647Y77253D01*
X54720Y77237D01*
X54820Y77239D01*
X54920Y77231D01*
X54994Y77242D01*
X55068Y77243D01*
X55165Y77267D01*
X55265Y77282D01*
X55334Y77310D01*
X55406Y77328D01*
X55496Y77374D01*
X55589Y77411D01*
X55650Y77453D01*
X55716Y77488D01*
X55793Y77553D01*
X55875Y77610D01*
X55925Y77665D01*
X55981Y77713D01*
X56041Y77794D01*
X56108Y77869D01*
X56144Y77934D01*
X56189Y77994D01*
X56228Y78086D01*
X56277Y78174D01*
X56297Y78245D01*
X56327Y78314D01*
X56344Y78412D01*
X56372Y78509D01*
X56380Y78609D01*
X56388Y78657D01*
X56386Y78692D01*
X56391Y78753D01*
X56391Y81611D01*
X57353Y82573D01*
X57370Y82593D01*
X57390Y82610D01*
X57478Y82730D01*
X57570Y82846D01*
X57581Y82870D01*
X57597Y82891D01*
X57656Y83027D01*
X57719Y83161D01*
X57724Y83187D01*
X57735Y83211D01*
X57761Y83357D01*
X57792Y83502D01*
X57792Y83528D01*
X57796Y83554D01*
X57789Y83702D01*
X57786Y83850D01*
X57780Y83876D01*
X57779Y83902D01*
X57737Y84044D01*
X57701Y84188D01*
X57689Y84212D01*
X57682Y84237D01*
X57610Y84366D01*
X57542Y84498D01*
X57525Y84518D01*
X57512Y84541D01*
X57353Y84727D01*
X57000Y85080D01*
X56599Y85775D01*
X56391Y86551D01*
X56391Y88477D01*
X70870Y88477D01*
X85349Y88477D01*
X85349Y86551D01*
X85141Y85775D01*
X84740Y85080D01*
X84387Y84727D01*
X84370Y84707D01*
X84350Y84690D01*
X84262Y84570D01*
X84170Y84454D01*
X84159Y84430D01*
X84143Y84409D01*
X84085Y84273D01*
X84021Y84139D01*
X84016Y84113D01*
X84005Y84089D01*
X83979Y83943D01*
X83948Y83798D01*
X83948Y83772D01*
X83944Y83746D01*
X83951Y83598D01*
X83954Y83450D01*
X83960Y83424D01*
X83961Y83398D01*
X84003Y83256D01*
X84039Y83112D01*
X84051Y83089D01*
X84058Y83063D01*
X84131Y82934D01*
X84198Y82802D01*
X84215Y82782D01*
X84228Y82759D01*
X84387Y82573D01*
X85349Y81611D01*
X85349Y72989D01*
X84387Y72027D01*
X84370Y72007D01*
X84350Y71990D01*
X84262Y71870D01*
X84170Y71754D01*
X84159Y71730D01*
X84143Y71709D01*
X84084Y71573D01*
X84021Y71439D01*
X84016Y71413D01*
X84005Y71389D01*
X83979Y71243D01*
X83948Y71098D01*
X83948Y71072D01*
X83944Y71046D01*
X83951Y70898D01*
X83954Y70750D01*
X83960Y70724D01*
X83961Y70698D01*
X84003Y70556D01*
X84039Y70412D01*
X84051Y70389D01*
X84058Y70363D01*
X84131Y70234D01*
X84198Y70102D01*
X84215Y70082D01*
X84228Y70059D01*
X84387Y69873D01*
X85349Y68911D01*
X85349Y60289D01*
X84387Y59327D01*
X84370Y59307D01*
X84350Y59290D01*
X84262Y59170D01*
X84170Y59054D01*
X84159Y59030D01*
X84143Y59009D01*
X84084Y58873D01*
X84021Y58739D01*
X84016Y58713D01*
X84005Y58689D01*
X83979Y58543D01*
X83948Y58398D01*
X83948Y58372D01*
X83944Y58346D01*
X83951Y58198D01*
X83954Y58050D01*
X83960Y58024D01*
X83961Y57998D01*
X84003Y57856D01*
X84039Y57712D01*
X84051Y57689D01*
X84058Y57663D01*
X84131Y57534D01*
X84198Y57402D01*
X84215Y57382D01*
X84228Y57359D01*
X84387Y57173D01*
X84740Y56820D01*
X85141Y56125D01*
X85349Y55349D01*
X85349Y53423D01*
X70870Y53423D01*
X70870Y53423D01*
G37*
%LPD*%
%LPC*%
G36*
X17404Y6951D02*
X17404Y6951D01*
X12608Y8938D01*
X8938Y12608D01*
X6951Y17404D01*
X6951Y22596D01*
X8938Y27392D01*
X12608Y31062D01*
X17404Y33049D01*
X22449Y33049D01*
X22575Y33063D01*
X22701Y33070D01*
X22748Y33083D01*
X22796Y33089D01*
X22914Y33131D01*
X23036Y33166D01*
X23078Y33190D01*
X23124Y33206D01*
X23230Y33275D01*
X23340Y33336D01*
X23387Y33376D01*
X23416Y33395D01*
X23450Y33430D01*
X23526Y33495D01*
X24670Y34639D01*
X24702Y34678D01*
X24739Y34712D01*
X24809Y34814D01*
X24887Y34912D01*
X24908Y34957D01*
X24937Y34999D01*
X24983Y35114D01*
X25036Y35227D01*
X25046Y35276D01*
X25065Y35323D01*
X25083Y35446D01*
X25109Y35567D01*
X25108Y35618D01*
X25116Y35668D01*
X25105Y35792D01*
X25103Y35916D01*
X25091Y35965D01*
X25087Y36015D01*
X25048Y36133D01*
X25018Y36254D01*
X24995Y36299D01*
X24980Y36347D01*
X24915Y36453D01*
X24859Y36564D01*
X24826Y36602D01*
X24800Y36645D01*
X24713Y36734D01*
X24633Y36829D01*
X24592Y36859D01*
X24557Y36895D01*
X24452Y36962D01*
X24352Y37036D01*
X24306Y37056D01*
X24264Y37083D01*
X24147Y37125D01*
X24032Y37174D01*
X23983Y37183D01*
X23935Y37200D01*
X23812Y37214D01*
X23689Y37236D01*
X23639Y37233D01*
X23589Y37239D01*
X23466Y37224D01*
X23341Y37218D01*
X23293Y37204D01*
X23243Y37198D01*
X23010Y37123D01*
X23007Y37122D01*
X23006Y37121D01*
X22596Y36951D01*
X17404Y36951D01*
X12608Y38938D01*
X8938Y42608D01*
X6951Y47404D01*
X6951Y52596D01*
X8938Y57392D01*
X12608Y61062D01*
X17404Y63049D01*
X22596Y63049D01*
X27392Y61062D01*
X31062Y57392D01*
X31840Y55513D01*
X31877Y55446D01*
X31906Y55375D01*
X31962Y55294D01*
X32010Y55208D01*
X32061Y55152D01*
X32105Y55089D01*
X32178Y55023D01*
X32244Y54950D01*
X32307Y54907D01*
X32363Y54856D01*
X32449Y54808D01*
X32530Y54752D01*
X32601Y54724D01*
X32668Y54687D01*
X32763Y54660D01*
X32855Y54624D01*
X32930Y54613D01*
X33004Y54592D01*
X33153Y54580D01*
X33199Y54573D01*
X33218Y54575D01*
X33248Y54573D01*
X35910Y54573D01*
X37590Y53877D01*
X48060Y43407D01*
X48081Y43390D01*
X48099Y43370D01*
X48218Y43282D01*
X48333Y43190D01*
X48357Y43179D01*
X48379Y43163D01*
X48600Y43058D01*
X51023Y42146D01*
X51170Y42110D01*
X51316Y42068D01*
X51344Y42066D01*
X51361Y42062D01*
X51371Y42062D01*
X52568Y41566D01*
X52587Y41560D01*
X52615Y41547D01*
X53001Y41402D01*
X53402Y41251D01*
X53427Y41231D01*
X53451Y41219D01*
X53466Y41208D01*
X53508Y41190D01*
X53644Y41120D01*
X53993Y40976D01*
X55976Y38993D01*
X57049Y36402D01*
X57049Y33598D01*
X55976Y31007D01*
X53993Y29024D01*
X51402Y27951D01*
X48598Y27951D01*
X46007Y29024D01*
X44024Y31007D01*
X43880Y31356D01*
X43806Y31488D01*
X43747Y31602D01*
X43452Y32387D01*
X43443Y32404D01*
X43434Y32433D01*
X42929Y33652D01*
X42921Y33742D01*
X42913Y33768D01*
X42911Y33786D01*
X42896Y33830D01*
X42854Y33977D01*
X41942Y36400D01*
X41929Y36424D01*
X41922Y36450D01*
X41850Y36578D01*
X41782Y36710D01*
X41765Y36730D01*
X41752Y36754D01*
X41593Y36940D01*
X41370Y37163D01*
X41330Y37195D01*
X41297Y37232D01*
X41194Y37303D01*
X41097Y37380D01*
X41051Y37401D01*
X41010Y37430D01*
X40894Y37476D01*
X40782Y37529D01*
X40733Y37539D01*
X40686Y37558D01*
X40563Y37576D01*
X40441Y37602D01*
X40391Y37601D01*
X40341Y37609D01*
X40217Y37598D01*
X40093Y37596D01*
X40044Y37584D01*
X39994Y37580D01*
X39875Y37542D01*
X39755Y37511D01*
X39710Y37488D01*
X39662Y37473D01*
X39556Y37409D01*
X39445Y37352D01*
X39406Y37319D01*
X39363Y37293D01*
X39274Y37206D01*
X39179Y37126D01*
X39150Y37085D01*
X39113Y37050D01*
X39046Y36946D01*
X38972Y36846D01*
X38952Y36799D01*
X38925Y36757D01*
X38883Y36640D01*
X38834Y36526D01*
X38825Y36476D01*
X38808Y36428D01*
X38795Y36305D01*
X38773Y36183D01*
X38775Y36132D01*
X38770Y36082D01*
X38784Y35958D01*
X38790Y35835D01*
X38804Y35786D01*
X38810Y35736D01*
X38885Y35503D01*
X39549Y33902D01*
X39549Y31098D01*
X38476Y28507D01*
X33495Y23526D01*
X33416Y23427D01*
X33332Y23334D01*
X33308Y23291D01*
X33278Y23253D01*
X33224Y23139D01*
X33163Y23029D01*
X33150Y22982D01*
X33129Y22938D01*
X33103Y22815D01*
X33068Y22693D01*
X33063Y22632D01*
X33056Y22598D01*
X33057Y22550D01*
X33049Y22449D01*
X33049Y17404D01*
X31062Y12608D01*
X27392Y8938D01*
X22596Y6951D01*
X17404Y6951D01*
G37*
%LPD*%
%LPC*%
G36*
X52404Y166951D02*
X52404Y166951D01*
X47608Y168938D01*
X43938Y172608D01*
X41951Y177404D01*
X41951Y182596D01*
X43938Y187392D01*
X47608Y191062D01*
X52404Y193049D01*
X57596Y193049D01*
X62392Y191062D01*
X65959Y187495D01*
X66058Y187416D01*
X66152Y187332D01*
X66194Y187308D01*
X66232Y187278D01*
X66346Y187224D01*
X66457Y187163D01*
X66503Y187150D01*
X66547Y187129D01*
X66670Y187103D01*
X66792Y187068D01*
X66853Y187063D01*
X66888Y187056D01*
X66936Y187057D01*
X67036Y187049D01*
X81402Y187049D01*
X83993Y185976D01*
X85976Y183993D01*
X87049Y181402D01*
X87049Y178598D01*
X85976Y176007D01*
X83993Y174024D01*
X81402Y172951D01*
X67036Y172951D01*
X66910Y172937D01*
X66784Y172930D01*
X66738Y172917D01*
X66690Y172911D01*
X66571Y172869D01*
X66449Y172834D01*
X66407Y172810D01*
X66362Y172794D01*
X66255Y172725D01*
X66145Y172664D01*
X66099Y172624D01*
X66069Y172605D01*
X66035Y172570D01*
X65959Y172505D01*
X62392Y168938D01*
X57596Y166951D01*
X52404Y166951D01*
G37*
%LPD*%
%LPC*%
G36*
X29848Y161701D02*
X29848Y161701D01*
X27257Y162774D01*
X23526Y166505D01*
X23427Y166584D01*
X23334Y166668D01*
X23291Y166692D01*
X23253Y166722D01*
X23139Y166776D01*
X23029Y166837D01*
X22982Y166850D01*
X22938Y166871D01*
X22815Y166897D01*
X22693Y166932D01*
X22632Y166937D01*
X22598Y166944D01*
X22550Y166943D01*
X22449Y166951D01*
X17404Y166951D01*
X12608Y168938D01*
X8938Y172608D01*
X6951Y177404D01*
X6951Y182596D01*
X8938Y187392D01*
X12608Y191062D01*
X17404Y193049D01*
X22596Y193049D01*
X27392Y191062D01*
X31062Y187392D01*
X33049Y182596D01*
X33049Y177551D01*
X33063Y177425D01*
X33070Y177299D01*
X33083Y177252D01*
X33089Y177204D01*
X33131Y177085D01*
X33166Y176964D01*
X33190Y176922D01*
X33206Y176876D01*
X33275Y176770D01*
X33336Y176660D01*
X33376Y176614D01*
X33395Y176584D01*
X33430Y176550D01*
X33495Y176474D01*
X37226Y172743D01*
X38299Y170152D01*
X38299Y167348D01*
X37226Y164757D01*
X35243Y162774D01*
X32652Y161701D01*
X29848Y161701D01*
G37*
%LPD*%
%LPC*%
G36*
X55237Y139451D02*
X55237Y139451D01*
X53451Y141237D01*
X53451Y141428D01*
X53448Y141454D01*
X53450Y141480D01*
X53428Y141627D01*
X53411Y141774D01*
X53403Y141799D01*
X53399Y141825D01*
X53344Y141963D01*
X53294Y142102D01*
X53280Y142124D01*
X53270Y142149D01*
X53185Y142270D01*
X53105Y142395D01*
X53086Y142413D01*
X53071Y142435D01*
X52961Y142534D01*
X52854Y142637D01*
X52832Y142651D01*
X52812Y142668D01*
X52682Y142740D01*
X52555Y142816D01*
X52530Y142824D01*
X52507Y142837D01*
X52364Y142877D01*
X52223Y142922D01*
X52197Y142924D01*
X52172Y142932D01*
X51928Y142951D01*
X48598Y142951D01*
X46007Y144024D01*
X44024Y146007D01*
X42951Y148598D01*
X42951Y151402D01*
X44024Y153993D01*
X46007Y155976D01*
X48598Y157049D01*
X51928Y157049D01*
X51954Y157052D01*
X51980Y157050D01*
X52127Y157072D01*
X52274Y157089D01*
X52299Y157097D01*
X52325Y157101D01*
X52463Y157156D01*
X52602Y157206D01*
X52624Y157220D01*
X52649Y157230D01*
X52770Y157315D01*
X52895Y157395D01*
X52913Y157414D01*
X52935Y157429D01*
X53034Y157539D01*
X53137Y157646D01*
X53151Y157668D01*
X53168Y157688D01*
X53240Y157818D01*
X53316Y157945D01*
X53324Y157970D01*
X53337Y157993D01*
X53377Y158136D01*
X53422Y158277D01*
X53424Y158303D01*
X53432Y158328D01*
X53451Y158572D01*
X53451Y158763D01*
X55237Y160549D01*
X70763Y160549D01*
X71423Y159889D01*
X71443Y159872D01*
X71460Y159852D01*
X71579Y159764D01*
X71696Y159672D01*
X71720Y159661D01*
X71741Y159645D01*
X71877Y159587D01*
X72011Y159523D01*
X72037Y159518D01*
X72061Y159507D01*
X72207Y159481D01*
X72352Y159450D01*
X72378Y159450D01*
X72404Y159446D01*
X72552Y159453D01*
X72700Y159456D01*
X72726Y159462D01*
X72752Y159463D01*
X72894Y159505D01*
X73038Y159541D01*
X73061Y159553D01*
X73087Y159560D01*
X73216Y159633D01*
X73348Y159700D01*
X73368Y159717D01*
X73391Y159730D01*
X73577Y159889D01*
X73628Y159940D01*
X74323Y160341D01*
X75099Y160549D01*
X78953Y160549D01*
X78953Y151524D01*
X78954Y151515D01*
X78954Y151514D01*
X78955Y151506D01*
X78956Y151498D01*
X78954Y151472D01*
X78976Y151325D01*
X78993Y151178D01*
X79001Y151153D01*
X79005Y151127D01*
X79060Y150989D01*
X79110Y150850D01*
X79124Y150828D01*
X79134Y150803D01*
X79219Y150682D01*
X79299Y150557D01*
X79318Y150539D01*
X79333Y150517D01*
X79443Y150418D01*
X79550Y150315D01*
X79572Y150301D01*
X79592Y150284D01*
X79722Y150212D01*
X79849Y150136D01*
X79874Y150128D01*
X79897Y150115D01*
X80040Y150075D01*
X80181Y150030D01*
X80207Y150028D01*
X80232Y150020D01*
X80476Y150001D01*
X82001Y150001D01*
X82001Y149999D01*
X80476Y149999D01*
X80450Y149996D01*
X80424Y149998D01*
X80277Y149976D01*
X80130Y149959D01*
X80105Y149950D01*
X80079Y149947D01*
X79941Y149892D01*
X79802Y149842D01*
X79780Y149828D01*
X79755Y149818D01*
X79634Y149733D01*
X79509Y149653D01*
X79491Y149634D01*
X79469Y149619D01*
X79370Y149509D01*
X79267Y149402D01*
X79253Y149380D01*
X79236Y149360D01*
X79164Y149230D01*
X79088Y149103D01*
X79080Y149078D01*
X79067Y149055D01*
X79027Y148912D01*
X78982Y148771D01*
X78980Y148745D01*
X78972Y148720D01*
X78953Y148476D01*
X78953Y139451D01*
X75099Y139451D01*
X74323Y139659D01*
X73628Y140060D01*
X73577Y140111D01*
X73557Y140128D01*
X73540Y140148D01*
X73420Y140236D01*
X73304Y140328D01*
X73280Y140339D01*
X73259Y140355D01*
X73123Y140413D01*
X72989Y140477D01*
X72963Y140482D01*
X72939Y140493D01*
X72793Y140519D01*
X72648Y140550D01*
X72622Y140550D01*
X72596Y140554D01*
X72448Y140547D01*
X72300Y140544D01*
X72274Y140538D01*
X72248Y140537D01*
X72106Y140496D01*
X71962Y140459D01*
X71938Y140447D01*
X71913Y140440D01*
X71784Y140368D01*
X71652Y140300D01*
X71632Y140283D01*
X71609Y140270D01*
X71423Y140111D01*
X70763Y139451D01*
X55237Y139451D01*
G37*
%LPD*%
%LPC*%
G36*
X23047Y143047D02*
X23047Y143047D01*
X23047Y152729D01*
X23056Y152727D01*
X25009Y152093D01*
X26839Y151160D01*
X28501Y149953D01*
X29953Y148501D01*
X31160Y146839D01*
X32093Y145009D01*
X32727Y143056D01*
X32729Y143047D01*
X23047Y143047D01*
G37*
%LPD*%
%LPC*%
G36*
X7271Y143047D02*
X7271Y143047D01*
X7273Y143056D01*
X7907Y145009D01*
X8840Y146839D01*
X10047Y148501D01*
X11499Y149953D01*
X13161Y151160D01*
X14991Y152093D01*
X16944Y152727D01*
X16953Y152729D01*
X16953Y143047D01*
X7271Y143047D01*
G37*
%LPD*%
%LPC*%
G36*
X23047Y136953D02*
X23047Y136953D01*
X32729Y136953D01*
X32727Y136944D01*
X32093Y134991D01*
X31160Y133161D01*
X29953Y131499D01*
X28501Y130047D01*
X26839Y128840D01*
X25009Y127907D01*
X23056Y127273D01*
X23047Y127271D01*
X23047Y136953D01*
G37*
%LPD*%
%LPC*%
G36*
X16944Y127273D02*
X16944Y127273D01*
X14991Y127907D01*
X13161Y128840D01*
X11499Y130047D01*
X10047Y131499D01*
X8840Y133161D01*
X7907Y134991D01*
X7273Y136944D01*
X7271Y136953D01*
X16953Y136953D01*
X16953Y127271D01*
X16944Y127273D01*
G37*
%LPD*%
%LPC*%
G36*
X72393Y45803D02*
X72393Y45803D01*
X72393Y50377D01*
X85349Y50377D01*
X85349Y48451D01*
X85141Y47675D01*
X84740Y46980D01*
X84172Y46412D01*
X83477Y46011D01*
X82701Y45803D01*
X72393Y45803D01*
G37*
%LPD*%
%LPC*%
G36*
X59039Y45803D02*
X59039Y45803D01*
X58263Y46011D01*
X57568Y46412D01*
X57000Y46980D01*
X56599Y47675D01*
X56391Y48451D01*
X56391Y50377D01*
X69347Y50377D01*
X69347Y45803D01*
X59039Y45803D01*
G37*
%LPD*%
%LPC*%
G36*
X85047Y153047D02*
X85047Y153047D01*
X85047Y160549D01*
X88901Y160549D01*
X89677Y160341D01*
X90372Y159940D01*
X90940Y159372D01*
X91341Y158677D01*
X91549Y157901D01*
X91549Y153047D01*
X85047Y153047D01*
G37*
%LPD*%
%LPC*%
G36*
X85047Y139451D02*
X85047Y139451D01*
X85047Y146953D01*
X91549Y146953D01*
X91549Y142099D01*
X91341Y141323D01*
X90940Y140628D01*
X90372Y140060D01*
X89677Y139659D01*
X88901Y139451D01*
X85047Y139451D01*
G37*
%LPD*%
%LPC*%
G36*
X98451Y153047D02*
X98451Y153047D01*
X98451Y157901D01*
X98659Y158677D01*
X99060Y159372D01*
X99628Y159940D01*
X100323Y160341D01*
X101099Y160549D01*
X104953Y160549D01*
X104953Y153047D01*
X98451Y153047D01*
G37*
%LPD*%
%LPC*%
G36*
X101099Y139451D02*
X101099Y139451D01*
X100323Y139659D01*
X99628Y140060D01*
X99060Y140628D01*
X98659Y141323D01*
X98451Y142099D01*
X98451Y146953D01*
X104953Y146953D01*
X104953Y139451D01*
X101099Y139451D01*
G37*
%LPD*%
%LPC*%
G36*
X19999Y139999D02*
X19999Y139999D01*
X19999Y140001D01*
X20001Y140001D01*
X20001Y139999D01*
X19999Y139999D01*
G37*
%LPD*%
D10*
X105932Y183443D02*
X105932Y193857D01*
X108825Y193857D01*
X108932Y193855D01*
X109039Y193849D01*
X109145Y193839D01*
X109251Y193825D01*
X109357Y193808D01*
X109461Y193786D01*
X109565Y193761D01*
X109668Y193731D01*
X109770Y193698D01*
X109870Y193662D01*
X109969Y193621D01*
X110066Y193577D01*
X110162Y193529D01*
X110256Y193478D01*
X110348Y193424D01*
X110438Y193366D01*
X110525Y193304D01*
X110611Y193240D01*
X110694Y193173D01*
X110774Y193102D01*
X110852Y193028D01*
X110927Y192952D01*
X110999Y192873D01*
X111068Y192792D01*
X111134Y192707D01*
X111197Y192621D01*
X111256Y192532D01*
X111312Y192441D01*
X111365Y192348D01*
X111415Y192254D01*
X111461Y192157D01*
X111503Y192059D01*
X111541Y191959D01*
X111576Y191858D01*
X111608Y191756D01*
X111635Y191652D01*
X111658Y191548D01*
X111678Y191443D01*
X111694Y191337D01*
X111706Y191231D01*
X111714Y191124D01*
X111718Y191017D01*
X111718Y190911D01*
X111714Y190804D01*
X111706Y190697D01*
X111694Y190591D01*
X111678Y190485D01*
X111658Y190380D01*
X111635Y190276D01*
X111608Y190172D01*
X111576Y190070D01*
X111541Y189969D01*
X111503Y189869D01*
X111461Y189771D01*
X111415Y189674D01*
X111365Y189580D01*
X111312Y189487D01*
X111256Y189396D01*
X111197Y189307D01*
X111134Y189221D01*
X111068Y189136D01*
X110999Y189055D01*
X110927Y188976D01*
X110852Y188900D01*
X110774Y188826D01*
X110694Y188755D01*
X110611Y188688D01*
X110525Y188624D01*
X110438Y188562D01*
X110348Y188504D01*
X110256Y188450D01*
X110162Y188399D01*
X110066Y188351D01*
X109969Y188307D01*
X109870Y188266D01*
X109770Y188230D01*
X109668Y188197D01*
X109565Y188167D01*
X109461Y188142D01*
X109357Y188120D01*
X109251Y188103D01*
X109145Y188089D01*
X109039Y188079D01*
X108932Y188073D01*
X108825Y188071D01*
X105932Y188071D01*
X117087Y186336D02*
X117087Y193857D01*
X117087Y186336D02*
X117089Y186229D01*
X117095Y186122D01*
X117105Y186016D01*
X117119Y185910D01*
X117136Y185804D01*
X117158Y185700D01*
X117183Y185596D01*
X117213Y185493D01*
X117246Y185391D01*
X117282Y185291D01*
X117323Y185192D01*
X117367Y185095D01*
X117415Y184999D01*
X117466Y184905D01*
X117520Y184813D01*
X117578Y184723D01*
X117640Y184636D01*
X117704Y184550D01*
X117771Y184467D01*
X117842Y184387D01*
X117916Y184309D01*
X117992Y184234D01*
X118071Y184162D01*
X118152Y184093D01*
X118237Y184027D01*
X118323Y183964D01*
X118412Y183905D01*
X118503Y183849D01*
X118596Y183796D01*
X118690Y183746D01*
X118787Y183700D01*
X118885Y183658D01*
X118985Y183620D01*
X119086Y183585D01*
X119188Y183553D01*
X119292Y183526D01*
X119396Y183503D01*
X119501Y183483D01*
X119607Y183467D01*
X119713Y183455D01*
X119820Y183447D01*
X119927Y183443D01*
X120033Y183443D01*
X120140Y183447D01*
X120247Y183455D01*
X120353Y183467D01*
X120459Y183483D01*
X120564Y183503D01*
X120668Y183526D01*
X120772Y183553D01*
X120874Y183585D01*
X120975Y183620D01*
X121075Y183658D01*
X121173Y183700D01*
X121270Y183746D01*
X121364Y183796D01*
X121457Y183849D01*
X121548Y183905D01*
X121637Y183964D01*
X121723Y184027D01*
X121808Y184093D01*
X121889Y184162D01*
X121968Y184234D01*
X122044Y184309D01*
X122118Y184387D01*
X122189Y184467D01*
X122256Y184550D01*
X122320Y184636D01*
X122382Y184723D01*
X122440Y184813D01*
X122494Y184905D01*
X122545Y184999D01*
X122593Y185095D01*
X122637Y185192D01*
X122678Y185291D01*
X122714Y185391D01*
X122747Y185493D01*
X122777Y185596D01*
X122802Y185700D01*
X122824Y185804D01*
X122841Y185910D01*
X122855Y186016D01*
X122865Y186122D01*
X122871Y186229D01*
X122873Y186336D01*
X122873Y193857D01*
X129082Y187493D02*
X136024Y187493D01*
X141852Y191543D02*
X144745Y193857D01*
X144745Y183443D01*
X141852Y183443D02*
X147638Y183443D01*
X153282Y186336D02*
X153284Y186443D01*
X153290Y186550D01*
X153300Y186656D01*
X153314Y186762D01*
X153331Y186868D01*
X153353Y186972D01*
X153378Y187076D01*
X153408Y187179D01*
X153441Y187281D01*
X153477Y187381D01*
X153518Y187480D01*
X153562Y187577D01*
X153610Y187673D01*
X153661Y187767D01*
X153715Y187859D01*
X153773Y187949D01*
X153835Y188036D01*
X153899Y188122D01*
X153966Y188205D01*
X154037Y188285D01*
X154111Y188363D01*
X154187Y188438D01*
X154266Y188510D01*
X154347Y188579D01*
X154432Y188645D01*
X154518Y188708D01*
X154607Y188767D01*
X154698Y188823D01*
X154791Y188876D01*
X154885Y188926D01*
X154982Y188972D01*
X155080Y189014D01*
X155180Y189052D01*
X155281Y189087D01*
X155383Y189119D01*
X155487Y189146D01*
X155591Y189169D01*
X155696Y189189D01*
X155802Y189205D01*
X155908Y189217D01*
X156015Y189225D01*
X156122Y189229D01*
X156228Y189229D01*
X156335Y189225D01*
X156442Y189217D01*
X156548Y189205D01*
X156654Y189189D01*
X156759Y189169D01*
X156863Y189146D01*
X156967Y189119D01*
X157069Y189087D01*
X157170Y189052D01*
X157270Y189014D01*
X157368Y188972D01*
X157465Y188926D01*
X157559Y188876D01*
X157652Y188823D01*
X157743Y188767D01*
X157832Y188708D01*
X157918Y188645D01*
X158003Y188579D01*
X158084Y188510D01*
X158163Y188438D01*
X158239Y188363D01*
X158313Y188285D01*
X158384Y188205D01*
X158451Y188122D01*
X158515Y188036D01*
X158577Y187949D01*
X158635Y187859D01*
X158689Y187767D01*
X158740Y187673D01*
X158788Y187577D01*
X158832Y187480D01*
X158873Y187381D01*
X158909Y187281D01*
X158942Y187179D01*
X158972Y187076D01*
X158997Y186972D01*
X159019Y186868D01*
X159036Y186762D01*
X159050Y186656D01*
X159060Y186550D01*
X159066Y186443D01*
X159068Y186336D01*
X159066Y186229D01*
X159060Y186122D01*
X159050Y186016D01*
X159036Y185910D01*
X159019Y185804D01*
X158997Y185700D01*
X158972Y185596D01*
X158942Y185493D01*
X158909Y185391D01*
X158873Y185291D01*
X158832Y185192D01*
X158788Y185095D01*
X158740Y184999D01*
X158689Y184905D01*
X158635Y184813D01*
X158577Y184723D01*
X158515Y184636D01*
X158451Y184550D01*
X158384Y184467D01*
X158313Y184387D01*
X158239Y184309D01*
X158163Y184234D01*
X158084Y184162D01*
X158003Y184093D01*
X157918Y184027D01*
X157832Y183964D01*
X157743Y183905D01*
X157652Y183849D01*
X157559Y183796D01*
X157465Y183746D01*
X157368Y183700D01*
X157270Y183658D01*
X157170Y183620D01*
X157069Y183585D01*
X156967Y183553D01*
X156863Y183526D01*
X156759Y183503D01*
X156654Y183483D01*
X156548Y183467D01*
X156442Y183455D01*
X156335Y183447D01*
X156228Y183443D01*
X156122Y183443D01*
X156015Y183447D01*
X155908Y183455D01*
X155802Y183467D01*
X155696Y183483D01*
X155591Y183503D01*
X155487Y183526D01*
X155383Y183553D01*
X155281Y183585D01*
X155180Y183620D01*
X155080Y183658D01*
X154982Y183700D01*
X154885Y183746D01*
X154791Y183796D01*
X154698Y183849D01*
X154607Y183905D01*
X154518Y183964D01*
X154432Y184027D01*
X154347Y184093D01*
X154266Y184162D01*
X154187Y184234D01*
X154111Y184309D01*
X154037Y184387D01*
X153966Y184467D01*
X153899Y184550D01*
X153835Y184636D01*
X153773Y184723D01*
X153715Y184813D01*
X153661Y184905D01*
X153610Y184999D01*
X153562Y185095D01*
X153518Y185192D01*
X153477Y185291D01*
X153441Y185391D01*
X153408Y185493D01*
X153378Y185596D01*
X153353Y185700D01*
X153331Y185804D01*
X153314Y185910D01*
X153300Y186016D01*
X153290Y186122D01*
X153284Y186229D01*
X153282Y186336D01*
X153861Y191543D02*
X153863Y191637D01*
X153869Y191732D01*
X153878Y191826D01*
X153892Y191919D01*
X153909Y192012D01*
X153930Y192104D01*
X153955Y192195D01*
X153983Y192285D01*
X154015Y192374D01*
X154051Y192461D01*
X154090Y192547D01*
X154133Y192631D01*
X154179Y192714D01*
X154228Y192794D01*
X154281Y192872D01*
X154337Y192949D01*
X154396Y193022D01*
X154457Y193094D01*
X154522Y193162D01*
X154590Y193229D01*
X154660Y193292D01*
X154732Y193352D01*
X154807Y193410D01*
X154885Y193464D01*
X154964Y193515D01*
X155045Y193563D01*
X155129Y193607D01*
X155214Y193648D01*
X155300Y193685D01*
X155388Y193719D01*
X155478Y193750D01*
X155568Y193776D01*
X155660Y193799D01*
X155753Y193818D01*
X155846Y193833D01*
X155939Y193845D01*
X156033Y193853D01*
X156128Y193857D01*
X156222Y193857D01*
X156317Y193853D01*
X156411Y193845D01*
X156504Y193833D01*
X156597Y193818D01*
X156690Y193799D01*
X156782Y193776D01*
X156872Y193750D01*
X156962Y193719D01*
X157050Y193685D01*
X157136Y193648D01*
X157221Y193607D01*
X157305Y193563D01*
X157386Y193515D01*
X157465Y193464D01*
X157543Y193410D01*
X157618Y193352D01*
X157690Y193292D01*
X157760Y193229D01*
X157828Y193162D01*
X157893Y193094D01*
X157954Y193022D01*
X158013Y192949D01*
X158069Y192872D01*
X158122Y192794D01*
X158171Y192714D01*
X158217Y192631D01*
X158260Y192547D01*
X158299Y192461D01*
X158335Y192374D01*
X158367Y192285D01*
X158395Y192195D01*
X158420Y192104D01*
X158441Y192012D01*
X158458Y191919D01*
X158472Y191826D01*
X158481Y191732D01*
X158487Y191637D01*
X158489Y191543D01*
X158487Y191449D01*
X158481Y191354D01*
X158472Y191260D01*
X158458Y191167D01*
X158441Y191074D01*
X158420Y190982D01*
X158395Y190891D01*
X158367Y190801D01*
X158335Y190712D01*
X158299Y190625D01*
X158260Y190539D01*
X158217Y190455D01*
X158171Y190372D01*
X158122Y190292D01*
X158069Y190214D01*
X158013Y190137D01*
X157954Y190064D01*
X157893Y189992D01*
X157828Y189924D01*
X157760Y189857D01*
X157690Y189794D01*
X157618Y189734D01*
X157543Y189676D01*
X157465Y189622D01*
X157386Y189571D01*
X157305Y189523D01*
X157221Y189479D01*
X157136Y189438D01*
X157050Y189401D01*
X156962Y189367D01*
X156872Y189336D01*
X156782Y189310D01*
X156690Y189287D01*
X156597Y189268D01*
X156504Y189253D01*
X156411Y189241D01*
X156317Y189233D01*
X156222Y189229D01*
X156128Y189229D01*
X156033Y189233D01*
X155939Y189241D01*
X155846Y189253D01*
X155753Y189268D01*
X155660Y189287D01*
X155568Y189310D01*
X155478Y189336D01*
X155388Y189367D01*
X155300Y189401D01*
X155214Y189438D01*
X155129Y189479D01*
X155045Y189523D01*
X154964Y189571D01*
X154885Y189622D01*
X154807Y189676D01*
X154732Y189734D01*
X154660Y189794D01*
X154590Y189857D01*
X154522Y189924D01*
X154457Y189992D01*
X154396Y190064D01*
X154337Y190137D01*
X154281Y190214D01*
X154228Y190292D01*
X154179Y190372D01*
X154133Y190455D01*
X154090Y190539D01*
X154051Y190625D01*
X154015Y190712D01*
X153983Y190801D01*
X153955Y190891D01*
X153930Y190982D01*
X153909Y191074D01*
X153892Y191167D01*
X153878Y191260D01*
X153869Y191354D01*
X153863Y191449D01*
X153861Y191543D01*
X56707Y16557D02*
X56707Y6143D01*
X56707Y16557D02*
X59600Y16557D01*
X59707Y16555D01*
X59814Y16549D01*
X59920Y16539D01*
X60026Y16525D01*
X60132Y16508D01*
X60236Y16486D01*
X60340Y16461D01*
X60443Y16431D01*
X60545Y16398D01*
X60645Y16362D01*
X60744Y16321D01*
X60841Y16277D01*
X60937Y16229D01*
X61031Y16178D01*
X61123Y16124D01*
X61213Y16066D01*
X61300Y16004D01*
X61386Y15940D01*
X61469Y15873D01*
X61549Y15802D01*
X61627Y15728D01*
X61702Y15652D01*
X61774Y15573D01*
X61843Y15492D01*
X61909Y15407D01*
X61972Y15321D01*
X62031Y15232D01*
X62087Y15141D01*
X62140Y15048D01*
X62190Y14954D01*
X62236Y14857D01*
X62278Y14759D01*
X62316Y14659D01*
X62351Y14558D01*
X62383Y14456D01*
X62410Y14352D01*
X62433Y14248D01*
X62453Y14143D01*
X62469Y14037D01*
X62481Y13931D01*
X62489Y13824D01*
X62493Y13717D01*
X62493Y13611D01*
X62489Y13504D01*
X62481Y13397D01*
X62469Y13291D01*
X62453Y13185D01*
X62433Y13080D01*
X62410Y12976D01*
X62383Y12872D01*
X62351Y12770D01*
X62316Y12669D01*
X62278Y12569D01*
X62236Y12471D01*
X62190Y12374D01*
X62140Y12280D01*
X62087Y12187D01*
X62031Y12096D01*
X61972Y12007D01*
X61909Y11921D01*
X61843Y11836D01*
X61774Y11755D01*
X61702Y11676D01*
X61627Y11600D01*
X61549Y11526D01*
X61469Y11455D01*
X61386Y11388D01*
X61300Y11324D01*
X61213Y11262D01*
X61123Y11204D01*
X61031Y11150D01*
X60937Y11099D01*
X60841Y11051D01*
X60744Y11007D01*
X60645Y10966D01*
X60545Y10930D01*
X60443Y10897D01*
X60340Y10867D01*
X60236Y10842D01*
X60132Y10820D01*
X60026Y10803D01*
X59920Y10789D01*
X59814Y10779D01*
X59707Y10773D01*
X59600Y10771D01*
X56707Y10771D01*
X70571Y6143D02*
X70667Y6145D01*
X70762Y6151D01*
X70857Y6161D01*
X70952Y6175D01*
X71046Y6192D01*
X71139Y6214D01*
X71231Y6239D01*
X71322Y6268D01*
X71412Y6301D01*
X71501Y6338D01*
X71587Y6378D01*
X71672Y6422D01*
X71756Y6469D01*
X71837Y6520D01*
X71916Y6574D01*
X71992Y6631D01*
X72067Y6691D01*
X72138Y6755D01*
X72207Y6821D01*
X72273Y6890D01*
X72337Y6961D01*
X72397Y7036D01*
X72454Y7112D01*
X72508Y7191D01*
X72559Y7273D01*
X72606Y7356D01*
X72650Y7441D01*
X72690Y7527D01*
X72727Y7616D01*
X72760Y7706D01*
X72789Y7797D01*
X72814Y7889D01*
X72836Y7982D01*
X72853Y8076D01*
X72867Y8171D01*
X72877Y8266D01*
X72883Y8361D01*
X72885Y8457D01*
X70571Y6143D02*
X70433Y6145D01*
X70295Y6151D01*
X70158Y6160D01*
X70021Y6174D01*
X69884Y6192D01*
X69748Y6213D01*
X69612Y6238D01*
X69477Y6267D01*
X69344Y6300D01*
X69211Y6336D01*
X69079Y6376D01*
X68948Y6420D01*
X68819Y6468D01*
X68691Y6519D01*
X68564Y6574D01*
X68439Y6632D01*
X68316Y6694D01*
X68195Y6759D01*
X68075Y6828D01*
X67958Y6900D01*
X67842Y6976D01*
X67729Y7054D01*
X67618Y7136D01*
X67509Y7221D01*
X67403Y7308D01*
X67299Y7399D01*
X67198Y7493D01*
X67099Y7589D01*
X67390Y14243D02*
X67392Y14336D01*
X67398Y14429D01*
X67407Y14522D01*
X67420Y14614D01*
X67437Y14706D01*
X67457Y14797D01*
X67481Y14887D01*
X67509Y14976D01*
X67540Y15064D01*
X67575Y15150D01*
X67613Y15235D01*
X67655Y15318D01*
X67700Y15400D01*
X67748Y15480D01*
X67800Y15558D01*
X67854Y15633D01*
X67912Y15706D01*
X67972Y15777D01*
X68035Y15846D01*
X68101Y15912D01*
X68170Y15975D01*
X68241Y16035D01*
X68314Y16093D01*
X68389Y16147D01*
X68467Y16199D01*
X68547Y16247D01*
X68629Y16292D01*
X68712Y16334D01*
X68797Y16372D01*
X68883Y16407D01*
X68971Y16438D01*
X69060Y16466D01*
X69150Y16490D01*
X69241Y16510D01*
X69333Y16527D01*
X69425Y16540D01*
X69518Y16549D01*
X69611Y16555D01*
X69704Y16557D01*
X69831Y16555D01*
X69958Y16550D01*
X70084Y16540D01*
X70211Y16527D01*
X70336Y16511D01*
X70462Y16490D01*
X70586Y16466D01*
X70710Y16439D01*
X70833Y16408D01*
X70955Y16373D01*
X71076Y16334D01*
X71196Y16292D01*
X71314Y16247D01*
X71432Y16198D01*
X71547Y16146D01*
X71661Y16090D01*
X71774Y16032D01*
X71884Y15969D01*
X71993Y15904D01*
X72100Y15835D01*
X72205Y15764D01*
X72307Y15689D01*
X68547Y12218D02*
X68467Y12268D01*
X68389Y12320D01*
X68314Y12375D01*
X68240Y12434D01*
X68169Y12495D01*
X68101Y12559D01*
X68035Y12626D01*
X67971Y12696D01*
X67911Y12767D01*
X67854Y12842D01*
X67799Y12918D01*
X67748Y12997D01*
X67700Y13077D01*
X67655Y13159D01*
X67613Y13244D01*
X67575Y13329D01*
X67540Y13416D01*
X67509Y13505D01*
X67481Y13595D01*
X67457Y13685D01*
X67437Y13777D01*
X67420Y13869D01*
X67407Y13962D01*
X67397Y14056D01*
X67392Y14149D01*
X67390Y14243D01*
X71728Y10482D02*
X71808Y10432D01*
X71886Y10380D01*
X71962Y10324D01*
X72035Y10266D01*
X72106Y10205D01*
X72174Y10141D01*
X72240Y10074D01*
X72304Y10004D01*
X72364Y9933D01*
X72421Y9858D01*
X72476Y9782D01*
X72527Y9703D01*
X72575Y9623D01*
X72620Y9541D01*
X72662Y9456D01*
X72700Y9371D01*
X72735Y9284D01*
X72766Y9195D01*
X72794Y9105D01*
X72818Y9015D01*
X72838Y8923D01*
X72855Y8831D01*
X72868Y8738D01*
X72878Y8644D01*
X72883Y8551D01*
X72885Y8457D01*
X71729Y10482D02*
X68547Y12218D01*
X78756Y16557D02*
X78756Y6143D01*
X77599Y6143D02*
X79913Y6143D01*
X79913Y16557D02*
X77599Y16557D01*
X85007Y13664D02*
X85007Y9036D01*
X85007Y13664D02*
X85009Y13771D01*
X85015Y13878D01*
X85025Y13984D01*
X85039Y14090D01*
X85056Y14196D01*
X85078Y14300D01*
X85103Y14404D01*
X85133Y14507D01*
X85166Y14609D01*
X85202Y14709D01*
X85243Y14808D01*
X85287Y14905D01*
X85335Y15001D01*
X85386Y15095D01*
X85440Y15187D01*
X85498Y15277D01*
X85560Y15364D01*
X85624Y15450D01*
X85691Y15533D01*
X85762Y15613D01*
X85836Y15691D01*
X85912Y15766D01*
X85991Y15838D01*
X86072Y15907D01*
X86157Y15973D01*
X86243Y16036D01*
X86332Y16095D01*
X86423Y16151D01*
X86516Y16204D01*
X86610Y16254D01*
X86707Y16300D01*
X86805Y16342D01*
X86905Y16380D01*
X87006Y16415D01*
X87108Y16447D01*
X87212Y16474D01*
X87316Y16497D01*
X87421Y16517D01*
X87527Y16533D01*
X87633Y16545D01*
X87740Y16553D01*
X87847Y16557D01*
X87953Y16557D01*
X88060Y16553D01*
X88167Y16545D01*
X88273Y16533D01*
X88379Y16517D01*
X88484Y16497D01*
X88588Y16474D01*
X88692Y16447D01*
X88794Y16415D01*
X88895Y16380D01*
X88995Y16342D01*
X89093Y16300D01*
X89190Y16254D01*
X89284Y16204D01*
X89377Y16151D01*
X89468Y16095D01*
X89557Y16036D01*
X89643Y15973D01*
X89728Y15907D01*
X89809Y15838D01*
X89888Y15766D01*
X89964Y15691D01*
X90038Y15613D01*
X90109Y15533D01*
X90176Y15450D01*
X90240Y15364D01*
X90302Y15277D01*
X90360Y15187D01*
X90414Y15095D01*
X90465Y15001D01*
X90513Y14905D01*
X90557Y14808D01*
X90598Y14709D01*
X90634Y14609D01*
X90667Y14507D01*
X90697Y14404D01*
X90722Y14300D01*
X90744Y14196D01*
X90761Y14090D01*
X90775Y13984D01*
X90785Y13878D01*
X90791Y13771D01*
X90793Y13664D01*
X90793Y9036D01*
X90791Y8929D01*
X90785Y8822D01*
X90775Y8716D01*
X90761Y8610D01*
X90744Y8504D01*
X90722Y8400D01*
X90697Y8296D01*
X90667Y8193D01*
X90634Y8091D01*
X90598Y7991D01*
X90557Y7892D01*
X90513Y7795D01*
X90465Y7699D01*
X90414Y7605D01*
X90360Y7513D01*
X90302Y7423D01*
X90240Y7336D01*
X90176Y7250D01*
X90109Y7167D01*
X90038Y7087D01*
X89964Y7009D01*
X89888Y6934D01*
X89809Y6862D01*
X89728Y6793D01*
X89643Y6727D01*
X89557Y6664D01*
X89468Y6605D01*
X89377Y6549D01*
X89284Y6496D01*
X89190Y6446D01*
X89093Y6400D01*
X88995Y6358D01*
X88895Y6320D01*
X88794Y6285D01*
X88692Y6253D01*
X88588Y6226D01*
X88484Y6203D01*
X88379Y6183D01*
X88273Y6167D01*
X88167Y6155D01*
X88060Y6147D01*
X87953Y6143D01*
X87847Y6143D01*
X87740Y6147D01*
X87633Y6155D01*
X87527Y6167D01*
X87421Y6183D01*
X87316Y6203D01*
X87212Y6226D01*
X87108Y6253D01*
X87006Y6285D01*
X86905Y6320D01*
X86805Y6358D01*
X86707Y6400D01*
X86610Y6446D01*
X86516Y6496D01*
X86423Y6549D01*
X86332Y6605D01*
X86243Y6664D01*
X86157Y6727D01*
X86072Y6793D01*
X85991Y6862D01*
X85912Y6934D01*
X85836Y7009D01*
X85762Y7087D01*
X85691Y7167D01*
X85624Y7250D01*
X85560Y7336D01*
X85498Y7423D01*
X85440Y7513D01*
X85386Y7605D01*
X85335Y7699D01*
X85287Y7795D01*
X85243Y7892D01*
X85202Y7991D01*
X85166Y8091D01*
X85133Y8193D01*
X85103Y8296D01*
X85078Y8400D01*
X85056Y8504D01*
X85039Y8610D01*
X85025Y8716D01*
X85015Y8822D01*
X85009Y8929D01*
X85007Y9036D01*
D11*
X108000Y150000D03*
X127000Y150000D03*
D12*
X155000Y20000D03*
X125000Y20000D03*
X20000Y80000D03*
X20000Y140000D03*
X55000Y180000D03*
X20000Y180000D03*
D11*
X63000Y150000D03*
X82000Y150000D03*
D13*
X150000Y140500D03*
X150000Y159500D03*
X150000Y69500D03*
X150000Y50500D03*
X150000Y95500D03*
X150000Y114500D03*
D12*
X20000Y110000D03*
X20000Y20000D03*
X20000Y50000D03*
D14*
X70870Y128100D03*
X70870Y115400D03*
X70870Y102700D03*
X70870Y90000D03*
X70870Y77300D03*
X70870Y64600D03*
X70870Y51900D03*
X119130Y51900D03*
X119130Y64600D03*
X119130Y77300D03*
X119130Y90000D03*
X119130Y102700D03*
X119130Y115400D03*
X119130Y128100D03*
D15*
X70870Y77300D02*
X70870Y64600D01*
D16*
X50000Y64600D03*
X50000Y150000D03*
D17*
X63000Y150000D01*
D15*
X50000Y75000D02*
X50000Y64600D01*
X50000Y75000D02*
X45000Y80000D01*
X20000Y80000D01*
X50000Y64600D02*
X70870Y64600D01*
X50000Y70600D02*
X47745Y65622D01*
X50000Y64600D01*
X52255Y65622D02*
X50000Y70600D01*
X52255Y65622D02*
X50000Y64600D01*
X51022Y66855D02*
X56000Y64600D01*
X51022Y66855D02*
X50000Y64600D01*
X51022Y62345D02*
X56000Y64600D01*
X51022Y62345D02*
X50000Y64600D01*
D17*
X31250Y168750D02*
X20000Y180000D01*
D16*
X31250Y168750D03*
X98750Y51900D03*
D15*
X119130Y51900D01*
X104750Y51900D02*
X99772Y54155D01*
X98750Y51900D01*
X99772Y49645D02*
X104750Y51900D01*
X99772Y49645D02*
X98750Y51900D01*
X98750Y90000D02*
X119130Y90000D01*
X35000Y50000D02*
X20000Y50000D01*
X35000Y50000D02*
X50000Y35000D01*
D16*
X50000Y35000D03*
X98750Y90000D03*
D15*
X45757Y39243D02*
X47683Y34128D01*
X50000Y35000D01*
X50872Y37317D02*
X45757Y39243D01*
X50872Y37317D02*
X50000Y35000D01*
X99772Y92255D02*
X104750Y90000D01*
X99772Y92255D02*
X98750Y90000D01*
X99772Y87745D02*
X104750Y90000D01*
X99772Y87745D02*
X98750Y90000D01*
D16*
X91250Y127500D03*
D15*
X90650Y128100D01*
X70870Y128100D01*
D17*
X143750Y31250D02*
X155000Y20000D01*
D16*
X143750Y31250D03*
D17*
X80000Y180000D02*
X55000Y180000D01*
D16*
X80000Y180000D03*
D15*
X85280Y128100D02*
X90008Y125358D01*
X91250Y127500D01*
X90459Y129846D02*
X85280Y128100D01*
X90459Y129846D02*
X91250Y127500D01*
X91250Y115400D02*
X70870Y115400D01*
D16*
X91250Y115400D03*
X150000Y127500D03*
D17*
X150000Y140500D01*
D16*
X32500Y32500D03*
X48750Y115400D03*
D15*
X70870Y115400D01*
D17*
X32500Y32500D02*
X20000Y20000D01*
D15*
X85250Y115400D02*
X90228Y113145D01*
X91250Y115400D01*
X90228Y117655D02*
X85250Y115400D01*
X90228Y117655D02*
X91250Y115400D01*
X54750Y115400D02*
X49772Y117655D01*
X48750Y115400D01*
X49772Y113145D02*
X54750Y115400D01*
X49772Y113145D02*
X48750Y115400D01*
X136250Y62100D02*
X136250Y45000D01*
X136250Y62100D02*
X133750Y64600D01*
X119130Y64600D01*
X136250Y45000D02*
X125000Y33750D01*
X125000Y20000D01*
X119130Y64600D02*
X119130Y77300D01*
X139700Y77300D01*
X147500Y69500D02*
X150000Y69500D01*
X147500Y69500D02*
X139700Y77300D01*
X119130Y102700D02*
X70870Y102700D01*
X119130Y102700D02*
X119130Y115400D01*
X119130Y102700D02*
X140300Y102700D01*
X147500Y95500D02*
X150000Y95500D01*
X147500Y95500D02*
X140300Y102700D01*
X70870Y51900D02*
X61900Y51900D01*
D16*
X107500Y167500D03*
X98750Y26250D03*
X48750Y133750D03*
X31250Y98750D03*
X163750Y160000D03*
D18*
X161250Y114500D02*
X150000Y114500D01*
X119130Y128100D02*
X119130Y138100D01*
X127000Y145970D02*
X127000Y150000D01*
X127000Y145970D02*
X119130Y138100D01*
X150000Y50500D02*
X160500Y50500D01*
X165000Y55000D01*
X165000Y111250D01*
X165000Y118250D01*
X150000Y159500D02*
X150500Y160000D01*
D17*
X158375Y160000D01*
X163750Y160000D01*
D18*
X165000Y158750D01*
X165000Y153375D01*
X165000Y118250D01*
D17*
X31250Y98750D02*
X20000Y110000D01*
X127000Y150000D02*
X127000Y165000D01*
D16*
X127000Y165000D03*
D18*
X165000Y118250D02*
X161250Y114500D01*
X164500Y111250D01*
X165000Y111250D01*
D15*
X165000Y153375D02*
X158375Y160000D01*
D18*
X165209Y159948D02*
X165000Y154132D01*
X165209Y159948D02*
X163750Y160000D01*
X162439Y159357D02*
X165000Y154132D01*
X162439Y159357D02*
X163750Y160000D01*
D15*
X166096Y159207D02*
X164345Y154030D01*
X166096Y159207D02*
X163750Y160000D01*
X161607Y158759D02*
X164345Y154030D01*
X161607Y158759D02*
X163750Y160000D01*
M02*
