G04 EAGLE Gerber RS-274X export*
G75*
%MOMM*%
%FSLAX34Y34*%
%LPD*%
%INSilkscreen Top*%
%IPPOS*%
%AMOC8*
5,1,8,0,0,1.08239X$1,22.5*%
G01*
%ADD10C,0.050800*%
%ADD11C,0.127000*%
%ADD12C,0.800000*%


D10*
X115713Y160254D02*
X114019Y160254D01*
X113938Y160256D01*
X113858Y160262D01*
X113778Y160271D01*
X113699Y160285D01*
X113620Y160302D01*
X113542Y160323D01*
X113465Y160347D01*
X113390Y160375D01*
X113316Y160407D01*
X113243Y160442D01*
X113173Y160481D01*
X113104Y160523D01*
X113037Y160568D01*
X112972Y160616D01*
X112910Y160668D01*
X112851Y160722D01*
X112794Y160779D01*
X112740Y160838D01*
X112688Y160900D01*
X112640Y160965D01*
X112595Y161032D01*
X112553Y161101D01*
X112514Y161171D01*
X112479Y161244D01*
X112447Y161318D01*
X112419Y161393D01*
X112395Y161470D01*
X112374Y161548D01*
X112357Y161627D01*
X112343Y161706D01*
X112334Y161786D01*
X112328Y161866D01*
X112326Y161947D01*
X112326Y166181D01*
X112328Y166262D01*
X112334Y166342D01*
X112343Y166422D01*
X112357Y166501D01*
X112374Y166580D01*
X112395Y166658D01*
X112419Y166735D01*
X112447Y166810D01*
X112479Y166884D01*
X112514Y166957D01*
X112553Y167027D01*
X112595Y167096D01*
X112640Y167163D01*
X112688Y167228D01*
X112740Y167290D01*
X112794Y167349D01*
X112851Y167406D01*
X112910Y167460D01*
X112972Y167512D01*
X113037Y167560D01*
X113104Y167605D01*
X113172Y167647D01*
X113243Y167686D01*
X113316Y167721D01*
X113390Y167753D01*
X113465Y167781D01*
X113542Y167805D01*
X113620Y167826D01*
X113699Y167843D01*
X113778Y167857D01*
X113858Y167866D01*
X113938Y167872D01*
X114019Y167874D01*
X115713Y167874D01*
X118441Y166181D02*
X120557Y167874D01*
X120557Y160254D01*
X118441Y160254D02*
X122674Y160254D01*
X151814Y32754D02*
X153508Y32754D01*
X151814Y32754D02*
X151733Y32756D01*
X151653Y32762D01*
X151573Y32771D01*
X151494Y32785D01*
X151415Y32802D01*
X151337Y32823D01*
X151260Y32847D01*
X151185Y32875D01*
X151111Y32907D01*
X151038Y32942D01*
X150968Y32981D01*
X150899Y33023D01*
X150832Y33068D01*
X150767Y33116D01*
X150705Y33168D01*
X150646Y33222D01*
X150589Y33279D01*
X150535Y33338D01*
X150483Y33400D01*
X150435Y33465D01*
X150390Y33532D01*
X150348Y33601D01*
X150309Y33671D01*
X150274Y33744D01*
X150242Y33818D01*
X150214Y33893D01*
X150190Y33970D01*
X150169Y34048D01*
X150152Y34127D01*
X150138Y34206D01*
X150129Y34286D01*
X150123Y34366D01*
X150121Y34447D01*
X150121Y38681D01*
X150123Y38762D01*
X150129Y38842D01*
X150138Y38922D01*
X150152Y39001D01*
X150169Y39080D01*
X150190Y39158D01*
X150214Y39235D01*
X150242Y39310D01*
X150274Y39384D01*
X150309Y39457D01*
X150348Y39527D01*
X150390Y39596D01*
X150435Y39663D01*
X150483Y39728D01*
X150535Y39790D01*
X150589Y39849D01*
X150646Y39906D01*
X150705Y39960D01*
X150767Y40012D01*
X150832Y40060D01*
X150899Y40105D01*
X150967Y40147D01*
X151038Y40186D01*
X151111Y40221D01*
X151185Y40253D01*
X151260Y40281D01*
X151337Y40305D01*
X151415Y40326D01*
X151494Y40343D01*
X151573Y40357D01*
X151653Y40366D01*
X151733Y40372D01*
X151814Y40374D01*
X153508Y40374D01*
X156492Y32754D02*
X159879Y32754D01*
X156492Y32754D02*
X156492Y40374D01*
X159879Y40374D01*
X159032Y36987D02*
X156492Y36987D01*
X124579Y32754D02*
X122886Y32754D01*
X122805Y32756D01*
X122725Y32762D01*
X122645Y32771D01*
X122566Y32785D01*
X122487Y32802D01*
X122409Y32823D01*
X122332Y32847D01*
X122257Y32875D01*
X122183Y32907D01*
X122110Y32942D01*
X122040Y32981D01*
X121971Y33023D01*
X121904Y33068D01*
X121839Y33116D01*
X121777Y33168D01*
X121718Y33222D01*
X121661Y33279D01*
X121607Y33338D01*
X121555Y33400D01*
X121507Y33465D01*
X121462Y33532D01*
X121420Y33601D01*
X121381Y33671D01*
X121346Y33744D01*
X121314Y33818D01*
X121286Y33893D01*
X121262Y33970D01*
X121241Y34048D01*
X121224Y34127D01*
X121210Y34206D01*
X121201Y34286D01*
X121195Y34366D01*
X121193Y34447D01*
X121192Y34447D02*
X121192Y38681D01*
X121193Y38681D02*
X121195Y38762D01*
X121201Y38842D01*
X121210Y38922D01*
X121224Y39001D01*
X121241Y39080D01*
X121262Y39158D01*
X121286Y39235D01*
X121314Y39310D01*
X121346Y39384D01*
X121381Y39457D01*
X121420Y39527D01*
X121462Y39596D01*
X121507Y39663D01*
X121555Y39728D01*
X121607Y39790D01*
X121661Y39849D01*
X121718Y39906D01*
X121777Y39960D01*
X121839Y40012D01*
X121904Y40060D01*
X121971Y40105D01*
X122039Y40147D01*
X122110Y40186D01*
X122183Y40221D01*
X122257Y40253D01*
X122332Y40281D01*
X122409Y40305D01*
X122487Y40326D01*
X122566Y40343D01*
X122645Y40357D01*
X122725Y40366D01*
X122805Y40372D01*
X122886Y40374D01*
X124579Y40374D01*
X127961Y40374D02*
X127961Y32754D01*
X127114Y32754D02*
X128808Y32754D01*
X128808Y40374D02*
X127114Y40374D01*
X32754Y81893D02*
X32754Y85280D01*
X40374Y85280D01*
X40374Y81893D01*
X36987Y82740D02*
X36987Y85280D01*
X40374Y78953D02*
X32754Y78953D01*
X32754Y74720D02*
X40374Y78953D01*
X40374Y74720D02*
X32754Y74720D01*
X36987Y145686D02*
X36987Y146956D01*
X36987Y145686D02*
X32754Y145686D01*
X32754Y148226D01*
X32756Y148307D01*
X32762Y148387D01*
X32771Y148467D01*
X32785Y148546D01*
X32802Y148625D01*
X32823Y148703D01*
X32847Y148780D01*
X32875Y148855D01*
X32907Y148929D01*
X32942Y149002D01*
X32981Y149073D01*
X33023Y149141D01*
X33068Y149208D01*
X33116Y149273D01*
X33168Y149335D01*
X33222Y149394D01*
X33279Y149451D01*
X33338Y149505D01*
X33400Y149557D01*
X33465Y149605D01*
X33532Y149650D01*
X33601Y149692D01*
X33671Y149731D01*
X33744Y149766D01*
X33818Y149798D01*
X33893Y149826D01*
X33970Y149850D01*
X34048Y149871D01*
X34127Y149888D01*
X34206Y149902D01*
X34286Y149911D01*
X34366Y149917D01*
X34447Y149919D01*
X34447Y149920D02*
X38681Y149920D01*
X38681Y149919D02*
X38762Y149917D01*
X38842Y149911D01*
X38922Y149902D01*
X39001Y149888D01*
X39080Y149871D01*
X39158Y149850D01*
X39235Y149826D01*
X39310Y149798D01*
X39384Y149766D01*
X39457Y149731D01*
X39527Y149692D01*
X39596Y149650D01*
X39663Y149605D01*
X39728Y149557D01*
X39790Y149505D01*
X39849Y149451D01*
X39906Y149394D01*
X39960Y149335D01*
X40012Y149273D01*
X40060Y149208D01*
X40105Y149141D01*
X40147Y149073D01*
X40186Y149002D01*
X40221Y148929D01*
X40253Y148855D01*
X40281Y148780D01*
X40305Y148703D01*
X40326Y148625D01*
X40343Y148546D01*
X40357Y148467D01*
X40366Y148387D01*
X40372Y148307D01*
X40374Y148226D01*
X40374Y145686D01*
X40374Y142117D02*
X32754Y142117D01*
X32754Y137883D02*
X40374Y142117D01*
X40374Y137883D02*
X32754Y137883D01*
X32754Y134314D02*
X40374Y134314D01*
X40374Y132197D01*
X40372Y132107D01*
X40366Y132017D01*
X40357Y131928D01*
X40344Y131839D01*
X40326Y131751D01*
X40306Y131664D01*
X40281Y131577D01*
X40253Y131492D01*
X40221Y131408D01*
X40186Y131325D01*
X40147Y131244D01*
X40105Y131165D01*
X40060Y131087D01*
X40011Y131012D01*
X39959Y130938D01*
X39904Y130867D01*
X39846Y130798D01*
X39785Y130732D01*
X39722Y130669D01*
X39656Y130608D01*
X39587Y130550D01*
X39516Y130495D01*
X39442Y130443D01*
X39367Y130394D01*
X39289Y130349D01*
X39210Y130307D01*
X39129Y130268D01*
X39046Y130233D01*
X38962Y130201D01*
X38877Y130173D01*
X38790Y130148D01*
X38703Y130128D01*
X38615Y130110D01*
X38526Y130097D01*
X38437Y130088D01*
X38347Y130082D01*
X38257Y130080D01*
X34871Y130080D01*
X34781Y130082D01*
X34691Y130088D01*
X34602Y130097D01*
X34513Y130110D01*
X34425Y130128D01*
X34338Y130148D01*
X34251Y130173D01*
X34166Y130201D01*
X34082Y130233D01*
X33999Y130268D01*
X33918Y130307D01*
X33839Y130349D01*
X33761Y130394D01*
X33686Y130443D01*
X33612Y130495D01*
X33541Y130550D01*
X33472Y130608D01*
X33406Y130669D01*
X33343Y130732D01*
X33282Y130798D01*
X33224Y130867D01*
X33169Y130938D01*
X33117Y131012D01*
X33068Y131087D01*
X33023Y131165D01*
X32981Y131244D01*
X32942Y131325D01*
X32907Y131408D01*
X32875Y131492D01*
X32847Y131577D01*
X32822Y131664D01*
X32802Y131751D01*
X32784Y131839D01*
X32771Y131928D01*
X32762Y132017D01*
X32756Y132107D01*
X32754Y132197D01*
X32754Y134314D01*
X67754Y185309D02*
X75374Y185309D01*
X75374Y183192D01*
X75372Y183101D01*
X75366Y183010D01*
X75356Y182919D01*
X75343Y182829D01*
X75325Y182740D01*
X75304Y182651D01*
X75279Y182564D01*
X75250Y182477D01*
X75217Y182392D01*
X75181Y182309D01*
X75141Y182227D01*
X75098Y182147D01*
X75051Y182068D01*
X75001Y181992D01*
X74948Y181918D01*
X74892Y181847D01*
X74832Y181778D01*
X74770Y181711D01*
X74705Y181648D01*
X74637Y181587D01*
X74567Y181529D01*
X74494Y181474D01*
X74419Y181422D01*
X74342Y181374D01*
X74262Y181329D01*
X74181Y181287D01*
X74099Y181249D01*
X74014Y181215D01*
X73928Y181184D01*
X73841Y181157D01*
X73753Y181134D01*
X73664Y181115D01*
X73575Y181099D01*
X73484Y181087D01*
X73394Y181079D01*
X73303Y181075D01*
X73211Y181075D01*
X73120Y181079D01*
X73030Y181087D01*
X72939Y181099D01*
X72850Y181115D01*
X72761Y181134D01*
X72673Y181157D01*
X72586Y181184D01*
X72500Y181215D01*
X72415Y181249D01*
X72333Y181287D01*
X72252Y181329D01*
X72172Y181374D01*
X72095Y181422D01*
X72020Y181474D01*
X71947Y181529D01*
X71877Y181587D01*
X71809Y181648D01*
X71744Y181711D01*
X71682Y181778D01*
X71622Y181847D01*
X71566Y181918D01*
X71513Y181992D01*
X71463Y182068D01*
X71416Y182147D01*
X71373Y182227D01*
X71333Y182309D01*
X71297Y182392D01*
X71264Y182477D01*
X71235Y182564D01*
X71210Y182651D01*
X71189Y182740D01*
X71171Y182829D01*
X71158Y182919D01*
X71148Y183010D01*
X71142Y183101D01*
X71140Y183192D01*
X71141Y183192D02*
X71141Y185309D01*
X67754Y178078D02*
X67754Y174691D01*
X67754Y178078D02*
X75374Y178078D01*
X75374Y174691D01*
X71987Y175538D02*
X71987Y178078D01*
X40374Y184238D02*
X32754Y184238D01*
X40374Y184238D02*
X40374Y182121D01*
X40372Y182030D01*
X40366Y181939D01*
X40356Y181848D01*
X40343Y181758D01*
X40325Y181669D01*
X40304Y181580D01*
X40279Y181493D01*
X40250Y181406D01*
X40217Y181321D01*
X40181Y181238D01*
X40141Y181156D01*
X40098Y181076D01*
X40051Y180997D01*
X40001Y180921D01*
X39948Y180847D01*
X39892Y180776D01*
X39832Y180707D01*
X39770Y180640D01*
X39705Y180577D01*
X39637Y180516D01*
X39567Y180458D01*
X39494Y180403D01*
X39419Y180351D01*
X39342Y180303D01*
X39262Y180258D01*
X39181Y180216D01*
X39099Y180178D01*
X39014Y180144D01*
X38928Y180113D01*
X38841Y180086D01*
X38753Y180063D01*
X38664Y180044D01*
X38575Y180028D01*
X38484Y180016D01*
X38394Y180008D01*
X38303Y180004D01*
X38211Y180004D01*
X38120Y180008D01*
X38030Y180016D01*
X37939Y180028D01*
X37850Y180044D01*
X37761Y180063D01*
X37673Y180086D01*
X37586Y180113D01*
X37500Y180144D01*
X37415Y180178D01*
X37333Y180216D01*
X37252Y180258D01*
X37172Y180303D01*
X37095Y180351D01*
X37020Y180403D01*
X36947Y180458D01*
X36877Y180516D01*
X36809Y180577D01*
X36744Y180640D01*
X36682Y180707D01*
X36622Y180776D01*
X36566Y180847D01*
X36513Y180921D01*
X36463Y180997D01*
X36416Y181076D01*
X36373Y181156D01*
X36333Y181238D01*
X36297Y181321D01*
X36264Y181406D01*
X36235Y181493D01*
X36210Y181580D01*
X36189Y181669D01*
X36171Y181758D01*
X36158Y181848D01*
X36148Y181939D01*
X36142Y182030D01*
X36140Y182121D01*
X36141Y182121D02*
X36141Y184238D01*
X32754Y176609D02*
X40374Y176609D01*
X32754Y177456D02*
X32754Y175762D01*
X40374Y175762D02*
X40374Y177456D01*
X66747Y167874D02*
X66747Y160254D01*
X66747Y167874D02*
X68863Y167874D01*
X68954Y167872D01*
X69045Y167866D01*
X69136Y167856D01*
X69226Y167843D01*
X69315Y167825D01*
X69404Y167804D01*
X69491Y167779D01*
X69578Y167750D01*
X69663Y167717D01*
X69746Y167681D01*
X69828Y167641D01*
X69908Y167598D01*
X69987Y167551D01*
X70063Y167501D01*
X70137Y167448D01*
X70208Y167392D01*
X70277Y167332D01*
X70344Y167270D01*
X70407Y167205D01*
X70468Y167137D01*
X70526Y167067D01*
X70581Y166994D01*
X70633Y166919D01*
X70681Y166842D01*
X70726Y166762D01*
X70768Y166681D01*
X70806Y166599D01*
X70840Y166514D01*
X70871Y166428D01*
X70898Y166341D01*
X70921Y166253D01*
X70940Y166164D01*
X70956Y166075D01*
X70968Y165984D01*
X70976Y165894D01*
X70980Y165803D01*
X70980Y165711D01*
X70976Y165620D01*
X70968Y165530D01*
X70956Y165439D01*
X70940Y165350D01*
X70921Y165261D01*
X70898Y165173D01*
X70871Y165086D01*
X70840Y165000D01*
X70806Y164915D01*
X70768Y164833D01*
X70726Y164752D01*
X70681Y164672D01*
X70633Y164595D01*
X70581Y164520D01*
X70526Y164447D01*
X70468Y164377D01*
X70407Y164309D01*
X70344Y164244D01*
X70277Y164182D01*
X70208Y164122D01*
X70137Y164066D01*
X70063Y164013D01*
X69987Y163963D01*
X69908Y163916D01*
X69828Y163873D01*
X69746Y163833D01*
X69663Y163797D01*
X69578Y163764D01*
X69491Y163735D01*
X69404Y163710D01*
X69315Y163689D01*
X69226Y163671D01*
X69136Y163658D01*
X69045Y163648D01*
X68954Y163642D01*
X68863Y163640D01*
X68863Y163641D02*
X66747Y163641D01*
X69287Y163641D02*
X70980Y160254D01*
X74020Y166181D02*
X76137Y167874D01*
X76137Y160254D01*
X78253Y160254D02*
X74020Y160254D01*
X163217Y152285D02*
X163217Y147205D01*
X163217Y143994D02*
X163217Y138914D01*
X163217Y135704D02*
X163217Y130624D01*
X163217Y127413D02*
X163217Y122333D01*
X163217Y119122D02*
X163217Y114042D01*
X160254Y110610D02*
X167874Y110610D01*
X167874Y108494D01*
X167872Y108403D01*
X167866Y108312D01*
X167856Y108221D01*
X167843Y108131D01*
X167825Y108042D01*
X167804Y107953D01*
X167779Y107866D01*
X167750Y107779D01*
X167717Y107694D01*
X167681Y107611D01*
X167641Y107529D01*
X167598Y107449D01*
X167551Y107370D01*
X167501Y107294D01*
X167448Y107220D01*
X167392Y107149D01*
X167332Y107080D01*
X167270Y107013D01*
X167205Y106950D01*
X167137Y106889D01*
X167067Y106831D01*
X166994Y106776D01*
X166919Y106724D01*
X166842Y106676D01*
X166762Y106631D01*
X166681Y106589D01*
X166599Y106551D01*
X166514Y106517D01*
X166428Y106486D01*
X166341Y106459D01*
X166253Y106436D01*
X166164Y106417D01*
X166075Y106401D01*
X165984Y106389D01*
X165894Y106381D01*
X165803Y106377D01*
X165711Y106377D01*
X165620Y106381D01*
X165530Y106389D01*
X165439Y106401D01*
X165350Y106417D01*
X165261Y106436D01*
X165173Y106459D01*
X165086Y106486D01*
X165000Y106517D01*
X164915Y106551D01*
X164833Y106589D01*
X164752Y106631D01*
X164672Y106676D01*
X164595Y106724D01*
X164520Y106776D01*
X164447Y106831D01*
X164377Y106889D01*
X164309Y106950D01*
X164244Y107013D01*
X164182Y107080D01*
X164122Y107149D01*
X164066Y107220D01*
X164013Y107294D01*
X163963Y107370D01*
X163916Y107449D01*
X163873Y107529D01*
X163833Y107611D01*
X163797Y107694D01*
X163764Y107779D01*
X163735Y107866D01*
X163710Y107953D01*
X163689Y108042D01*
X163671Y108131D01*
X163658Y108221D01*
X163648Y108312D01*
X163642Y108403D01*
X163640Y108494D01*
X163641Y108494D02*
X163641Y110610D01*
X163641Y108070D02*
X160254Y106377D01*
X165969Y99104D02*
X166054Y99106D01*
X166140Y99112D01*
X166225Y99121D01*
X166309Y99135D01*
X166393Y99152D01*
X166476Y99173D01*
X166558Y99197D01*
X166638Y99225D01*
X166718Y99257D01*
X166796Y99293D01*
X166872Y99331D01*
X166946Y99374D01*
X167018Y99419D01*
X167089Y99468D01*
X167157Y99520D01*
X167222Y99574D01*
X167285Y99632D01*
X167346Y99693D01*
X167404Y99756D01*
X167458Y99821D01*
X167510Y99889D01*
X167559Y99960D01*
X167604Y100032D01*
X167647Y100106D01*
X167685Y100182D01*
X167721Y100260D01*
X167753Y100340D01*
X167781Y100420D01*
X167805Y100502D01*
X167826Y100585D01*
X167843Y100669D01*
X167857Y100753D01*
X167866Y100838D01*
X167872Y100924D01*
X167874Y101009D01*
X167872Y101105D01*
X167866Y101201D01*
X167857Y101297D01*
X167844Y101392D01*
X167827Y101487D01*
X167806Y101581D01*
X167782Y101674D01*
X167754Y101766D01*
X167723Y101857D01*
X167687Y101946D01*
X167649Y102034D01*
X167607Y102121D01*
X167562Y102205D01*
X167513Y102288D01*
X167461Y102369D01*
X167406Y102448D01*
X167348Y102525D01*
X167287Y102599D01*
X167223Y102671D01*
X167156Y102740D01*
X167087Y102807D01*
X167015Y102871D01*
X166941Y102932D01*
X166864Y102990D01*
X166785Y103045D01*
X166704Y103096D01*
X166621Y103145D01*
X166536Y103190D01*
X166450Y103232D01*
X166361Y103271D01*
X166272Y103306D01*
X166181Y103337D01*
X164487Y99739D02*
X164549Y99677D01*
X164613Y99618D01*
X164679Y99562D01*
X164748Y99508D01*
X164819Y99458D01*
X164893Y99410D01*
X164968Y99366D01*
X165045Y99325D01*
X165123Y99287D01*
X165203Y99253D01*
X165285Y99222D01*
X165368Y99194D01*
X165451Y99171D01*
X165536Y99150D01*
X165622Y99134D01*
X165708Y99121D01*
X165795Y99111D01*
X165882Y99106D01*
X165969Y99104D01*
X164487Y99739D02*
X160254Y103337D01*
X160254Y99104D01*
X163217Y95958D02*
X163217Y90878D01*
X163217Y87667D02*
X163217Y82587D01*
X163217Y79376D02*
X163217Y74296D01*
X163217Y71086D02*
X163217Y66006D01*
X163217Y62795D02*
X163217Y57715D01*
X40374Y120009D02*
X32754Y117469D01*
X40374Y114929D01*
X40374Y112027D02*
X32754Y112027D01*
X40374Y112027D02*
X40374Y109910D01*
X40372Y109820D01*
X40366Y109730D01*
X40357Y109641D01*
X40344Y109552D01*
X40326Y109464D01*
X40306Y109377D01*
X40281Y109290D01*
X40253Y109205D01*
X40221Y109121D01*
X40186Y109038D01*
X40147Y108957D01*
X40105Y108878D01*
X40060Y108800D01*
X40011Y108725D01*
X39959Y108651D01*
X39904Y108580D01*
X39846Y108511D01*
X39785Y108445D01*
X39722Y108382D01*
X39656Y108321D01*
X39587Y108263D01*
X39516Y108208D01*
X39442Y108156D01*
X39367Y108107D01*
X39289Y108062D01*
X39210Y108020D01*
X39129Y107981D01*
X39046Y107946D01*
X38962Y107914D01*
X38877Y107886D01*
X38790Y107861D01*
X38703Y107841D01*
X38615Y107823D01*
X38526Y107810D01*
X38437Y107801D01*
X38347Y107795D01*
X38257Y107793D01*
X38257Y107794D02*
X34871Y107794D01*
X34871Y107793D02*
X34781Y107795D01*
X34691Y107801D01*
X34602Y107810D01*
X34513Y107823D01*
X34425Y107841D01*
X34338Y107861D01*
X34251Y107886D01*
X34166Y107914D01*
X34082Y107946D01*
X33999Y107981D01*
X33918Y108020D01*
X33839Y108062D01*
X33761Y108107D01*
X33686Y108156D01*
X33612Y108208D01*
X33541Y108263D01*
X33472Y108321D01*
X33406Y108382D01*
X33343Y108445D01*
X33282Y108511D01*
X33224Y108580D01*
X33169Y108651D01*
X33117Y108725D01*
X33068Y108800D01*
X33023Y108878D01*
X32981Y108957D01*
X32942Y109038D01*
X32907Y109121D01*
X32875Y109205D01*
X32847Y109290D01*
X32822Y109377D01*
X32802Y109464D01*
X32784Y109552D01*
X32771Y109641D01*
X32762Y109730D01*
X32756Y109820D01*
X32754Y109910D01*
X32754Y112027D01*
X32754Y104224D02*
X40374Y104224D01*
X40374Y102107D01*
X40372Y102017D01*
X40366Y101927D01*
X40357Y101838D01*
X40344Y101749D01*
X40326Y101661D01*
X40306Y101574D01*
X40281Y101487D01*
X40253Y101402D01*
X40221Y101318D01*
X40186Y101235D01*
X40147Y101154D01*
X40105Y101075D01*
X40060Y100997D01*
X40011Y100922D01*
X39959Y100848D01*
X39904Y100777D01*
X39846Y100708D01*
X39785Y100642D01*
X39722Y100579D01*
X39656Y100518D01*
X39587Y100460D01*
X39516Y100405D01*
X39442Y100353D01*
X39367Y100304D01*
X39289Y100259D01*
X39210Y100217D01*
X39129Y100178D01*
X39046Y100143D01*
X38962Y100111D01*
X38877Y100083D01*
X38790Y100058D01*
X38703Y100038D01*
X38615Y100020D01*
X38526Y100007D01*
X38437Y99998D01*
X38347Y99992D01*
X38257Y99990D01*
X38257Y99991D02*
X34871Y99991D01*
X34871Y99990D02*
X34781Y99992D01*
X34691Y99998D01*
X34602Y100007D01*
X34513Y100020D01*
X34425Y100038D01*
X34338Y100058D01*
X34251Y100083D01*
X34166Y100111D01*
X34082Y100143D01*
X33999Y100178D01*
X33918Y100217D01*
X33839Y100259D01*
X33761Y100304D01*
X33686Y100353D01*
X33612Y100405D01*
X33541Y100460D01*
X33472Y100518D01*
X33406Y100579D01*
X33343Y100642D01*
X33282Y100708D01*
X33224Y100777D01*
X33169Y100848D01*
X33117Y100922D01*
X33068Y100997D01*
X33023Y101075D01*
X32981Y101154D01*
X32942Y101235D01*
X32907Y101318D01*
X32875Y101402D01*
X32847Y101487D01*
X32822Y101574D01*
X32802Y101661D01*
X32784Y101749D01*
X32771Y101838D01*
X32762Y101927D01*
X32756Y102017D01*
X32754Y102107D01*
X32754Y104224D01*
X32754Y25691D02*
X40374Y20611D01*
X40374Y25691D02*
X32754Y20611D01*
X32754Y17696D02*
X32754Y14309D01*
X32754Y17696D02*
X40374Y17696D01*
X40374Y14309D01*
X36987Y15156D02*
X36987Y17696D01*
X40374Y49539D02*
X32754Y54619D01*
X32754Y49539D02*
X40374Y54619D01*
X40374Y46227D02*
X32754Y46227D01*
X32754Y45381D02*
X32754Y47074D01*
X40374Y47074D02*
X40374Y45381D01*
D11*
X75950Y134450D02*
X114050Y134450D01*
X114050Y45550D02*
X75950Y45550D01*
D12*
X95000Y134450D03*
M02*
